<?xml version="1.0" encoding="UTF-8"?>
<svg width="32px" height="26px" viewBox="0 0 32 26" version="1.1" xmlns="http://www.w3.org/2000/svg" xmlns:xlink="http://www.w3.org/1999/xlink">
    <!-- Generator: Sketch 47 (45396) - http://www.bohemiancoding.com/sketch -->
    <title>icon / Suitcase</title>
    <desc>Created with Sketch.</desc>
    <defs></defs>
    <g id="Symbols" stroke="none" stroke-width="1" fill="none" fill-rule="evenodd">
        <g id="section-/-About" transform="translate(-443.000000, -43.000000)" fill-rule="nonzero" fill="#C8102E">
            <g id="component-/-About-/-Title">
                <g transform="translate(190.000000, 0.000000)">
                    <g id="icon-/-Suitcase" transform="translate(253.000000, 43.000000)">
                        <path d="M11.1627908,0 C10.3511071,0 9.67441873,0.675479807 9.67441873,1.48571386 L9.67441873,3.71428465 L4.09302342,3.71428465 C1.83836297,3.71428465 0,5.5493567 0,7.79999034 L0,21.9142869 C0,24.1649205 1.83836297,26 4.09302342,26 L27.9069768,26 C30.1616372,26 32,24.1649205 32,21.9142869 L32,7.79999034 C32,5.5493567 30.1616372,3.71428465 27.9069768,3.71428465 L22.3255815,3.71428465 L22.3255815,1.48571386 C22.3255815,0.675479807 21.6488927,0 20.8372094,0 L11.1627908,0 Z M11.1627908,1.48571386 L20.8372094,1.48571386 L20.8372094,3.71428465 L11.1627908,3.71428465 L11.1627908,1.48571386 Z M4.09302342,5.19999109 L27.9069768,5.19999109 C29.3628279,5.19999109 30.5116279,6.34673933 30.5116279,7.79999034 L30.5116279,10.7133638 C27.4620432,12.4402239 23.3937716,13.6294635 18.8372094,13.986592 C18.461641,12.7742866 17.3323904,11.8857035 16.0000001,11.8857035 C14.6676094,11.8857035 13.5383588,12.7742866 13.1627908,13.986592 C8.60048014,13.630355 4.54018621,12.4430467 1.48837227,10.7133638 L1.48837227,7.79999034 C1.48837227,6.34673933 2.63717226,5.19999109 4.09302342,5.19999109 Z M1.48837227,12.408021 C4.67239421,14.0540063 8.67614116,15.1458202 13.0930234,15.4839316 C13.3856481,16.8163941 14.5816336,17.8285738 16.0000001,17.8285738 C17.4183662,17.8285738 18.6143517,16.8163941 18.9069768,15.4839316 C23.3268581,15.1466745 27.3256782,14.054712 30.5116279,12.408021 L30.5116279,21.9142869 C30.5116279,23.3675379 29.3628279,24.5142861 27.9069768,24.5142861 L4.09302342,24.5142861 C2.63717226,24.5142861 1.48837227,23.3675379 1.48837227,21.9142869 L1.48837227,12.408021 Z M16.0000001,13.3714322 C16.830809,13.3714322 17.4883722,14.0278206 17.4883722,14.857146 C17.4883722,15.6864715 16.830809,16.3428599 16.0000001,16.3428599 C15.1691908,16.3428599 14.511628,15.6864715 14.511628,14.857146 C14.511628,14.0278206 15.1691908,13.3714322 16.0000001,13.3714322 Z" id="Shape"></path>
                    </g>
                </g>
            </g>
        </g>
    </g>
</svg>