<?xml version="1.0" encoding="UTF-8"?>
<svg width="30px" height="29px" viewBox="0 0 30 29" version="1.1" xmlns="http://www.w3.org/2000/svg" xmlns:xlink="http://www.w3.org/1999/xlink">
    <!-- Generator: Sketch 46.1 (44463) - http://www.bohemiancoding.com/sketch -->
    <title>icon / SPA</title>
    <desc>Created with Sketch.</desc>
    <defs></defs>
    <g id="Symbols" stroke="none" stroke-width="1" fill="none" fill-rule="evenodd">
        <g id="section-/-SPA" transform="translate(-877.000000, -208.000000)" fill-rule="nonzero" fill="#C8102E">
            <g id="component-/-Text">
                <g transform="translate(575.000000, 118.000000)">
                    <path d="M316.98499,102.975885 C315.363882,102.975885 314.012959,104.313761 314.012959,105.986107 C314.012959,107.628047 315.333862,108.99633 316.98499,108.99633 C318.606097,108.99633 319.95702,107.658453 319.95702,105.986107 C319.95702,104.313761 318.606097,102.975885 316.98499,102.975885 Z M316.98499,107.749672 C315.994313,107.749672 315.21378,106.959109 315.21378,105.955701 C315.21378,104.952294 315.994313,104.16173 316.98499,104.16173 C317.975667,104.16173 318.7562,104.952294 318.7562,105.955701 C318.7562,106.959109 317.975667,107.749672 316.98499,107.749672 Z M331.755081,100.725819 C331.634999,100.6346 328.572907,98.4453473 325.150569,98.4453473 C324.06983,98.4453473 323.079153,98.6581913 322.208559,99.0838794 C322.328641,98.5669725 322.358661,98.0196592 322.29862,97.4419397 C321.908354,93.5803408 317.525359,90.266055 317.345236,90.1140236 C317.135092,89.9619921 316.864908,89.9619921 316.654764,90.1140236 C316.474641,90.266055 312.091646,93.5499345 311.7314,97.4419397 C311.671359,98.0196592 311.70138,98.5669725 311.821462,99.1142857 C310.920847,98.6885976 309.900149,98.4757536 308.819411,98.4757536 C305.397072,98.4757536 302.365001,100.6346 302.244919,100.725819 C302.034775,100.877851 301.944714,101.151507 302.034775,101.425164 C302.124837,101.69882 304.256293,107.749672 308.909472,108.540236 C308.489185,108.935518 308.128939,109.391612 307.828734,109.938925 C305.967462,113.34443 307.468488,118.361468 307.528529,118.574312 C307.58857,118.817562 307.828734,119 308.068898,119 C308.068898,119 308.098918,119 308.15896,119 C308.609267,119 310.920847,118.939187 313.142364,118.026999 C315.003636,117.266841 316.294518,116.080996 316.98499,114.530275 C317.675461,116.05059 318.966343,117.236435 320.827615,118.026999 C323.019112,118.939187 325.360712,119 325.81102,119 C325.871061,119 325.901082,119 325.901082,119 C326.141246,119 326.38141,118.817562 326.441451,118.604718 C326.471471,118.513499 327.161943,116.445872 327.071881,114.043775 C327.01184,111.854522 326.321369,110.090957 325.120548,108.813893 C329.743707,108.418611 331.875163,101.759633 331.965225,101.45557 C332.055286,101.151507 331.965225,100.877851 331.755081,100.725819 Z M324.700261,107.567235 C324.099851,107.567235 323.46942,107.415203 322.808969,107.141547 C322.508764,107.019921 322.148518,107.141547 322.028436,107.445609 C321.998415,107.536828 321.968395,107.597641 321.968395,107.68886 C321.968395,107.93211 322.088477,108.144954 322.328641,108.236173 C324.580179,109.209174 325.780999,111.155177 325.871061,113.982962 C325.931102,115.594495 325.600876,117.053997 325.420753,117.753342 C323.709584,117.692529 317.555379,117.053997 317.555379,111.611271 C317.555379,111.276802 317.285195,111.003145 316.954969,111.003145 C316.624744,111.003145 316.354559,111.276802 316.354559,111.611271 C316.354559,117.053997 310.230375,117.692529 308.489185,117.753342 C308.18898,116.506684 307.498508,112.918742 308.819411,110.486239 C309.419821,109.391612 310.320436,108.692267 311.611318,108.357798 C311.881503,108.296986 312.061626,108.053735 312.061626,107.780079 C312.061626,107.719266 312.061626,107.68886 312.031605,107.628047 C311.941544,107.293578 311.611318,107.11114 311.311113,107.202359 C310.830785,107.323984 310.350457,107.384797 309.870129,107.384797 C306.057524,107.384797 303.896047,102.884666 303.295637,101.45557 C304.166232,100.908257 306.41777,99.661599 308.78939,99.661599 C310.500559,99.661599 311.971564,100.330537 313.142364,101.607602 C313.352508,101.850852 313.742775,101.881258 313.982939,101.638008 C314.103021,101.516383 314.163062,101.364351 314.163062,101.181913 C314.163062,101.029882 314.103021,100.877851 314.012959,100.786632 C313.112344,99.7832241 312.752098,98.7494102 312.87218,97.5331586 C313.142364,94.7661861 315.964292,92.1816514 316.98499,91.3302752 C318.005687,92.1816514 320.827615,94.7661861 321.0978,97.5331586 C321.217882,98.7190039 320.857636,99.7528178 319.987041,100.725819 C319.896979,100.847444 319.836938,100.999476 319.836938,101.121101 C319.836938,101.273132 319.896979,101.45557 320.017061,101.577195 C320.257225,101.790039 320.647492,101.790039 320.857636,101.546789 C321.998415,100.269725 323.4394,99.6311927 325.150569,99.6311927 C327.55221,99.6311927 329.803748,100.908257 330.674343,101.425164 C330.163994,102.915072 328.15262,107.567235 324.700261,107.567235 Z" id="icon-/-SPA"></path>
                </g>
            </g>
        </g>
    </g>
</svg>