<?xml version="1.0" encoding="UTF-8"?>
<svg width="47px" height="33px" viewBox="0 0 47 33" version="1.1" xmlns="http://www.w3.org/2000/svg" xmlns:xlink="http://www.w3.org/1999/xlink">
    <!-- Generator: Sketch 46.1 (44463) - http://www.bohemiancoding.com/sketch -->
    <title>icon / Accomodations</title>
    <desc>Created with Sketch.</desc>
    <defs></defs>
    <g id="Symbols" stroke="none" stroke-width="1" fill="none" fill-rule="evenodd">
        <g id="section-/-Accomodations" transform="translate(-322.000000, -122.000000)" fill="#C8102E">
            <g id="icon-/-Accomodations">
                <g transform="translate(322.000000, 122.000000)">
                    <path d="M1.51648278,30.7208286 L45.482995,30.7208286 L45.482995,26.2370106 L1.51648278,26.2370106 L1.51648278,30.7208286 Z M1.51596058,19.4123639 C1.51596058,16.6045491 3.74055309,14.3205524 6.47533971,14.3205524 L10.2832572,14.3205524 L23.4224526,14.3205524 L36.5616479,14.3205524 L40.5230937,14.3205524 C43.2578803,14.3205524 45.4824728,16.6045491 45.4824728,19.4123639 L45.4824728,24.6805686 L1.51596058,24.6805686 L1.51596058,19.4123639 Z M10.5777807,12.6359708 L10.5777807,8.62235581 C10.5777807,8.16233956 10.9422797,7.78757108 11.3908536,7.78757108 L20.2996678,7.78757108 C20.7477195,7.78757108 21.1122185,8.16233956 21.1122185,8.62235581 L21.1122185,12.6359708 L10.5777807,12.6359708 Z M25.8867371,12.6359708 L25.8867371,8.62235581 C25.8867371,8.16233956 26.2517583,7.78757108 26.69981,7.78757108 L35.6086242,7.78757108 C36.0571981,7.78757108 36.4216971,8.16233956 36.4216971,8.62235581 L36.4216971,12.6359708 L25.8867371,12.6359708 Z M5.98760041,6.86164094 C5.98760041,3.93640942 8.30514538,1.55697807 11.1542949,1.55697807 L35.6906103,1.55697807 C38.5397598,1.55697807 40.857827,3.93640942 40.857827,6.86164094 L40.857827,12.7641105 L40.5230937,12.7641105 L37.6749886,12.7641105 L37.6749886,8.62235581 C37.6749886,7.45247766 36.7480751,6.50081235 35.6086242,6.50081235 L26.69981,6.50081235 C25.5603591,6.50081235 24.6334456,7.45247766 24.6334456,8.62235581 L24.6334456,12.7641105 L22.3660322,12.7641105 L22.3660322,8.62235581 C22.3660322,7.45247766 21.4385965,6.50081235 20.2996678,6.50081235 L11.3908536,6.50081235 C10.2514027,6.50081235 9.32396698,7.45247766 9.32396698,8.62235581 L9.32396698,12.7641105 L6.47533971,12.7641105 L5.98760041,12.7641105 L5.98760041,6.86164094 Z M46.9994778,30.7208286 L46.9994778,25.9952071 L46.9994778,19.4123639 C46.9984334,16.4072461 45.0448652,13.8642892 42.3737875,13.0445167 L42.3737875,6.86164094 C42.3737875,3.07803412 39.3758097,0 35.6906103,0 L11.1542949,0 C7.46909547,0 4.47163983,3.07803412 4.47163983,6.86164094 L4.47163983,13.0938424 C1.87941513,13.9624045 0,16.4651503 0,19.4123639 L0,25.9952071 L0,32.221511 C0,32.6515028 0.33943313,33 0.758241392,33 C1.17704965,33 1.51648278,32.6515028 1.51648278,32.221511 L1.51648278,32.2209748 L45.482995,32.2209748 C45.482995,32.6509667 45.8224281,32.9994639 46.2412364,32.9994639 C46.6595225,32.9994639 46.9994778,32.6509667 46.9994778,32.2209748 L47,32.2209748 L47,30.7208286 L46.9994778,30.7208286 Z" id="Accomodations"></path>
                </g>
            </g>
        </g>
    </g>
</svg>