<?xml version="1.0" encoding="UTF-8"?>
<svg width="35px" height="26px" viewBox="0 0 35 26" version="1.1" xmlns="http://www.w3.org/2000/svg" xmlns:xlink="http://www.w3.org/1999/xlink">
    <!-- Generator: Sketch 46.1 (44463) - http://www.bohemiancoding.com/sketch -->
    <title>icon / restaurant</title>
    <desc>Created with Sketch.</desc>
    <defs></defs>
    <g id="Symbols" stroke="none" stroke-width="1" fill="none" fill-rule="evenodd">
        <g id="section-/-Restaurant" transform="translate(-380.000000, -218.000000)" fill-rule="nonzero" fill="#C8102E">
            <g id="component-/-Text">
                <g transform="translate(80.000000, 128.000000)">
                    <path d="M330.28047,114.572062 L304.71953,114.572062 C304.359765,114.572062 304,114.878049 304,115.286031 C304,115.694013 304.30837,116 304.71953,116 L330.28047,116 C330.640235,116 331,115.694013 331,115.286031 C331,114.878049 330.640235,114.572062 330.28047,114.572062 Z M334.28047,111.572062 L300.71953,111.572062 C300.359765,111.572062 300,111.878049 300,112.286031 C300,112.694013 300.30837,113 300.71953,113 L334.28047,113 C334.640235,113 335,112.694013 335,112.286031 C335,111.878049 334.640235,111.572062 334.28047,111.572062 Z M303.546256,109.889135 C303.906021,109.889135 304.265786,109.583149 304.265786,109.175166 C304.265786,101.933481 310.227606,96.0177384 317.525698,96.0177384 C324.823789,96.0177384 330.785609,101.933481 330.785609,109.175166 C330.785609,109.532151 331.093979,109.889135 331.50514,109.889135 C331.9163,109.889135 332.22467,109.583149 332.22467,109.175166 C332.22467,101.882483 326.776799,95.8137472 319.735683,94.7937916 C320.146843,94.2838137 320.403818,93.6718404 320.403818,92.9578714 C320.403818,91.3259424 319.067548,90 317.422907,90 C315.778267,90 314.441997,91.3259424 314.441997,92.9578714 C314.441997,93.6718404 314.698972,94.3348115 315.110132,94.8447894 C308.120411,95.9667406 302.826725,101.984479 302.826725,109.175166 C302.826725,109.583149 303.135095,109.889135 303.546256,109.889135 Z M317.371512,91.3769401 C318.245228,91.3769401 318.964758,92.0909091 318.964758,92.9578714 C318.964758,93.8248337 318.245228,94.5388027 317.371512,94.5388027 C316.497797,94.5388027 315.778267,93.8248337 315.778267,92.9578714 C315.778267,92.0909091 316.497797,91.3769401 317.371512,91.3769401 Z" id="icon-/-restaurant"></path>
                </g>
            </g>
        </g>
    </g>
</svg>