<?xml version="1.0" encoding="UTF-8"?>
<svg width="33px" height="16px" viewBox="0 0 33 16" version="1.1" xmlns="http://www.w3.org/2000/svg" xmlns:xlink="http://www.w3.org/1999/xlink">
    <!-- Generator: Sketch 47.1 (45422) - http://www.bohemiancoding.com/sketch -->
    <title>icon / Fitness</title>
    <desc>Created with Sketch.</desc>
    <defs></defs>
    <g id="SPA" stroke="none" stroke-width="1" fill="none" fill-rule="evenodd">
        <g transform="translate(-368.000000, -3722.000000)" id="section-/-Fitness-&amp;-Coach" fill="#C8102E">
            <g transform="translate(90.000000, 3627.000000)">
                <g id="Title" transform="translate(75.000000, 95.000000)">
                    <g id="icon-/-Fitness" transform="translate(203.000000, 0.000000)">
                        <path d="M0,5.71428571 L1.13793103,5.71428571 L1.13793103,10.2857143 L0,10.2857143 L0,5.71428571 Z M31.862069,5.71428571 L33,5.71428571 L33,10.2857143 L31.862069,10.2857143 L31.862069,5.71428571 Z M10.2413793,6.85714286 L22.7586207,6.85714286 L22.7586207,9.14285714 L10.2413793,9.14285714 L10.2413793,6.85714286 Z M6.82758621,0 L7.96551724,0 L7.96551724,16 L6.82758621,16 L6.82758621,0 Z M25.0344828,0 L26.1724138,0 L26.1724138,16 L25.0344828,16 L25.0344828,0 Z M3.4137931,2.28571429 L4.55172414,2.28571429 L4.55172414,13.7142857 L3.4137931,13.7142857 L3.4137931,2.28571429 Z M28.4482759,2.28571429 L29.5862069,2.28571429 L29.5862069,13.7142857 L28.4482759,13.7142857 L28.4482759,2.28571429 Z"></path>
                    </g>
                </g>
            </g>
        </g>
    </g>
</svg>