<?xml version="1.0" encoding="UTF-8"?>
<svg width="16px" height="24px" viewBox="0 0 16 24" version="1.1" xmlns="http://www.w3.org/2000/svg" xmlns:xlink="http://www.w3.org/1999/xlink">
    <!-- Generator: Sketch 46.1 (44463) - http://www.bohemiancoding.com/sketch -->
    <title>Fill 1</title>
    <desc>Created with Sketch.</desc>
    <defs></defs>
    <g id="Symbols" stroke="none" stroke-width="1" fill="none" fill-rule="evenodd">
        <g id="section-/-Restaurant" transform="translate(-192.000000, -613.000000)" fill="#979BA6">
            <g id="component-/-Text">
                <g transform="translate(80.000000, 128.000000)">
                    <g id="Item" transform="translate(95.000000, 472.000000)">
                        <g id="Icon">
                            <g id="awards" transform="translate(17.000000, 13.000000)">
                                <path d="M8.0381025,11.8932539 C5.76992506,11.8932539 3.89967349,10.0153098 3.89967349,7.73780316 C3.89967349,5.46029647 5.76992506,3.62230862 8.0381025,3.62230862 C10.3062799,3.62230862 12.1765315,5.50025273 12.1765315,7.77775941 C12.1765315,10.0552661 10.3062799,11.8932539 8.0381025,11.8932539 L8.0381025,11.8932539 Z M8.0381025,2.82318347 C5.33220661,2.82318347 3.10382176,5.0607339 3.10382176,7.77775941 C3.10382176,10.4947849 5.33220661,12.6923791 8.0381025,12.6923791 C10.7439984,12.6923791 12.9723832,10.4548287 12.9723832,7.73780316 C12.9723832,5.02077764 10.7439984,2.82318347 8.0381025,2.82318347 L8.0381025,2.82318347 Z M14.7630496,8.81662211 C14.5640867,9.13627217 14.3253312,9.41596597 14.2059534,9.77557229 C14.0865757,10.1351786 14.0865757,10.5347412 14.0865757,10.8943475 C14.0865757,11.3338663 14.0865757,11.7334289 13.8876127,12.0131227 C13.6886498,12.2528603 13.2907239,12.4126853 12.8927981,12.5725103 C12.5346648,12.6923791 12.1765315,12.8122479 11.8581908,13.0519854 C11.5398501,13.2517667 11.3408872,13.5714168 11.1021317,13.8910668 C10.8235836,14.2506731 10.584828,14.5703232 10.2664874,14.690192 C9.98793925,14.7701045 9.59001338,14.6502357 9.15229493,14.5303669 C8.79416165,14.4104982 8.39623578,14.2906294 8.0381025,14.2906294 C7.67996922,14.2906294 7.28204336,14.4104982 6.92391008,14.5303669 C6.52598421,14.6502357 6.12805834,14.7701045 5.80971765,14.690192 C5.49137696,14.5703232 5.25262144,14.2506731 4.97407333,13.8910668 C4.73531781,13.611373 4.53635488,13.291723 4.21801418,13.0519854 C3.89967349,12.8122479 3.54154021,12.6923791 3.18340693,12.5725103 C2.74568848,12.4126853 2.3875552,12.2928165 2.18859227,12.0131227 C1.98962933,11.7733852 1.98962933,11.3338663 1.98962933,10.8943475 C1.98962933,10.5347412 1.98962933,10.1351786 1.87025157,9.77557229 C1.75087381,9.41596597 1.55191088,9.13627217 1.31315536,8.81662211 C1.07439984,8.45701579 0.795851733,8.09740947 0.795851733,7.77775941 C0.795851733,7.45810935 1.03460725,7.09850303 1.31315536,6.73889672 C1.51211829,6.41924665 1.75087381,6.13955285 1.87025157,5.77994653 C1.98962933,5.42034021 1.98962933,5.02077764 1.98962933,4.66117132 C1.98962933,4.22165249 1.98962933,3.82208991 2.18859227,3.54239611 C2.3875552,3.30265856 2.78548107,3.14283353 3.18340693,2.9830085 C3.54154021,2.86313973 3.89967349,2.74327095 4.21801418,2.50353341 C4.53635488,2.30375212 4.73531781,1.98410206 4.97407333,1.664452 C5.25262144,1.30484568 5.49137696,0.98519562 5.80971765,0.865326847 C5.88930282,0.82537059 5.968888,0.82537059 6.04847317,0.82537059 C6.28722869,0.82537059 6.60556938,0.905283105 6.92391008,1.02515188 C7.28204336,1.10506439 7.64017664,1.22493317 8.0381025,1.22493317 C8.43602837,1.22493317 8.79416165,1.10506439 9.15229493,0.98519562 C9.5502208,0.865326847 9.94814666,0.745458074 10.2664874,0.82537059 C10.584828,0.945239362 10.8235836,1.26488942 11.1021317,1.62449574 C11.3408872,1.90418954 11.5398501,2.22383961 11.8581908,2.46357715 C12.1765315,2.7033147 12.5346648,2.82318347 12.8927981,2.94305224 C13.2907239,3.10287727 13.6886498,3.22274605 13.8876127,3.50243985 C14.0865757,3.74217739 14.0865757,4.18169623 14.0865757,4.62121506 C14.0865757,4.98082138 14.0865757,5.38038396 14.2059534,5.73999027 C14.3253312,6.09959659 14.5242941,6.3792904 14.7630496,6.69894046 C15.0018052,7.05854678 15.2803533,7.41815309 15.2803533,7.73780316 C15.2405607,8.09740947 15.0018052,8.45701579 14.7630496,8.81662211 L14.7630496,8.81662211 Z M8.31665061,19.7646367 C8.15748026,19.6443684 7.95851733,19.6443684 7.79934698,19.7646367 L3.66091797,23.2008748 L3.66091797,13.611373 C3.70071056,13.6513293 3.74050314,13.6513293 3.78029573,13.6912855 C3.97925866,13.8511106 4.1782216,14.0908481 4.37718453,14.3305857 C4.69552522,14.7301482 5.0536585,15.2096233 5.61075472,15.4094046 C5.76992506,15.4493609 5.92909541,15.4893171 6.08826576,15.4893171 C6.44639904,15.4893171 6.80453232,15.3694484 7.1626656,15.2895358 C7.48100629,15.2096233 7.79934698,15.0897546 8.07789509,15.0897546 C8.3564432,15.0897546 8.67478389,15.1696671 8.99312458,15.2895358 C9.51042821,15.4493609 10.0277318,15.6091859 10.584828,15.4493609 C11.1419243,15.2895358 11.5000575,14.8100608 11.8183982,14.3705419 C12.0173612,14.0908481 12.2163241,13.8511106 12.415287,13.7312418 C12.4550796,13.6912855 12.4948722,13.6912855 12.5346648,13.6513293 L12.5346648,23.2404315 L8.31665061,19.7646367 Z M15.399731,6.21946537 C15.2007681,5.93977156 15.0415978,5.70003402 14.9620126,5.46029647 C14.8824274,5.22055893 14.8824274,4.90090887 14.8824274,4.54130255 C14.8824274,3.98191494 14.8426348,3.42252733 14.5242941,2.9830085 C14.2059534,2.50353341 13.6488572,2.34370838 13.1315536,2.14392709 C12.8132129,2.02405832 12.5346648,1.9441458 12.3357019,1.78432077 C12.1367389,1.62449574 11.937776,1.3847582 11.7388131,1.14502065 C11.4204724,0.745458074 11.0623391,0.265982983 10.5052429,0.0662016952 C9.98793925,-0.0936233352 9.43084304,0.0662016952 8.91353941,0.226026726 C8.6349913,0.345895498 8.31665061,0.425808014 8.0381025,0.425808014 C7.7595544,0.425808014 7.4412137,0.345895498 7.12287301,0.226026726 C6.60556938,0.0662016952 6.08826576,-0.0936233352 5.53116954,0.0662016952 C4.97407333,0.226026726 4.61594005,0.705501817 4.29759936,1.14502065 C4.09863642,1.42471445 3.89967349,1.664452 3.70071056,1.78432077 C3.50174762,1.9441458 3.18340693,2.02405832 2.90485883,2.14392709 C2.42734779,2.30375212 1.87025157,2.50353341 1.51211829,2.9830085 C1.1937776,3.42252733 1.15398501,4.0218712 1.15398501,4.54130255 C1.15398501,4.86095261 1.15398501,5.18060267 1.07439984,5.46029647 C0.994814666,5.70003402 0.83564432,5.93977156 0.636681386,6.21946537 C0.318340693,6.6589842 0,7.13845929 0,7.73780316 C0,8.33714702 0.35813328,8.81662211 0.636681386,9.25614094 C0.83564432,9.53583475 0.994814666,9.77557229 1.07439984,10.0153098 C1.15398501,10.2550474 1.15398501,10.5746974 1.15398501,10.9343038 C1.15398501,11.4936914 1.1937776,12.053079 1.51211829,12.4925978 C1.83045899,12.9321166 2.34776261,13.1318979 2.82527365,13.291723 L2.82527365,23.2008748 C2.82527365,23.5205249 2.984444,23.8002187 3.26299211,23.9200875 C3.38236986,23.9600437 3.50174762,24 3.62112538,24 C3.82008832,24 3.97925866,23.9200875 4.13842901,23.8002187 L8.0381025,20.5637618 L11.8979834,23.8002187 C12.1367389,24 12.6074852,24.0115873 12.8864313,23.8917185 C13.1645814,23.7718498 13.3106202,23.447405 13.3106202,23.1277549 L13.3106202,13.218603 C13.7877333,13.058778 14.1661608,12.9321166 14.4845015,12.4925978 C14.8028422,12.053079 14.8426348,11.4537351 14.8426348,10.9343038 C14.8426348,10.6146537 14.8426348,10.2950036 14.92222,10.0153098 C15.0018052,9.77557229 15.1609755,9.53583475 15.3599384,9.25614094 C15.6782791,8.81662211 15.9966198,8.33714702 15.9966198,7.73780316 C16.0364124,7.17841555 15.7180717,6.6589842 15.399731,6.21946537 L15.399731,6.21946537 Z" id="Fill-1"></path>
                            </g>
                        </g>
                    </g>
                </g>
            </g>
        </g>
    </g>
</svg>