<?xml version="1.0" encoding="UTF-8"?>
<svg width="14px" height="17px" viewBox="0 0 14 17" version="1.1" xmlns="http://www.w3.org/2000/svg" xmlns:xlink="http://www.w3.org/1999/xlink">
    <!-- Generator: Sketch 47.1 (45422) - http://www.bohemiancoding.com/sketch -->
    <title>Fill 3</title>
    <desc>Created with Sketch.</desc>
    <defs></defs>
    <g id="Suites-&amp;-Rooms" stroke="none" stroke-width="1" fill="none" fill-rule="evenodd" opacity="0.5">
        <g id="Room-Page" transform="translate(-339.000000, -2271.000000)" stroke="#979BA6" stroke-width="0.2" fill="#979BA6">
            <g id="section-/-Amenity" transform="translate(260.000000, 2049.000000)">
                <g id="Item" transform="translate(76.000000, 220.000000)">
                    <g id="icon-/-Consierge" transform="translate(4.000000, 2.000000)">
                        <path d="M11.2427385,15.2877809 L0.757261498,15.2877809 C0.740931995,14.9306742 0.730508907,14.1517913 0.788232958,12.5221864 C0.863080652,10.4100768 2.53107244,9.54919377 3.11277998,9.31254709 L6.00002482,11.8553594 L8.88597918,9.31368664 C9.46326932,9.5534196 11.137515,10.4275499 11.211767,12.5221864 C11.2694911,14.1517913 11.2591176,14.9306742 11.2427385,15.2877809 M11.9558266,12.4980659 C11.899939,10.9205005 11.0773588,9.93350722 10.3971779,9.38334167 C9.66592392,8.79196237 8.94638345,8.57098451 8.91610686,8.5618681 L8.71062314,8.5 L6.00002482,10.8872636 L3.28937686,8.5 L3.08394277,8.5618681 C3.05361655,8.57098451 2.33407608,8.79196237 1.60282205,9.38334167 C0.922641152,9.93350722 0.100061022,10.9205005 0.0441734204,12.4980659 C-0.0497832673,15.1494204 0.0312190118,15.6511076 0.0582694052,15.7417493 L0.135400252,16 L11.8645997,16 L11.9417306,15.7417493 C11.968781,15.6511076 12.0497833,15.1494204 11.9558266,12.4980659 M7.68089054,12.7857143 L9.81818182,12.7857143 L9.81818182,12.1160714 L7.68089054,12.1160714 L7.68089054,12.7857143 Z M6.27829314,1.72806807 C5.01562152,1.72806807 3.98833819,3.0235924 3.98833819,4.61607143 C3.98833819,6.20855046 5.01562152,7.50407478 6.27829314,7.50407478 C7.54096475,7.50407478 8.56824808,6.20855046 8.56824808,4.61607143 C8.56824808,3.0235924 7.54096475,1.72806807 6.27829314,1.72806807 Z M6.27829314,8.23214286 C4.61836205,8.23214286 3.27272727,6.61316215 3.27272727,4.61607143 C3.27272727,2.61893217 4.61836205,1 6.27829314,1 C7.93822422,1 9.283859,2.61893217 9.283859,4.61607143 C9.283859,6.61316215 7.93822422,8.23214286 6.27829314,8.23214286 Z" id="Fill-3"></path>
                    </g>
                </g>
            </g>
        </g>
    </g>
</svg>