<?xml version="1.0" encoding="UTF-8"?>
<svg width="13px" height="16px" viewBox="0 0 13 16" version="1.1" xmlns="http://www.w3.org/2000/svg" xmlns:xlink="http://www.w3.org/1999/xlink">
    <!-- Generator: Sketch 47.1 (45422) - http://www.bohemiancoding.com/sketch -->
    <title>Fill 1</title>
    <desc>Created with Sketch.</desc>
    <defs></defs>
    <g id="Suites-&amp;-Rooms" stroke="none" stroke-width="1" fill="none" fill-rule="evenodd" opacity="0.5">
        <g id="Room-Page" transform="translate(-908.000000, -2111.000000)" fill="#979BA6">
            <g id="section-/-Amenity" transform="translate(260.000000, 2049.000000)">
                <g id="Item" transform="translate(645.000000, 60.000000)">
                    <g id="icon-/-MiniBar" transform="translate(3.000000, 2.000000)">
                        <path d="M6.52614272,5.04371911 L6.47369286,5.04371911 L0,5.04371911 L5.97352844,11.6841793 L5.97352844,14.963055 L2.9513318,14.963055 L2.9513318,16 L10.1009536,16 L10.1009536,14.963055 L7.07875699,14.963055 L7.07875699,11.6258511 L13,5.04371911 L6.52614272,5.04371911 Z M2.37931601,6.08097275 L6.47369286,6.08097275 L6.52614272,6.08097275 L10.6205196,6.08097275 L6.5,10.6614305 L2.37931601,6.08097275 Z M10.4686287,-7.10542736e-15 L10.4689576,-7.10542736e-15 L11.4091088,0.544704752 L9.18155212,3.93159558 L8.24123644,3.38673652 L10.4686287,-7.10542736e-15 Z" id="Fill-1"></path>
                    </g>
                </g>
            </g>
        </g>
    </g>
</svg>