<?xml version="1.0" encoding="UTF-8"?>
<svg width="20px" height="14px" viewBox="0 0 20 14" version="1.1" xmlns="http://www.w3.org/2000/svg" xmlns:xlink="http://www.w3.org/1999/xlink">
    <!-- Generator: Sketch 47.1 (45422) - http://www.bohemiancoding.com/sketch -->
    <title>Accomodations</title>
    <desc>Created with Sketch.</desc>
    <defs></defs>
    <g id="Suites-&amp;-Rooms" stroke="none" stroke-width="1" fill="none" fill-rule="evenodd" opacity="0.5">
        <g id="Room-Page" transform="translate(-620.000000, -2272.000000)" stroke="#979BA6" stroke-width="0.3" fill="#979BA6">
            <g id="section-/-Amenity" transform="translate(260.000000, 2049.000000)">
                <g id="Item" transform="translate(360.000000, 220.000000)">
                    <g id="icon-/-Bed">
                        <path d="M1.58078064,15.1712104 L18.4190194,15.1712104 L18.4190194,13.5407311 L1.58078064,13.5407311 L1.58078064,15.1712104 Z M1.58058065,11.0590414 C1.58058065,10.0380179 2.43255225,9.2074736 3.47991734,9.2074736 L4.93826872,9.2074736 L9.97030099,9.2074736 L15.0023333,9.2074736 L16.5194827,9.2074736 C17.5668478,9.2074736 18.4188194,10.0380179 18.4188194,11.0590414 L18.4188194,12.9747522 L1.58058065,12.9747522 L1.58058065,11.0590414 Z M5.05106496,8.59489846 L5.05106496,7.13540211 C5.05106496,6.96812348 5.19066031,6.83184403 5.36245458,6.83184403 L8.77434086,6.83184403 C8.94593514,6.83184403 9.08553048,6.96812348 9.08553048,7.13540211 L9.08553048,8.59489846 L5.05106496,8.59489846 Z M10.9140695,8.59489846 L10.9140695,7.13540211 C10.9140695,6.96812348 11.0538649,6.83184403 11.2254592,6.83184403 L14.6373454,6.83184403 C14.8091397,6.83184403 14.948735,6.96812348 14.948735,7.13540211 L14.948735,8.59489846 L10.9140695,8.59489846 Z M3.29312356,6.49514216 C3.29312356,5.43142161 4.18069398,4.56617384 5.2718576,4.56617384 L14.6687444,4.56617384 C15.759908,4.56617384 16.6476784,5.43142161 16.6476784,6.49514216 L16.6476784,8.64149472 L16.5194827,8.64149472 L15.428719,8.64149472 L15.428719,7.13540211 C15.428719,6.70999188 15.0737309,6.36393176 14.6373454,6.36393176 L11.2254592,6.36393176 C10.7890737,6.36393176 10.4340855,6.70999188 10.4340855,7.13540211 L10.4340855,8.64149472 L9.56571448,8.64149472 L9.56571448,7.13540211 C9.56571448,6.70999188 9.21052632,6.36393176 8.77434086,6.36393176 L5.36245458,6.36393176 C4.92606913,6.36393176 4.57088097,6.70999188 4.57088097,7.13540211 L4.57088097,8.64149472 L3.47991734,8.64149472 L3.29312356,8.64149472 L3.29312356,6.49514216 Z M18.9998,15.1712104 L18.9998,13.4528026 L18.9998,11.0590414 C18.9994,9.96627132 18.251225,9.04155971 17.2282591,8.7434606 L17.2282591,6.49514216 C17.2282591,5.11928513 16.0800973,4 14.6687444,4 L5.2718576,4 C3.86050465,4 2.71254292,5.11928513 2.71254292,6.49514216 L2.71254292,8.76139724 C1.71977601,9.07723802 1,9.98732738 1,11.0590414 L1,13.4528026 L1,15.7169131 C1,15.8732738 1.12999567,16 1.29039032,16 C1.45078497,16 1.58078064,15.8732738 1.58078064,15.7169131 L1.58078064,15.7167181 L18.4190194,15.7167181 C18.4190194,15.8730788 18.549015,15.999805 18.7094097,15.999805 C18.8696043,15.999805 18.9998,15.8730788 18.9998,15.7167181 L19,15.7167181 L19,15.1712104 L18.9998,15.1712104 Z" id="Accomodations"></path>
                    </g>
                </g>
            </g>
        </g>
    </g>
</svg>