<?xml version="1.0" encoding="UTF-8"?>
<svg width="18px" height="13px" viewBox="0 0 18 13" version="1.1" xmlns="http://www.w3.org/2000/svg" xmlns:xlink="http://www.w3.org/1999/xlink">
    <!-- Generator: Sketch 47.1 (45422) - http://www.bohemiancoding.com/sketch -->
    <title>Page 1</title>
    <desc>Created with Sketch.</desc>
    <defs></defs>
    <g id="Suites-&amp;-Rooms" stroke="none" stroke-width="1" fill="none" fill-rule="evenodd" opacity="0.5">
        <g id="Room-Page" transform="translate(-336.000000, -2113.000000)" fill="#979BA6">
            <g id="section-/-Amenity" transform="translate(260.000000, 2049.000000)">
                <g id="Item" transform="translate(75.000000, 60.000000)">
                    <g id="icon-/-Celebrity" transform="translate(1.000000, 4.000000)">
                        <path d="M3.12484332,9.85878046e-14 L0,4.7098831 L8.47994485,12.521254 L9,13 L9.51892705,12.521254 L18,4.7098831 L14.8745926,9.85878046e-14 L3.12484332,9.85878046e-14 Z M9.98370519,0.797024442 L14.0708198,0.797024442 L13.0831662,3.87725824 L9.98370519,0.797024442 Z M3.92918025,0.797024442 L8.01573076,0.797024442 L4.91683379,3.87725824 L3.92918025,0.797024442 Z M9,0.977683316 L12.2934946,4.25079702 L5.70594134,4.25079702 L9,0.977683316 Z M14.7753196,1.3544102 L16.6970419,4.25079702 L13.8468915,4.25079702 L14.7753196,1.3544102 Z M3.22355227,1.3544102 L4.1525445,4.25079702 L1.30239408,4.25079702 L3.22355227,1.3544102 Z M13.5344071,5.04782147 L16.422913,5.04782147 L10.5815994,10.4277365 L13.5344071,5.04782147 Z M5.41771121,5.04782147 L12.5822888,5.04782147 L9,11.5749203 L5.41771121,5.04782147 Z M1.57708699,5.04782147 L4.46502883,5.04782147 L7.41783655,10.4277365 L1.57708699,5.04782147 Z" id="Page-1"></path>
                    </g>
                </g>
            </g>
        </g>
    </g>
</svg>