<?xml version="1.0" encoding="UTF-8"?>
<svg width="16px" height="19px" viewBox="0 0 16 19" version="1.1" xmlns="http://www.w3.org/2000/svg" xmlns:xlink="http://www.w3.org/1999/xlink">
    <!-- Generator: Sketch 47.1 (45422) - http://www.bohemiancoding.com/sketch -->
    <title>Shape</title>
    <desc>Created with Sketch.</desc>
    <defs></defs>
    <g id="Suites-&amp;-Rooms" stroke="none" stroke-width="1" fill="none" fill-rule="evenodd" opacity="0.5">
        <g id="Room-Page" transform="translate(-622.000000, -2229.000000)" fill-rule="nonzero" fill="#979BA6">
            <g id="section-/-Amenity" transform="translate(260.000000, 2049.000000)">
                <g id="Item" transform="translate(360.000000, 180.000000)">
                    <g id="Group" transform="translate(2.000000, 0.000000)">
                        <path d="M13.6,4.44680851 L8.4,4.44680851 L8.4,8.89361702 C8.4,9.11688105 8.22091388,9.29787234 8,9.29787234 C7.77908612,9.29787234 7.6,9.11688105 7.6,8.89361702 L7.6,4.44680851 L2.4,4.44680851 L2.4,8.89361702 C2.4,9.11688105 2.2209139,9.29787234 2,9.29787234 C1.7790861,9.29787234 1.6,9.11688105 1.6,8.89361702 L1.6,0.404255319 C1.6,0.180991271 1.7790861,0 2,0 L14,0 C14.2209139,0 14.4,0.180991271 14.4,0.404255319 L14.4,8.89361702 C14.4,9.11688105 14.2209139,9.29787234 14,9.29787234 C13.7790861,9.29787234 13.6,9.11688105 13.6,8.89361702 L13.6,4.44680851 Z M13.6,3.63829787 L13.6,0.808510638 L8.4,0.808510638 L8.4,3.63829787 L13.6,3.63829787 Z M7.6,0.808510638 L2.4,0.808510638 L2.4,3.63829787 L7.6,3.63829787 L7.6,0.808510638 Z M10.0473021,10.9148936 C10.1505062,11.7419224 10.3984779,13.7318192 10.3968238,13.7451925 C10.2655788,14.8063223 10.0030888,16.9285817 10.0030888,16.9285817 C9.97568784,17.1501217 10.1311781,17.3521645 10.3503861,17.379857 C10.5695941,17.4075495 10.7695102,17.2504051 10.7969112,17.0288651 L11.1969112,13.7948225 C11.2010296,13.7615243 11.2010296,13.7278374 11.1969112,13.6945392 L10.8531129,10.9148936 L12.4473328,10.9148936 C12.5505828,11.7417015 12.7986229,13.7306465 12.797021,13.7435982 C12.6657103,14.8052594 12.4030888,16.9285817 12.4030888,16.9285817 C12.3756878,17.1501217 12.5311781,17.3521645 12.7503861,17.379857 C12.9695941,17.4075495 13.1695102,17.2504051 13.1969112,17.0288651 L13.5969112,13.7948225 C13.6010296,13.7615243 13.6010296,13.7278374 13.5969112,13.6945392 L13.2531129,10.9148936 L14.4878349,10.9148936 L15.1884337,13.7416721 L14.411943,16.8806771 C14.3583635,17.097275 14.4886678,17.3167592 14.7029858,17.3709087 C14.9173037,17.4250581 15.1344775,17.2933676 15.188057,17.0767697 L15.988057,13.8427272 C16.003981,13.7783535 16.003981,13.7110082 15.988057,13.6466345 L15.3123106,10.9148936 L15.6,10.9148936 C15.8209139,10.9148936 16,10.7339023 16,10.5106383 C16,10.2873743 15.8209139,10.106383 15.6,10.106383 L14.80897,10.106383 C14.8032082,10.1062558 14.7974281,10.1062551 14.7916329,10.106383 L12.8063091,10.106383 C12.8024473,10.1063263 12.7985753,10.1063261 12.7946936,10.106383 L10.4063091,10.106383 C10.4024473,10.1063263 10.3985753,10.1063261 10.3946936,10.106383 L5.60530639,10.106383 C5.60142473,10.1063261 5.59755267,10.1063263 5.59369109,10.106383 L3.2053064,10.106383 C3.20142474,10.1063261 3.19755268,10.1063263 3.1936911,10.106383 L1.20836714,10.106383 C1.20257194,10.1062551 1.19679181,10.1062558 1.19103016,10.106383 L0.4,10.106383 C0.1790861,10.106383 0,10.2873743 0,10.5106383 C0,10.7339023 0.1790861,10.9148936 0.4,10.9148936 L0.68768944,10.9148936 L0.011943,13.6466345 C-0.00398099999,13.7110082 -0.00398099999,13.7783535 0.011943,13.8427272 L0.811943,17.0767697 C0.865522492,17.2933676 1.08269629,17.4250581 1.29701425,17.3709087 C1.51133221,17.3167592 1.64163649,17.097275 1.588057,16.8806771 C1.588057,16.8806771 0.802242048,13.7853833 0.809334572,13.7567114 C1.00797653,12.9536908 1.35863143,11.5361497 1.51231056,10.9148936 L2.74688711,10.9148936 L2.40308885,13.6945392 C2.39897038,13.7278374 2.39897038,13.7615243 2.40308885,13.7948225 L2.80308885,17.0288651 C2.83048985,17.2504051 3.03040592,17.4075495 3.24961389,17.379857 C3.46882187,17.3521645 3.62431215,17.1501217 3.59691115,16.9285817 C3.59691115,16.9285817 3.20069896,13.7641977 3.20259287,13.7488853 C3.30089857,12.9540733 3.4727287,11.5648083 3.55311289,10.9148936 L5.1468871,10.9148936 L4.80308884,13.6945392 C4.7989704,13.7278374 4.7989704,13.7615243 4.80308884,13.7948225 L5.20308884,17.0288651 C5.23048984,17.2504051 5.43040592,17.4075495 5.64961388,17.379857 C5.86882188,17.3521645 6.02431216,17.1501217 5.99691116,16.9285817 C5.99691116,16.9285817 5.60061408,13.764884 5.60246552,13.7499147 C5.70080873,12.9547995 5.87270876,11.5649696 5.95311289,10.9148936 L7.6,10.9148936 L7.6,16.9787234 C7.6,17.2019874 7.77908612,17.3829787 8,17.3829787 C8.22091388,17.3829787 8.4,17.2019874 8.4,16.9787234 L8.4,10.9148936 L10.0473021,10.9148936 Z M14.4,17.3829787 L14.4,18.1914894 L1.6,18.1914894 L1.6,17.3829787 L14.4,17.3829787 Z M0.8,16.9787234 L0.8,18.5957447 C0.8,18.8190087 0.9790861,19 1.2,19 L14.8,19 C15.0209139,19 15.2,18.8190087 15.2,18.5957447 L15.2,16.9787234 C15.2,16.7554594 15.0209139,16.5744681 14.8,16.5744681 L1.2,16.5744681 C0.9790861,16.5744681 0.8,16.7554594 0.8,16.9787234 Z" id="Shape"></path>
                    </g>
                </g>
            </g>
        </g>
    </g>
</svg>