<?xml version="1.0" encoding="UTF-8"?>
<svg width="162px" height="120px" viewBox="0 0 162 120" version="1.1" xmlns="http://www.w3.org/2000/svg" xmlns:xlink="http://www.w3.org/1999/xlink">
    <!-- Generator: Sketch 46.1 (44463) - http://www.bohemiancoding.com/sketch -->
    <title>component / Logo / Light</title>
    <desc>Created with Sketch.</desc>
    <defs></defs>
    <g id="Symbols" stroke="none" stroke-width="1" fill="none" fill-rule="evenodd" opacity="0.699999988">
        <g id="component-/-Logo-/-Light">
            <g id="component-/-Logo-/-Light-Color">
                <g>
                    <g id="component-/-Logo">
                        <path d="M68.4633821,76.0904313 L80.5386947,76.0904313 L80.5386947,76.5595262 L68.4980868,76.5711687 C68.4980868,76.5711687 67.8526756,76.3625743 68.4633821,76.0904313 L68.4633821,76.0904313 Z M68.1245291,69.6380725 C68.1245291,69.6380725 67.921603,69.7739014 67.921603,69.1607309 C67.921603,69.1607309 67.9886023,68.8177629 68.3274553,68.8177629 C68.6672723,68.8177629 69.5156098,68.7852609 69.5156098,68.7852609 L69.5156098,68.5800623 L68.4980868,68.5800623 C68.4980868,68.5800623 68.0912705,68.2729919 68.3959007,67.9668917 L68.9376799,67.9668917 C68.9376799,67.9668917 69.5156098,67.0781825 69.9903896,67.9319643 L70.3634652,69.1607309 L74.5010384,69.1607309 C74.5010384,69.1607309 75.0770403,69.1607309 75.0432996,69.6380725 C75.0432996,69.6380725 75.891637,69.9111857 75.2814125,70.1168695 C75.2814125,70.1168695 74.6707059,70.1828435 74.6379292,70.4578971 C74.6027425,70.73004 74.6379292,74.9281239 74.6379292,74.9281239 C74.6379292,74.9281239 74.3993343,75.271577 74.5690018,75.271577 L75.9600824,75.271577 L75.9600824,71.4809799 C75.9600824,71.4809799 76.3664168,71.0026681 76.6045297,71.4465376 L76.6045297,75.5092776 C76.6045297,75.5092776 76.7737152,75.8338117 76.2815831,75.8338117 L68.8027171,75.8338117 C68.8027171,75.8338117 67.9886023,75.4059506 68.8027171,75.271577 L69.039866,75.271577 L69.039866,69.9791001 C69.039866,69.9791001 68.9728666,69.6725149 68.700531,69.6725149 C68.4301234,69.6725149 68.1245291,69.6380725 68.1245291,69.6380725 L68.1245291,69.6380725 Z M68.0903064,57.2495048 L68.0903064,56.5344625 L68.2435856,56.5344625 L68.2435856,52.7977119 L68.5414677,52.7977119 L68.5414677,56.5237903 L68.6672723,56.6513724 L70.3205664,56.6513724 L70.3205664,53.5336136 L70.4752915,53.5336136 L70.4752915,52.9922383 C70.8016123,52.4688119 71.0517754,52.9922383 71.0517754,52.9922383 L71.0517754,56.9793023 C71.0517754,57.2684238 70.7437711,57.2897684 70.7437711,57.2897684 L68.2816644,57.2897684 C68.1279032,57.2897684 68.0903064,57.2495048 68.0903064,57.2495048 L68.0903064,57.2495048 Z M69.6284001,55.3823422 L69.6284001,56.1759712 C69.6284001,56.3729232 69.4693368,56.5344625 69.2726768,56.5344625 C69.0760167,56.5344625 68.9164714,56.3729232 68.9164714,56.1759712 L68.9164714,55.3823422 C68.9164714,55.1844201 69.0760167,55.024336 69.2726768,55.024336 C69.4693368,55.024336 69.6284001,55.1844201 69.6284001,55.3823422 L69.6284001,55.3823422 Z M69.2533964,53.3400574 C69.0456501,53.3400574 68.8774286,53.1712415 68.8774286,52.9621619 L68.8774286,52.9054049 C68.8774286,52.6963253 69.0456501,52.525569 69.2533964,52.525569 C69.4596966,52.525569 69.6284001,52.6963253 69.6284001,52.9054049 L69.6284001,52.9621619 C69.6284001,53.1712415 69.4596966,53.3400574 69.2533964,53.3400574 L69.2533964,53.3400574 Z M68.2238232,50.4551482 L69.7440825,49.0813357 L69.8978437,49.0813357 L70.9553734,50.1451672 L70.9553734,51.886688 L70.3205664,51.886688 C70.109928,51.2686664 69.7243201,51.3652019 69.3777549,51.3652019 C69.0321538,51.3652019 68.5703883,51.9657598 68.5703883,51.9657598 L68.2238232,51.9080325 L68.2238232,50.4551482 Z M69.6486445,44.3792295 C70.20392,44.0794357 71.1669758,49.2166795 71.1669758,49.2166795 L69.7821613,48.0941505 L68.262384,49.3714274 C68.262384,48.8882645 69.6486445,44.3792295 69.6486445,44.3792295 L69.6486445,44.3792295 Z M72.0823126,57.7418846 C72.0823126,57.7418846 72.7118176,58.3152767 72.4727407,58.5568581 L70.8112525,58.5389093 L70.8112525,58.2968428 L71.3621898,57.7418846 L72.0823126,57.7418846 Z M72.2842748,65.667017 L72.6891631,65.7916886 C72.6891631,65.7916886 72.7195297,66.9467195 72.5946892,67.0723612 C72.4708126,67.1965477 72.2842748,67.0723612 72.2842748,67.0723612 L72.2842748,65.667017 Z M71.5713821,61.2307475 C71.5713821,60.9814044 71.7265893,60.9814044 71.7265893,60.9814044 L71.7882866,60.0456401 C72.6891631,59.6706553 72.4708126,60.4516716 72.4708126,60.7005296 C72.4708126,60.951328 72.6891631,61.2307475 72.6891631,61.2307475 L72.6891631,63.0430933 L72.5026253,63.2633302 L72.2842748,63.2633302 C72.2842748,63.2633302 72.1917289,63.2633302 72.0365217,63.2303432 C71.8817965,63.1992966 71.9748244,63.1061568 71.9116811,62.8558435 C71.8499838,62.6065004 71.8499838,62.5754538 71.6952586,62.2004689 C71.5410155,61.8254841 71.5713821,61.4805757 71.5713821,61.2307475 L71.5713821,61.2307475 Z M70.3306886,60.5443263 C70.3306886,60.5443263 70.7023182,59.8258883 70.888374,60.6069046 L70.8575254,62.1684521 L71.663928,64.4183612 L71.663928,68.5713304 L71.5087208,68.8522052 L70.8575254,68.8522052 L70.3306886,67.3221894 L70.3306886,60.5443263 Z M69.9580949,59.9820916 L69.9580949,66.7905162 C69.9580949,66.7905162 69.9580949,67.0723612 69.771075,67.0723612 L69.2750868,67.0723612 C69.2750868,67.0723612 69.0258877,66.8846263 69.0258877,66.3223916 L69.0258877,59.2340623 C69.0258877,59.2340623 69.3367841,59.0764038 69.6153858,59.0764038 C69.8954336,59.0764038 69.9580949,59.2947002 69.9580949,59.9820916 L69.9580949,59.9820916 Z M69.7898734,58.574807 L68.8181414,58.574807 C68.6860707,58.574807 68.6860707,58.4171484 68.6860707,58.4171484 C68.2773263,58.4171484 68.2416576,58.1513118 68.2416576,57.9465982 C68.2416576,57.7418846 68.3973468,57.7045317 68.3973468,57.7045317 L70.5220465,57.7045317 C70.5220465,58.4661438 69.7898734,58.574807 69.7898734,58.574807 L69.7898734,58.574807 Z M74.4470533,58.4171484 L73.1629789,58.4171484 C73.1629789,58.4171484 72.9108877,58.3395319 72.9108877,58.1149291 L72.9108877,57.8728625 C72.9108877,57.8728625 72.8752189,57.6924041 73.2227481,57.6924041 L74.5675558,57.6924041 C74.5675558,57.6924041 74.6870942,57.7176295 74.6870942,57.8728625 L74.6870942,58.2847152 C74.6870942,58.2847152 74.6388932,58.4171484 74.4470533,58.4171484 L74.4470533,58.4171484 Z M74.5188728,67.1034079 C74.4885061,67.1965477 74.2084584,67.1034079 74.2084584,67.1034079 L74.1785738,59.2646238 L74.5188728,59.2646238 C74.5188728,59.2646238 74.5511674,67.0097829 74.5188728,67.1034079 L74.5188728,67.1034079 Z M73.0598287,58.889639 L73.4015738,58.889639 C73.4015738,58.889639 73.4333864,67.0097829 73.4015738,67.1034079 C73.3716892,67.1965477 73.0921234,67.1034079 73.0921234,67.1034079 L73.0598287,58.889639 Z M73.5881116,67.5414561 C74.8297692,67.5414561 74.4885061,67.7597526 74.4885061,67.7597526 L74.4885061,68.9788172 L74.0233666,68.9788172 L73.9602233,68.3520637 L73.557745,68.3520637 C72.9364342,68.3520637 73.0299441,67.883939 73.0299441,67.883939 C73.0299441,67.883939 73.0299441,67.5414561 73.5881116,67.5414561 L73.5881116,67.5414561 Z M73.072361,54.3364596 L73.072361,56.1381332 C73.072361,56.3132554 72.9296861,56.456846 72.7537524,56.456846 C72.5787828,56.456846 72.4365899,56.3132554 72.4365899,56.1381332 L72.4365899,54.3364596 C72.4365899,54.1603671 72.5787828,54.0167765 72.7537524,54.0167765 C72.9296861,54.0167765 73.072361,54.1603671 73.072361,54.3364596 L73.072361,54.3364596 Z M72.7638746,53.3400574 C72.5566104,53.3400574 72.3888709,53.1712415 72.3888709,52.9621619 L72.3888709,52.9054049 C72.3888709,52.6963253 72.5566104,52.525569 72.7638746,52.525569 C72.9711389,52.525569 73.1379143,52.6963253 73.1379143,52.9054049 L73.1379143,52.9621619 C73.1379143,53.1712415 72.9711389,53.3400574 72.7638746,53.3400574 L72.7638746,53.3400574 Z M74.8991786,55.9528237 L74.8991786,56.0702187 C74.8991786,56.3050087 74.7097487,56.4946841 74.4759739,56.4946841 C74.2412351,56.4946841 74.0527692,56.3050087 74.0527692,56.0702187 L74.0527692,55.9528237 C74.0527692,55.7180337 74.2412351,55.526903 74.4759739,55.526903 C74.7097487,55.526903 74.8991786,55.7180337 74.8991786,55.9528237 L74.8991786,55.9528237 Z M71.4561817,56.9400089 C71.4576278,56.6431257 71.4744981,52.1020738 71.4744981,52.1020738 C71.4744981,52.1020738 72.3021091,50.6685936 72.8978734,49.7789142 L73.2058777,49.7789142 L74.8418194,52.4494078 L74.8418194,54.869103 L74.6485334,54.869103 L73.7158442,53.9294579 L73.7066861,52.3727615 C73.7066861,52.3727615 73.802124,51.4224441 72.783155,51.4224441 C72.783155,51.4224441 71.859624,51.3268788 71.859624,52.2354772 L71.859624,56.7280188 L75.3995049,56.7280188 L75.3995049,54.4237781 C75.3995049,54.4237781 75.7060632,54.0570401 75.937428,54.4237781 L75.937428,56.9210899 C75.937428,56.9210899 75.9759888,57.2601771 75.600985,57.2601771 L71.7444237,57.2601771 C71.5241451,57.2805514 71.4566637,56.89829 71.4561817,56.9400089 C71.4556997,56.9603832 71.4556997,56.9613534 71.4556997,56.9400089 C71.4556997,56.9400089 71.4561817,56.9414642 71.4561817,56.9400089 L71.4561817,56.9400089 Z M75.1483777,49.8933986 L75.1483777,51.4224441 C75.0910185,51.4224441 74.9758182,51.3652019 74.9758182,51.3652019 L73.8599652,49.6809233 C73.8599652,49.6809233 73.6955998,49.3806444 73.898526,49.1778712 C74.1004882,48.975098 74.3993343,49.0609613 74.3993343,49.0609613 L75.1483777,49.8933986 Z M72.7069975,48.4618588 C72.783155,48.4036464 72.879075,48.4225654 72.879075,48.4225654 L72.879075,47.76331 L74.2638895,43.8732668 L75.2071829,46.5258115 L75.1295793,48.7136274 L74.8798982,48.7136274 L74.2735297,48.1028823 C74.2735297,48.1028823 73.6483629,48.7524356 73.4946017,48.7524356 C73.3413225,48.7524356 73.4179621,48.5292881 73.2733591,48.5292881 C73.1287562,48.5292881 72.974995,48.5574241 72.974995,48.5574241 C72.974995,48.5574241 73.072361,48.7136274 72.9364342,48.7325464 C72.8024354,48.7524356 72.6298759,48.519586 72.7069975,48.4618588 L72.7069975,48.4618588 Z M73.8657493,39.8464244 C73.8657493,39.8464244 74.09133,39.1959009 74.8369993,39.1959009 C75.5831507,39.1959009 75.7653504,39.8784412 75.7653504,39.8784412 L75.7653504,41.3599466 C75.7653504,41.6970934 75.5778486,41.8110927 75.5778486,41.8110927 L74.4504274,41.8110927 L74.2523213,41.643247 L74.0633734,41.8222501 L74.0537332,42.0740187 L73.8657493,42.0740187 L73.8657493,39.8464244 Z M74.0330068,37.2094029 L74.8047047,35.1389821 L75.6723225,37.8710838 L75.3165992,37.8710838 L74.8369993,37.0303998 L74.3569174,37.9341472 L74.0330068,37.9453046 L74.0330068,37.2094029 Z M75.4375837,48.5385051 C75.4375837,48.5385051 75.937428,48.7713547 75.937428,49.5077414 L75.937428,52.7394995 C75.937428,52.7394995 75.4375837,52.8564094 75.4375837,52.4110846 L75.4375837,48.5385051 Z M74.5236929,42.3684764 C74.5236929,42.2404091 74.625879,42.1370821 74.7531296,42.1370821 L75.4737344,42.1370821 C75.599539,42.1370821 75.7031711,42.2404091 75.7031711,42.3684764 C75.7031711,42.4965436 75.599539,42.5993855 75.4737344,42.5993855 L74.7531296,42.5993855 C74.625879,42.5993855 74.5236929,42.4965436 74.5236929,42.3684764 L74.5236929,42.3684764 Z M75.0982487,42.9355621 L75.4004689,42.9355621 C75.6024311,42.9355621 75.7653504,43.1004972 75.7653504,43.3032704 C75.7653504,43.5065287 75.6024311,43.6709787 75.4004689,43.6709787 L75.0982487,43.6709787 C74.8953225,43.6709787 74.7324032,43.5065287 74.7324032,43.3032704 C74.7324032,43.1004972 74.8953225,42.9355621 75.0982487,42.9355621 L75.0982487,42.9355621 Z M75.7667965,46.0048106 C75.7667965,45.7627441 75.9639385,45.5657921 76.2054255,45.5657921 C76.4464304,45.5657921 76.6435725,45.7627441 76.6435725,46.0048106 L76.6435725,46.4646885 C76.6435725,46.7086955 76.4464304,46.9051623 76.2054255,46.9051623 C75.9639385,46.9051623 75.7667965,46.7086955 75.7667965,46.4646885 L75.7667965,46.0048106 Z M75.891637,35.4538141 L76.6329683,33.668634 L77.592168,37.1041355 L77.2378907,37.1041355 L76.7264782,36.3163278 L76.4030496,36.9993532 L76.2034974,37.0206977 L75.891637,36.5472369 L75.891637,35.4538141 Z M77.7449652,39.5427497 L80.5411047,30.6192748 L83.3353163,39.5427497 C83.3353163,39.5427497 83.3565247,42.1894733 83.2109577,42.1894733 C83.0663547,42.1894733 83.0244199,42.1060355 83.0244199,42.1060355 L80.5411047,34.0572018 L78.0558616,42.1060355 C78.0558616,42.1060355 78.0129627,42.1894733 77.8698057,42.1894733 C77.7242388,42.1894733 77.7449652,39.5427497 77.7449652,39.5427497 L77.7449652,39.5427497 Z M77.9107766,33.189352 L79.9183479,26.2509197 C79.9183479,26.2509197 79.9183479,25.9598577 80.2287623,25.9598577 L80.5411047,25.9598577 L80.8515191,25.9598577 C81.1624155,25.9598577 81.1614515,26.2509197 81.1614515,26.2509197 L83.1704689,33.189352 L83.1704689,36.2731536 L80.5411047,27.9322877 L77.9107766,36.2731536 L77.9107766,33.189352 Z M80.5411047,20.2511622 C81.2776159,20.9933703 81.2949683,22.7426527 81.2949683,23.0662166 C81.2949683,23.3907507 81.037575,23.5590815 81.037575,23.5590815 L80.5411047,23.5590815 L80.0427065,23.5590815 C80.0427065,23.5590815 79.7853132,23.3907507 79.7853132,23.0662166 C79.7853132,22.7426527 79.8031475,20.9933703 80.5411047,20.2511622 L80.5411047,20.2511622 Z M84.4477952,33.668634 L85.1891264,35.4538141 L85.1891264,36.5472369 L84.876784,37.0206977 L84.6772319,36.9993532 L84.3547672,36.3163278 L83.8428727,37.1041355 L83.4871494,37.1041355 L84.4477952,33.668634 Z M85.313003,46.4646885 C85.313003,46.7086955 85.1173069,46.9051623 84.875338,46.9051623 C84.633369,46.9051623 84.4362269,46.7086955 84.4362269,46.4646885 L84.4362269,46.0048106 C84.4362269,45.7627441 84.633369,45.5657921 84.875338,45.5657921 C85.1173069,45.5657921 85.313003,45.7627441 85.313003,46.0048106 L85.313003,46.4646885 Z M85.6793305,42.9355621 L85.9834788,42.9355621 C86.1849589,42.9355621 86.3483603,43.1004972 86.3483603,43.3032704 C86.3483603,43.5065287 86.1849589,43.6709787 85.9834788,43.6709787 L85.6793305,43.6709787 C85.4778504,43.6709787 85.315413,43.5065287 85.315413,43.3032704 C85.315413,43.1004972 85.4778504,42.9355621 85.6793305,42.9355621 L85.6793305,42.9355621 Z M85.315413,39.8784412 C85.315413,39.8784412 85.4971308,39.1959009 86.2442461,39.1959009 C86.9903975,39.1959009 87.2140501,39.8464244 87.2140501,39.8464244 L87.2140501,42.0740187 L87.0270302,42.0740187 L87.015944,41.8222501 L86.8289242,41.643247 L86.6303361,41.8110927 L85.5029149,41.8110927 C85.5029149,41.8110927 85.315413,41.6970934 85.315413,41.3599466 L85.315413,39.8784412 Z M86.2746128,35.1389821 L87.0482387,37.2094029 L87.0482387,37.9453046 L86.723364,37.9341472 L86.2442461,37.0303998 L85.7641642,37.8710838 L85.4089229,37.8710838 L86.2746128,35.1389821 Z M86.3276338,42.5993855 L85.607029,42.5993855 C85.4802604,42.5993855 85.3766283,42.4965436 85.3766283,42.3684764 C85.3766283,42.2404091 85.4802604,42.1370821 85.607029,42.1370821 L86.3276338,42.1370821 C86.4539204,42.1370821 86.5570706,42.2404091 86.5570706,42.3684764 C86.5570706,42.4965436 86.4539204,42.5993855 86.3276338,42.5993855 L86.3276338,42.5993855 Z M88.2007244,47.76331 L88.2007244,48.4225654 C88.2007244,48.4225654 88.2966444,48.4036464 88.373766,48.4618588 C88.4508876,48.519586 88.277846,48.7524356 88.1424012,48.7325464 C88.0084024,48.7136274 88.1048044,48.5574241 88.1048044,48.5574241 C88.1048044,48.5574241 87.9500792,48.5292881 87.8059583,48.5292881 C87.6628013,48.5292881 87.7399229,48.7524356 87.5851977,48.7524356 C87.4314366,48.7524356 86.8062697,48.1028823 86.8062697,48.1028823 L86.2013472,48.7136274 L85.9507021,48.7136274 L85.8740625,46.5258115 L86.8168739,43.8732668 L88.2007244,47.76331 Z M88.6432095,54.3364596 L88.6432095,56.1381332 C88.6432095,56.3132554 88.5010166,56.456846 88.326047,56.456846 C88.1496314,56.456846 88.0084024,56.3132554 88.0084024,56.1381332 L88.0084024,54.3364596 C88.0084024,54.1603671 88.1496314,54.0167765 88.326047,54.0167765 C88.5010166,54.0167765 88.6432095,54.1603671 88.6432095,54.3364596 L88.6432095,54.3364596 Z M88.3164068,53.3400574 C88.1091425,53.3400574 87.9409211,53.1712415 87.9409211,52.9621619 L87.9409211,52.9054049 C87.9409211,52.6963253 88.1091425,52.525569 88.3164068,52.525569 C88.5236711,52.525569 88.6909285,52.6963253 88.6909285,52.9054049 L88.6909285,52.9621619 C88.6909285,53.1712415 88.5236711,53.3400574 88.3164068,53.3400574 L88.3164068,53.3400574 Z M86.1815848,55.9528237 C86.1815848,55.7180337 86.3710147,55.526903 86.6047896,55.526903 C86.8380824,55.526903 87.0279943,55.7180337 87.0279943,55.9528237 L87.0279943,56.0702187 C87.0279943,56.3050087 86.8380824,56.4946841 86.6047896,56.4946841 C86.3710147,56.4946841 86.1815848,56.3050087 86.1815848,56.0702187 L86.1815848,55.9528237 Z M86.1044633,51.3652019 C86.1044633,51.3652019 85.9887809,51.4224441 85.9304577,51.4224441 L85.9304577,49.8933986 L86.6814291,49.0609613 C86.6814291,49.0609613 86.9797933,48.975098 87.1812734,49.1778712 C87.3837176,49.3806444 87.2203162,49.6809233 87.2203162,49.6809233 L86.1044633,51.3652019 Z M85.1423714,52.7394995 L85.1423714,49.5077414 C85.1423714,48.7713547 85.6426977,48.5385051 85.6426977,48.5385051 L85.6426977,52.4110846 C85.6426977,52.8564094 85.1423714,52.7394995 85.1423714,52.7394995 L85.1423714,52.7394995 Z M89.6053013,52.1020738 C89.6053013,52.1020738 89.6221717,56.6431257 89.6240997,56.9400089 C89.6231357,56.89829 89.5551723,57.2805514 89.3348937,57.2601771 L85.4792964,57.2601771 C85.1038107,57.2601771 85.1423714,56.9210899 85.1423714,56.9210899 L85.1423714,54.4237781 C85.3732542,54.0570401 85.6807765,54.4237781 85.6807765,54.4237781 L85.6807765,56.7280188 L89.2192114,56.7280188 L89.2192114,52.2354772 C89.2192114,51.3268788 88.2966444,51.4224441 88.2966444,51.4224441 C87.2786394,51.4224441 87.3740774,52.3727615 87.3740774,52.3727615 L87.3654012,53.9294579 L86.431266,54.869103 L86.239426,54.869103 L86.239426,52.4494078 L87.8729577,49.7789142 L88.181926,49.7789142 C88.7767263,50.6685936 89.6053013,52.1020738 89.6053013,52.1020738 L89.6053013,52.1020738 Z M90.269029,58.2968428 L90.269029,58.5389093 L88.6075408,58.5568581 C88.3679818,58.3152767 88.9979688,57.7418846 88.9979688,57.7418846 L89.7161636,57.7418846 L90.269029,58.2968428 Z M91.4316369,44.3792295 C91.4316369,44.3792295 92.8174154,48.8882645 92.8174154,49.3714274 L91.2971561,48.0941505 L89.9123416,49.2166795 C89.9123416,49.2166795 90.8763615,44.0794357 91.4316369,44.3792295 L91.4316369,44.3792295 Z M92.8550122,51.9080325 L92.5094111,51.9657598 C92.5094111,51.9657598 92.0471636,51.3652019 91.7005984,51.3652019 C91.3545153,51.3652019 90.9703534,51.2686664 90.758269,51.886688 L90.123944,51.886688 L90.123944,50.1451672 L91.1819558,49.0813357 L91.3357169,49.0813357 L92.8550122,50.4551482 L92.8550122,51.9080325 Z M91.4513993,52.9621619 L91.4513993,52.9054049 C91.4513993,52.6963253 91.6201028,52.525569 91.825921,52.525569 C92.0331853,52.525569 92.2018888,52.6963253 92.2018888,52.9054049 L92.2018888,52.9621619 C92.2018888,53.1712415 92.0331853,53.3400574 91.825921,53.3400574 C91.6201028,53.3400574 91.4513993,53.1712415 91.4513993,52.9621619 L91.4513993,52.9621619 Z M91.8071226,55.024336 C92.0037827,55.024336 92.16381,55.1844201 92.16381,55.3823422 L92.16381,56.1759712 C92.16381,56.3729232 92.0037827,56.5344625 91.8071226,56.5344625 C91.6114266,56.5344625 91.4513993,56.3729232 91.4513993,56.1759712 L91.4513993,55.3823422 C91.4513993,55.1844201 91.6114266,55.024336 91.8071226,55.024336 L91.8071226,55.024336 Z M92.990457,57.2495048 C92.990457,57.2495048 92.9518962,57.2897684 92.797653,57.2897684 L90.3355463,57.2897684 C90.3355463,57.2897684 90.028988,57.2684238 90.028988,56.9793023 L90.028988,52.9922383 C90.028988,52.9922383 90.2772231,52.4688119 90.6049899,52.9922383 L90.6049899,53.5336136 L90.758269,53.5336136 L90.758269,56.6513724 L92.4125271,56.6513724 L92.5388137,56.5237903 L92.5388137,52.7977119 L92.8362138,52.7977119 L92.8362138,56.5344625 L92.990457,56.5344625 L92.990457,57.2495048 Z M92.3937287,58.4171484 C92.3937287,58.4171484 92.3937287,58.574807 92.26214,58.574807 L91.289444,58.574807 C91.289444,58.574807 90.5577529,58.4661438 90.5577529,57.7045317 L92.6819706,57.7045317 C92.6819706,57.7045317 92.8371778,57.7418846 92.8371778,57.9465982 C92.8371778,58.1513118 92.8024731,58.4171484 92.3937287,58.4171484 L92.3937287,58.4171484 Z M91.1226685,66.7905162 L91.1226685,59.9820916 C91.1226685,59.2947002 91.1848478,59.0764038 91.4634496,59.0764038 C91.7420513,59.0764038 92.0539117,59.2340623 92.0539117,59.2340623 L92.0539117,66.3223916 C92.0539117,66.8846263 91.8051946,67.0723612 91.8051946,67.0723612 L91.3092064,67.0723612 C91.1226685,67.0723612 91.1226685,66.7905162 91.1226685,66.7905162 L91.1226685,66.7905162 Z M88.7945606,65.667017 L88.7945606,67.0723612 C88.7945606,67.0723612 88.6080228,67.1965477 88.4841462,67.0723612 C88.3607517,66.9467195 88.3916003,65.7916886 88.3916003,65.7916886 L88.7945606,65.667017 Z M90.1909434,60.6069046 C90.3769992,59.8258883 90.7500749,60.5443263 90.7500749,60.5443263 L90.7500749,67.3221894 L90.22372,68.8522052 L89.5715606,68.8522052 L89.4149074,68.5713304 L89.4149074,64.4183612 L90.22372,62.1684521 L90.1909434,60.6069046 Z M89.2924769,60.0456401 L89.3536921,60.9814044 C89.3536921,60.9814044 89.5093813,60.9814044 89.5093813,61.2307475 C89.5093813,61.4805757 89.54023,61.8254841 89.3850228,62.2004689 C89.2298156,62.5754538 89.2298156,62.6065004 89.1676363,62.8558435 C89.105457,63.1061568 89.1984849,63.1992966 89.0432777,63.2303432 C88.8880706,63.2633302 88.7945606,63.2633302 88.7945606,63.2633302 L88.5781382,63.2633302 L88.3916003,63.0430933 L88.3916003,61.2307475 C88.3916003,61.2307475 88.6080228,60.951328 88.6080228,60.7005296 C88.6080228,60.4516716 88.3916003,59.6706553 89.2924769,60.0456401 L89.2924769,60.0456401 Z M87.9163385,58.4171484 L86.6327461,58.4171484 C86.4409062,58.4171484 86.3931872,58.2847152 86.3931872,58.2847152 L86.3931872,57.8728625 C86.3931872,57.7176295 86.5132077,57.6924041 86.5132077,57.6924041 L87.8570513,57.6924041 C88.2055445,57.6924041 88.1684297,57.8728625 88.1684297,57.8728625 L88.1684297,58.1149291 C88.1684297,58.3395319 87.9163385,58.4171484 87.9163385,58.4171484 L87.9163385,58.4171484 Z M87.6777436,58.889639 L88.0199707,58.889639 L87.987676,67.1034079 C87.987676,67.1034079 87.7085923,67.1965477 87.6777436,67.1034079 C87.647377,67.0097829 87.6777436,58.889639 87.6777436,58.889639 L87.6777436,58.889639 Z M86.5609266,59.2646238 L86.9026717,59.2646238 L86.871341,67.1034079 C86.871341,67.1034079 86.5912933,67.1965477 86.5609266,67.1034079 C86.529596,67.0097829 86.5609266,59.2646238 86.5609266,59.2646238 L86.5609266,59.2646238 Z M87.4921698,67.5414561 C88.0498553,67.5414561 88.0498553,67.883939 88.0498553,67.883939 C88.0498553,67.883939 88.1424012,68.3520637 87.5225364,68.3520637 L87.1195761,68.3520637 L87.0573969,68.9788172 L86.5912933,68.9788172 L86.5912933,67.7597526 C86.5912933,67.7597526 86.2509943,67.5414561 87.4921698,67.5414561 L87.4921698,67.5414561 Z M93.1591605,69.1607309 C93.1591605,69.7739014 92.9547883,69.6380725 92.9547883,69.6380725 C92.9547883,69.6380725 92.649676,69.6725149 92.3787864,69.6725149 C92.1064508,69.6725149 92.0389694,69.9791001 92.0389694,69.9791001 L92.0389694,75.271577 L92.2761183,75.271577 C93.0911971,75.4059506 92.2761183,75.8338117 92.2761183,75.8338117 L84.7982164,75.8338117 C84.3056022,75.8338117 84.4752697,75.5092776 84.4752697,75.5092776 L84.4752697,71.4465376 C84.7124186,71.0026681 85.120681,71.4809799 85.120681,71.4809799 L85.120681,75.271577 L86.5107976,75.271577 C86.6804651,75.271577 86.4433162,74.9281239 86.4433162,74.9281239 C86.4433162,74.9281239 86.4780209,70.73004 86.4433162,70.4578971 C86.4100575,70.1828435 85.799351,70.1168695 85.799351,70.1168695 C85.1881624,69.9111857 86.0364999,69.6380725 86.0364999,69.6380725 C86.0022771,69.1607309 86.579725,69.1607309 86.579725,69.1607309 L90.7168162,69.1607309 L91.0898919,67.9319643 C91.5641896,67.0781825 92.1416375,67.9668917 92.1416375,67.9668917 L92.6843807,67.9668917 C92.989493,68.2729919 92.5821946,68.5800623 92.5821946,68.5800623 L91.5641896,68.5800623 L91.5641896,68.7852609 C91.5641896,68.7852609 92.4125271,68.8177629 92.7523441,68.8177629 C93.0911971,68.8177629 93.1591605,69.1607309 93.1591605,69.1607309 L93.1591605,69.1607309 Z M92.5821946,76.5711687 L80.5420688,76.5711687 L80.5420688,76.0904313 L92.6159353,76.0904313 C93.2266419,76.3625743 92.5821946,76.5711687 92.5821946,76.5711687 L92.5821946,76.5711687 Z M83.0543045,75.8173182 L81.1291568,75.8173182 C81.1291568,75.8173182 80.7883758,75.9114282 80.7883758,75.1925052 L80.7883758,65.7601569 L80.9122524,65.6049238 C80.9122524,65.6049238 81.0057623,65.4797672 81.2231488,65.4797672 L82.9607945,65.4797672 C82.9607945,65.4797672 83.4268981,65.5108138 83.4268981,65.9478918 L83.4268981,75.4433036 C83.4268981,75.4433036 83.4572648,75.8173182 83.0543045,75.8173182 L83.0543045,75.8173182 Z M84.2337827,64.0113595 C84.2337827,64.0113595 83.7517728,63.7464931 84.2641494,63.2303432 L85.070552,63.2303432 C85.070552,63.2303432 85.3510817,63.4166229 85.3510817,63.6053281 C85.3510817,63.7940332 85.2262412,64.0113595 85.2262412,64.0113595 L84.2337827,64.0113595 Z M84.6372251,68.8522052 C83.9224043,68.8522052 84.0472449,68.5407689 84.0472449,68.5407689 L84.0168783,64.511501 C84.4265867,64.1350608 84.9775241,64.511501 84.9775241,64.511501 C84.9775241,64.511501 85.0401853,67.7912843 85.0401853,68.3520637 C85.0401853,68.9157537 84.6372251,68.8522052 84.6372251,68.8522052 L84.6372251,68.8522052 Z M84.442011,70.6621256 C83.9677133,70.6621256 84.0004899,70.2182561 84.1706394,69.8418159 C84.3403069,69.4668311 84.9842722,69.8418159 84.9842722,69.8418159 L84.9842722,70.560739 C84.9842722,70.560739 85.1881624,70.6621256 84.442011,70.6621256 L84.442011,70.6621256 Z M86.1044633,71.4465376 L86.0692765,74.6225088 C85.799351,75.1338077 85.4942387,74.6225088 85.4942387,74.6225088 L85.4942387,71.4465376 C85.6296835,71.1394672 86.1044633,71.4465376 86.1044633,71.4465376 L86.1044633,71.4465376 Z M76.5953715,51.1697053 C76.7409385,51.1697053 76.859995,51.2890407 76.859995,51.436027 L76.859995,51.7013785 C76.859995,51.8473946 76.7409385,51.96673 76.5953715,51.96673 C76.4488405,51.96673 76.3307481,51.8473946 76.3307481,51.7013785 L76.3307481,51.436027 C76.3307481,51.2890407 76.4488405,51.1697053 76.5953715,51.1697053 L76.5953715,51.1697053 Z M76.6021197,49.4553503 C76.7245502,49.4553503 76.8233622,49.5543114 76.8233622,49.6784978 L76.8233622,50.1369204 C76.8233622,50.2611068 76.7245502,50.3615232 76.6021197,50.3615232 C76.4787251,50.3615232 76.3789491,50.2611068 76.3789491,50.1369204 L76.3789491,49.6784978 C76.3789491,49.5543114 76.4787251,49.4553503 76.6021197,49.4553503 L76.6021197,49.4553503 Z M76.7751612,48.5598496 L76.7751612,48.6326151 C76.7751612,48.7272103 76.6999677,48.8019162 76.6074218,48.8019162 C76.5148759,48.8019162 76.4396823,48.7272103 76.4396823,48.6326151 L76.4396823,48.5598496 C76.4396823,48.4667098 76.5148759,48.3915188 76.6074218,48.3915188 C76.6999677,48.3915188 76.7751612,48.4667098 76.7751612,48.5598496 L76.7751612,48.5598496 Z M76.7751612,47.9330962 C76.7751612,48.0335126 76.6946656,48.1135546 76.5953715,48.1135546 C76.4965595,48.1135546 76.4146178,48.0335126 76.4146178,47.9330962 C76.4146178,47.8317096 76.4965595,47.7516675 76.5953715,47.7516675 C76.6946656,47.7516675 76.7751612,47.8317096 76.7751612,47.9330962 L76.7751612,47.9330962 Z M76.2560365,42.7783886 C76.2560365,42.7783886 77.0489429,42.5368072 77.0489429,43.1771436 C77.0489429,43.1771436 77.007972,43.8921858 76.2560365,43.5341796 L76.2560365,42.7783886 Z M76.5481345,41.6539192 L76.7573268,41.6539192 C76.9366345,41.6539192 77.0812375,41.7999353 77.0812375,41.9794235 C77.0812375,42.159882 76.9366345,42.3054129 76.7573268,42.3054129 L76.5481345,42.3054129 C76.3693089,42.3054129 76.2256699,42.159882 76.2256699,41.9794235 C76.2256699,41.7999353 76.3693089,41.6539192 76.5481345,41.6539192 L76.5481345,41.6539192 Z M77.0812375,40.5988196 C77.0812375,40.8321543 76.8913256,41.023285 76.6589968,41.023285 C76.425704,41.023285 76.2357921,40.8321543 76.2357921,40.5988196 L76.2357921,38.5172414 C76.2357921,38.2824514 76.425704,38.0922909 76.6589968,38.0922909 C76.8913256,38.0922909 77.0812375,38.2824514 77.0812375,38.5172414 L77.0812375,40.5988196 Z M76.3553306,53.9115091 L76.3553306,52.7753972 C76.3553306,52.6298662 76.473905,52.511501 76.619472,52.511501 C76.766003,52.511501 76.8836134,52.6298662 76.8836134,52.7753972 L76.8836134,53.9115091 C76.8836134,54.0589805 76.766003,54.1763755 76.619472,54.1763755 C76.473905,54.1763755 76.3553306,54.0589805 76.3553306,53.9115091 L76.3553306,53.9115091 Z M76.8836134,57.3431297 L76.8836134,58.3327404 C76.8836134,58.4588673 76.7814273,58.5612241 76.6551407,58.5612241 C76.5293362,58.5612241 76.4276321,58.4588673 76.4276321,58.3327404 L76.4276321,57.3431297 C76.4276321,57.2150625 76.5293362,57.1136759 76.6551407,57.1136759 C76.7814273,57.1136759 76.8836134,57.2150625 76.8836134,57.3431297 L76.8836134,57.3431297 Z M76.6551407,56.5334923 C76.5090917,56.5334923 76.3909993,56.4136718 76.3909993,56.2676557 L76.3909993,54.963213 C76.3909993,54.8157416 76.5090917,54.6973764 76.6551407,54.6973764 C76.8016718,54.6973764 76.9202462,54.8157416 76.9202462,54.963213 L76.9202462,56.2676557 C76.9202462,56.4136718 76.8016718,56.5334923 76.6551407,56.5334923 L76.6551407,56.5334923 Z M84.0303746,43.1771436 C84.0303746,42.5368072 84.8237629,42.7783886 84.8237629,42.7783886 L84.8237629,43.5341796 C84.0718274,43.8921858 84.0303746,43.1771436 84.0303746,43.1771436 L84.0303746,43.1771436 Z M84.4849099,48.1135546 C84.3851339,48.1135546 84.3046382,48.0335126 84.3046382,47.9330962 C84.3046382,47.8317096 84.3851339,47.7516675 84.4849099,47.7516675 C84.584204,47.7516675 84.6646996,47.8317096 84.6646996,47.9330962 C84.6646996,48.0335126 84.584204,48.1135546 84.4849099,48.1135546 L84.4849099,48.1135546 Z M84.3046382,48.6326151 L84.3046382,48.5598496 C84.3046382,48.4667098 84.3803138,48.3915188 84.4733417,48.3915188 C84.5654056,48.3915188 84.6405991,48.4667098 84.6405991,48.5598496 L84.6405991,48.6326151 C84.6405991,48.7272103 84.5654056,48.8019162 84.4733417,48.8019162 C84.3803138,48.8019162 84.3046382,48.7272103 84.3046382,48.6326151 L84.3046382,48.6326151 Z M84.7008504,50.1369204 C84.7008504,50.2611068 84.6010743,50.3615232 84.4796078,50.3615232 C84.3557313,50.3615232 84.2574012,50.2611068 84.2574012,50.1369204 L84.2574012,49.6784978 C84.2574012,49.5543114 84.3557313,49.4553503 84.4796078,49.4553503 C84.6010743,49.4553503 84.7008504,49.5543114 84.7008504,49.6784978 L84.7008504,50.1369204 Z M84.7480873,51.7013785 C84.7480873,51.8473946 84.6309589,51.96673 84.4849099,51.96673 C84.3388609,51.96673 84.2217325,51.8473946 84.2217325,51.7013785 L84.2217325,51.436027 C84.2217325,51.2890407 84.3388609,51.1697053 84.4849099,51.1697053 C84.6309589,51.1697053 84.7480873,51.2890407 84.7480873,51.436027 L84.7480873,51.7013785 Z M84.196668,57.3431297 C84.196668,57.2150625 84.2988541,57.1136759 84.4256227,57.1136759 C84.5514273,57.1136759 84.6531314,57.2150625 84.6531314,57.3431297 L84.6531314,58.3327404 C84.6531314,58.4588673 84.5514273,58.5612241 84.4256227,58.5612241 C84.2988541,58.5612241 84.196668,58.4588673 84.196668,58.3327404 L84.196668,57.3431297 Z M84.196668,53.9115091 L84.196668,52.7753972 C84.196668,52.6298662 84.3152424,52.511501 84.4612914,52.511501 C84.6073404,52.511501 84.7239868,52.6298662 84.7239868,52.7753972 L84.7239868,53.9115091 C84.7239868,54.0589805 84.6073404,54.1763755 84.4612914,54.1763755 C84.3152424,54.1763755 84.196668,54.0589805 84.196668,53.9115091 L84.196668,53.9115091 Z M84.4256227,54.6973764 C84.5702257,54.6973764 84.6888001,54.8157416 84.6888001,54.963213 L84.6888001,56.2676557 C84.6888001,56.4136718 84.5702257,56.5334923 84.4256227,56.5334923 C84.2786097,56.5334923 84.1605172,56.4136718 84.1605172,56.2676557 L84.1605172,54.963213 C84.1605172,54.8157416 84.2786097,54.6973764 84.4256227,54.6973764 L84.4256227,54.6973764 Z M85.2503417,58.8062012 L85.2503417,58.161499 C85.2503417,58.0732102 85.3486717,58.0615677 85.3486717,58.0615677 L85.8586382,58.0615677 C85.948292,58.0615677 85.9622703,58.1639245 85.9622703,58.1639245 L86.0022771,58.1998221 C86.0022771,58.1998221 86.0099893,58.7960141 85.9723925,58.7960141 C85.9357598,58.7960141 85.9010551,58.8974007 85.9010551,58.8974007 L85.3404775,58.8974007 C85.2836004,58.8974007 85.2503417,58.8062012 85.2503417,58.8062012 L85.2503417,58.8062012 Z M85.7853727,60.0131382 C86.2808789,60.0131382 86.2808789,60.6384364 86.2808789,61.0129361 C86.2808789,61.3869507 86.0331258,61.6071876 86.0331258,61.6071876 L84.6054124,61.6071876 C84.4506872,61.6071876 84.5427511,60.7005296 84.5427511,60.7005296 C84.5205786,60.2605409 84.7919502,60.0131382 84.7919502,60.0131382 L85.7853727,60.0131382 Z M83.9985619,40.5988196 L83.9985619,38.5172414 C83.9985619,38.2824514 84.1884738,38.0922909 84.4217666,38.0922909 C84.6555414,38.0922909 84.8444893,38.2824514 84.8444893,38.5172414 L84.8444893,40.5988196 C84.8444893,40.8321543 84.6555414,41.023285 84.4217666,41.023285 C84.1884738,41.023285 83.9985619,40.8321543 83.9985619,40.5988196 L83.9985619,40.5988196 Z M84.3224726,41.6539192 L84.5326289,41.6539192 C84.7104906,41.6539192 84.8550935,41.7999353 84.8550935,41.9794235 C84.8550935,42.159882 84.7104906,42.3054129 84.5326289,42.3054129 L84.3224726,42.3054129 C84.1446109,42.3054129 83.9985619,42.159882 83.9985619,41.9794235 C83.9985619,41.7999353 84.1446109,41.6539192 84.3224726,41.6539192 L84.3224726,41.6539192 Z M80.5411047,60.6136961 L83.8607071,60.6136961 C83.8607071,60.6136961 84.1716035,60.6699681 84.1716035,60.8562477 L84.1716035,61.7944375 C84.1716035,61.7944375 84.0780935,62.012734 83.7054999,61.9186239 L80.5411047,61.9186239 L77.3747816,61.9186239 C77.0031519,62.012734 76.90916,61.7944375 76.90916,61.7944375 L76.90916,60.8562477 C76.90916,60.6699681 77.2195744,60.6136961 77.2195744,60.6136961 L80.5411047,60.6136961 Z M80.5411047,59.7958119 L83.518962,59.7958119 C83.7054999,59.8258883 83.4885954,60.2687876 83.4885954,60.2687876 L80.5411047,60.2687876 L77.591686,60.2687876 C77.591686,60.2687876 77.3747816,59.8258883 77.5613194,59.7958119 L80.5411047,59.7958119 Z M81.4424633,58.8149331 L80.5411047,58.8149331 L79.6383002,58.8149331 C79.3703026,58.8149331 79.4199497,58.5961515 79.4199497,58.5961515 L79.4199497,55.9998787 C79.4199497,55.5482476 79.6575805,55.5846303 79.6575805,55.5846303 L80.5411047,55.5846303 L81.4231829,55.5846303 C81.4231829,55.5846303 81.6603318,55.5482476 81.6603318,55.9998787 L81.6603318,58.5961515 C81.6603318,58.5961515 81.7099788,58.8149331 81.4424633,58.8149331 L81.4424633,58.8149331 Z M82.3202034,55.2004285 L80.5411047,55.2004285 L78.7600781,55.2004285 C78.7600781,55.2004285 78.6728343,55.188786 78.6728343,55.3643934 L78.6728343,58.518535 C78.6728343,58.518535 78.6549999,58.8062012 78.4872605,58.8062012 L78.3643479,58.8062012 C78.3643479,58.8062012 78.1966085,58.8062012 78.1966085,58.4549865 L78.1966085,55.2004285 C78.1966085,55.2004285 78.1349112,54.6183046 78.6058349,54.6183046 L80.5411047,54.6183046 L82.4744465,54.6183046 C82.9439242,54.6183046 82.883673,55.2004285 82.883673,55.2004285 L82.883673,58.4549865 C82.883673,58.8062012 82.7159335,58.8062012 82.7159335,58.8062012 L82.593021,58.8062012 C82.4257635,58.8062012 82.4079292,58.518535 82.4079292,58.518535 L82.4079292,55.3643934 C82.4079292,55.188786 82.3202034,55.2004285 82.3202034,55.2004285 L82.3202034,55.2004285 Z M77.8052164,53.760642 L80.5411047,53.760642 L83.275065,53.760642 C83.8419087,53.760642 83.8539589,54.3437361 83.8539589,54.3437361 L83.8539589,58.3574807 C83.8539589,58.7086955 83.6172921,58.7086955 83.6172921,58.7086955 L83.4423225,58.7086955 C83.2061376,58.7086955 83.1810731,58.4195739 83.1810731,58.4195739 L83.1810731,54.5067308 C83.1810731,54.3311234 83.0567145,54.3427659 83.0567145,54.3427659 L80.5411047,54.3427659 L78.0240489,54.3427659 C78.0240489,54.3427659 77.8992084,54.3311234 77.8992084,54.5067308 L77.8992084,58.4195739 C77.8992084,58.4195739 77.8736618,58.7086955 77.637477,58.7086955 L77.4629894,58.7086955 C77.4629894,58.7086955 77.2263225,58.7086955 77.2263225,58.3574807 L77.2263225,54.3437361 C77.2263225,54.3437361 77.2383728,53.760642 77.8052164,53.760642 L77.8052164,53.760642 Z M80.0166779,53.1916158 C79.9598008,53.2541941 79.8624348,53.2600154 79.7997735,53.2008328 L79.3727127,52.8156608 C79.3095694,52.7593888 79.3047493,52.6604277 79.3616265,52.5973643 C79.4180216,52.5338157 79.5149056,52.5294498 79.5790129,52.586692 L80.0055917,52.9733193 C80.067289,53.0305615 80.0735551,53.1275822 80.0166779,53.1916158 L80.0166779,53.1916158 Z M79.7983274,51.7610462 C79.7409683,51.8241096 79.6436023,51.8279905 79.580941,51.7712334 C79.5187617,51.7149614 79.5134596,51.6174556 79.5703368,51.5539071 L79.9540167,51.1226503 C80.0108938,51.0605571 80.1087418,51.0566762 80.1718851,51.111978 C80.2345464,51.1697053 80.2398485,51.2672111 80.1824894,51.3307596 L79.7983274,51.7610462 Z M80.8095843,52.4712374 C80.8095843,52.5784452 80.5420688,52.6128876 80.5420688,52.6128876 L80.5411047,52.323766 L80.5386947,52.6128876 C80.5386947,52.6128876 80.2702152,52.5784452 80.2702152,52.4712374 C80.2702152,52.3635445 80.5411047,52.323766 80.5411047,52.323766 C80.5411047,52.323766 80.8095843,52.3635445 80.8095843,52.4712374 L80.8095843,52.4712374 Z M80.8977921,51.3307596 C80.8413969,51.2672111 80.845253,51.1697053 80.9083963,51.111978 C80.9715396,51.0566762 81.0698696,51.0605571 81.1257828,51.1226503 L81.5109087,51.5539071 C81.5673039,51.6174556 81.5620017,51.7149614 81.4993405,51.7712334 C81.4366792,51.8279905 81.3393132,51.8241096 81.282436,51.7610462 L80.8977921,51.3307596 Z M81.0746897,52.9733193 L81.5027145,52.586692 C81.5648938,52.5294498 81.6622598,52.5338157 81.718655,52.5973643 C81.7755321,52.6604277 81.770712,52.7593888 81.7080508,52.8156608 L81.28099,53.2008328 C81.2173647,53.2600154 81.1199987,53.2541941 81.0640855,53.1916158 C81.0067263,53.1275822 81.0115464,53.0305615 81.0746897,52.9733193 L81.0746897,52.9733193 Z M82.8306519,51.3016534 L82.6971351,51.3016534 L82.6971351,50.4255569 L82.1384856,49.7231273 L82.1384856,50.3159235 C82.1384856,50.3159235 82.1471618,50.379472 82.0772704,50.379472 L81.7885464,50.379472 C81.7885464,50.379472 81.7273312,50.3862635 81.7273312,50.3004002 C81.7273312,50.2145369 80.5411047,48.6243684 80.5411047,48.6243684 C80.5411047,48.6243684 79.3534323,50.2145369 79.3534323,50.3004002 C79.3534323,50.3862635 79.291735,50.379472 79.291735,50.379472 L79.0034931,50.379472 C78.9350477,50.379472 78.9413138,50.3159235 78.9413138,50.3159235 L78.9413138,49.7231273 L78.3821823,50.4255569 L78.3821823,51.3016534 L78.2501116,51.3016534 C78.1339472,51.3016534 78.1035806,51.4103165 78.1035806,51.590775 C78.1035806,51.7697781 78.3821823,51.8954198 78.3821823,51.8954198 L78.3821823,52.6138578 C78.3821823,53.0829527 78.127199,53.0902292 78.127199,53.0902292 L77.7223107,53.0902292 C77.3501991,53.0902292 77.3569472,52.8253628 77.3569472,52.8253628 L77.3569472,51.5587581 C77.3569472,50.9174516 77.7531593,51.0120467 77.831245,50.9654768 C77.9088486,50.9174516 77.8471513,50.5822452 77.8698057,50.3862635 C77.8924602,50.1917371 78.1378033,50.0452359 78.3653119,49.815782 C78.5933026,49.5863282 78.5316054,49.5232647 78.5316054,49.5232647 C78.1580477,48.3148725 79.4633305,47.9825767 79.4633305,47.9825767 C79.4633305,46.5447306 80.5411047,46.579658 80.5411047,46.579658 C80.5411047,46.579658 81.6179149,46.5447306 81.6179149,47.9825767 C81.6179149,47.9825767 82.9212697,48.3148725 82.5491581,49.5232647 C82.5491581,49.5232647 82.4864968,49.5863282 82.7135235,49.815782 C82.9429602,50.0452359 83.1873392,50.1917371 83.2099937,50.3862635 C83.2340942,50.5822452 83.1719149,50.9174516 83.2490365,50.9654768 C83.3271221,51.0120467 83.7233342,50.9174516 83.7233342,51.5587581 L83.7233342,52.8253628 C83.7233342,52.8253628 83.7305644,53.0902292 83.3579707,53.0902292 L82.9535644,53.0902292 C82.9535644,53.0902292 82.6971351,53.0829527 82.6971351,52.6138578 L82.6971351,51.8954198 C82.6971351,51.8954198 82.9771829,51.7697781 82.9771829,51.590775 C82.9771829,51.4103165 82.9468163,51.3016534 82.8306519,51.3016534 L82.8306519,51.3016534 Z M82.7352139,43.23099 C82.7352139,43.23099 82.7135235,43.3988358 82.7352139,43.5448518 C82.7549763,43.6903828 82.2797145,43.6685532 82.2797145,43.6685532 L82.2797145,42.4611311 C82.2797145,42.4611311 82.3211674,42.5644581 82.3833467,42.6265513 C82.4460079,42.6896147 82.6325458,42.7934269 82.6325458,42.7934269 L82.5703665,43.1271779 L82.7352139,43.23099 Z M79.9598008,42.3772082 L79.9598008,44.6896956 C79.6903572,44.6896956 79.4218777,44.1269758 79.4218777,44.1269758 L79.4218777,42.751708 C79.4218777,42.3970975 79.9598008,42.3772082 79.9598008,42.3772082 L79.9598008,42.3772082 Z M81.6579217,42.751708 L81.6579217,44.1269758 C81.6579217,44.1269758 81.3899242,44.6896956 81.1209627,44.6896956 L81.1209627,42.3772082 C81.1209627,42.3772082 81.6579217,42.3970975 81.6579217,42.751708 L81.6579217,42.751708 Z M80.5411047,41.1198205 C80.5411047,41.1198205 79.5250278,42.1477544 79.4218777,42.1477544 C79.3177636,42.1477544 79.0068672,42.12738 78.8839546,42.0856612 C78.7591141,42.0439423 78.8420198,41.5438008 78.8420198,41.5438008 L80.5411047,36.2993492 L82.2382617,41.5438008 C82.2382617,41.5438008 82.3211674,42.0439423 82.1968088,42.0856612 C82.0719682,42.12738 81.7629999,42.1477544 81.6579217,42.1477544 C81.5552536,42.1477544 80.5411047,41.1198205 80.5411047,41.1198205 L80.5411047,41.1198205 Z M78.3450675,43.23099 L78.5108789,43.1271779 L78.4482177,42.7934269 C78.4482177,42.7934269 78.6347555,42.6896147 78.6974168,42.6265513 C78.7591141,42.5644581 78.8005669,42.4611311 78.8005669,42.4611311 L78.8005669,43.6685532 C78.8005669,43.6685532 78.3248231,43.6903828 78.3450675,43.5448518 C78.3653119,43.3988358 78.3450675,43.23099 78.3450675,43.23099 L78.3450675,43.23099 Z M77.931503,45.4605247 L80.5411047,45.4605247 L83.1492604,45.4605247 C83.8742033,45.4605247 83.7296004,46.1697457 83.7296004,46.1697457 C83.7296004,46.1697457 83.7912976,49.5446093 83.6881475,49.4606864 C83.5835514,49.3777338 82.5077052,47.3150746 82.5077052,47.3150746 C81.865668,46.1265715 80.5411047,46.1542224 80.5411047,46.1542224 C80.5411047,46.1542224 79.2146134,46.1265715 78.5730582,47.3150746 C78.5730582,47.3150746 77.4962481,49.3777338 77.3926159,49.4606864 C77.2889838,49.5446093 77.3516451,46.1697457 77.3516451,46.1697457 C77.3516451,46.1697457 77.2060781,45.4605247 77.931503,45.4605247 L77.931503,45.4605247 Z M75.0794503,58.1998221 L75.1194571,58.1639245 C75.1194571,58.1639245 75.1305434,58.0615677 75.2216432,58.0615677 L75.7316097,58.0615677 C75.7316097,58.0615677 75.8299398,58.0732102 75.8299398,58.161499 L75.8299398,58.8062012 C75.8299398,58.8062012 75.7966811,58.8974007 75.7398039,58.8974007 L75.1787444,58.8974007 C75.1787444,58.8974007 75.1450037,58.7960141 75.1069249,58.7960141 C75.0688461,58.7960141 75.0794503,58.1998221 75.0794503,58.1998221 L75.0794503,58.1998221 Z M75.2958728,60.0131382 L76.2888132,60.0131382 C76.2888132,60.0131382 76.5597028,60.2605409 76.5365663,60.7005296 C76.5365663,60.7005296 76.6300762,61.6071876 76.475351,61.6071876 L75.0466736,61.6071876 C75.0466736,61.6071876 74.7989205,61.3869507 74.7989205,61.0129361 C74.7989205,60.6384364 74.7989205,60.0131382 75.2958728,60.0131382 L75.2958728,60.0131382 Z M75.5865247,71.4465376 L75.5865247,74.6225088 C75.5865247,74.6225088 75.2814125,75.1338077 75.0105229,74.6225088 L74.9758182,71.4465376 C74.9758182,71.4465376 75.45108,71.1394672 75.5865247,71.4465376 L75.5865247,71.4465376 Z M75.5749565,62.6996402 C75.2332115,62.6996402 75.5749565,62.2067753 75.5749565,62.2067753 L80.5411047,62.2067753 L85.5058069,62.2067753 C85.5058069,62.2067753 85.847552,62.6996402 85.5058069,62.6996402 L80.5411047,62.6996402 L75.5749565,62.6996402 Z M75.8535582,64.0113595 C75.8535582,64.0113595 75.7291997,63.7940332 75.7291997,63.6053281 C75.7291997,63.4166229 76.0087654,63.2303432 76.0087654,63.2303432 L76.815168,63.2303432 C77.3280266,63.7464931 76.8464987,64.0113595 76.8464987,64.0113595 L75.8535582,64.0113595 Z M76.6373064,70.6621256 C75.892601,70.6621256 76.0955272,70.560739 76.0955272,70.560739 L76.0955272,69.8418159 C76.0955272,69.8418159 76.7399745,69.4668311 76.90916,69.8418159 C77.0788275,70.2182561 77.1130502,70.6621256 76.6373064,70.6621256 L76.6373064,70.6621256 Z M76.4440204,68.8522052 C76.4440204,68.8522052 76.0400961,68.9157537 76.0400961,68.3520637 C76.0400961,67.7912843 76.1027574,64.511501 76.1027574,64.511501 C76.1027574,64.511501 76.6532127,64.1350608 77.0638852,64.511501 L77.0325545,68.5407689 C77.0325545,68.5407689 77.1578771,68.8522052 76.4440204,68.8522052 L76.4440204,68.8522052 Z M80.2919056,65.7601569 L80.2919056,75.1925052 C80.2919056,75.9114282 79.9496786,75.8173182 79.9496786,75.8173182 L78.026459,75.8173182 C77.6230167,75.8173182 77.6533833,75.4433036 77.6533833,75.4433036 L77.6533833,65.9478918 C77.6533833,65.5108138 78.1194869,65.4797672 78.1194869,65.4797672 L79.8576147,65.4797672 C80.0745191,65.4797672 80.167065,65.6049238 80.167065,65.6049238 L80.2919056,65.7601569 Z M77.6842319,64.6677042 C77.3130843,64.6677042 77.4364788,63.9803129 77.4364788,63.9803129 C77.2378907,63.6247322 77.6842319,63.3307596 77.6842319,63.3307596 L80.5411047,63.3307596 L83.3955675,63.3307596 C83.3955675,63.3307596 83.8428727,63.6247322 83.6438026,63.9803129 C83.6438026,63.9803129 83.7676792,64.6677042 83.3955675,64.6677042 L80.5411047,64.6677042 L77.6842319,64.6677042 Z M68.0247531,77 L80.5006159,77 L92.9735866,77 L93.9920736,76.4353398 C93.9920736,76.4353398 94.009908,76.136031 93.9920736,75.9934107 C93.9742392,75.8527307 93.7804713,75.8173182 93.7288962,75.8173182 C93.6758751,75.8173182 93.4474024,75.8527307 93.4474024,75.5543922 C93.4474024,74.600194 92.7205314,74.3178639 92.7205314,74.3178639 L92.7205314,70.222622 L93.525488,70.222622 L93.672019,70.0004447 L93.6344223,68.7129806 L93.4517405,68.5276711 L93.4517405,67.4604439 L92.8352498,67.4604439 L92.8352498,64.2466346 L92.8352498,59.1025993 L93.3023174,58.5461859 L93.3023174,57.7137486 L93.6618968,57.7137486 L93.6618968,57.2659983 L93.378475,57.2659983 L93.378475,50.4100336 L93.525488,50.4100336 L91.2205166,42.5300158 L89.3908069,49.3791891 L87.7293187,45.0379998 L87.7293187,38.9402514 L88.0387691,38.6472491 L88.0262368,35.6536767 L87.3634732,36.4133484 L86.1550743,32.7969034 L85.4908646,34.5287222 L84.2834298,31.3692445 L83.9214403,32.6154748 L83.6192201,32.5839431 L81.9586959,26.9315196 L82.0189472,23.7409953 L82.3202034,23.4378057 L82.2908008,19.6389619 C82.2908008,19.6389619 81.7461295,20.1856733 81.5350092,20.3370255 C81.3238888,20.4888628 81.0520353,18.9088814 81.0226326,18.6964062 C80.991784,18.483931 80.9310508,18.3922464 80.991784,18.2704855 C81.0520353,18.1496948 81.233271,18.0279339 81.2940042,17.9362493 C81.3542555,17.845535 81.2940042,17.7237741 81.1122865,17.6631362 C80.9310508,17.6020132 80.8413969,17.6330598 80.6900458,17.5112989 C80.5386947,17.3895379 80.6596792,17.1770627 80.6596792,17.1770627 L80.5006159,17 L80.3405886,17.1770627 C80.3405886,17.1770627 80.4615731,17.3895379 80.310704,17.5112989 C80.1593529,17.6330598 80.068253,17.6020132 79.8870173,17.6631362 C79.7067456,17.7237741 79.6464943,17.845535 79.7067456,17.9362493 C79.7660328,18.0279339 79.9477505,18.1496948 80.0080018,18.2704855 C80.068253,18.3922464 80.0080018,18.483931 79.9785992,18.6964062 C79.9477505,18.9088814 79.6763789,20.4888628 79.4647766,20.3370255 C79.2541382,20.1856733 78.709467,19.6389619 78.709467,19.6389619 L78.6795824,23.4378057 L78.9808386,23.7409953 L79.0410899,26.9315196 L77.3815297,32.5839431 L77.0793095,32.6154748 L76.716838,31.3692445 L75.5089212,34.5287222 L74.8442295,32.7969034 L73.6372766,36.4133484 L72.9721029,35.6536767 L72.9614987,38.6472491 L73.2714311,38.9402514 L73.2714311,45.0379998 L71.6089789,49.3791891 L69.7797512,42.5300158 L67.4738158,50.4100336 L67.6213108,50.4100336 L67.6213108,57.2659983 L67.3364429,57.2659983 L67.3364429,57.7137486 L67.6979504,57.7137486 L67.6979504,58.5461859 L68.164054,59.1025993 L68.164054,64.2466346 L68.164054,67.4604439 L67.5480453,67.4604439 L67.5480453,68.5276711 L67.3653635,68.7129806 L67.3277667,70.0004447 L67.4738158,70.222622 L68.2792543,70.222622 L68.2792543,74.3178639 C68.2792543,74.3178639 67.5509373,74.600194 67.5509373,75.5543922 C67.5509373,75.8527307 67.3239107,75.8173182 67.2713716,75.8173182 C67.2178685,75.8173182 67.0260285,75.8527307 67.0077122,75.9934107 C66.9903598,76.136031 67.0077122,76.4353398 67.0077122,76.4353398 L68.0247531,77 Z M80.0000161,39.3965201 C80.0000161,39.9867216 80.5005156,40 80.5005156,40 C80.5005156,40 80.9999881,39.9867216 80.9999881,39.3965201 C80.9999881,39.3965201 81.0092313,38.7440476 80.5121551,38.7440476 L80.5005156,36 L80.4878491,38.7440476 C79.9897459,38.7440476 80.0000161,39.3965201 80.0000161,39.3965201 M71.9894981,74.5921523 L70.2942085,74.5921523 L70.3915058,70.7151831 L71.8259459,70.7151831 C71.8259459,70.7151831 72.3476448,70.7494926 72.3476448,71.2249928 L72.3476448,74.2186141 C72.3476448,74.2186141 72.4125097,74.5921523 71.9894981,74.5921523 L71.9894981,74.5921523 Z M73,70.6475307 L72.3810039,70 L70.0977606,70 L70,75 L73,75 L73,70.6475307 Z M90.0118919,74.5921523 C89.588417,74.5921523 89.6528185,74.2186141 89.6528185,74.2186141 L89.6528185,71.2249928 C89.6528185,70.7494926 90.1749807,70.7151831 90.1749807,70.7151831 L91.6089575,70.7151831 L91.7067181,74.5921523 L90.0118919,74.5921523 Z M89.6208494,70 L89,70.6475307 L89,75 L92,75 L91.9022394,70 L89.6208494,70 Z M76.363,4.50925 C76.8935,4.58875 77.503,4.90675 77.3175,5.70325 C77.3175,5.70325 77.345,6.97625 77.503,7.10825 C77.6625,7.24125 77.6625,7.45325 77.689,7.66525 C77.715,7.87775 77.848,7.79775 77.795,7.95725 C77.7425,8.11675 77.795,8.32925 77.5295,8.24875 C77.265,8.16925 77.265,8.14325 77.106,8.03725 C76.946,7.93075 76.813,7.93075 76.813,7.63825 C76.813,7.34675 76.972,7.01375 76.283,6.97625 C75.8055,6.94925 76.177,7.77075 76.31,7.71825 C76.31,7.71825 76.6015,8.14325 76.337,8.22225 C76.0715,8.30175 75.9925,8.19575 75.9925,8.19575 C75.9925,8.19575 75.1435,7.10825 75.116,5.94175 C75.0895,4.77425 75.832,4.42925 76.363,4.50925 L76.363,4.50925 Z M85.9245,8.96475 C86.0785,8.96475 86.2025,9.08975 86.2025,9.24325 C86.2025,9.39725 86.0785,9.52125 85.9245,9.52125 L76.8265,9.52125 C76.6725,9.52125 76.5485,9.39725 76.5485,9.24325 C76.5485,9.08975 76.6725,8.96475 76.8265,8.96475 L85.9245,8.96475 Z M79.4505,4.47225 C79.981,4.55125 80.4745,4.69125 80.8645,6.12925 C80.8645,6.12925 80.938,6.76325 80.889,7.25075 C80.868,7.45675 80.8865,7.57425 80.914,7.78675 C80.939,7.99875 80.952,7.85075 80.8975,8.01025 C80.845,8.16925 80.8975,8.38175 80.6335,8.30175 C80.3675,8.22225 80.3675,8.19575 80.2085,8.08975 C80.05,7.98325 79.917,7.98325 79.917,7.69225 C79.917,7.39975 80.0745,7.06775 79.387,7.02875 C78.908,7.00175 79.28,7.82475 79.4125,7.77075 C79.4125,7.77075 79.7045,8.19575 79.4395,8.27475 C79.1735,8.35425 79.0955,8.24875 79.0955,8.24875 C79.0955,8.24875 78.2465,7.16175 78.219,5.99475 C78.1915,4.82725 78.92,4.39275 79.4505,4.47225 L79.4505,4.47225 Z M82.108,7.78675 C82.1345,7.57425 82.153,7.45675 82.132,7.25075 C82.0835,6.76325 82.1565,6.12925 82.1565,6.12925 C82.5465,4.69125 83.04,4.55125 83.5705,4.47225 C84.101,4.39275 84.8295,4.82725 84.802,5.99475 C84.7745,7.16175 83.9275,8.24875 83.9275,8.24875 C83.9275,8.24875 83.8475,8.35425 83.5815,8.27475 C83.3165,8.19575 83.6085,7.77075 83.6085,7.77075 C83.7415,7.82475 84.113,7.00175 83.6355,7.02875 C82.9465,7.06775 83.105,7.39975 83.105,7.69225 C83.105,7.98325 82.9725,7.98325 82.812,8.08975 C82.654,8.19575 82.654,8.22225 82.3895,8.30175 C82.1235,8.38175 82.176,8.16925 82.1235,8.01025 C82.0705,7.85075 82.082,7.99875 82.108,7.78675 L82.108,7.78675 Z M85.3005,7.66525 C85.3275,7.45325 85.3275,7.24125 85.486,7.10825 C85.6445,6.97625 85.672,5.70325 85.672,5.70325 C85.486,4.90675 86.0965,4.58875 86.6265,4.50925 C87.1575,4.42925 87.9,4.77425 87.8735,5.94175 C87.8475,7.10825 86.9985,8.19575 86.9985,8.19575 C86.9985,8.19575 86.918,8.30175 86.654,8.22225 C86.3885,8.14325 86.6795,7.71825 86.6795,7.71825 C86.8125,7.77075 87.184,6.94925 86.7065,6.97625 C86.018,7.01375 86.1765,7.34675 86.1765,7.63825 C86.1765,7.93075 86.0435,7.93075 85.884,8.03725 C85.725,8.14325 85.725,8.16925 85.46,8.24875 C85.1945,8.32925 85.248,8.11675 85.1945,7.95725 C85.1415,7.79775 85.2745,7.87775 85.3005,7.66525 L85.3005,7.66525 Z M75.0105,9.20375 C74.825,10.66225 75.965,10.60925 75.965,10.60925 L81.465,10.60925 L86.8865,10.60925 C86.8865,10.60925 88.027,10.66225 87.841,9.20375 C87.841,9.20375 87.577,9.12375 87.6295,8.80625 C87.6825,8.48725 88.769,7.02925 88.769,5.86175 C88.769,4.69475 88.636,3.89925 87.4695,3.52825 C86.303,3.15675 85.1625,4.27025 85.1625,4.27025 C85.1625,4.27025 85.004,4.32375 84.818,4.16525 C84.6325,4.00525 83.889,3.13025 82.511,3.79275 L82.188,3.79275 C82.2105,3.55925 82.374,3.23075 82.596,2.89125 C82.9405,2.36125 82.8605,1.77775 82.8605,1.77775 C82.357,0.13275 80.925,0.39825 80.925,0.39825 C80.925,0.39825 81.058,0.66425 81.1895,1.06125 C81.3225,1.45975 80.925,1.80425 80.925,1.80425 C80.5005,2.28175 80.5005,2.57325 80.4735,3.05075 C80.456,3.36225 80.552,3.63825 80.6195,3.79275 L80.3415,3.79275 C78.9625,3.13025 78.219,4.00525 78.034,4.16525 C77.848,4.32375 77.689,4.27025 77.689,4.27025 C77.689,4.27025 76.5485,3.15675 75.382,3.52825 C74.2145,3.89925 74.082,4.69475 74.082,5.86175 C74.082,7.02925 75.1695,8.48725 75.2225,8.80625 C75.275,9.12375 75.0105,9.20375 75.0105,9.20375 L75.0105,9.20375 Z M63.6597956,14.9846707 C63.6597956,14.9846707 64.1566537,15.0229904 64.4250155,15.0229904 L80.9244017,15.0229904 L80.9997569,15.0229904 L97.4991431,15.0229904 C97.7670187,15.0229904 98.2653354,14.9846707 98.2653354,14.9846707 L99.8361267,16.5514127 C98.7641382,18.0046509 98.7592766,18.9975676 98.7592766,18.9975676 L98.7592766,28.1191106 L98.7592766,54.6547732 L98.7592766,76.9699334 C99.1798072,79.9103639 97.0756955,79.4893323 97.0756955,79.4893323 C97.0756955,79.4893323 87.5162804,79.4296699 85.4719666,79.4893323 C83.4271668,79.5489946 82.5253351,81.4465472 82.5253351,81.4465472 L80.9997569,81.4465472 L80.9997569,81.445092 L79.3988235,81.445092 C79.3988235,81.445092 78.497478,79.5489946 76.4526781,79.4893323 C74.4083644,79.4296699 64.8489493,79.4893323 64.8489493,79.4893323 C64.8489493,79.4893323 62.7443514,79.9103639 63.1653682,76.9699334 L63.1653682,54.6547732 L63.1653682,28.1191106 L63.1653682,18.9975676 C63.1653682,18.9975676 63.1609927,18.0046509 62.0890042,16.5514127 L63.6597956,14.9846707 Z M62.6485774,19.6363909 L62.6485774,51.4752085 L62.6485774,69.2919273 L62.6485774,77.8605026 C62.6485774,80.0209574 64.4216124,80.0602472 64.4216124,80.0602472 L76.5931791,80.0602472 C78.5227585,80.0602472 78.9957947,82 78.9957947,82 L81.0342745,82 L81.1387994,82 L83.0037191,82 C83.0037191,82 83.4762692,80.0602472 85.407307,80.0602472 L97.5779015,80.0602472 C97.5779015,80.0602472 99.3509365,80.0209574 99.3509365,77.8605026 L99.3509365,69.2919273 L99.3509365,51.4752085 L99.3509365,19.6363909 C99.3509365,19.6363909 99.3621182,18.2864704 99.7933444,17.7582407 L101,16.5543231 L98.4982073,14 C98.4982073,14 97.6347825,14.3715555 97.2419631,14.3715555 L90.3690825,14.3715555 L80.9900337,14.3715555 L80.8286277,14.3715555 L71.6309175,14.3715555 L64.7580369,14.3715555 C64.3642452,14.3715555 63.5017927,14 63.5017927,14 L61,16.5543231 L62.2071417,17.7582407 C62.6373956,18.2864704 62.6485774,19.6363909 62.6485774,19.6363909 L62.6485774,19.6363909 Z M60.0684177,15.1619154 L63.0690125,12.2174843 C63.0690125,12.2174843 63.3305586,11.997729 63.5039646,12.1734365 C63.6783286,12.3486599 64.3733898,12.6758727 64.3733898,12.6758727 L80.5370344,12.6758727 L96.700679,12.6758727 C96.700679,12.6758727 97.3966982,12.3486599 97.5710623,12.1734365 C97.7439893,11.997729 98.0060144,12.2174843 98.0060144,12.2174843 L101.00613,15.1619154 C101.00613,15.1619154 101.484194,15.5573782 101.00613,15.9968889 C100.528066,16.4363995 99.4411648,17.1832772 99.3970947,17.7544475 C99.3530247,18.3265858 99.3970947,24.6544746 99.3970947,24.6544746 L99.3970947,52.5222585 L99.3970947,71.9493077 L99.3970947,76.5675581 C99.3970947,76.5675581 100.209995,79.86292 96.0578313,79.784021 L85.5782636,79.784021 C85.5782636,79.784021 83.7541472,79.4297019 83.3278175,81.2346967 C83.3278175,81.2346967 83.1716562,81.9017074 82.6677249,81.9017074 L80.6745138,81.9017074 L80.571524,81.9017074 L78.4073019,81.9017074 C77.9024125,81.9017074 77.7481674,81.2346967 77.7481674,81.2346967 C77.3204006,79.4297019 75.4972423,79.784021 75.4972423,79.784021 L65.0171956,79.784021 C60.8640735,79.86292 61.6774531,76.5675581 61.6774531,76.5675581 L61.6774531,71.9493077 L61.6774531,52.5222585 L61.6774531,24.6544746 C61.6774531,24.6544746 61.7210441,18.3265858 61.6774531,17.7544475 C61.6343411,17.1832772 60.5469608,16.4363995 60.0684177,15.9968889 C59.5898745,15.5573782 60.0684177,15.1619154 60.0684177,15.1619154 M58.7592501,16.4717346 L60.3184672,17.9161177 L60.3184672,57.1177588 L60.3184672,77.1334038 C60.3184672,77.1334038 60.0612323,80.6044732 63.9120914,81.0846435 L75.5829873,81.0846435 C75.5829873,81.0846435 76.5898918,80.8455264 76.5898918,81.9815744 C76.5898918,81.9815744 76.2354154,83 77.4779989,83 L80.462786,83 L83.5223005,83 C84.765842,83 84.4108866,81.9815744 84.4108866,81.9815744 C84.4108866,80.8455264 85.4177911,81.0846435 85.4177911,81.0846435 L97.0882079,81.0846435 C100.938109,80.6059254 100.681832,77.1334038 100.681832,77.1334038 L100.681832,57.1177588 L100.681832,17.9161177 L102.241528,16.4717346 C103.454891,16.1653357 102.848449,15.2461388 102.848449,15.2461388 C102.848449,15.2461388 98.126728,10.5620587 97.6932129,10.1244842 C97.2601769,9.68642564 96.7399588,10.5180108 96.7399588,10.8684576 C96.7399588,11.2189045 96.2638108,11.2392343 96.2638108,11.2392343 L80.5006287,11.2392343 L64.7364886,11.2392343 C64.7364886,11.2392343 64.2603406,11.2189045 64.2603406,10.8684576 C64.2603406,10.5180108 63.7406015,9.68642564 63.3070865,10.1244842 C62.8740504,10.5620587 58.15185,15.2461388 58.15185,15.2461388 C58.15185,15.2461388 57.5444499,16.1653357 58.7592501,16.4717346" id="Fill-5" fill="#C8102E"></path>
                        <path d="M17.9769124,106.359886 C20.7546103,106.359886 20.6204914,105.539739 21.5018441,103.399857 L22,103.399857 L21.4252048,107 L12,107 L12,106.479907 C13.7243857,106.259868 13.6477463,106.359886 13.6477463,104.500054 L13.6477463,95.4999464 C13.6477463,93.6396142 13.7243857,93.7396321 12,93.5195928 L12,93 L20.5630119,93 L20.5630119,96.220075 L20.0648561,96.220075 C19.8732577,94.7398107 19.4905398,93.6396142 18.1110313,93.6396142 L15.5057719,93.6396142 L15.5057719,99.3596356 L17.1151985,99.3596356 C18.3217895,99.3596356 18.8391052,98.8595463 18.8774249,97.619825 L19.3755808,97.619825 L19.3755808,101.880086 L18.8774249,101.880086 C18.8391052,100.699875 18.3984289,99.99975 17.1151985,99.99975 L15.5057719,99.99975 L15.5057719,104.520057 C15.5057719,106.219861 16.2530057,106.359886 17.9769124,106.359886 Z M44,93.5200743 L44,93 L49,93 L49,93.5200743 C47.3272913,93.7401057 47.4016546,93.6400914 47.4016546,95.4998571 L47.4016546,104.500143 C47.4016546,106.359909 47.3272913,106.259894 49,106.479926 L49,107 L44,107 L44,106.479926 C45.6727087,106.259894 45.5983454,106.359909 45.5983454,104.500143 L45.5983454,95.4998571 C45.5983454,93.6400914 45.6727087,93.7401057 44,93.5200743 Z M60.0242482,106.323088 C62.6399849,106.323088 63.8595801,104.853221 64.4890486,103.325816 L65,103.325816 L64.4098733,105.742877 C64.4098733,106.168365 64.056289,106.245726 63.5055041,106.419789 C62.7580102,106.671214 61.3815396,107 59.6701721,107 C55.638623,107 52,105.104645 52,99.9223968 C52,96.9449491 54.5763949,93 59.866881,93 C61.7749574,93 62.6793267,93.3481264 63.6432003,93.6575721 C64.1939852,93.8316353 64.4098733,94.1024003 64.4098733,94.4113625 L64.4098733,96.9057848 L63.8989219,96.9057848 C63.8399092,95.3590399 62.8366938,93.6769125 59.7095139,93.6769125 C56.0315491,93.6769125 54.2616607,96.287377 54.2419898,99.767674 C54.2223189,103.615921 56.0118782,106.323088 60.0242482,106.323088 Z M75.7476199,93.5200743 L75.7476199,93 L81,93 L81,93.5200743 C79.2428596,93.7401057 79.3209765,93.6400914 79.3209765,95.4998571 L79.3209765,104.500143 C79.3209765,106.359909 79.2428596,106.259894 81,106.479926 L81,107 L75.7476199,107 L75.7476199,106.479926 C77.5052485,106.259894 77.4266434,106.359909 77.4266434,104.500143 L77.4266434,99.7799686 L70.5733566,99.7799686 L70.5733566,104.500143 C70.5733566,106.359909 70.4952398,106.259894 72.2523801,106.479926 L72.2523801,107 L67,107 L67,106.479926 C68.7576286,106.259894 68.6790235,106.359909 68.6790235,104.500143 L68.6790235,95.4998571 C68.6790235,93.6400914 68.7576286,93.7401057 67,93.5200743 L67,93 L72.2523801,93 L72.2523801,93.5200743 C70.4952398,93.7401057 70.5733566,93.6400914 70.5733566,95.4998571 L70.5733566,98.9598514 L77.4266434,98.9598514 L77.4266434,95.4998571 C77.4266434,93.6400914 77.5052485,93.7401057 75.7476199,93.5200743 Z M92.5022993,103.399857 L93,103.399857 L92.4256563,107 L83,107 L83,106.479907 C84.7239893,106.259868 84.6473462,106.359886 84.6473462,104.500054 L84.6473462,95.4999464 C84.6473462,93.6396142 84.7239893,93.7396321 83,93.5195928 L83,93 L91.5634221,93 L91.5634221,96.220075 L91.0652424,96.220075 C90.8736348,94.7398107 90.4904196,93.6396142 89.111324,93.6396142 L86.5054608,93.6396142 L86.5054608,99.3596356 L88.1149646,99.3596356 C89.3216133,99.3596356 89.8389538,98.8595463 89.8777544,97.619825 L90.3759341,97.619825 L90.3759341,101.879586 L89.8777544,101.879586 C89.8389538,100.699875 89.3987354,99.99975 88.1149646,99.99975 L86.5054608,99.99975 L86.5054608,104.520057 C86.5054608,106.219861 87.2532094,106.359886 88.9771987,106.359886 C91.7545507,106.359886 91.6209044,105.539739 92.5022993,103.399857 Z M104.176499,104.084965 L109.823991,93 L113,93 L113,93.515672 C111.568394,93.515672 111.039386,94.3090136 111.039386,95.5580308 L111.039386,104.402302 C111.039386,106.246325 110.960941,106.147654 112.725445,106.365327 L112.725445,106.880999 L107.451054,106.880999 L107.451054,106.365327 C109.215558,106.147654 109.137114,106.246325 109.137114,104.402302 L109.137114,96.0737029 L109.097892,96.0737029 L103.764667,107 L103.451381,107 L98.1568884,96.1728706 L98.1176663,96.1728706 L98.1176663,104.203967 C98.1176663,104.620471 98.1764994,104.957641 98.2157215,105.274978 C98.3137768,105.988489 98.9800621,106.266159 99.9017813,106.365327 L99.9017813,106.880999 L95.4902762,106.880999 L95.4902762,106.365327 C96.4119954,106.266159 97.0782808,105.988489 97.1768263,105.274978 C97.2160484,104.957641 97.2940023,104.620471 97.2940023,104.203967 L97.2940023,95.2208606 C96.9017813,94.2891801 95.9413303,93.515672 95,93.515672 L95,93 L98.7059977,93 L104.176499,104.084965 Z M141.233663,93.5200743 L141.233663,93 L146,93 L146,93.5200743 C145.085455,93.6200886 144.424355,93.9001286 144.326577,94.6202315 C144.28766,94.9402772 144.210313,95.2803258 144.210313,95.6998857 L144.210313,107 L143.548727,107 C140.455327,103.239963 137.245176,99.2999 134.073942,95.4598514 L134.073942,104.300114 C134.073942,104.719674 134.151776,105.059723 134.190692,105.379769 C134.287984,106.099871 134.94957,106.379911 136.233825,106.479926 L136.233825,107 L131.467002,107 L131.467002,106.479926 C132.401005,106.379911 133.042646,106.099871 133.139938,105.379769 C133.178855,105.059723 133.257175,104.719674 133.257175,104.300114 L133.257175,94.8802686 C132.711853,94.1601657 132.109129,93.5200743 131,93.5200743 L131,93 L134.540944,93 C137.43976,96.6200171 140.455327,100.300043 143.354143,103.91956 L143.392573,103.91956 L143.392573,95.6998857 C143.392573,95.2803258 143.315226,94.9402772 143.276309,94.6202315 C143.179017,93.9001286 142.517918,93.6200886 141.233663,93.5200743 Z M62.3730319,119.343774 L62.3730319,117.707309 L63,117.707309 L63,119.675554 C62.5603553,119.841229 62.011304,120 61.4360113,120 C59.8268066,120 59,118.812236 59,117.485978 C59,116.263698 59.8918046,115 61.5199839,115 C62.1792491,115 62.6960032,115.227802 62.9677029,115.469842 L62.7093258,115.870222 C62.4376262,115.670032 62.0242229,115.483648 61.5264433,115.483648 C60.3504239,115.483648 59.6911587,116.339632 59.6911587,117.472603 C59.6911587,118.694883 60.473153,119.516352 61.4553896,119.516352 C61.8364958,119.516352 62.1211143,119.474933 62.3730319,119.343774 Z M68.7501208,117.614245 L68.7501208,119.500179 L71,119.500179 L71,120 L68,120 L68,115 L70.6676864,115 L70.6676864,115.499821 L68.7501208,115.499821 L68.7501208,117.113977 L70.6290452,117.113977 L70.6290452,117.614245 L68.7501208,117.614245 Z M80.3472279,118.985721 L80.3472279,115 L81,115 L81,120 L80.379841,120 C79.1400326,118.700134 77.0115165,116.457385 76.6685691,116.021419 L76.6522625,116.021419 L76.6522625,120 L76,120 L76,115 L76.5870363,115 C77.8431512,116.299866 79.9477171,118.485498 80.3309213,118.985721 L80.3472279,118.985721 Z M86.7502415,117.614245 L86.7502415,119.500179 L89,119.500179 L89,120 L86,120 L86,115 L88.6681159,115 L88.6681159,115.499821 L86.7502415,115.499821 L86.7502415,117.113977 L88.6294686,117.113977 L88.6294686,117.614245 L86.7502415,117.614245 Z M101.750242,117.614245 L101.750242,119.500179 L104,119.500179 L104,120 L101,120 L101,115 L103.668116,115 L103.668116,115.499821 L101.750242,115.499821 L101.750242,117.113977 L103.629469,117.113977 L103.629469,117.614245 L101.750242,117.614245 Z M95.0097379,119.211545 C95.4742567,117.697554 95.9516213,116.345037 96.4227701,115 L97,115.084477 L95.1493836,120 L94.7180151,120 L93,115.126716 L93.6567906,115 C94.1076349,116.345037 94.5522635,117.697554 94.9968922,119.211545 L95.0097379,119.211545 Z M6.01474567,106.501624 C8.81903821,106.501624 8.70297851,105.704677 9.59276955,103.625323 L10.0763516,103.625323 L9.49605313,107.123633 L-4.83582089e-05,107.123633 L-4.83582089e-05,106.618251 C1.74084716,106.404436 1.66299045,106.501624 1.66299045,104.6944 L1.66299045,95.9488695 C1.66299045,94.1411586 1.74084716,94.2383474 -4.83582089e-05,94.0245321 L-4.83582089e-05,93.5196365 L5.20232776,93.5196365 L5.20232776,94.0245321 C3.46191582,94.2383474 3.53928896,94.1411586 3.53928896,95.9488695 L3.53928896,105.004918 C3.53928896,106.36556 4.29367701,106.501624 6.01474567,106.501624 Z M35.9424734,100.159779 L34.4004477,100.159779 L34.4004477,93.6396142 L35.8309681,93.6396142 C37.1876162,93.6396142 38.3022048,94.39975 38.3022048,96.5796392 C38.3022048,98.8395428 37.558836,100.159779 35.9424734,100.159779 M39.3800895,103.459868 L37.558836,100.479836 C38.9898209,99.8797285 40.1606268,98.459975 40.1606268,96.3996071 C40.1606268,94.0596892 38.2836205,93 36.4070789,93 L31,93 L31,93.5195928 C32.6721152,93.7396321 32.5977783,93.6396142 32.5977783,95.4999464 L32.5977783,104.500054 C32.5977783,106.359886 32.6721152,106.259868 31,106.479907 L31,107 L35.9982261,107 L35.9982261,106.479907 C34.3261108,106.259868 34.4004477,106.359886 34.4004477,104.500054 L34.4004477,100.799893 L36.1468998,100.799893 C38.3951259,104.819611 38.9898209,107 40.0858253,107 L42,107 L42,106.739954 C41.3495523,106.319879 40.308836,104.920129 39.3800895,103.459868 M122.146305,106.323088 C119.634533,106.323088 117.220136,103.925367 117.220136,99.2454844 C117.220136,96.6156795 118.58289,93.6769125 121.892645,93.6769125 C124.268579,93.6769125 126.780838,95.5524434 126.780838,100.173821 C126.780838,102.765429 125.767658,106.323088 122.146305,106.323088 M122.321092,93 C118.271292,93 115,96.0746331 115,100.251183 C115,104.002728 117.901269,107 121.620483,107 C125.923944,107 129,103.673942 129,99.5940943 C129,96.6156795 126.546653,93 122.321092,93 M153.908579,106.113897 C152.074097,106.113897 151.591821,106.094586 151.591821,103.990241 L151.591821,93.8344483 L153.657545,93.8344483 C157.364648,93.8344483 159.333821,95.9581034 159.333821,99.6265862 C159.333821,104.49231 156.959131,106.113897 153.908579,106.113897 M154.468579,93.217 L148.05851,93.217 L148.05851,93.7185862 C149.795959,93.931 149.718717,93.8344483 149.718717,95.6303103 L149.718717,104.318517 C149.718717,106.113897 149.795959,106.017345 148.05851,106.229759 L148.05851,106.731828 L153.908579,106.731828 C158.696579,106.731828 161.5352,103.449552 161.5352,99.5879655 C161.5352,95.611 159.140717,93.217 154.468579,93.217" id="Combined-Shape" fill="#FFFFFF"></path>
                    </g>
                </g>
            </g>
        </g>
    </g>
</svg>