<?xml version="1.0" encoding="UTF-8"?>
<svg width="50px" height="54px" viewBox="0 0 50 54" version="1.1" xmlns="http://www.w3.org/2000/svg" xmlns:xlink="http://www.w3.org/1999/xlink">
    <!-- Generator: Sketch 47.1 (45422) - http://www.bohemiancoding.com/sketch -->
    <title>icon / Sauna</title>
    <desc>Created with Sketch.</desc>
    <defs></defs>
    <g id="SPA" stroke="none" stroke-width="1" fill="none" fill-rule="evenodd">
        <g transform="translate(-580.000000, -1596.000000)" id="section-/-About" fill-rule="nonzero" fill="#525B74">
            <g transform="translate(165.000000, 860.000000)">
                <g id="Icons" transform="translate(115.000000, 706.000000)">
                    <g id="item" transform="translate(230.000000, 0.000000)">
                        <g id="icon-/-Sauna" transform="translate(70.000000, 30.000000)">
                            <path d="M25.3698838,0.00678266996 C25.1752625,-0.00256982326 24.9778758,-0.00248402581 24.7787608,0.00849875076 C21.7699112,0.0963609634 19.3805307,2.4688123 19.2477873,5.45612753 C19.1592918,8.26771833 21.1509608,10.7721345 23.9828192,11.2993078 C24.2040581,11.3432389 24.3362829,11.5189633 24.3362829,11.7386188 L24.3362829,13.1440711 L23.6725661,13.2762076 L3.2745091,18.7675958 C1.37185424,19.2947691 0,21.0516703 0,23.0285701 C0,25.4447809 1.99115025,27.4216807 4.42477856,27.4216807 L5.30973431,27.4216807 L5.30973431,42.3582568 L5.30973431,46.7513675 L5.30973431,48.9479228 C5.30973431,51.7155825 7.61061925,54 10.3982299,54 L39.6017695,54 C42.3893806,54 44.6902655,51.7155825 44.6902655,48.9479228 L44.6902655,46.7513675 L44.6902655,42.3582568 L44.6902655,27.4216807 L45.5752213,27.4216807 C48.0088496,27.4216807 50,25.4447809 50,23.0285701 C50,21.0516703 48.6723938,19.2947691 46.7254912,18.7675958 L26.3274333,13.2762076 L25.6637165,13.1440711 L25.6637165,11.7386188 C25.6637165,10.9039278 25.0447661,10.1569277 24.2040581,10.0251344 C22.0359165,9.6297544 20.4867254,7.69627085 20.575221,5.54364664 C20.6637165,3.30316022 22.5661988,1.41429415 24.822836,1.32643194 C26.0175262,1.28250083 27.1683143,1.72215509 28.05327,2.55684611 C28.9382258,3.3915373 29.4247784,4.53340252 29.4247784,5.7195424 C29.4247784,6.07099125 29.7345129,6.37850899 30.0884952,6.37850899 C30.4424775,6.37850899 30.752212,6.07099125 30.752212,5.7195424 C30.752212,4.13802257 30.132743,2.6881246 28.9823006,1.58984698 C27.9756634,0.628853989 26.7322315,0.0722503422 25.3698838,0.00678266996 Z M25.0224696,14.3744852 C25.354328,14.3744852 25.6861864,14.4179014 26.0180448,14.5057637 L46.4161018,20.0409117 C47.7435354,20.3923606 48.7166416,21.6227746 48.7166416,23.0285701 C48.6723938,24.7418832 47.2566372,26.1037475 45.5752213,26.1037475 L44.6021151,26.1037475 C44.1596372,23.7314678 42.0796461,21.9302924 39.6017695,21.9302924 L10.3982299,21.9302924 C7.87610598,21.9302924 5.79697855,23.7314678 5.39874847,26.1037475 L4.42477856,26.1037475 C2.69911485,26.1037475 1.32743344,24.7418832 1.32743344,23.0285701 C1.32743344,21.6227746 2.25715556,20.4362917 3.62883697,20.0409117 L24.0268944,14.5057637 C24.3587528,14.4179014 24.6906112,14.3744852 25.0224696,14.3744852 Z M10.3982299,23.2482256 L39.6017695,23.2482256 C41.681416,23.2482256 43.3628319,24.9176076 43.3628319,26.9823696 L43.3628319,41.6992902 L6.63716793,41.6992902 L6.63716793,26.9823696 C6.63716793,24.9176076 8.31858385,23.2482256 10.3982299,23.2482256 Z M6.63716793,43.0172234 L43.3628319,43.0172234 L43.3628319,46.0924009 L6.63716793,46.0924009 L6.63716793,43.0172234 Z M6.63716793,47.4103341 L43.3628319,47.4103341 L43.3628319,48.9479228 C43.3628319,51.0126848 41.681416,52.6820668 39.6017695,52.6820668 L10.3982299,52.6820668 C8.31858385,52.6820668 6.63716793,51.0126848 6.63716793,48.9479228 L6.63716793,47.4103341 Z" id="Shape"></path>
                        </g>
                    </g>
                </g>
            </g>
        </g>
    </g>
</svg>