<?xml version="1.0" encoding="utf-8"?>
<svg version="1.1" id="Layer_1" xmlns="http://www.w3.org/2000/svg" xmlns:xlink="http://www.w3.org/1999/xlink" x="0px" y="0px"
	 viewBox="0 0 215.7 162.6" style="enable-background:new 0 0 215.7 162.6;" xml:space="preserve">
<style type="text/css">
	.st0{fill:#404A60;}
	.st1{fill:#FFFFFF;}
	.st2{fill:none;}
</style>
<g>
	<path class="st0" d="M173.5,98.8c5.8,2.1,9.7,10.8,11.9,9.6c2.2-1.4-2.1-6.5-5.5-12.5c-1.2-2.1-8.6-3.4-9.8-6.4
		c-1.5-3.9-1.6-2.1-2.8-5c-1.5-3.4-11.3-5.9-16.1-2.9c-3.5,2.2-5.9,5.3-5,10.1c0.4,2,5.8,7.7,12.9,7.6
		C164.7,99.3,170.7,97.8,173.5,98.8z"/>
	<path class="st0" d="M56.9,96.7c-5.4,2.2-14.5-0.9-15.7,0.8c-0.6,0.8-0.1,1.8,0.5,2.2c7.9,5.3,37.4,0.3,40.1-0.6
		c1.7-0.6,0-4.1-1-5.5c-2.7-3.6-12.3-4.7-16.3-3.2c-1.6,0.6-2.5,2.4-2.1,4.1C62.7,95.6,61.1,95,56.9,96.7z"/>
	<path class="st1" d="M106.1,92.6c20.4-1,27.7-10,30.1-14.7c0-0.1,0.1-0.2,0.1-0.2c-0.5,0-1.1,0-1.7,0.1c-1.8,0.1-3.7,0.2-5.5,0.3
		c-7.7,0.4-18.2,0.9-24.4,0.4c-6.9-0.5-17-1.7-23.3-2.4c-0.6-0.1-2.9-0.4-3.2-0.5c0,0.1,0,0.2,0.1,0.3
		C79.3,81.1,84.3,93.6,106.1,92.6z"/>
	<path class="st1" d="M140.2,77.5c-0.9,0.1-2,0.1-2.9,0.2c-2.1,4.6-9.3,14.7-31.2,15.8c-2.3,0.1-4.4,0.1-6.3-0.1
		C81.7,92,77.9,79.8,77.2,75.3c-0.8-0.2-2.4-0.8-3.5-1.2l0,0c0,0.1,0,0.2,0,0.2c0.8,5.3,3.3,10.4,7.2,14.1c0.4,0.4,0.9,0.8,1.4,1.2
		c10,8.2,26.8,7.4,38.8,3.7c9.7-2.8,16.3-8.1,19.9-15.8v-0.1l0,0C140.7,77.4,140.5,77.5,140.2,77.5z"/>
	<path class="st2" d="M106.1,92.6c20.4-1,27.7-10,30.1-14.7c0-0.1,0.1-0.2,0.1-0.2c-0.5,0-1.1,0-1.7,0.1c-1.8,0.1-3.7,0.2-5.5,0.3
		c-7.7,0.4-18.2,0.9-24.4,0.4c-6.9-0.5-17-1.7-23.3-2.4c-0.6-0.1-2.9-0.4-3.2-0.5c0,0.1,0,0.2,0.1,0.3
		C79.3,81.1,84.3,93.6,106.1,92.6z"/>
	<path class="st2" d="M140.2,77.5c-0.9,0.1-2,0.1-2.9,0.2c-2.1,4.6-9.3,14.7-31.2,15.8c-2.3,0.1-4.4,0.1-6.3-0.1
		C81.7,92,77.9,79.8,77.2,75.3c-0.8-0.2-2.4-0.8-3.5-1.2l0,0c0,0.1,0,0.2,0,0.2c0.8,5.3,3.3,10.4,7.2,14.1c0.4,0.4,0.9,0.8,1.4,1.2
		c10,8.2,26.8,7.4,38.8,3.7c9.7-2.8,16.3-8.1,19.9-15.8v-0.1l0,0C140.7,77.4,140.5,77.5,140.2,77.5z"/>
	<path class="st0" d="M204.4,54c-0.7-0.4-16,21.3-29,24.1c-4.2,0.9-6.2,0.1-8-0.3c-0.1,0-1.2-0.3-1.3-0.3c-8.1,0.1-8.4,7.2-0.7,8.9
		c1.8,0.4,3.7-0.1,5.1-1.3c0.1-0.1,0.2-0.1,0.2-0.2l0.3-0.2c0.7-0.4,1.6-0.7,2.8-1c3.6-0.9,9.7-2.5,17.9-11.7
		c10-11.2,13.2-16.8,12.8-17.9l-0.1-0.2V54z"/>
	<path class="st0" d="M170.9,80.1c-0.5-1-1.4-1.8-2.4-2.3c-1.2-0.6-2.6-1.1-4.9-1.3c-6.1-0.5-18.7-0.2-21.2-0.1
		c-1.8,0.1-10.3,0.5-13.4,0.7c-7.6,0.4-18.1,0.9-24.3,0.4c-7.5-0.6-18.9-1.9-25-2.6c-2-0.2-5-1.4-6.5-2c-1.6-0.7-3.1-1.7-4.4-2.8
		c-5.2-4.8-8.7-8.3-9.9-9.8c-2.3-3-4.6-5-8-5.3c-3.1-0.2-9.9,3.9-10.1,4l-5.4,2.7c-0.7,0.3-1.2,1-1.4,1.7c-0.6,2.1-1.3,2.8-1.7,2.9
		h-0.2c-0.1,0-7.9,3.8-12.1,6c-0.7,0.4-1.5,0.5-2.3,0.7c-0.5,0.1-1,0.2-1.6,0.4c-0.6,0.2-1.3,0.5-1.5,1.5c-0.3,1.4,0.8,2.1,1.2,2.3
		c0.1,0.1,0.2,0.4,0.3,0.6c0.6,1.4,1.6,4,7,4c2.5,0,6.4-0.7,10.6-1.4c3.7-0.6,7.5-1.3,10.7-1.5c3.2-0.3,7.4,1.6,8.5,4.9
		c0,0.1,0.1,0.3,0.1,0.4c1.5,4.2,4.6,7.6,8.5,9.6c1,0.5,2.1,1.2,2.7,1.8c1.8,1.8,4.2,2.7,6.8,2.6l4.1-0.3c0.8-0.1,1.6,0,2.4,0.2
		c1.2,0.3,2.9,0.7,2.9,0.7c18.3,4.2,45.9-1.1,55.9-4.7c2.1-0.8,3.7-1.2,4.9-1.3l1.4-0.1c0.4,0,0.8,0,1.2,0c1.8,0,3.5,0.7,5,1.6
		c3.2,2,10.8,1.5,13.4-2.8c1.5-2.5,3.4-2.6,6-3.9l0,0c2.7-1.4,3.9-4.7,2.5-7.4C171,80.1,171,80.1,170.9,80.1z M81.3,76
		c6.3,0.8,16.4,1.9,23.3,2.4c6.2,0.5,16.8-0.1,24.4-0.4c1.8-0.1,3.7-0.2,5.5-0.3c0.6,0,1.2,0,1.7-0.1c0,0.1-0.1,0.2-0.1,0.2
		c-2.4,4.7-9.7,13.6-30.1,14.7c-21.9,1.1-26.8-11.4-27.9-16.7c0-0.1,0-0.2-0.1-0.3C78.4,75.6,80.7,75.9,81.3,76z M140.9,77.5
		c-3.6,7.7-10.2,13-19.9,15.8c-11.9,3.8-28.8,4.5-38.8-3.7c-0.5-0.4-0.9-0.8-1.4-1.2c-3.9-3.7-6.4-8.8-7.2-14.1c0-0.1,0-0.2,0-0.2
		l0,0c1.1,0.4,2.7,1,3.5,1.2c0.8,4.5,4.5,16.7,22.7,18.1c1.9,0.2,4,0.2,6.3,0.1c21.8-1.1,29-11.2,31.2-15.8c0.9-0.1,2-0.1,2.9-0.2
		C140.5,77.5,140.7,77.4,140.9,77.5C141,77.4,141,77.4,140.9,77.5L140.9,77.5z"/>
</g>
</svg>
