<svg id="Layer_1" xmlns="http://www.w3.org/2000/svg" viewBox="0 0 215.7 162.6">
    <style>.st0{fill:#404a60}.st1{fill:#fff}.st2{fill:none}</style>
     <g>
         <path class="st0"
               d="M130.8 107.5c1.1 3.1 18.6-4.8 20.3-6.5 4-4 16.4-9 17.4-12.1 4.2-13.1-11.5-9.9-16.9-8.1-3.9 1.3-6 1.9-9.4 7.4-1.1 1.8-2.5 4.6 1.5 10.5 2.5 3.6-13.1 6.6-12.9 8.8z"/>
         <path class="st0"
               d="M75.5 92.1c-.2 1-5.4 7.8-1.3 9.9 3.7 1.9 10.1 2.2 11.1 4 .5.9.7 1.8.2 2.2-2.6 2.3-12.5-2.6-15.5-3.7-3.3-1.2-5.7-6.8-7.8-10.6-.9-1.6-4.7-7.5-3.4-8.8 3.2-3.2 12.8-2.8 16.6-.8 1.5.8 2.1 2.7 1.5 4.4-.7 1.1-1.2 2.5-1.4 3.4z"/>
         <path class="st1"
              d="M106.1 92.6c20.4-1 27.7-10 30.1-14.7 0-.1.1-.2.1-.2-.5 0-1.1 0-1.7.1-1.8.1-3.7.2-5.5.3-7.7.4-18.2.9-24.4.4-6.9-.5-17-1.7-23.3-2.4-.6-.1-2.9-.4-3.2-.5 0 .1 0 .2.1.3 1 5.3 6 17.8 27.8 16.7z"/>
        <path class="st1"
              d="M140.2 77.5c-.9.1-2 .1-2.9.2-2.1 4.6-9.3 14.7-31.2 15.8-2.3.1-4.4.1-6.3-.1-18.1-1.4-21.9-13.5-22.6-18-.8-.2-2.4-.8-3.5-1.2v.2c.8 5.3 3.3 10.4 7.2 14.1.4.4.9.8 1.4 1.2 10 8.2 26.8 7.4 38.8 3.7 9.7-2.8 16.3-8.1 19.9-15.8v-.1h-.8z"/>
        <path class="st2"
              d="M106.1 92.6c20.4-1 27.7-10 30.1-14.7 0-.1.1-.2.1-.2-.5 0-1.1 0-1.7.1-1.8.1-3.7.2-5.5.3-7.7.4-18.2.9-24.4.4-6.9-.5-17-1.7-23.3-2.4-.6-.1-2.9-.4-3.2-.5 0 .1 0 .2.1.3 1 5.3 6 17.8 27.8 16.7z"/>
        <path class="st2"
              d="M140.2 77.5c-.9.1-2 .1-2.9.2-2.1 4.6-9.3 14.7-31.2 15.8-2.3.1-4.4.1-6.3-.1-18.1-1.4-21.9-13.5-22.6-18-.8-.2-2.4-.8-3.5-1.2v.2c.8 5.3 3.3 10.4 7.2 14.1.4.4.9.8 1.4 1.2 10 8.2 26.8 7.4 38.8 3.7 9.7-2.8 16.3-8.1 19.9-15.8v-.1h-.8z"/>
        <path class="st0"
              d="M214 76.5c-.4-.7-24.3 10.9-37.1 7.1-4.1-1.2-5.5-2.9-6.8-4.1 0 0-.9-.8-1-.9-7.1-3.8-10.9 2.3-4.9 7.5 1.4 1.2 3.3 1.7 5.1 1.3H169.9c.8-.1 1.7.2 2.9.5 3.6.9 9.7 2.5 21.3-1.6 14.2-4.9 19.6-8.4 19.9-9.5V76.5z"/>
        <path class="st0"
              d="M170.9 80.1c-.5-1-1.4-1.8-2.4-2.3-1.2-.6-2.6-1.1-4.9-1.3-6.1-.5-18.7-.2-21.2-.1-1.8.1-10.3.5-13.4.7-7.6.4-18.1.9-24.3.4-7.5-.6-18.9-1.9-25-2.6-2-.2-5-1.4-6.5-2-1.6-.7-3.1-1.7-4.4-2.8-5.2-4.8-8.7-8.3-9.9-9.8-2.3-3-4.6-5-8-5.3-3.1-.2-9.9 3.9-10.1 4l-5.4 2.7c-.7.3-1.2 1-1.4 1.7-.6 2.1-1.3 2.8-1.7 2.9h-.2c-.1 0-7.9 3.8-12.1 6-.7.4-1.5.5-2.3.7-.5.1-1 .2-1.6.4-.6.2-1.3.5-1.5 1.5-.3 1.4.8 2.1 1.2 2.3.1.1.2.4.3.6.6 1.4 1.6 4 7 4 2.5 0 6.4-.7 10.6-1.4 3.7-.6 7.5-1.3 10.7-1.5 3.2-.3 7.4 1.6 8.5 4.9 0 .1.1.3.1.4 1.5 4.2 4.6 7.6 8.5 9.6 1 .5 2.1 1.2 2.7 1.8 1.8 1.8 4.2 2.7 6.8 2.6l4.1-.3c.8-.1 1.6 0 2.4.2 1.2.3 2.9.7 2.9.7 18.3 4.2 45.9-1.1 55.9-4.7 2.1-.8 3.7-1.2 4.9-1.3l1.4-.1h1.2c1.8 0 3.5.7 5 1.6 3.2 2 10.8 1.5 13.4-2.8 1.5-2.5 3.4-2.6 6-3.9 2.7-1.4 3.9-4.7 2.5-7.4.3 0 .3 0 .2-.1zM81.3 76c6.3.8 16.4 1.9 23.3 2.4 6.2.5 16.8-.1 24.4-.4 1.8-.1 3.7-.2 5.5-.3.6 0 1.2 0 1.7-.1 0 .1-.1.2-.1.2-2.4 4.7-9.7 13.6-30.1 14.7-21.9 1.1-26.8-11.4-27.9-16.7 0-.1 0-.2-.1-.3.4.1 2.7.5 3.3.5zm59.6 1.6c-3.6 7.7-10.2 13-19.9 15.8-11.9 3.8-28.8 4.5-38.8-3.7-.5-.4-.9-.8-1.4-1.2-3.9-3.7-6.4-8.8-7.2-14.1v-.2c1.1.4 2.7 1 3.5 1.2.8 4.5 4.5 16.7 22.7 18.1 1.9.2 4 .2 6.3.1 21.8-1.1 29-11.2 31.2-15.8.9-.1 2-.1 2.9-.2.3-.1.5-.1.7 0 .1-.1.1-.1 0 0 0-.1 0-.1 0 0z"/>
    </g>
</svg>