<?xml version="1.0" encoding="utf-8"?>
<svg version="1.1" id="Layer_1" xmlns="http://www.w3.org/2000/svg" xmlns:xlink="http://www.w3.org/1999/xlink" x="0px" y="0px"
	 viewBox="0 0 215.7 162.6" style="enable-background:new 0 0 215.7 162.6;" xml:space="preserve">
<style type="text/css">
	.st0{fill:#404A60;}
	.st1{fill:#FFFFFF;}
	.st2{fill:none;}
</style>
<g>
	<path class="st0" d="M144.6,96.2c2.8,4.6,11.2,4.6,8,7.8c-0.8,0.8-1.7,0.6-5,0.8c-2.8,0.2-3.5,2.6-1.1,2.9
		c13.6,2.3,14.9-6.9,15.8-10.2c0.9-3.2,2.6-7.6,3.5-9.9c1.4-3.8-6.4-7.5-13.8-5.9c-3.8,0.8-7.2,3.4-9,6.9c-0.8,1.5-1.2,3.1-0.7,4.4
		C142.9,94.2,143.8,94.9,144.6,96.2z"/>
	<path class="st0" d="M64.7,98.4c0.1,0.9-0.2,1.6-0.9,2.2c-1.3,1.1-2.6,1.4-3.9,1.7c-1.5,0.4-3,0.7-4.2,2.3c-0.6,0.8-0.7,1.4-0.4,2
		c0.4,0.8,1.7,1.3,4,1.5c0.8,0.1,1.7,0.1,2.8,0.1c2,0,3.8-1.8,6-3.9c2-1.9,4.5-4.1,6.3-5.7c1.3-1.1,1.5-3,0.4-4.3
		c-2.6-3.3-5.1-4.3-8.9-3c-1.5,0.6-2.3,2.2-1.9,3.8C64.3,96.2,64.7,97.5,64.7,98.4z"/>
	<path class="st1" d="M106.1,92.6c20.4-1,27.7-10,30.1-14.7c0-0.1,0.1-0.2,0.1-0.2c-0.5,0-1.1,0-1.7,0.1c-1.8,0.1-3.7,0.2-5.5,0.3
		c-7.7,0.4-18.2,0.9-24.4,0.4c-6.9-0.5-17-1.7-23.3-2.4c-0.6-0.1-2.9-0.4-3.2-0.5c0,0.1,0,0.2,0.1,0.3
		C79.3,81.2,84.3,93.7,106.1,92.6z"/>
	<path class="st1" d="M140.2,77.5c-0.9,0.1-2,0.1-2.9,0.2c-2.1,4.6-9.3,14.7-31.2,15.8c-2.3,0.1-4.4,0.1-6.3-0.1
		c-18.1-1.4-21.9-13.5-22.6-18c-0.8-0.2-2.4-0.8-3.5-1.2l0,0c0,0.1,0,0.2,0,0.2c0.8,5.3,3.3,10.4,7.2,14.1c0.4,0.4,0.9,0.8,1.4,1.2
		c10,8.2,26.8,7.4,38.8,3.7c9.7-2.8,16.3-8.1,19.9-15.8v-0.1l0,0C140.7,77.5,140.5,77.5,140.2,77.5z"/>
	<path class="st2" d="M106.1,92.6c20.4-1,27.7-10,30.1-14.7c0-0.1,0.1-0.2,0.1-0.2c-0.5,0-1.1,0-1.7,0.1c-1.8,0.1-3.7,0.2-5.5,0.3
		c-7.7,0.4-18.2,0.9-24.4,0.4c-6.9-0.5-17-1.7-23.3-2.4c-0.6-0.1-2.9-0.4-3.2-0.5c0,0.1,0,0.2,0.1,0.3
		C79.3,81.2,84.3,93.7,106.1,92.6z"/>
	<path class="st2" d="M140.2,77.5c-0.9,0.1-2,0.1-2.9,0.2c-2.1,4.6-9.3,14.7-31.2,15.8c-2.3,0.1-4.4,0.1-6.3-0.1
		c-18.1-1.4-21.9-13.5-22.6-18c-0.8-0.2-2.4-0.8-3.5-1.2l0,0c0,0.1,0,0.2,0,0.2c0.8,5.3,3.3,10.4,7.2,14.1c0.4,0.4,0.9,0.8,1.4,1.2
		c10,8.2,26.8,7.4,38.8,3.7c9.7-2.8,16.3-8.1,19.9-15.8v-0.1l0,0C140.7,77.5,140.5,77.5,140.2,77.5z"/>
	<path class="st0" d="M212.6,67.5c-0.5-0.6-21.8,15.3-35,14c-4.3-0.4-6-1.8-7.5-2.8c0,0-1.1-0.6-1.1-0.7c-7.7-2.4-10.3,4.3-3.4,8.3
		c1.6,0.9,3.5,1.1,5.2,0.4c0.1-0.1,0.2-0.1,0.2-0.1l0.4-0.1c0.8-0.2,1.7-0.1,3-0.1c3.8,0.2,10,0.6,20.7-5.6
		c13-7.5,17.7-11.9,17.7-13.1v-0.2L212.6,67.5z"/>
	<path class="st0" d="M170.9,80.1c-0.5-1-1.4-1.8-2.4-2.3c-1.2-0.6-2.6-1.1-4.9-1.3c-6.1-0.5-18.7-0.2-21.2-0.1
		c-1.8,0.1-10.3,0.5-13.4,0.7c-7.6,0.4-18.1,0.9-24.3,0.4c-7.5-0.6-18.9-1.9-25-2.6c-2-0.2-5-1.4-6.5-2c-1.6-0.7-3.1-1.7-4.4-2.8
		c-5.2-4.8-8.7-8.3-9.9-9.8c-2.3-3-4.6-5-8-5.3c-3.1-0.2-9.9,3.9-10.1,4l-5.4,2.7c-0.7,0.3-1.2,1-1.4,1.7c-0.6,2.1-1.3,2.8-1.7,2.9
		h-0.2c-0.1,0-7.9,3.8-12.1,6c-0.7,0.4-1.5,0.5-2.3,0.7c-0.5,0.1-1,0.2-1.6,0.4c-0.6,0.2-1.3,0.5-1.5,1.5c-0.3,1.4,0.8,2.1,1.2,2.3
		c0.1,0.1,0.2,0.4,0.3,0.6c0.6,1.4,1.6,4,7,4c2.5,0,6.4-0.7,10.6-1.4c3.7-0.6,7.5-1.3,10.7-1.5c3.2-0.3,7.4,1.6,8.5,4.9
		c0,0.1,0.1,0.3,0.1,0.4c1.5,4.2,4.6,7.6,8.5,9.6c1,0.5,2.1,1.2,2.7,1.8c1.8,1.8,4.2,2.7,6.8,2.6l4.1-0.3c0.8-0.1,1.6,0,2.4,0.2
		c1.2,0.3,2.9,0.7,2.9,0.7c18.3,4.2,45.9-1.1,55.9-4.7c2.1-0.8,3.7-1.2,4.9-1.3l1.4-0.1c0.4,0,0.8,0,1.2,0c1.8,0,3.5,0.7,5,1.6
		c3.2,2,10.8,1.5,13.4-2.8c1.5-2.5,3.4-2.6,6-3.9l0,0c2.7-1.4,3.9-4.7,2.5-7.4C171,80.2,171,80.2,170.9,80.1z M81.3,76
		c6.3,0.8,16.4,1.9,23.3,2.4c6.2,0.5,16.8-0.1,24.4-0.4c1.8-0.1,3.7-0.2,5.5-0.3c0.6,0,1.2,0,1.7-0.1c0,0.1-0.1,0.2-0.1,0.2
		c-2.4,4.7-9.7,13.6-30.1,14.7c-21.9,1.1-26.8-11.4-27.9-16.7c0-0.1,0-0.2-0.1-0.3C78.4,75.6,80.7,76,81.3,76z M140.9,77.6
		c-3.6,7.7-10.2,13-19.9,15.8c-11.9,3.8-28.8,4.5-38.8-3.7c-0.5-0.4-0.9-0.8-1.4-1.2c-3.9-3.7-6.4-8.8-7.2-14.1c0-0.1,0-0.2,0-0.2
		l0,0c1.1,0.4,2.7,1,3.5,1.2c0.8,4.5,4.5,16.7,22.7,18.1c1.9,0.2,4,0.2,6.3,0.1c21.8-1.1,29-11.2,31.2-15.8c0.9-0.1,2-0.1,2.9-0.2
		C140.5,77.5,140.7,77.5,140.9,77.6C141,77.5,141,77.5,140.9,77.6C140.9,77.5,140.9,77.5,140.9,77.6z"/>
</g>
</svg>
