<?xml version="1.0" encoding="UTF-8"?>
<svg width="152px" height="76px" viewBox="0 0 152 76" version="1.1" xmlns="http://www.w3.org/2000/svg" xmlns:xlink="http://www.w3.org/1999/xlink">
    <!-- Generator: Sketch 48.2 (47327) - http://www.bohemiancoding.com/sketch -->
    <title>Fill 7</title>
    <desc>Created with Sketch.</desc>
    <defs></defs>
    <g id="component-/-Logo-/-Partners-/-Preferred-Legend" stroke="none" stroke-width="1" fill="none" fill-rule="evenodd">
        <g fill="#8D704E" id="Fill-7">
            <path d="M125.665043,0.290071714 L126.458639,0.290071714 L126.458639,10.5303904 L125.610687,10.5303904 L125.620351,10.5234263 L123.659614,10.5234263 L123.659614,10.1697689 L125.092193,10.1697689 L125.995708,9.24172112 L125.995708,1.57177689 L125.092193,0.643729085 L123.659614,0.643729085 L123.659614,0.290071714 L125.665043,0.290071714 Z M69.5136135,5.55042231 L71.5441074,5.55042231 L71.5441074,5.90407968 L70.1109242,5.90407968 L69.1853645,6.83243028 L69.1853645,8.93196813 L69.4055057,9.79400797 C69.3209522,9.7876494 69.2493836,9.78341036 69.1847605,9.78038247 C69.0301482,9.77250996 68.9298918,9.77220717 68.8987882,9.77220717 C68.8559075,9.77220717 68.8133287,9.78007968 68.7707499,9.78129084 L68.7707499,5.55042231 L69.5136135,5.55042231 Z M78.9751594,0.290071714 L81.7488188,0.290071714 L81.7488188,10.5234263 L78.9751594,10.5234263 L78.9751594,10.1697689 L80.4083426,10.1697689 L81.3272588,9.24838247 L81.3272588,1.56511554 L80.4083426,0.643729085 L78.9751594,0.643729085 L78.9751594,0.290071714 Z M88.0794663,10.103761 L90.9008381,6.65560159 L91.1433257,6.65560159 L91.1433257,10.5234263 L82.1706808,10.5234263 L82.1706808,0.290071714 L90.9893174,0.290071714 L91.1433257,4.15789642 L90.9008381,4.15789642 L88.3660425,0.643729085 L84.7948616,0.643729085 L84.0894431,1.57177689 L84.0894431,4.82100399 L85.632848,4.82100399 L87.5504024,2.58854183 L87.8152363,2.58854183 L87.8152363,7.47343426 L87.5504024,7.47343426 L85.632848,5.19676494 L84.0894431,5.19676494 L84.0894431,9.24172112 L84.7510749,10.103761 L88.0794663,10.103761 Z M35.0586329,0.290071714 L37.8322923,0.290071714 L37.8322923,10.5234263 L35.0586329,10.5234263 L35.0586329,10.1697689 L36.492118,10.1697689 L37.4107323,9.24838247 L37.4107323,1.56511554 L36.492118,0.643729085 L35.0586329,0.643729085 L35.0586329,0.290071714 Z M44.1629398,10.103761 L46.9846136,6.65560159 L47.2271012,6.65560159 L47.2271012,10.5234263 L38.2541543,10.5234263 L38.2541543,0.290071714 L47.0730929,0.290071714 L47.2271012,4.15789642 L46.9846136,4.15789642 L44.449516,0.643729085 L40.8783351,0.643729085 L40.1729167,1.57177689 L40.1729167,4.82100399 L41.7163215,4.82100399 L43.6338759,2.58854183 L43.8987098,2.58854183 L43.8987098,7.47343426 L43.6338759,7.47343426 L41.7163215,5.19676494 L40.1729167,5.19676494 L40.1729167,9.24172112 L40.8348504,10.103761 L44.1629398,10.103761 Z M150.868956,21.4577371 C151.475628,21.4577371 151.972078,21.9555219 151.972078,22.5638247 C151.972078,23.1724303 151.475628,23.6699124 150.868956,23.6699124 C150.334457,23.6699124 149.886323,23.2835538 149.786972,22.7757769 L78.8552745,22.7757769 L78.8552745,22.7763825 L75.9858883,24.3169721 L73.116804,22.7763825 L73.116804,22.7757769 L2.18480416,22.7757769 C2.0854537,23.2835538 1.6376217,23.6699124 1.10312227,23.6699124 C0.496450317,23.6699124 0,23.1724303 0,22.5638247 C0,21.9555219 0.496450317,21.4577371 1.10312227,21.4577371 C1.6376217,21.4577371 2.08575568,21.8443984 2.18480416,22.3521753 L73.1068388,22.3521753 L75.9861902,20.814008 L78.8652397,22.3521753 L149.786972,22.3521753 C149.886323,21.8443984 150.334155,21.4577371 150.868956,21.4577371 Z M74.0734674,20.8112829 L38.5262356,20.8112829 L38.5262356,20.3876813 L113.445843,20.3876813 L113.445843,20.8112829 L74.0734674,20.8112829 Z M77.7630234,24.3169721 L113.445843,24.3169721 L113.445843,24.7402709 L38.5262356,24.7402709 L38.5262356,24.3169721 L77.7630234,24.3169721 Z M141.28209,1.03008765 C141.269709,0.991936256 141.252496,0.94106773 141.218977,0.896254981 C141.14469,0.792701196 141.024201,0.745768925 140.894955,0.745768925 C140.734303,0.745768925 140.544058,0.813593626 140.544058,1.01313148 C140.544058,1.19541036 140.711051,1.24839841 140.795605,1.27383267 C140.838184,1.2865498 141.051681,1.34196016 141.098186,1.35861355 C141.178512,1.38404781 141.443044,1.471251 141.443044,1.75526693 C141.443044,1.96540239 141.267595,2.20278885 140.884386,2.20278885 C140.72615,2.20278885 140.611701,2.16251793 140.533489,2.1116494 C140.419341,2.03504383 140.355624,1.92482869 140.330258,1.78705976 L140.472187,1.71287649 C140.474301,1.77222311 140.480643,1.83368924 140.508123,1.88667729 C140.575766,2.02686853 140.730076,2.07985657 140.884386,2.07985657 C141.17217,2.07985657 141.299001,1.92058964 141.299001,1.7616255 C141.299001,1.65352988 141.248268,1.59206375 141.208106,1.56027092 C141.140463,1.50304383 141.053795,1.48154582 140.856906,1.43098008 C140.645522,1.37556972 140.406658,1.29714741 140.406658,1.01949004 C140.406658,0.724573706 140.666661,0.62919522 140.899485,0.62919522 C141.28209,0.62919522 141.379629,0.875362551 141.413148,0.957721116 L141.28209,1.03008765 Z M143.155254,2.16463745 L143.017854,2.16463745 L143.028423,0.894438248 L142.539824,2.16463745 L142.442286,2.16463745 L141.945534,0.894438248 L141.962142,2.16463745 L141.824743,2.16463745 L141.824743,0.667346614 L141.992038,0.667346614 L142.497548,1.93754582 L142.979805,0.667346614 L143.155254,0.667346614 L143.155254,2.16463745 Z M14.8482129,0.290071714 L17.6257981,0.290071714 L17.6257981,10.5234263 L14.8482129,10.5234263 L14.8482129,10.1697689 L16.2813962,10.1697689 L17.2042381,9.24444622 L17.2066539,9.24172112 L17.2066539,1.57177689 L17.2042381,1.56905179 L16.2813962,0.643729085 L14.8482129,0.643729085 L14.8482129,0.290071714 Z M26.3333072,5.24097211 L26.5975371,5.24097211 L26.5975371,10.5234263 L18.0476601,10.5234263 L18.0476601,0.290071714 L22.6519046,0.290071714 L22.6519046,0.643729085 L20.8883585,0.643729085 L19.9621948,1.57177689 L19.9621948,9.24172112 L20.8222255,10.103761 L23.6438993,10.103761 L26.3333072,5.24097211 Z M112.641376,0.290071714 L115.410204,0.290071714 L115.410204,0.643729085 L114.175721,0.643729085 L112.641376,2.59944223 L112.647415,9.67834263 L112.632619,9.66047809 L104.900193,0.290071714 L105.490861,0.290071714 L112.204415,8.56196016 L112.204415,2.56916335 L110.737108,0.643729085 L109.502626,0.643729085 L109.502626,0.290071714 L112.641376,0.290071714 Z M103.966178,0.290071714 L104.424278,0.290071714 L112.632619,10.2000478 L112.632619,10.5234263 L110.450532,10.5234263 L103.101014,1.54361753 L103.101014,8.15258964 L104.718705,10.1697689 L106.019925,10.1697689 L106.019925,10.5234263 L99.8034244,10.5234263 L99.8034244,10.1697689 L101.059649,10.1697689 L102.665865,8.14047809 L102.665865,1.05976096 L102.294131,0.643729085 L99.8034244,0.643729085 L99.8034244,0.290071714 L103.966178,0.290071714 Z M60.0188502,1.10911554 C59.8790349,1.20540239 59.7416353,1.30592829 59.6096713,1.41553785 C58.2912394,2.50285259 57.6347412,3.8569243 57.6401768,5.47714741 C57.6401768,5.50318725 57.6456124,5.52650199 57.6462163,5.55223904 C57.6453104,5.58705976 57.6401768,5.62036653 57.6401768,5.65518725 C57.6401768,6.51450199 57.8606201,7.31053387 58.2583239,8.01482072 C58.2649674,8.02693227 58.2716109,8.03904383 58.2785563,8.05115538 C58.3721692,8.2216255 58.4884304,8.3818008 58.6025777,8.54318725 C58.9519652,9.00796813 59.3925498,9.41764144 59.9095345,9.76312351 C59.9382224,9.78401594 59.9644944,9.80642231 59.9934842,9.82640638 C59.1869034,9.44549801 58.5270835,8.91955379 58.0493557,8.284 C57.9448717,8.13623904 57.8379718,7.98908367 57.7522103,7.83284462 C57.7458688,7.82164144 57.7398292,7.81043825 57.7337897,7.79923506 C57.3690014,7.15308367 57.1666767,6.42305976 57.1666767,5.63459761 C57.1666767,5.60250199 57.1715084,5.57192032 57.1721123,5.54043028 C57.1715084,5.51681275 57.1666767,5.49501195 57.1666767,5.47139442 C57.1615431,3.98500399 57.7639874,2.74266136 58.9734056,1.74497211 C59.3439315,1.43794422 59.7485808,1.18753785 60.1825218,0.985880479 C60.1266561,1.02494024 60.0738101,1.06854183 60.0188502,1.10911554 Z M68.8103089,0.0908366543 L68.1272368,0.842358567 L67.333339,0.842358567 C66.9486202,0.704892431 66.5744706,0.582868527 66.2027368,0.471139443 L66.200925,0.462964144 L66.1831083,0.465992033 C65.305261,0.203474105 64.4446263,0.0248286862 63.5199725,0.0248286862 C63.4169983,0.0248286862 63.3176478,0.033003985 63.2158816,0.0363346623 C63.1168331,0.0317928296 63.012651,0.0230119531 62.919944,0.0236175308 C61.1875015,0.0190756981 59.7437491,0.49566534 58.5886868,1.45308367 C57.3007546,2.51526693 56.6593552,3.8381514 56.6647908,5.42082869 C56.6647908,5.44626295 56.6699244,5.46897211 56.6705284,5.49440638 C56.6696225,5.52801594 56.6644889,5.56071713 56.6644889,5.59462948 C56.6644889,6.43396016 56.8801005,7.21152191 57.268443,7.89976096 C57.2750865,7.91156972 57.281428,7.92337849 57.2883735,7.93518725 C57.3795706,8.10172112 57.4934159,8.25826295 57.6048455,8.41571315 C58.6457605,9.80066932 60.4950681,10.7026773 62.8519992,10.7774661 C62.9573892,10.7807968 63.0597594,10.7886693 63.1672633,10.7886693 C65.199871,10.7886693 66.6073861,10.1422151 67.9273279,9.88333068 C68.0680493,9.8554741 68.2093745,9.82882869 68.3488879,9.81156972 L68.3488879,5.55042231 L64.1816043,5.55042231 L64.1816043,5.90407968 L65.6585742,5.90407968 L66.4298236,6.83243028 L66.4298236,9.08669323 C65.9668928,9.88242231 64.9531557,10.3465976 63.4761858,10.3465976 C60.9187419,10.3465976 59.8165256,8.88806375 59.8165256,5.83776893 C59.8165256,2.21278088 60.9631326,0.488701196 63.7186734,0.488701196 C63.8678501,0.488701196 64.0082694,0.509290838 64.1526145,0.520796814 C64.9679526,0.58741036 65.7068905,0.841147411 66.3748638,1.2838247 C67.3173342,1.90878088 68.1254249,2.89435857 68.8103089,4.26841434 L69.0527965,4.26841434 L69.0527965,0.0908366543 L68.8103089,0.0908366543 Z M134.481868,9.56479681 C134.784147,9.28259761 135.041432,8.9652749 135.261875,8.62130677 C135.852844,7.73443825 136.157237,6.64167331 136.157237,5.38661355 C136.157237,5.35966534 136.154217,5.33483665 136.153915,5.30819124 C136.152707,5.18344223 136.14546,5.06323506 136.138816,4.94242231 C136.133381,4.85007171 136.133079,4.75560159 136.123114,4.66476494 C136.121,4.64205578 136.11647,4.62055777 136.114054,4.59784861 C136.01712,3.65042231 135.732053,2.83682869 135.27486,2.15282869 C135.213257,2.05775299 135.150445,1.96358566 135.0825,1.87305179 C135.082199,1.872749 135.081595,1.87214343 135.081293,1.87153785 C134.913393,1.64929084 134.727979,1.44066932 134.520521,1.2487012 C135.733865,1.99386454 136.427204,3.14991235 136.584534,4.68626295 C136.586648,4.7065498 136.590574,4.7256255 136.592688,4.74591235 C136.601445,4.82675697 136.601747,4.91093227 136.606579,4.99329084 C136.612316,5.10078088 136.61896,5.20796813 136.620168,5.31909163 C136.620168,5.34270916 136.622886,5.36481275 136.622886,5.38903586 C136.622886,7.23211155 135.889987,8.68610359 134.481868,9.56479681 Z M132.95024,9.6141514 C132.497275,9.94176893 131.871578,10.103761 131.000072,10.103761 L129.633022,10.103761 L128.773595,9.24172112 L128.773595,1.57177689 L129.633022,0.709737053 L130.779629,0.709737053 C130.926088,0.709737053 131.064092,0.716095618 131.198471,0.725179284 C131.687976,0.758486057 132.099269,0.853258965 132.443825,1.01161753 C133.699144,1.58812749 134.064234,3.01032669 134.064234,5.4178008 C134.064234,7.58183267 133.872176,8.94741036 132.95024,9.6141514 Z M137.213855,5.34785657 C137.212647,5.23673307 137.206003,5.12954582 137.200266,5.02205578 C137.195434,4.93969721 137.195132,4.85552191 137.186375,4.77498008 C137.184261,4.75439044 137.180335,4.73561753 137.178221,4.71502789 C136.917313,2.16524303 135.1894,0.654326694 132.035854,0.351235061 C131.644491,0.313689244 131.236822,0.290071714 130.801371,0.290071714 L126.915832,0.290071714 L126.915832,10.5234263 L131.286347,10.5234263 C135.16645,10.5234263 137.216573,8.51230279 137.216573,5.4178008 C137.216573,5.39357769 137.213855,5.37177689 137.213855,5.34785657 Z M39.5469182,46.3696892 C38.9408502,46.3696892 38.3329703,46.3400159 37.7266003,46.2540239 C40.3559148,42.6599203 43.6803804,38.7469801 49.0851662,37.6451315 C49.1443537,37.9936414 49.2020313,38.3706135 49.2020313,38.7188207 C49.2020313,42.456749 45.2419039,46.3696892 39.5469182,46.3696892 Z M50.1263831,38.9783108 C50.1263831,38.4859761 50.0403197,37.9936414 49.9234545,37.5297689 C50.4736568,37.4422629 51.0223491,37.3844303 51.629927,37.3559681 L51.6879066,36.7764303 C51.0223491,36.8342629 50.3863854,36.9214661 49.7507236,37.0374343 C48.6814228,34.1385339 45.0969549,31.7334821 38.1599375,31.7334821 C24.5166131,31.7334821 16.5966602,38.8920159 16.5966602,43.2975936 C16.5966602,45.2399841 18.1563718,46.6306932 21.4231599,46.6306932 C29.1127042,46.6306932 35.9624503,42.3989163 38.8535788,35.4717131 L38.5636808,35.355745 C36.4830587,39.6750279 25.874302,46.0511554 20.6718409,46.0511554 C18.2436432,46.0511554 17.087373,44.8914741 17.087373,43.2679203 C17.087373,39.2108526 24.371966,32.1101514 37.8123618,32.1101514 C44.7212954,32.1101514 48.073543,34.4292112 48.9417271,37.1827729 C37.0317511,39.9938645 32.4948475,55.528749 18.9092007,55.528749 C17.4630325,55.528749 16.2206988,55.3834104 16.2206988,55.3834104 L15.9311027,55.7319203 C18.3593004,56.050757 20.4115367,56.1945817 22.2321565,56.1945817 C28.8523999,56.1945817 31.974239,54.0502311 35.702146,49.035745 C36.2804321,48.2824064 36.8587182,47.4137052 37.49438,46.5431873 C38.4202417,46.7166853 39.3162077,46.7760319 40.1828819,46.7760319 C46.2532251,46.7760319 50.1263831,42.8334183 50.1263831,38.9783108 Z M108.87844,55.8908845 C108.675813,55.8902789 108.56076,55.8039841 108.561666,55.6289721 C108.567403,54.2101036 115.183419,47.6580558 119.288495,47.675012 C119.51377,47.6759203 119.693145,47.6786454 119.853796,47.6822789 L117.06232,51.1231713 C117.009474,51.1988685 116.968103,51.2760797 116.918277,51.3520797 C114.35419,53.2221036 110.418825,55.8975458 108.87844,55.8908845 Z M79.7406712,47.7025657 C79.7406712,48.4562072 76.8214588,50.5142629 73.7575994,50.9781355 C75.6947824,49.1514104 78.0357087,47.4418645 79.2496565,47.4418645 C79.5957222,47.4418645 79.7406712,47.5293705 79.7406712,47.7025657 Z M61.7573323,47.4418645 C62.1049079,47.4418645 62.248347,47.5293705 62.248347,47.7025657 C62.248347,48.4562072 59.3291346,50.5142629 56.2652752,50.9781355 C58.2024581,49.1514104 60.5433844,47.4418645 61.7573323,47.4418645 Z M108.250025,47.4418645 C108.597601,47.4418645 108.74104,47.5293705 108.74104,47.7025657 C108.74104,48.4562072 105.821828,50.5142629 102.757968,50.9781355 C104.694849,49.1514104 107.035775,47.4418645 108.250025,47.4418645 Z M136.75485,51.989753 C137.248582,56.1624861 133.986626,61.803745 125.174331,62.8523028 C119.633957,63.5120797 115.957386,60.973498 115.500797,57.1156653 C115.320517,55.5935458 115.56542,53.7768127 116.513628,52.0230598 C114.008124,53.8167809 110.227069,56.2154741 108.55925,56.2088127 C107.95137,56.2060877 107.6352,55.8000478 107.637616,55.133004 C107.641239,54.3142629 108.138898,53.124 109.107036,51.9222311 C107.123047,53.2517769 105.359501,54.5062311 103.942322,55.267745 C102.902615,55.8179124 101.543718,56.2239522 100.444824,56.2239522 C99.3181472,56.2239522 98.4221812,55.789753 98.4221812,54.6882072 C98.4221812,53.9472829 98.8440432,52.9299124 99.5950602,51.8837769 C96.1150763,54.2149482 93.2843432,56.2239522 91.8873972,56.2239522 C91.2795174,56.2239522 90.9334517,55.8475857 90.9334517,54.9489084 C90.9334517,52.1378167 98.1011796,48.1370677 98.1011796,46.8041912 C98.1011796,46.6010199 97.9858243,46.1086853 97.9281467,45.5585179 C97.292485,46.3118566 95.3565099,48.2824064 90.4128432,51.5283028 L90.4122392,51.5273944 C86.68705,54.0078406 83.6397993,56.2239522 82.1718887,56.2239522 C81.5640088,56.2239522 81.2179431,55.8475857 81.2179431,54.9489084 C81.2179431,52.1378167 88.385671,48.1370677 88.385671,46.8041912 C88.385671,46.6010199 88.2703158,46.1086853 88.2126382,45.5585179 C87.5766744,46.3118566 85.6410014,48.2824064 80.6973346,51.5283028 L80.6964287,51.5273944 C78.465724,53.0022789 76.4998532,54.4305339 74.9419535,55.267745 C73.9025484,55.8179124 72.5433496,56.2239522 71.444757,56.2239522 C70.3177785,56.2239522 69.4218125,55.789753 69.4218125,54.6882072 C69.4218125,53.9951235 69.797472,53.0585976 70.4600097,52.0842231 C69.3813476,52.9129562 67.6824245,53.8207171 64.5343135,54.1295618 C63.9363989,54.8568606 63.3055688,55.5311713 62.5901851,56.2421195 C58.1296816,60.5229482 52.9993931,63.6183586 47.2464277,64.1824542 C47.1081222,64.1957769 46.9689108,64.192749 46.8306053,64.2030438 C46.6865622,64.2266614 46.5485587,64.2554263 46.3954563,64.26451 C46.1212611,64.2805578 45.8413284,64.3280956 45.5496185,64.3168924 C45.2597205,64.3199203 44.9649909,64.3159841 44.6678455,64.2823745 C44.5204807,64.2754104 44.3691901,64.2421036 44.2212214,64.2190916 C44.0663071,64.18851 43.896898,64.1394582 43.7700676,64.0513466 C43.6387076,63.9671713 43.4895309,63.8648287 43.4203782,63.6674104 C43.3533392,63.4590916 43.4575213,63.2680319 43.5532481,63.1572112 C43.7576866,62.9246693 43.9944366,62.7914422 44.2163897,62.6672988 C44.4398528,62.5455777 44.6587862,62.4517131 44.8617147,62.3690518 C45.675543,62.0462789 46.2384282,61.9036653 46.2384282,61.9036653 L46.2502054,61.9412112 C46.2502054,61.9412112 45.7006071,62.1301514 44.9266398,62.5137849 C44.7342804,62.6106773 44.52954,62.7224064 44.3220817,62.8501833 C44.1188511,62.9785657 43.9005217,63.1296574 43.7570826,63.317992 C43.6009604,63.5178327 43.6818903,63.6513626 43.9237739,63.7803506 C44.0400351,63.8463586 44.1535785,63.8666454 44.2819188,63.8860239 C44.4196203,63.8990438 44.5533962,63.9229641 44.6959293,63.921753 C44.9761641,63.937498 45.2600225,63.9269004 45.5399553,63.9172112 C45.8186801,63.9129721 46.096197,63.8832988 46.3631448,63.8705817 C46.4664209,63.8660398 46.5606378,63.8560478 46.6608942,63.8490837 C53.8416071,63.0279203 58.4373963,58.5342311 62.4615428,53.720494 C62.0735023,53.4004462 61.8391681,52.9550438 61.7509908,52.4999522 C60.1151809,53.6093705 58.6608593,54.616749 57.4496293,55.267745 C56.4099222,55.8179124 55.0510253,56.2239522 53.9521307,56.2239522 C52.8254543,56.2239522 51.9294883,55.789753 51.9294883,54.6882072 C51.9294883,53.7344223 52.6349067,52.3228207 53.8376814,50.9814661 C50.1879865,53.3980239 45.8180762,56.2239522 44.4966245,56.2239522 C43.8887446,56.2239522 43.5426789,55.8475857 43.5426789,54.9489084 C43.5426789,52.1378167 50.7104068,48.1370677 50.7104068,46.8041912 C50.7104068,46.6010199 50.5950516,46.1086853 50.5373739,45.5585179 C49.9014102,46.3118566 47.9657371,48.2824064 43.0220704,51.5283028 L42.8194438,51.3548048 C48.1091762,47.8760637 49.931004,45.9930199 50.5092901,45.2681434 L50.5092901,44.7179761 C50.5092901,43.5289243 51.3179847,42.978757 51.9243547,42.978757 C52.2719303,42.978757 52.5322345,43.152255 52.5322345,43.5004622 C52.5322345,44.1381355 51.6063728,44.7461355 51.1452538,44.9493068 C50.970711,45.03651 50.9130334,45.1806375 50.9130334,45.2978167 C50.9130334,46.1665179 51.1730357,47.0370359 51.1730357,47.9060398 C51.1730357,50.6874582 44.4389468,53.6735618 44.4389468,55.4130837 C44.4389468,55.7319203 44.5835939,55.875745 44.871982,55.875745 C45.9017238,55.875745 50.8496182,52.6519522 54.7251921,50.0836972 C56.4823967,48.5013227 58.9450197,47.2105339 61.7573323,47.2105339 C62.3060246,47.2105339 62.537943,47.3840319 62.537943,47.6747092 C62.537943,48.601243 59.8778269,50.6296255 56.0345647,51.2094661 C54.4727392,52.7455139 53.2307075,54.3396972 53.2307075,55.0645737 C53.2307075,55.6725737 53.7217222,55.875745 54.3854678,55.875745 C55.3113296,55.875745 56.583257,55.4709163 57.334274,55.0352032 C58.4059907,54.431745 59.9445639,53.3943904 61.7186792,52.2074582 C61.6881795,51.4974183 62.050552,50.8479363 62.9558793,50.7592191 C63.3016431,50.7256096 63.605432,50.8003984 63.6507286,51.2624542 L62.0707845,52.3979124 C62.1646994,52.767012 62.4712061,53.2245259 62.723357,53.4325418 L64.251361,51.5352669 C69.9738266,44.4902789 72.9612858,38.4793147 81.2913235,35.4114582 C81.3070264,35.404494 81.3218232,35.3966215 81.3372241,35.3896574 C81.707448,35.2370518 82.0867312,35.100494 82.4829251,35.0102629 C82.6795122,34.9606056 82.8824408,34.9300239 83.0880872,34.9088287 C83.1925712,34.9027729 83.2970553,34.8976255 83.4051631,34.9051952 C83.5202164,34.922757 83.6096016,34.9121594 83.761798,35.0084462 L83.774783,35.0166215 L83.7841443,35.0341833 C83.8475595,35.1540877 83.7959214,35.2485578 83.7690455,35.2991235 C83.7364319,35.3569562 83.6998927,35.4026773 83.6618436,35.4450677 C83.5860474,35.529243 83.5060234,35.6022151 83.4235837,35.6709482 C83.2590062,35.8084143 83.0883891,35.9328606 82.9150543,36.0530677 C82.5656668,36.2889402 82.2066161,36.5063426 81.8424317,36.7140558 L81.8273329,36.6895299 C82.1697749,36.4491155 82.5049694,36.1984064 82.8277829,35.9352829 C82.9899446,35.8050837 83.1487846,35.6709482 83.2958474,35.5289402 C83.3695298,35.4580877 83.4395885,35.3839044 83.498776,35.30851 C83.5280678,35.2703586 83.5540378,35.2312988 83.5700426,35.1967809 C83.5742703,35.1892112 83.5730623,35.1864861 83.5748742,35.1807331 C83.5335033,35.1698327 83.4564992,35.1540877 83.3915741,35.1552988 C83.301585,35.1528765 83.2079721,35.1616574 83.1149631,35.170741 C82.9271334,35.197992 82.7390017,35.2376574 82.5520778,35.2894343 C82.2745609,35.3642231 81.9997618,35.4623267 81.7252646,35.5586135 C71.2478679,39.6626135 70.1368942,47.1654183 64.7928059,53.812239 C68.6212713,53.4367809 70.2126905,51.6188367 71.720764,50.563012 C73.4942754,48.7708048 76.1586191,47.2105339 79.2496565,47.2105339 C79.7983489,47.2105339 80.0305692,47.3840319 80.0305692,47.6747092 C80.0305692,48.601243 77.3701512,50.6296255 73.5268889,51.2094661 C71.9653654,52.7455139 70.7230317,54.3396972 70.7230317,55.0645737 C70.7230317,55.6725737 71.2140465,55.875745 71.8780941,55.875745 C72.8039558,55.875745 74.0755813,55.4709163 74.8265983,55.0352032 C76.2153908,54.2534024 78.3829823,52.7455139 80.8395658,51.1234741 L80.8401698,51.124988 C85.857217,47.7955219 87.6195552,45.9766693 88.1845543,45.2681434 L88.1845543,44.7179761 C88.1845543,43.5289243 88.9935509,42.978757 89.5996189,42.978757 C89.9471945,42.978757 90.2074988,43.152255 90.2074988,43.5004622 C90.2074988,44.1381355 89.281637,44.7461355 88.8202161,44.9493068 C88.6459753,45.03651 88.5882977,45.1806375 88.5882977,45.2978167 C88.5882977,46.1665179 88.8486019,47.0370359 88.8486019,47.9060398 C88.8486019,50.6874582 82.1142111,53.6735618 82.1142111,55.4130837 C82.1142111,55.7319203 82.2591601,55.875745 82.5475482,55.875745 C83.616547,55.875745 86.6227289,53.7316972 90.5535645,51.1234741 L90.5544704,51.1255936 C95.5724235,47.7958247 97.3347618,45.9766693 97.9000628,45.2681434 L97.9000628,44.7179761 C97.9000628,43.5289243 98.7090594,42.978757 99.3154294,42.978757 C99.6627031,42.978757 99.9230073,43.152255 99.9230073,43.5004622 C99.9230073,44.1381355 98.9974476,44.7461355 98.5360266,44.9493068 C98.3614838,45.03651 98.3038062,45.1806375 98.3038062,45.2978167 C98.3038062,46.1665179 98.5641104,47.0370359 98.5641104,47.9060398 C98.5641104,50.6874582 91.8297196,53.6735618 91.8297196,55.4130837 C91.8297196,55.7319203 91.9746686,55.875745 92.2630567,55.875745 C93.3166548,55.875745 96.2570056,53.7901355 100.104797,51.2330837 C101.840562,49.177753 104.777893,47.2105339 108.250025,47.2105339 C108.798718,47.2105339 109.030938,47.3840319 109.030938,47.6747092 C109.030938,48.601243 106.37052,50.6296255 102.527258,51.2094661 C100.965734,52.7455139 99.7234004,54.3396972 99.7234004,55.0645737 C99.7234004,55.6725737 100.214415,55.875745 100.878161,55.875745 C101.804023,55.875745 103.075648,55.4709163 103.826967,55.0352032 C105.205492,54.2591554 107.353153,52.7667092 109.787693,51.157992 C111.728801,49.1883506 114.979584,47.3961434 119.550007,47.4149163 C119.682877,47.4155219 119.865272,47.4191554 120.062161,47.4252112 L121.151996,46.0823426 C124.003263,42.8836813 126.753067,40.046247 128.650087,37.631506 C129.942549,37.4776892 131.504072,37.1455299 131.504072,37.1455299 L131.610972,37.3075219 C128.284996,40.447745 122.513611,46.7669482 118.601799,51.3475378 C116.939718,53.2965896 115.858942,55.9653705 116.042846,57.5186773 C116.444777,60.9156653 120.476171,63.004 124.811052,62.4880478 C132.790796,61.538502 135.916259,55.7373705 135.439437,51.7087649 C135.156485,49.3188526 133.579863,47.5505657 130.967761,47.8615299 C129.675299,48.0153466 128.151221,48.6642231 126.415758,49.9801434 L126.15485,49.74851 C128.05338,48.3263108 129.774951,47.6241434 131.238936,47.4500398 C134.396409,47.0742789 136.424185,49.1980398 136.75485,51.989753 Z M24.5380534,72.8664382 C24.5549641,72.8664382 24.5718749,72.8552351 24.5718749,72.8261673 L24.5718749,72.7080797 C24.5718749,71.8293865 24.5718749,71.7334024 24.5610037,71.5520319 C24.5489246,71.3876175 24.50393,71.2916335 24.3173082,71.2516653 C24.2723136,71.2456096 24.187458,71.2404622 24.1195132,71.2347092 C24.0403952,71.2347092 24.0126133,71.200494 24.0126133,71.1777849 C24.0126133,71.1435697 24.0403952,71.1214661 24.1252508,71.1214661 C24.4528959,71.1214661 24.9617273,71.1384223 25.018499,71.1384223 C25.0695331,71.1384223 25.7187838,71.1214661 25.9615734,71.1214661 C26.0464289,71.1214661 26.0745128,71.1435697 26.0745128,71.1777849 C26.0745128,71.2065498 26.0464289,71.2347092 25.9905632,71.2347092 C25.8936285,71.2456096 25.8604111,71.2456096 25.7924662,71.2577211 C25.6457054,71.2798247 25.5998048,71.3758088 25.5828941,71.5571793 C25.5720229,71.7385498 25.5720229,71.8857052 25.5720229,72.7640956 L25.5720229,73.7617849 C25.5720229,74.2998406 25.5720229,74.7192032 25.5998048,74.9568924 C25.6167156,75.1440159 25.662918,75.2403028 25.8317232,75.2684622 C25.9105392,75.2802709 26.0243846,75.2854183 26.0802504,75.2911713 C26.1481952,75.2911713 26.1762791,75.3193307 26.1762791,75.34749 C26.1762791,75.3874582 26.1312845,75.4044143 26.0633396,75.4044143 C25.6737892,75.4044143 25.1033545,75.3874582 25.0015882,75.3874582 C24.9106931,75.3874582 24.4701086,75.4044143 24.1931956,75.4044143 C24.0914293,75.4044143 24.0684791,75.3765578 24.0684791,75.3423426 C24.0684791,75.3135777 24.1026025,75.2911713 24.1762849,75.2911713 C24.2333586,75.2854183 24.3003975,75.2802709 24.3511296,75.2684622 C24.4870193,75.2403028 24.5211427,75.1319044 24.5380534,74.9508367 C24.5610037,74.7134502 24.5718749,74.3564622 24.5718749,73.8181036 L24.5718749,73.3590757 C24.5718749,73.3360637 24.5549641,73.3251633 24.5380534,73.3251633 L22.7748093,73.3251633 C22.7578986,73.3251633 22.7409878,73.3312191 22.7409878,73.3590757 L22.7409878,73.9483028 C22.7409878,74.4869641 22.7467254,74.7192032 22.7696757,74.9629482 C22.7865864,75.1270598 22.8367146,75.234247 23.0064257,75.2633147 C23.1254047,75.2802709 23.1815724,75.2854183 23.2440816,75.2911713 C23.3062889,75.2911713 23.3512835,75.3081275 23.3512835,75.34749 C23.3512835,75.3765578 23.3231996,75.4044143 23.2383441,75.4044143 C22.9164365,75.4044143 22.2493692,75.3874582 22.1935034,75.3874582 C22.1424693,75.3874582 21.5490843,75.4044143 21.3682,75.4044143 C21.3062947,75.4044143 21.2434835,75.3935139 21.2434835,75.353243 C21.2434835,75.3135777 21.2664338,75.2911713 21.3401162,75.2911713 C21.4071551,75.2854183 21.4409765,75.2802709 21.5149609,75.2684622 C21.6508506,75.251506 21.7018847,75.1040478 21.7127559,74.9347888 C21.7299686,74.6961912 21.7408398,74.2998406 21.7408398,73.7617849 L21.7408398,72.7752988 C21.7408398,71.8978167 21.7348002,71.7676175 21.723929,71.586247 C21.7127559,71.3876175 21.6508506,71.2798247 21.4530556,71.2516653 C21.3851108,71.2404622 21.3564229,71.2404622 21.2942157,71.2347092 C21.1924494,71.2286534 21.1812762,71.200494 21.1812762,71.1723347 C21.1812762,71.1326693 21.2434835,71.1214661 21.3062947,71.1214661 C21.6339399,71.1214661 22.0684849,71.1384223 22.198335,71.1384223 C22.4130407,71.1384223 22.8877487,71.1214661 23.1314442,71.1214661 C23.2323045,71.1214661 23.2492153,71.1435697 23.2492153,71.1777849 C23.2492153,71.2065498 23.2153938,71.2347092 23.1483549,71.2347092 C23.0804101,71.2404622 23.0064257,71.2456096 22.9505599,71.2577211 C22.7977595,71.2916335 22.7696757,71.4218327 22.7578986,71.586247 C22.7409878,71.7676175 22.7409878,71.9998566 22.7409878,72.7080797 L22.7409878,72.8261673 C22.7409878,72.8552351 22.7578986,72.8664382 22.7748093,72.8664382 L24.5380534,72.8664382 Z M33.0981977,73.4041912 C33.0981977,72.4637291 32.7086472,71.3930677 31.7084992,71.3930677 C31.1881926,71.3930677 30.6065848,71.6825339 30.6065848,73.0247968 C30.6065848,74.0954582 31.052303,75.121004 32.0243672,75.121004 C32.3749626,75.121004 33.0981977,74.9677928 33.0981977,73.4041912 Z M29.4759826,73.2800478 C29.4759826,72.147012 30.2330391,71.0424382 31.8942151,71.0424382 C33.3298141,71.0424382 34.2278939,72.005004 34.2278939,73.154996 C34.2278939,74.4748526 33.3358536,75.4834422 31.85526,75.4834422 C30.1880446,75.4834422 29.4759826,74.2825817 29.4759826,73.2800478 Z M40.1472486,73.7617849 C40.1472486,74.2035538 40.1472486,74.7304064 40.1759364,74.9677928 C40.1871096,75.115251 40.2269706,75.234247 40.3957757,75.2633147 C40.4697601,75.2742151 40.537705,75.2802709 40.6394712,75.2911713 C40.7294604,75.2972271 40.7524107,75.3135777 40.7524107,75.353243 C40.7524107,75.3874582 40.7234209,75.4044143 40.6225605,75.4044143 C40.2378417,75.4044143 39.6897533,75.3874582 39.5994622,75.3874582 C39.5034335,75.3874582 38.9553451,75.4044143 38.7687232,75.4044143 C38.6784321,75.4044143 38.6385711,75.3935139 38.6385711,75.34749 C38.6385711,75.3081275 38.6835657,75.2911713 38.7515105,75.2911713 C38.8082822,75.2854183 38.8701875,75.2802709 38.9323948,75.2684622 C39.0571114,75.2460558 39.0960664,75.121004 39.1129771,74.9568924 C39.1362293,74.7192032 39.1471005,74.310741 39.1471005,73.7617849 L39.1471005,71.5402231 C38.9272612,71.5402231 38.5766658,71.5350757 38.2940153,71.5520319 C37.9772413,71.568988 37.8534307,71.6425657 37.7794463,71.8405896 C37.7513625,71.9026614 37.7404913,71.9368765 37.7293181,71.9707888 C37.717541,72.0168127 37.7006303,72.0619283 37.6613733,72.0619283 C37.6106411,72.0619283 37.6106411,72.0168127 37.6157748,71.9486853 C37.638725,71.7164462 37.7006303,71.4100239 37.7404913,71.1944382 C37.7513625,71.1102629 37.7685752,71.0533386 37.8023966,71.0533386 C37.8422576,71.0533386 37.8643019,71.0702948 37.994152,71.0984542 C38.0962203,71.1214661 38.4066527,71.1384223 38.6216604,71.1384223 L41.0800558,71.1384223 C41.2549005,71.1384223 41.3566668,71.1266135 41.4357848,71.1154104 C41.5266799,71.0984542 41.5713725,71.081498 41.6106295,71.081498 C41.6613617,71.081498 41.6674012,71.1154104 41.6674012,71.2577211 C41.6674012,71.336749 41.6335798,71.8636016 41.6275402,72.005004 C41.6224066,72.0840319 41.6054959,72.118247 41.5713725,72.118247 C41.5266799,72.118247 41.5146008,72.0840319 41.5097692,72.0168127 C41.5037296,71.9538327 41.5037296,71.9317291 41.4976901,71.9026614 C41.4756458,71.7273466 41.3907902,71.5913944 41.0571055,71.568988 C40.8704837,71.5520319 40.57666,71.5402231 40.1472486,71.5402231 L40.1472486,73.7617849 Z M45.4246,72.7640956 C45.4246,71.8405896 45.4185605,71.7273466 45.4076893,71.5462789 C45.3968181,71.3818645 45.345784,71.2855777 45.2047607,71.2516653 C45.1540286,71.2404622 45.0740046,71.2404622 45.0181389,71.2347092 C44.9441545,71.2286534 44.9160706,71.2065498 44.9160706,71.1723347 C44.9160706,71.1384223 44.950194,71.1214661 45.0401832,71.1214661 C45.3626947,71.1214661 45.6335682,71.1384223 45.8820953,71.1384223 C46.0010743,71.1384223 47.3856392,71.1326693 47.4756283,71.1326693 C47.5885678,71.1326693 47.7244575,71.1214661 47.7812291,71.1102629 C47.8201842,71.0984542 47.849174,71.087251 47.8712183,71.087251 C47.8999061,71.087251 47.9050397,71.1102629 47.9050397,71.1384223 C47.9050397,71.1665817 47.8941686,71.223506 47.8769559,71.3876175 C47.8600452,71.5008606 47.849174,71.6991873 47.8319613,71.9938008 C47.8319613,72.0389163 47.809313,72.0731315 47.7751896,72.0731315 C47.7474077,72.0731315 47.7244575,72.0449721 47.7193238,71.9938008 C47.7193238,71.9317291 47.7132843,71.874502 47.690334,71.7954741 C47.6622502,71.6652749 47.5885678,71.5913944 47.3176943,71.568988 C47.1307705,71.5520319 46.6394538,71.5402231 46.4703466,71.5402231 C46.4365252,71.5402231 46.4244461,71.5571793 46.4244461,71.5971474 L46.4244461,72.8431235 C46.4244461,72.8833944 46.4304857,72.911251 46.4703466,72.911251 C46.6282807,72.9173068 47.0857759,72.911251 47.2896105,72.9064064 C47.5665234,72.8942948 47.6392999,72.8773386 47.7024131,72.7752988 C47.7362346,72.7250359 47.7522393,72.7020239 47.7812291,72.7020239 C47.8150506,72.7020239 47.8150506,72.7359363 47.8150506,72.7701514 C47.8150506,72.8261673 47.7863628,73.0305498 47.769452,73.2518884 C47.7640164,73.3820877 47.7640164,73.659745 47.7640164,73.7215139 C47.7640164,73.7956972 47.7474077,73.8299124 47.7132843,73.8299124 C47.6734233,73.8299124 47.6622502,73.7899442 47.651379,73.7387729 C47.6453395,73.6936574 47.6392999,73.6536892 47.6341663,73.6085737 C47.611518,73.4441594 47.5324,73.3481753 47.255789,73.3312191 C47.0969491,73.3191076 46.6343202,73.3079044 46.4585695,73.3079044 C46.4304857,73.3079044 46.4244461,73.3360637 46.4244461,73.3820877 L46.4244461,73.7726853 C46.4244461,73.965259 46.4196145,74.2998406 46.4244461,74.5151235 C46.4304857,74.9117769 46.5096037,75.0017052 47.1368101,75.0017052 C47.2838729,75.0017052 47.5043162,74.9968606 47.6622502,74.9347888 C47.8201842,74.871506 47.888129,74.7473626 47.9391632,74.4869641 C47.9500343,74.4188367 47.9729846,74.3849243 48.006806,74.3849243 C48.0518006,74.3849243 48.0578401,74.4409402 48.0578401,74.5090677 C48.0578401,74.7304064 47.9959348,75.1609721 47.966945,75.2684622 C47.92799,75.4156175 47.888129,75.4216733 47.6794629,75.4216733 C46.8991541,75.4216733 46.4754803,75.3874582 45.8820953,75.3874582 C45.6163555,75.3874582 45.3796054,75.4044143 45.068871,75.4044143 C44.9671047,75.4044143 44.9332833,75.3874582 44.9332833,75.34749 C44.9332833,75.3193307 44.9610652,75.2911713 45.0462227,75.2911713 C45.1138656,75.2854183 45.1709393,75.2802709 45.2156319,75.2684622 C45.3738679,75.2460558 45.3968181,75.0307729 45.4076893,74.6731793 C45.4185605,74.446996 45.4246,74.1124143 45.4246,73.7617849 L45.4246,72.7640956 Z M53.1968861,73.7669323 C53.1968861,74.3398088 53.1799753,74.7473626 53.2757021,74.8666614 C53.355424,74.9738486 53.4626259,75.0017052 53.9322002,75.0017052 C54.2426327,75.0017052 54.423517,74.9968606 54.581451,74.9117769 C54.7173407,74.8494024 54.8130674,74.702247 54.8752747,74.4357928 C54.8921854,74.3737211 54.9030566,74.328 54.9489571,74.328 C54.9879121,74.328 54.9939517,74.3564622 54.9939517,74.4357928 C54.9939517,74.565992 54.9320464,75.1040478 54.8752747,75.2684622 C54.8302801,75.4156175 54.7852855,75.4216733 54.5585007,75.4216733 C53.7790979,75.4216733 53.2539597,75.3874582 52.6545352,75.3874582 C52.3887954,75.3874582 52.0841005,75.4044143 51.7733661,75.4044143 C51.6942481,75.4044143 51.6486496,75.3935139 51.6486496,75.3423426 C51.6486496,75.3081275 51.682471,75.2911713 51.762193,75.2911713 C51.8292319,75.2854183 51.8920431,75.2802709 51.9542504,75.2684622 C52.1577829,75.234247 52.1629165,75.1319044 52.1798273,74.6792351 C52.1910004,74.4530518 52.19704,74.1124143 52.19704,73.7617849 L52.19704,72.7640956 C52.19704,71.8405896 52.1910004,71.7385498 52.1798273,71.5571793 C52.1689561,71.3988207 52.1290951,71.3028367 51.9880718,71.2628685 C51.9370377,71.2456096 51.8521821,71.2404622 51.7673266,71.2347092 C51.7054213,71.2347092 51.6486496,71.223506 51.6486496,71.1777849 C51.6486496,71.1326693 51.7054213,71.1214661 51.8183607,71.1214661 C52.1408722,71.1214661 52.4343939,71.1384223 52.6545352,71.1384223 C52.7052674,71.1384223 53.4064582,71.1214661 53.6093868,71.1214661 C53.711455,71.1214661 53.7452764,71.1384223 53.7452764,71.1723347 C53.7452764,71.223506 53.6885047,71.2347092 53.6093868,71.2347092 C53.553521,71.2404622 53.4964473,71.2404622 53.4176313,71.2577211 C53.2648309,71.2855777 53.2258759,71.3930677 53.2137968,71.5913944 C53.2029256,71.7724622 53.1968861,71.8857052 53.1968861,72.8213227 L53.1968861,73.7669323 Z M83.3837227,73.1437928 C83.3837227,73.1889084 83.4009354,73.2119203 83.4347568,73.2288765 C83.5416567,73.2858008 83.7113678,73.3021514 83.8693019,73.3021514 C84.0221023,73.3021514 84.1350417,73.2800478 84.2259368,73.2119203 C84.3446138,73.1216892 84.4457761,72.8773386 84.4457761,72.4976414 C84.4457761,71.6934343 83.9372467,71.4839044 83.643725,71.4839044 C83.5534338,71.4839044 83.4577071,71.4890518 83.4178461,71.5063108 C83.3948959,71.5181195 83.3837227,71.5232669 83.3837227,71.568988 L83.3837227,73.1437928 Z M82.4119605,72.7640956 C82.4119605,71.8857052 82.4007873,71.7724622 82.3947478,71.5913944 C82.3838766,71.3588526 82.3159318,71.2855777 82.1800421,71.2577211 C82.0951865,71.2404622 82.0051974,71.2404622 81.9541632,71.2347092 C81.8862184,71.2286534 81.852397,71.2065498 81.852397,71.1723347 C81.852397,71.1384223 81.8922579,71.1214661 81.9771135,71.1214661 C82.2199031,71.1214661 82.7625559,71.1384223 82.8413719,71.1384223 C82.9482718,71.1384223 83.4906226,71.1214661 83.7512288,71.1214661 C84.2818025,71.1214661 84.6553482,71.1723347 84.9041773,71.3137371 C85.1750507,71.4611952 85.4178403,71.7503586 85.4178403,72.1812271 C85.4178403,72.6569084 85.1469669,73.0193466 84.6604818,73.3191076 C85.0050377,73.8181036 85.4178403,74.4239841 85.7623962,74.8206375 C86.0619574,75.1552191 86.1978471,75.251506 86.3557811,75.2742151 C86.4176864,75.2854183 86.4518098,75.2854183 86.4974084,75.2911713 C86.5596157,75.2911713 86.5934371,75.3135777 86.5934371,75.34749 C86.5934371,75.3983586 86.5363634,75.4044143 86.4804977,75.4044143 L85.9719683,75.4044143 C85.3897564,75.4044143 85.1409273,75.34749 84.9431323,75.2172908 C84.7625501,75.1098008 84.5816658,74.8666614 84.3618265,74.5090677 C84.1012203,74.078502 83.9713701,73.8468685 83.8693019,73.6936574 C83.8584307,73.6763984 83.8303468,73.659745 83.8022629,73.659745 L83.4290193,73.659745 C83.4009354,73.659745 83.3837227,73.6706454 83.3837227,73.7048606 L83.3837227,73.9940239 C83.3837227,74.4409402 83.3837227,74.7073944 83.4118066,74.9456892 C83.4235837,75.0931474 83.4628407,75.2172908 83.6325518,75.257259 C83.7113678,75.2802709 83.7732731,75.2802709 83.8865146,75.2911713 C83.9771077,75.2972271 83.9879789,75.3193307 83.9879789,75.353243 C83.9879789,75.3874582 83.9490238,75.4044143 83.8693019,75.4044143 C83.4906226,75.4044143 82.8751933,75.3874582 82.8353323,75.3874582 C82.7676895,75.3874582 82.2199031,75.4044143 82.0272417,75.4044143 C81.9432921,75.4044143 81.9143023,75.3874582 81.9143023,75.34749 C81.9143023,75.3081275 81.9541632,75.2911713 82.0163705,75.2911713 C82.0731422,75.2854183 82.1459187,75.2802709 82.208126,75.2684622 C82.3216693,75.2403028 82.3666639,75.1379602 82.3838766,74.9456892 C82.4059209,74.7073944 82.4119605,74.310741 82.4119605,73.7617849 L82.4119605,72.7640956 Z M90.0320501,72.7640956 C90.0320501,71.8405896 90.0260105,71.7273466 90.0151394,71.5462789 C90.0039662,71.3818645 89.9532341,71.2855777 89.8122108,71.2516653 C89.7614786,71.2404622 89.6814547,71.2404622 89.6255889,71.2347092 C89.5516045,71.2286534 89.5235207,71.2065498 89.5235207,71.1723347 C89.5235207,71.1384223 89.5576441,71.1214661 89.6476333,71.1214661 C89.9701448,71.1214661 90.2410182,71.1384223 90.4895453,71.1384223 C90.6085243,71.1384223 91.9927872,71.1326693 92.0830784,71.1326693 C92.1957158,71.1326693 92.3316055,71.1214661 92.3886792,71.1102629 C92.4276342,71.0984542 92.4563221,71.087251 92.4786684,71.087251 C92.5073562,71.087251 92.5124898,71.1102629 92.5124898,71.1384223 C92.5124898,71.1665817 92.5016186,71.223506 92.4844059,71.3876175 C92.4674952,71.5008606 92.4563221,71.6991873 92.4394113,71.9938008 C92.4394113,72.0389163 92.4164611,72.0731315 92.3826397,72.0731315 C92.3548578,72.0731315 92.3316055,72.0449721 92.3267739,71.9938008 C92.3267739,71.9317291 92.3207343,71.874502 92.2977841,71.7954741 C92.2697002,71.6652749 92.1957158,71.5913944 91.9251444,71.568988 C91.7382206,71.5520319 91.2469039,71.5402231 91.0777967,71.5402231 C91.0439753,71.5402231 91.0318962,71.5571793 91.0318962,71.5971474 L91.0318962,72.8431235 C91.0318962,72.8833944 91.0379357,72.911251 91.0777967,72.911251 C91.2357307,72.9173068 91.693226,72.911251 91.8970605,72.9064064 C92.1739735,72.8942948 92.24675,72.8773386 92.3095612,72.7752988 C92.3436846,72.7250359 92.3596894,72.7020239 92.3886792,72.7020239 C92.4225006,72.7020239 92.4225006,72.7359363 92.4225006,72.7701514 C92.4225006,72.8261673 92.3938128,73.0305498 92.3766001,73.2518884 C92.3714665,73.3820877 92.3714665,73.659745 92.3714665,73.7215139 C92.3714665,73.7956972 92.3548578,73.8299124 92.3207343,73.8299124 C92.2808734,73.8299124 92.2697002,73.7899442 92.258829,73.7387729 C92.2527895,73.6936574 92.24675,73.6536892 92.2416164,73.6085737 C92.2189681,73.4441594 92.1398501,73.3481753 91.8632391,73.3312191 C91.7043991,73.3191076 91.2417702,73.3079044 91.0660196,73.3079044 C91.0379357,73.3079044 91.0318962,73.3360637 91.0318962,73.3820877 L91.0318962,73.7726853 C91.0318962,73.965259 91.0270645,74.2998406 91.0318962,74.5151235 C91.0379357,74.9117769 91.1170537,75.0017052 91.7442601,75.0017052 C91.8913229,75.0017052 92.1120682,74.9968606 92.2697002,74.9347888 C92.4276342,74.871506 92.4955791,74.7473626 92.5466132,74.4869641 C92.5574844,74.4188367 92.5804346,74.3849243 92.614558,74.3849243 C92.6592507,74.3849243 92.6652902,74.4409402 92.6652902,74.5090677 C92.6652902,74.7304064 92.6033849,75.1609721 92.5743951,75.2684622 C92.5354401,75.4156175 92.4955791,75.4216733 92.2866109,75.4216733 C91.5066041,75.4216733 91.0829303,75.3874582 90.4895453,75.3874582 C90.2238055,75.3874582 89.9870555,75.4044143 89.6763211,75.4044143 C89.5745548,75.4044143 89.5404314,75.3874582 89.5404314,75.34749 C89.5404314,75.3193307 89.5685153,75.2911713 89.6533708,75.2911713 C89.7213157,75.2854183 89.7783893,75.2802709 89.8233839,75.2684622 C89.9810159,75.2460558 90.0039662,75.0307729 90.0151394,74.6731793 C90.0260105,74.446996 90.0320501,74.1124143 90.0320501,73.7617849 L90.0320501,72.7640956 Z M96.2696886,75.3253865 C96.1736599,75.2854183 96.145576,75.2121434 96.145576,75.0989004 C96.145576,74.6392669 96.1627887,74.4239841 96.1796994,74.2656255 C96.1908726,74.1635857 96.2138228,74.1293705 96.2467383,74.1293705 C96.2869013,74.1293705 96.2926389,74.1805418 96.2977725,74.2256574 C96.303812,74.2825817 96.3095496,74.333753 96.3267623,74.4018805 C96.422489,74.8666614 96.8461628,75.1319044 97.2867474,75.1319044 C97.8239646,75.1319044 97.9879382,74.8545498 97.9879382,74.6111076 C97.9879382,74.3737211 97.9420377,74.1753944 97.4624981,73.8468685 L97.1119027,73.6025179 C96.422489,73.1156335 96.2307336,72.7189801 96.2307336,72.2202869 C96.2307336,71.568988 96.7670449,71.0424382 97.6714662,71.0424382 C97.9139538,71.0424382 98.0839669,71.0533386 98.3207169,71.0984542 C98.41131,71.1154104 98.5073388,71.1384223 98.5973279,71.1665817 C98.6540996,71.1835378 98.6713123,71.200494 98.6713123,71.2456096 C98.6601392,71.4269801 98.648362,71.5402231 98.648362,72.0449721 C98.648362,72.147012 98.6314513,72.1863745 98.5864567,72.1863745 C98.5583729,72.1863745 98.5354226,72.1691155 98.5242495,72.0788845 C98.5185119,72.0219602 98.5012992,71.8805578 98.4224832,71.7503586 C98.3155833,71.568988 98.0549771,71.3758088 97.648214,71.3758088 C97.1849811,71.3758088 97.015874,71.6371155 97.015874,71.8978167 C97.015874,72.0900877 97.0838188,72.3114263 97.4676317,72.5718247 L97.7560198,72.7640956 C98.5471997,73.2909482 98.7951229,73.6424861 98.7951229,74.2144542 C98.7951229,74.6053546 98.6202782,74.9908048 98.1966043,75.2403028 C97.8689592,75.4383267 97.5074926,75.4834422 97.2136689,75.4834422 C96.7893912,75.4834422 96.4904338,75.4274263 96.2696886,75.3253865 Z M105.891886,73.4041912 C105.891886,72.4637291 105.502336,71.3930677 104.502188,71.3930677 C103.981881,71.3930677 103.400273,71.6825339 103.400273,73.0247968 C103.400273,74.0954582 103.845992,75.121004 104.818056,75.121004 C105.168651,75.121004 105.891886,74.9677928 105.891886,73.4041912 Z M102.269671,73.2800478 C102.269671,72.147012 103.02703,71.0424382 104.688206,71.0424382 C106.123503,71.0424382 107.021582,72.005004 107.021582,73.154996 C107.021582,74.4748526 106.129542,75.4834422 104.648949,75.4834422 C102.982035,75.4834422 102.269671,74.2825817 102.269671,73.2800478 Z M112.161534,73.1437928 C112.161534,73.1889084 112.178445,73.2119203 112.212568,73.2288765 C112.319468,73.2858008 112.489179,73.3021514 112.647113,73.3021514 C112.799914,73.3021514 112.912853,73.2800478 113.003748,73.2119203 C113.122425,73.1216892 113.223588,72.8773386 113.223588,72.4976414 C113.223588,71.6934343 112.715058,71.4839044 112.421235,71.4839044 C112.331245,71.4839044 112.235519,71.4890518 112.195658,71.5063108 C112.172707,71.5181195 112.161534,71.5232669 112.161534,71.568988 L112.161534,73.1437928 Z M111.18947,72.7640956 C111.18947,71.8857052 111.178599,71.7724622 111.172559,71.5913944 C111.161688,71.3588526 111.093743,71.2855777 110.957854,71.2577211 C110.872998,71.2404622 110.783009,71.2404622 110.731975,71.2347092 C110.66403,71.2286534 110.630209,71.2065498 110.630209,71.1723347 C110.630209,71.1384223 110.67007,71.1214661 110.754925,71.1214661 C110.997715,71.1214661 111.540065,71.1384223 111.619183,71.1384223 C111.726083,71.1384223 112.268434,71.1214661 112.52904,71.1214661 C113.059614,71.1214661 113.43316,71.1723347 113.681989,71.3137371 C113.952862,71.4611952 114.195652,71.7503586 114.195652,72.1812271 C114.195652,72.6569084 113.924778,73.0193466 113.438293,73.3191076 C113.783151,73.8181036 114.195652,74.4239841 114.540208,74.8206375 C114.839769,75.1552191 114.975659,75.251506 115.133593,75.2742151 C115.195498,75.2854183 115.229319,75.2854183 115.27522,75.2911713 C115.337427,75.2911713 115.371249,75.3135777 115.371249,75.34749 C115.371249,75.3983586 115.314477,75.4044143 115.258309,75.4044143 L114.74978,75.4044143 C114.167568,75.4044143 113.918739,75.34749 113.720944,75.2172908 C113.540362,75.1098008 113.359477,74.8666614 113.139336,74.5090677 C112.879032,74.078502 112.74888,73.8468685 112.647113,73.6936574 C112.63594,73.6763984 112.608158,73.659745 112.580075,73.659745 L112.206529,73.659745 C112.178445,73.659745 112.161534,73.6706454 112.161534,73.7048606 L112.161534,73.9940239 C112.161534,74.4409402 112.161534,74.7073944 112.189618,74.9456892 C112.201395,75.0931474 112.240652,75.2172908 112.410363,75.257259 C112.489179,75.2802709 112.551085,75.2802709 112.664024,75.2911713 C112.754919,75.2972271 112.766092,75.3193307 112.766092,75.353243 C112.766092,75.3874582 112.726835,75.4044143 112.647113,75.4044143 C112.268434,75.4044143 111.653005,75.3874582 111.613144,75.3874582 C111.545199,75.3874582 110.997715,75.4044143 110.805053,75.4044143 C110.721104,75.4044143 110.692114,75.3874582 110.692114,75.34749 C110.692114,75.3081275 110.731975,75.2911713 110.79388,75.2911713 C110.850954,75.2854183 110.924032,75.2802709 110.985938,75.2684622 C111.099481,75.2403028 111.144476,75.1379602 111.161688,74.9456892 C111.183733,74.7073944 111.18947,74.310741 111.18947,73.7617849 L111.18947,72.7640956 Z M120.162417,73.7617849 C120.162417,74.2035538 120.162417,74.7304064 120.190501,74.9677928 C120.202278,75.115251 120.241535,75.234247 120.411246,75.2633147 C120.484023,75.2742151 120.551967,75.2802709 120.653734,75.2911713 C120.744629,75.2972271 120.766673,75.3135777 120.766673,75.353243 C120.766673,75.3874582 120.738891,75.4044143 120.636823,75.4044143 C120.252406,75.4044143 119.704922,75.3874582 119.614027,75.3874582 C119.517998,75.3874582 118.969608,75.4044143 118.783892,75.4044143 C118.692997,75.4044143 118.654042,75.3935139 118.654042,75.34749 C118.654042,75.3081275 118.698734,75.2911713 118.766679,75.2911713 C118.822847,75.2854183 118.885658,75.2802709 118.947563,75.2684622 C119.071676,75.2460558 119.111537,75.121004 119.128447,74.9568924 C119.150492,74.7192032 119.162269,74.310741 119.162269,73.7617849 L119.162269,71.5402231 C118.941524,71.5402231 118.591834,71.5350757 118.309184,71.5520319 C117.99241,71.568988 117.868599,71.6425657 117.794615,71.8405896 C117.766833,71.9026614 117.755056,71.9368765 117.743883,71.9707888 C117.732709,72.0168127 117.715799,72.0619283 117.675938,72.0619283 C117.624904,72.0619283 117.624904,72.0168127 117.630943,71.9486853 C117.653893,71.7164462 117.715799,71.4100239 117.755056,71.1944382 C117.766833,71.1102629 117.783744,71.0533386 117.817867,71.0533386 C117.856822,71.0533386 117.879772,71.0702948 118.009622,71.0984542 C118.111389,71.1214661 118.422123,71.1384223 118.636829,71.1384223 L121.09462,71.1384223 C121.270069,71.1384223 121.371231,71.1266135 121.450953,71.1154104 C121.540942,71.0984542 121.585937,71.081498 121.625798,71.081498 C121.676832,71.081498 121.681664,71.1154104 121.681664,71.2577211 C121.681664,71.336749 121.648748,71.8636016 121.642709,72.005004 C121.636971,72.0840319 121.62006,72.118247 121.585937,72.118247 C121.540942,72.118247 121.529769,72.0840319 121.524032,72.0168127 C121.517992,71.9538327 121.517992,71.9317291 121.512859,71.9026614 C121.489908,71.7273466 121.405053,71.5913944 121.072274,71.568988 C120.885652,71.5520319 120.591828,71.5402231 120.162417,71.5402231 L120.162417,73.7617849 Z M125.078302,75.3253865 C124.981367,75.2854183 124.953585,75.2121434 124.953585,75.0989004 C124.953585,74.6392669 124.970496,74.4239841 124.987407,74.2656255 C124.99858,74.1635857 125.02153,74.1293705 125.055352,74.1293705 C125.095213,74.1293705 125.100346,74.1805418 125.106386,74.2256574 C125.112123,74.2825817 125.117257,74.333753 125.134168,74.4018805 C125.230196,74.8666614 125.654776,75.1319044 126.095361,75.1319044 C126.631672,75.1319044 126.795646,74.8545498 126.795646,74.6111076 C126.795646,74.3737211 126.750651,74.1753944 126.270205,73.8468685 L125.91961,73.6025179 C125.230196,73.1156335 125.038441,72.7189801 125.038441,72.2202869 C125.038441,71.568988 125.574752,71.0424382 126.478872,71.0424382 C126.722567,71.0424382 126.891372,71.0533386 127.129028,71.0984542 C127.219017,71.1154104 127.315046,71.1384223 127.405941,71.1665817 C127.462713,71.1835378 127.479926,71.200494 127.479926,71.2456096 C127.467846,71.4269801 127.456975,71.5402231 127.456975,72.0449721 C127.456975,72.147012 127.439763,72.1863745 127.394768,72.1863745 C127.36608,72.1863745 127.344036,72.1691155 127.332259,72.0788845 C127.327125,72.0219602 127.309912,71.8805578 127.231096,71.7503586 C127.123291,71.568988 126.86359,71.3758088 126.456827,71.3758088 C125.993292,71.3758088 125.823581,71.6371155 125.823581,71.8978167 C125.823581,72.0900877 125.891526,72.3114263 126.275943,72.5718247 L126.563727,72.7640956 C127.354907,73.2909482 127.603736,73.6424861 127.603736,74.2144542 C127.603736,74.6053546 127.428891,74.9908048 127.004312,75.2403028 C126.676667,75.4383267 126.3152,75.4834422 126.021376,75.4834422 C125.597702,75.4834422 125.298141,75.4274263 125.078302,75.3253865 Z M58.4235053,75.3253865 C58.3277786,75.2854183 58.2996947,75.2121434 58.2996947,75.0989004 C58.2996947,74.6392669 58.3166054,74.4239841 58.3335162,74.2656255 C58.3443873,74.1635857 58.3676396,74.1293705 58.4005551,74.1293705 C58.4404161,74.1293705 58.4464556,74.1805418 58.4515892,74.2256574 C58.4573268,74.2825817 58.4633663,74.333753 58.480277,74.4018805 C58.5763057,74.8666614 58.9999796,75.1319044 59.4405641,75.1319044 C59.9777814,75.1319044 60.1417549,74.8545498 60.1417549,74.6111076 C60.1417549,74.3737211 60.0958544,74.1753944 59.6163148,73.8468685 L59.2654174,73.6025179 C58.5763057,73.1156335 58.3842483,72.7189801 58.3842483,72.2202869 C58.3842483,71.568988 58.9208616,71.0424382 59.824981,71.0424382 C60.0677705,71.0424382 60.2374816,71.0533386 60.4742317,71.0984542 C60.5654288,71.1154104 60.6611555,71.1384223 60.7511447,71.1665817 C60.8082183,71.1835378 60.8248271,71.200494 60.8248271,71.2456096 C60.8139559,71.4269801 60.8021788,71.5402231 60.8021788,72.0449721 C60.8021788,72.147012 60.7849661,72.1863745 60.7399715,72.1863745 C60.7121896,72.1863745 60.6892394,72.1691155 60.6780662,72.0788845 C60.6723286,72.0219602 60.6551159,71.8805578 60.5762999,71.7503586 C60.4694,71.568988 60.2087938,71.3758088 59.8020307,71.3758088 C59.3384959,71.3758088 59.1696907,71.6371155 59.1696907,71.8978167 C59.1696907,72.0900877 59.2376355,72.3114263 59.6211464,72.5718247 L59.9098365,72.7640956 C60.7010165,73.2909482 60.9489396,73.6424861 60.9489396,74.2144542 C60.9489396,74.6053546 60.7740949,74.9908048 60.3504211,75.2403028 C60.0227759,75.4383267 59.6613094,75.4834422 59.3674857,75.4834422 C58.9429059,75.4834422 58.6442506,75.4274263 58.4235053,75.3253865 Z M69.414867,73.0832351 C69.6884583,72.7410837 69.9608416,72.5815139 70.1091123,72.4567649 C70.1767552,72.3995378 70.1544089,72.3653227 70.1091123,72.3083984 C70.0287864,72.205753 69.915243,71.9671554 69.915243,71.705243 C69.915243,71.4542311 69.9375894,71.2256255 70.1767552,70.8846853 C70.40354,70.5531315 70.6647502,70.3605578 71.0407116,70.1552669 C71.3130949,70.0069004 71.5287066,69.9614821 71.6531211,69.9614821 C72.1314528,69.9614821 72.3582376,70.1900877 72.3582376,70.4286853 C72.3582376,70.5201275 72.3361933,70.5658486 72.2670405,70.6557769 C72.1993977,70.7475219 72.0402557,70.8734821 71.983786,70.9192032 C71.9378855,70.9637131 71.8702427,70.9413068 71.8578616,70.8955857 C71.7554914,70.4744064 71.391911,70.4286853 71.1874725,70.4286853 C71.0174594,70.4286853 70.8471443,70.5201275 70.7447741,70.6336733 C70.6203595,70.7708367 70.5515088,71.0094343 70.5515088,71.2144223 C70.5515088,71.9783586 71.0283306,72.1143108 71.4375095,72.1836494 C71.483108,72.1945498 71.483108,72.2293705 71.4266383,72.3083984 C71.3810398,72.3774343 71.3242681,72.4455618 71.2218979,72.4455618 L70.8694906,72.4567649 C70.7103487,72.4676653 70.4379654,72.4912829 70.2223537,72.6726534 C69.915243,72.9239681 69.8128728,73.4368924 69.8128728,73.7333227 C69.8128728,75.0310757 70.8694906,75.4758725 71.6990217,75.4758725 C72.1993977,75.4758725 72.5977054,75.3847331 72.9609839,75.0310757 C73.2668866,74.746757 73.4036823,74.3364781 73.4036823,73.8471713 C73.4036823,73.4368924 73.2901389,73.1065498 73.0745272,72.9460717 C72.9833302,72.8779442 72.8697868,72.8558406 72.7329912,72.8558406 C72.1993977,72.8558406 72.0290826,73.2079841 72.0290826,73.4823108 C72.0290826,73.710008 72.1082006,73.8471713 72.1993977,73.9261992 C72.2449962,73.9607171 72.2670405,74.0176414 72.2449962,74.0633626 C72.221442,74.1202869 72.1082006,74.2226295 72.0170035,74.2795538 C71.9034601,74.3364781 71.7554914,74.3364781 71.6310768,74.2450359 C71.5066623,74.1548048 71.4486827,73.9831235 71.4486827,73.8235538 C71.4486827,73.6876016 71.5398797,73.2882231 72.0858543,72.8779442 C72.5285527,72.5479044 72.9609839,72.4567649 73.4837062,72.4567649 C73.7672627,72.4567649 73.8693309,72.4676653 74.0852445,72.4788685 C74.2564655,72.4912829 74.4488249,72.5024861 74.6535654,72.5024861 C75.0171458,72.5024861 75.278356,72.3538167 75.278356,72.1143108 C75.278356,71.8978167 75.1871589,71.7621673 75.1083429,71.705243 C75.0627443,71.6595219 75.040398,71.5901833 75.0847887,71.500255 C75.1303872,71.3973068 75.1995399,71.3173705 75.2895291,71.2601434 C75.4042804,71.1811155 75.528695,71.1811155 75.6307632,71.2380398 C75.7331334,71.2825498 75.8466768,71.4433307 75.8466768,71.6362072 C75.8466768,72.0004622 75.5631203,72.3196016 75.3239545,72.5133865 C75.0515712,72.7410837 74.5055966,72.9239681 74.3244104,72.9348685 C74.1876148,72.9460717 74.052027,72.9693865 73.9828743,72.9693865 C73.9152314,72.9584861 73.9040583,73.0151076 73.9372758,73.1065498 C73.9717011,73.1746773 74.0064285,73.3796653 74.0064285,73.5725418 C74.0064285,74.1772112 73.5736954,74.8951235 72.8589156,75.4301514 C72.1882245,75.9321753 71.483108,76 71.1762993,76 C69.7787494,76 69.0401135,75.1225179 69.0401135,74.1311873 C69.0401135,73.8471713 69.1536569,73.3911713 69.414867,73.0832351 Z"></path>
        </g>
    </g>
</svg>