<?xml version="1.0" encoding="UTF-8"?>
<svg width="21px" height="14px" viewBox="0 0 21 14" version="1.1" xmlns="http://www.w3.org/2000/svg" xmlns:xlink="http://www.w3.org/1999/xlink">
    <!-- Generator: Sketch 46.1 (44463) - http://www.bohemiancoding.com/sketch -->
    <title>icon / Social / Google_Plus-icon-black</title>
    <desc>Created with Sketch.</desc>
    <defs></defs>
    <g id="Symbols" stroke="none" stroke-width="1" fill="none" fill-rule="evenodd" opacity="0.400000006">
        <g id="Section-/-Footer" transform="translate(-597.000000, -300.000000)" fill="#FFFFFF">
            <g id="icons">
                <g transform="translate(559.000000, 299.000000)">
                    <path d="M55.6886792,6.4909991 L56.6886792,4.17551755 L55.0377358,4.17551755 L55.0377358,6.4909991 L52.6603774,6.4909991 L52.6603774,8.14491449 L55.0377358,8.14491449 L55.0377358,10.5265527 L56.6886792,10.5265527 L56.6886792,8.14491449 L59,8.14491449 L59,6.4909991 L56.6886792,6.4909991 L55.6886792,6.4909991 Z M44.6698113,9.0049505 C44.6698113,9.0049505 47.2323396,9.00151035 48.2757358,9.00151035 C47.710717,10.7170176 46.8321509,11.6512151 44.6698113,11.6512151 C42.4815189,11.6512151 40.7735849,9.87404995 40.7735849,7.68181818 C40.7735849,5.48958641 42.4815189,3.71242124 44.6698113,3.71242124 C45.8267925,3.71242124 46.5740094,4.11981368 47.2594151,4.68763591 C47.8080566,4.13800675 47.7622264,4.05967732 49.158066,2.73912511 C47.9731509,1.65865527 46.398283,1 44.6698113,1 C40.9861604,1 38,3.991536 38,7.68181818 C38,11.3720342 40.9861604,14.3636364 44.6698113,14.3636364 C50.1758396,14.3636364 51.5216226,9.56066607 51.0754717,6.35868587 L44.6698113,6.35868587 L44.6698113,9.0049505 Z" id="icon-/-Social-/-Google_Plus-icon"></path>
                </g>
            </g>
        </g>
    </g>
</svg>