<?xml version="1.0" encoding="UTF-8"?>
<svg width="16px" height="16px" viewBox="0 0 16 16" version="1.1" xmlns="http://www.w3.org/2000/svg" xmlns:xlink="http://www.w3.org/1999/xlink">
    <!-- Generator: Sketch 46.1 (44463) - http://www.bohemiancoding.com/sketch -->
    <title>icon / Social / Hosco-icon</title>
    <desc>Created with Sketch.</desc>
    <defs></defs>
    <g id="Home-Page" stroke="none" stroke-width="1" fill="none" fill-rule="evenodd" opacity="0.400000006">
        <g id="Opened-Menu-03-10" transform="translate(-1260.000000, -701.000000)" fill="#FFFFFF">
            <g id="component-/-Opened-Menu" transform="translate(20.000000, 90.000000)">
                <g id="icon-/-Social" transform="translate(934.000000, 611.000000)">
                    <path d="M318.847072,11.3197779 C318.820794,11.7610757 318.456403,12.1039832 318.004908,12.1014975 C317.549152,12.0990117 317.179967,11.7327178 317.178978,11.2820858 C317.178927,11.2661566 317.179409,11.2503797 317.18022,11.2347042 C317.202364,10.8031972 317.538753,10.4680006 317.971122,10.4476073 C317.985276,10.4469225 317.999581,10.4465927 318.013963,10.4465927 C318.474462,10.4471254 318.85042,10.8188474 318.84867,11.2719652 C318.848645,11.2880211 318.848036,11.3039249 318.847072,11.3197779 L318.847072,11.3197779 Z M314.279369,12.2258614 C314.279369,12.2258614 314.278785,8.96135347 314.279369,8.86735131 L314.279369,8.75749611 C314.278126,8.57788755 314.269299,8.39848191 314.233889,8.22293173 C314.143743,7.7761805 313.861356,7.45394535 313.389493,7.42891023 C312.87413,7.40156691 312.419414,7.62061782 312.221416,8.11046395 C312.11813,8.36596417 312.073209,8.64195918 312.054566,8.91521479 L312.054566,12.2258614 L310.40585,12.2258614 L310.40585,3.90618807 L312.054566,3.90618807 L312.054566,6.95648976 C312.116837,6.87932986 312.162925,6.82299451 312.189127,6.79258205 C312.236204,6.73781932 312.28602,6.6852887 312.338602,6.63580186 C312.448939,6.5319835 312.571603,6.44120267 312.70416,6.36777141 C312.944873,6.23445372 313.213918,6.16216388 313.487097,6.13776288 C314.010729,6.09096472 314.608706,6.16751586 315.061316,6.4502072 C315.480927,6.71227691 315.734779,7.14495065 315.835503,7.62239336 C315.903151,7.94325881 315.9014,8.2729005 315.901756,8.59929549 C315.901806,8.64982229 315.910025,12.2258614 315.910025,12.2258614 L314.279369,12.2258614 Z M312.084091,12.1088533 C312.094011,12.1274133 312.102651,12.1475733 312.107451,12.1722133 C312.101904,12.14896 312.093371,12.1285866 312.084091,12.1088533 L312.084091,12.1088533 Z M306,16 L322,16 L322,0 L306,0 L306,16 Z" id="icon-/-Social-/-Hosco-icon"></path>
                </g>
            </g>
        </g>
    </g>
</svg>