<?xml version="1.0" encoding="UTF-8"?>
<svg width="16px" height="16px" viewBox="0 0 16 16" version="1.1" xmlns="http://www.w3.org/2000/svg" xmlns:xlink="http://www.w3.org/1999/xlink">
    <!-- Generator: Sketch 46.1 (44463) - http://www.bohemiancoding.com/sketch -->
    <title>icon / Social / Instagram-icon-black</title>
    <desc>Created with Sketch.</desc>
    <defs></defs>
    <g id="Symbols" stroke="none" stroke-width="1" fill="none" fill-rule="evenodd" opacity="0.400000006">
        <g id="Section-/-Footer" transform="translate(-641.000000, -299.000000)" fill="#FFFFFF">
            <g id="icons">
                <g transform="translate(559.000000, 299.000000)">
                    <path d="M90.0000159,0 C92.1726696,0 92.4451047,0.00920925451 93.2983898,0.0481421718 C94.1498965,0.086979821 94.731445,0.222228838 95.240304,0.420005518 C95.7663747,0.624419212 96.2125155,0.897965827 96.6572907,1.34270931 C97.1020342,1.78748454 97.3755808,2.23362529 97.5800262,2.75969602 C97.7777712,3.26855496 97.9130202,3.8501035 97.9518578,4.70161023 C97.9907907,5.55489529 98,5.82733045 98,8.00001588 C98,10.1726696 97.9907907,10.4451047 97.9518578,11.2983898 C97.9130202,12.1498965 97.7777712,12.731445 97.5800262,13.240304 C97.3755808,13.7663747 97.1020342,14.2125155 96.6572907,14.6572907 C96.2125155,15.1020342 95.7663747,15.3755808 95.240304,15.5800262 C94.731445,15.7777712 94.1498965,15.9130202 93.2983898,15.9518578 C92.4451047,15.9907907 92.1726696,16 90.0000159,16 C87.8273304,16 87.5548953,15.9907907 86.7016102,15.9518578 C85.8501035,15.9130202 85.268555,15.7777712 84.759696,15.5800262 C84.2336253,15.3755808 83.7874845,15.1020342 83.3427093,14.6572907 C82.8979658,14.2125155 82.6244192,13.7663747 82.4200055,13.240304 C82.2222288,12.731445 82.0869798,12.1498965 82.0481422,11.2983898 C82.0092093,10.4451047 82,10.1726696 82,8.00001588 C82,5.82733045 82.0092093,5.55489529 82.0481422,4.70161023 C82.0869798,3.8501035 82.2222288,3.26855496 82.4200055,2.75969602 C82.6244192,2.23362529 82.8979658,1.78748454 83.3427093,1.34270931 C83.7874845,0.897965827 84.2336253,0.624419212 84.759696,0.420005518 C85.268555,0.222228838 85.8501035,0.086979821 86.7016102,0.0481421718 C87.5548953,0.00920925451 87.8273304,0 90.0000159,0 Z M90.0000159,1.44143887 C87.8639134,1.44143887 87.6108812,1.44960017 86.7673135,1.4880885 C85.9873214,1.52365528 85.5637274,1.65398211 85.281829,1.76354048 C84.9084096,1.90866563 84.6419128,2.08202191 84.3619832,2.36198324 C84.0820219,2.64191283 83.9086656,2.9084096 83.7635405,3.28182899 C83.6539821,3.56372745 83.5236553,3.9873214 83.4880885,4.7673135 C83.4496002,5.61088121 83.4414389,5.86391342 83.4414389,8.00001588 C83.4414389,10.1360866 83.4496002,10.3891188 83.4880885,11.2326865 C83.5236553,12.0126786 83.6539821,12.4362726 83.7635405,12.718171 C83.9086656,13.0915904 84.0820537,13.3580872 84.3619832,13.6380168 C84.6419128,13.9179781 84.9084096,14.0913344 85.281829,14.2364595 C85.5637274,14.3460179 85.9873214,14.4763447 86.7673135,14.5119115 C87.6107859,14.5503998 87.8637546,14.5585611 90.0000159,14.5585611 C92.1362454,14.5585611 92.3892458,14.5503998 93.2326865,14.5119115 C94.0126786,14.4763447 94.4362726,14.3460179 94.718171,14.2364595 C95.0915904,14.0913344 95.3580872,13.9179781 95.6380168,13.6380168 C95.9179781,13.3580872 96.0913344,13.0915904 96.2364595,12.718171 C96.3460179,12.4362726 96.4763447,12.0126786 96.5119115,11.2326865 C96.5503998,10.3891188 96.5585611,10.1360866 96.5585611,8.00001588 C96.5585611,5.86391342 96.5503998,5.61088121 96.5119115,4.7673135 C96.4763447,3.9873214 96.3460179,3.56372745 96.2364595,3.28182899 C96.0913344,2.9084096 95.9179781,2.64191283 95.6380168,2.36198324 C95.3580872,2.08202191 95.0915904,1.90866563 94.718171,1.76354048 C94.4362726,1.65398211 94.0126786,1.52365528 93.2326865,1.4880885 C92.3891188,1.44960017 92.1360866,1.44143887 90.0000159,1.44143887 Z M90.0000159,3.89189447 C92.2688586,3.89189447 94.1081055,5.73114137 94.1081055,8.00001588 C94.1081055,10.2688586 92.2688586,12.1081055 90.0000159,12.1081055 C87.7311414,12.1081055 85.8918945,10.2688586 85.8918945,8.00001588 C85.8918945,5.73114137 87.7311414,3.89189447 90.0000159,3.89189447 Z M90.0000159,10.6666667 C91.4727662,10.6666667 92.6666667,9.47276621 92.6666667,8.00001588 C92.6666667,6.52723379 91.4727662,5.33333333 90.0000159,5.33333333 C88.5272338,5.33333333 87.3333333,6.52723379 87.3333333,8.00001588 C87.3333333,9.47276621 88.5272338,10.6666667 90.0000159,10.6666667 Z M95.2304279,3.7295893 C95.2304279,4.25978831 94.8006097,4.68957469 94.2704107,4.68957469 C93.7402434,4.68957469 93.3104253,4.25978831 93.3104253,3.7295893 C93.3104253,3.19939028 93.7402434,2.76957215 94.2704107,2.76957215 C94.8006097,2.76957215 95.2304279,3.19939028 95.2304279,3.7295893 Z" id="icon-/-Social-/-Instagram-icon"></path>
                </g>
            </g>
        </g>
    </g>
</svg>