<?xml version="1.0" encoding="UTF-8"?>
<svg width="16px" height="16px" viewBox="0 0 16 16" version="1.1" xmlns="http://www.w3.org/2000/svg" xmlns:xlink="http://www.w3.org/1999/xlink">
    <!-- Generator: Sketch 46.1 (44463) - http://www.bohemiancoding.com/sketch -->
    <title>icon / Social / Linkedin-icon</title>
    <desc>Created with Sketch.</desc>
    <defs></defs>
    <g id="Home-Page" stroke="none" stroke-width="1" fill="none" fill-rule="evenodd" opacity="0.400000006">
        <g id="Opened-Menu-03-10" transform="translate(-1213.000000, -701.000000)" fill="#FFFFFF">
            <g id="component-/-Opened-Menu" transform="translate(20.000000, 90.000000)">
                <g id="icon-/-Social" transform="translate(934.000000, 611.000000)">
                    <path d="M272.632889,13.6346667 L270.262222,13.6346667 L270.262222,9.92177778 C270.262222,9.03555556 270.244444,7.89688889 269.028444,7.89688889 C267.793778,7.89688889 267.605333,8.86133333 267.605333,9.85688889 L267.605333,13.6346667 L265.234667,13.6346667 L265.234667,5.99911111 L267.509333,5.99911111 L267.509333,7.04177778 L267.541333,7.04177778 C267.858667,6.44177778 268.632889,5.80888889 269.787556,5.80888889 C272.189333,5.80888889 272.632889,7.39022222 272.632889,9.44711111 L272.632889,13.6346667 Z M262.559111,4.95466667 C261.796444,4.95466667 261.182222,4.33866667 261.182222,3.57866667 C261.182222,2.81955556 261.796444,2.20355556 262.559111,2.20355556 C263.317333,2.20355556 263.935111,2.81955556 263.935111,3.57866667 C263.935111,4.33866667 263.317333,4.95466667 262.559111,4.95466667 Z M261.370667,13.6346667 L263.746667,13.6346667 L263.746667,5.99911111 L261.370667,5.99911111 L261.370667,13.6346667 Z M273.815111,0 L260.179556,0 C259.528889,0 259,0.517333333 259,1.15288889 L259,14.8462222 C259,15.4844444 259.528889,16 260.179556,16 L273.815111,16 C274.466667,16 275,15.4844444 275,14.8462222 L275,1.15288889 C275,0.517333333 274.466667,0 273.815111,0 L273.815111,0 Z" id="icon-/-Social-/-Linkedin-icon"></path>
                </g>
            </g>
        </g>
    </g>
</svg>