<?xml version="1.0" encoding="UTF-8"?>
<svg width="15px" height="15px" viewBox="0 0 15 15" version="1.1" xmlns="http://www.w3.org/2000/svg" xmlns:xlink="http://www.w3.org/1999/xlink">
    <!-- Generator: Sketch 46.1 (44463) - http://www.bohemiancoding.com/sketch -->
    <title>icon / Social / Pinterest-icon</title>
    <desc>Created with Sketch.</desc>
    <defs></defs>
    <g id="Home-Page" stroke="none" stroke-width="1" fill="none" fill-rule="evenodd" opacity="0.400000006">
        <g id="Opened-Menu-03-10" transform="translate(-1079.000000, -701.000000)" fill-rule="nonzero" fill="#FFFFFF">
            <g id="component-/-Opened-Menu" transform="translate(20.000000, 90.000000)">
                <g id="icon-/-Social" transform="translate(934.000000, 611.000000)">
                    <path d="M132.5,0 C128.351562,0 125,3.3515625 125,7.5 C125,10.59375 126.875,13.2421875 129.523438,14.390625 C129.5,13.875 129.523438,13.2421875 129.664062,12.6796875 C129.804688,12.0703125 130.625,8.578125 130.625,8.578125 C130.625,8.578125 130.390625,8.0859375 130.390625,7.3828125 C130.390625,6.2578125 131.046875,5.4375 131.84375,5.4375 C132.523438,5.4375 132.851562,5.953125 132.851562,6.5625 C132.851562,7.2421875 132.40625,8.2734375 132.195312,9.234375 C132.007812,10.03125 132.59375,10.6875 133.390625,10.6875 C134.820312,10.6875 135.78125,8.859375 135.78125,6.6796875 C135.78125,5.0390625 134.679688,3.796875 132.640625,3.796875 C130.367188,3.796875 128.9375,5.5078125 128.9375,7.40625 C128.9375,8.0625 129.125,8.53125 129.429688,8.8828125 C129.570312,9.046875 129.59375,9.1171875 129.546875,9.3046875 C129.5,9.4453125 129.429688,9.7734375 129.382812,9.9140625 C129.335938,10.1015625 129.171875,10.171875 129.007812,10.1015625 C127.953125,9.6796875 127.460938,8.53125 127.460938,7.21875 C127.460938,5.0859375 129.265625,2.5078125 132.851562,2.5078125 C135.734375,2.5078125 137.609375,4.59375 137.609375,6.8203125 C137.609375,9.7734375 135.96875,11.9765625 133.554688,11.9765625 C132.734375,11.9765625 131.984375,11.53125 131.726562,11.0390625 C131.726562,11.0390625 131.28125,12.7734375 131.1875,13.1015625 C131.023438,13.6640625 130.71875,14.25 130.4375,14.6953125 C131.09375,14.90625 131.773438,15 132.5,15 C136.648438,15 140,11.6484375 140,7.5 C140,3.3515625 136.648438,0 132.5,0 Z" id="icon-/-Social-/-Pinterest-icon"></path>
                </g>
            </g>
        </g>
    </g>
</svg>