<?xml version="1.0" encoding="UTF-8"?>
<svg width="26px" height="15px" viewBox="0 0 26 15" version="1.1" xmlns="http://www.w3.org/2000/svg" xmlns:xlink="http://www.w3.org/1999/xlink">
    <!-- Generator: Sketch 46.1 (44463) - http://www.bohemiancoding.com/sketch -->
    <title>icon / Social / Tripadvisor-icon</title>
    <desc>Created with Sketch.</desc>
    <defs></defs>
    <g id="Symbols" stroke="none" stroke-width="1" fill="none" fill-rule="evenodd" opacity="0.400000006">
        <g id="Section-/-Footer" transform="translate(-721.000000, -299.000000)" fill-rule="nonzero" fill="#FFFFFF">
            <g id="icons">
                <g transform="translate(559.000000, 299.000000)">
                    <path d="M181.037179,7.53947368 C181.633333,7.53947368 182.070513,8.01315789 182.070513,8.56578947 C182.070513,9.11842105 181.59359,9.59210526 181.037179,9.59210526 C180.441026,9.59210526 180.003846,9.11842105 180.003846,8.56578947 C180.003846,8.01315789 180.480769,7.53947368 181.037179,7.53947368 Z M168.279487,7.53947368 C168.875641,7.53947368 169.352564,8.01315789 169.352564,8.56578947 C169.352564,9.15789474 168.875641,9.59210526 168.279487,9.63157895 C167.683333,9.63157895 167.20641,9.15789474 167.20641,8.56578947 C167.246154,7.97368421 167.683333,7.53947368 168.279487,7.53947368 Z M177.579487,0.236842105 C178.294872,0.355263158 178.970513,0.513157895 179.685897,0.710526316 C180.878205,1.06578947 182.030769,1.57894737 183.064103,2.25 C183.14359,2.28947368 183.223077,2.32894737 183.342308,2.32894737 L187.078205,2.32894737 L187.396154,2.32894737 C187.35641,2.44736842 187.276923,2.52631579 187.237179,2.64473684 C186.8,3.27631579 186.442308,3.94736842 186.24359,4.69736842 C186.203846,4.77631579 186.203846,4.85526316 186.283333,4.93421053 C187.396154,6.51315789 187.753846,8.25 187.276923,10.1447368 C186.879487,11.8026316 185.925641,13.0657895 184.455128,13.9736842 C183.421795,14.6052632 182.269231,14.9210526 181.076923,14.9210526 C180.560256,14.9210526 180.04359,14.8421053 179.566667,14.7236842 C178.334615,14.4078947 177.301282,13.8157895 176.426923,12.9078947 C176.307692,12.7894737 176.188462,12.6710526 176.069231,12.5131579 C175.632051,13.1842105 175.155128,13.8552632 174.717949,14.5263158 C174.241026,13.8552632 173.803846,13.1842105 173.366667,12.5526316 C173.326923,12.5526316 173.326923,12.5526316 173.326923,12.5921053 C173.326923,12.5921053 173.326923,12.5921053 173.287179,12.6315789 C172.253846,13.8552632 170.942308,14.6052632 169.352564,14.8421053 C168.478205,15 167.603846,14.9210526 166.729487,14.6842105 C165.497436,14.3684211 164.464103,13.6973684 163.629487,12.75 C162.794872,11.8421053 162.317949,10.7368421 162.119231,9.55263158 C161.880769,8.40789474 162.158974,7.30263158 162.238462,7.06578947 C162.397436,6.31578947 162.715385,5.60526316 163.192308,4.97368421 C163.232051,4.93421053 163.232051,4.85526316 163.232051,4.77631579 C163.033333,4.10526316 162.715385,3.47368421 162.357692,2.88157895 C162.278205,2.72368421 162.158974,2.60526316 162.039744,2.44736842 C162.079487,2.40789474 162.079487,2.40789474 162.119231,2.40789474 L165.974359,2.40789474 C166.014103,2.40789474 166.09359,2.36842105 166.133333,2.36842105 C167.047436,1.77631579 168.001282,1.34210526 168.994872,0.986842105 C169.710256,0.75 170.465385,0.552631579 171.220513,0.394736842 C171.935897,0.236842105 172.691026,0.157894737 173.446154,0.118421053 C175.194872,-0.0789473684 176.625641,0.118421053 177.579487,0.236842105 Z M175.989744,8.64473684 C175.989744,11.4473684 178.255128,13.6973684 181.076923,13.6973684 C183.898718,13.6973684 186.164103,11.4868421 186.164103,8.64473684 C186.164103,5.72368421 183.779487,3.55263158 180.997436,3.59210526 C178.175641,3.67105263 175.989744,5.88157895 175.989744,8.64473684 Z M168.358974,3.59210526 C165.616667,3.55263158 163.232051,5.84210526 163.311538,8.72368421 C163.351282,11.4078947 165.576923,13.6973684 168.438462,13.6578947 C171.220513,13.6184211 173.446154,11.3684211 173.446154,8.64473684 C173.446154,5.84210526 171.180769,3.59210526 168.358974,3.59210526 Z M168.637179,2.28947368 C170.147436,2.36842105 171.538462,2.92105263 172.651282,3.94736842 C173.803846,4.97368421 174.479487,6.27631579 174.717949,7.77631579 C174.95641,6.27631579 175.632051,5.01315789 176.744872,3.98684211 C177.857692,2.96052632 179.208974,2.40789474 180.719231,2.32894737 C178.930769,1.53947368 177.023077,1.18421053 175.075641,1.14473684 C172.85,1.10526316 170.664103,1.42105263 168.637179,2.28947368 Z M181.037179,5.44736842 C182.785897,5.44736842 184.176923,6.82894737 184.176923,8.56578947 C184.176923,10.3026316 182.785897,11.6447368 181.15641,11.6842105 C179.328205,11.7631579 177.857692,10.3026316 177.857692,8.56578947 C177.897436,6.78947368 179.367949,5.40789474 181.037179,5.44736842 Z M183.103846,8.56578947 C183.103846,7.42105263 182.189744,6.51315789 181.076923,6.51315789 C179.924359,6.51315789 179.010256,7.42105263 179.010256,8.52631579 C179.010256,9.63157895 179.924359,10.5789474 181.076923,10.5789474 C182.189744,10.6184211 183.103846,9.71052632 183.103846,8.56578947 Z M168.319231,5.44736842 C170.067949,5.44736842 171.458974,6.82894737 171.458974,8.56578947 C171.458974,10.3026316 170.067949,11.6052632 168.478205,11.6842105 C166.65,11.7631579 165.179487,10.3026316 165.179487,8.56578947 C165.139744,6.78947368 166.610256,5.40789474 168.319231,5.44736842 Z M170.346154,8.56578947 C170.346154,7.42105263 169.432051,6.51315789 168.279487,6.55263158 C167.166667,6.55263158 166.252564,7.5 166.252564,8.60526316 C166.252564,9.71052632 167.166667,10.6578947 168.319231,10.6578947 C169.432051,10.6184211 170.346154,9.71052632 170.346154,8.56578947 Z" id="icon-/-Social-/-Tripadvisor-icon"></path>
                </g>
            </g>
        </g>
    </g>
</svg>