<?xml version="1.0" encoding="UTF-8"?>
<svg width="19px" height="15px" viewBox="0 0 19 15" version="1.1" xmlns="http://www.w3.org/2000/svg" xmlns:xlink="http://www.w3.org/1999/xlink">
    <!-- Generator: Sketch 46.1 (44463) - http://www.bohemiancoding.com/sketch -->
    <title>icon / Social / Twitter-icon</title>
    <desc>Created with Sketch.</desc>
    <defs></defs>
    <g id="Symbols" stroke="none" stroke-width="1" fill="none" fill-rule="evenodd" opacity="0.400000006">
        <g id="Section-/-Footer" transform="translate(-772.000000, -299.000000)" fill-rule="nonzero" fill="#FFFFFF">
            <g id="icons">
                <g transform="translate(559.000000, 299.000000)">
                    <path d="M231.461538,1.78846154 C231.144231,1.96153846 230.221154,2.30769231 229.355769,2.39423077 C229.903846,2.10576923 230.740385,1.09615385 230.942308,0.317307692 C230.394231,0.663461538 229.182692,1.15384615 228.576923,1.15384615 L228.576923,1.15384615 C227.855769,0.461538462 226.903846,0 225.807692,0 C223.701923,0 222,1.70192308 222,3.80769231 C222,4.09615385 222.028846,4.38461538 222.086538,4.64423077 L222.086538,4.64423077 C219.230769,4.55769231 215.884615,3.14423077 214.009615,0.692307692 C212.855769,2.68269231 213.865385,4.90384615 215.163462,5.71153846 C214.730769,5.76923077 213.894231,5.68269231 213.519231,5.30769231 C213.490385,6.63461538 214.125,8.39423077 216.461538,9.02884615 C216,9.25961538 215.221154,9.20192308 214.875,9.14423077 C214.990385,10.2692308 216.576923,11.7403846 218.278846,11.7403846 C217.673077,12.4326923 215.596154,13.7307692 213,13.3269231 C214.759615,14.3942308 216.807692,15 218.971154,15 C225.115385,15 229.875,10.0096154 229.644231,3.86538462 L229.644231,3.83653846 L229.644231,3.77884615 L229.644231,3.72115385 C230.163462,3.375 230.913462,2.68269231 231.461538,1.78846154 Z" id="icon-/-Social-/-Twitter-icon"></path>
                </g>
            </g>
        </g>
    </g>
</svg>