<?xml version="1.0" encoding="utf-8"?><svg version="1.1" xmlns="http://www.w3.org/2000/svg" xmlns:xlink="http://www.w3.org/1999/xlink" x="0px" y="0px"	 viewBox="0 0 820.2 835.8" xml:space="preserve">    <defs>        <clipPath id="emblem-jardin">            <path d="M750.42,84c6.36,0,18.6,0,24.42,0c12.12,30.12-42.30,12.54-66.12,18.42c-30.36,6.12-60.54,54.6-84.30,84C552.30,288.24,486.54,420.12,432,510c96-18.6,150.30-72.48,204.6-138.24c-30.36,72.54-114.36,126.30-210.30,150.42c-66.24,90.12-126.48,186.30-258,216.54c-18.42,0-42.30,0-66.12,0c-30.24-12.12-60.30-24.12-72.6-54.18c-42.42-144.48,246.18-138.6,348.24-162.36c96.42-144.18,162.42-324.12,318.12-414.36C564,108.30,360.24,132.30,324.48,234.42C276.48,384,522.36,330.36,480.24,210.30c18.30,18.48,6.42,54.6,0,72.6c-30.18,54.12-162,78.36-186.18,6.24c-12.30-42,6.12-84.6,24.12-102.18c54-54.36,186.24-84.30,300.24-90.24C666.30,96,714.24,96.48,750.42,84z M72.18,612.18c-30.42,42.12-12.6,114.6,30.36,120.30c66,12.6,120.30-30.24,162.6-66.42c42.12-42,66.48-78.48,96.48-126.54C264.54,558.48,126.18,540.42,72.18,612.18z"/></clipPath></defs></svg>