<?xml version="1.0" encoding="UTF-8"?>
<svg width="18px" height="12px" viewBox="0 0 18 12" version="1.1" xmlns="http://www.w3.org/2000/svg" xmlns:xlink="http://www.w3.org/1999/xlink">
    <!-- Generator: Sketch 46.1 (44463) - http://www.bohemiancoding.com/sketch -->
    <title>icon / book</title>
    <desc>Created with Sketch.</desc>
    <defs></defs>
    <g id="Home-Page" stroke="none" stroke-width="1" fill="none" fill-rule="evenodd">
        <g id="Opened-Menu-03-10" transform="translate(-1208.000000, -44.000000)" fill-rule="nonzero" fill="#FFFFFF">
            <g id="component-/-Cover-/-Topbar" transform="translate(20.000000, 20.000000)">
                <g id="button-/-Book-now-/-Red" transform="translate(1161.000000, 3.000000)">
                    <g id="Button-group" transform="translate(27.000000, 21.000000)">
                        <g id="icon-/-book">
                            <path d="M17.6299559,11.2549889 L0.370044053,11.2549889 C0.185022026,11.2549889 0,11.4146341 0,11.6274945 C0,11.8403548 0.158590308,12 0.370044053,12 L17.6299559,12 C17.814978,12 18,11.8403548 18,11.6274945 C18,11.4146341 17.814978,11.2549889 17.6299559,11.2549889 Z M1.82378855,10.3769401 C2.00881057,10.3769401 15.9911894,10.3769401 16.2026432,10.3769401 C16.4140969,10.3769401 16.5726872,10.2172949 16.5726872,10.0044346 C16.5726872,6.19955654 13.7709251,3.03325942 10.1497797,2.50110865 C10.3612335,2.23503326 10.4933921,1.91574279 10.4933921,1.54323725 C10.4933921,0.691796009 9.8061674,0 8.96035242,0 C8.11453744,0 7.42731278,0.691796009 7.42731278,1.54323725 C7.42731278,1.91574279 7.55947137,2.2616408 7.77092511,2.52771619 C4.17621145,3.11308204 1.45374449,6.25277162 1.45374449,10.0044346 C1.45374449,10.2172949 1.6123348,10.3769401 1.82378855,10.3769401 Z M8.9339207,0.718403548 C9.38325991,0.718403548 9.75330396,1.09090909 9.75330396,1.54323725 C9.75330396,1.99556541 9.38325991,2.36807095 8.9339207,2.36807095 C8.4845815,2.36807095 8.11453744,1.99556541 8.11453744,1.54323725 C8.11453744,1.09090909 8.4845815,0.718403548 8.9339207,0.718403548 Z" id="Shape"></path>
                        </g>
                    </g>
                </g>
            </g>
        </g>
    </g>
</svg>