<?xml version="1.0" encoding="UTF-8"?>
<svg width="16px" height="17px" viewBox="0 0 16 17" version="1.1" xmlns="http://www.w3.org/2000/svg" xmlns:xlink="http://www.w3.org/1999/xlink">
    <!-- Generator: Sketch 47.1 (45422) - http://www.bohemiancoding.com/sketch -->
    <title>Combined Shape</title>
    <desc>Created with Sketch.</desc>
    <defs></defs>
    <g id="Symbols" stroke="none" stroke-width="1" fill="none" fill-rule="evenodd" opacity="0.600000024">
        <g id="component-/-Input-/-Date" transform="translate(-417.000000, -5.000000)" fill="#979BA6">
            <g id="icon-/-Schedules">
                <g transform="translate(417.000000, 5.000000)">
                    <path d="M1,7 L15,7 L15,8 L1,8 L1,7 Z M3,10 L5,10 L5,11 L3,11 L3,10 Z M7,10 L9,10 L9,11 L7,11 L7,10 Z M11,10 L13,10 L13,11 L11,11 L11,10 Z M3,13 L5,13 L5,14 L3,14 L3,13 Z M7,13 L9,13 L9,14 L7,14 L7,13 Z M11,13 L13,13 L13,14 L11,14 L11,13 Z M12,2 L14,2 C15.1045695,2 16,2.8954305 16,4 L16,15 C16,16.1045695 15.1045695,17 14,17 L2,17 C0.8954305,17 1.3527075e-16,16.1045695 0,15 L0,4 C-1.3527075e-16,2.8954305 0.8954305,2 2,2 L4,2 L4,0 L5,0 L5,2 L11,2 L11,0 L12,0 L12,2 Z M2,3 C1.44771525,3 1,3.44771525 1,4 L1,15 C1,15.5522847 1.44771525,16 2,16 L14,16 C14.5522847,16 15,15.5522847 15,15 L15,4 C15,3.44771525 14.5522847,3 14,3 L2,3 Z" id="Combined-Shape"></path>
                </g>
            </g>
        </g>
    </g>
</svg>