<?xml version="1.0" encoding="UTF-8"?>
<svg width="24px" height="12px" viewBox="0 0 24 12" version="1.1" xmlns="http://www.w3.org/2000/svg" xmlns:xlink="http://www.w3.org/1999/xlink">
    <!-- Generator: Sketch 47.1 (45422) - http://www.bohemiancoding.com/sketch -->
    <title>Shape</title>
    <desc>Created with Sketch.</desc>
    <defs></defs>
    <g id="Conciergerie" stroke="none" stroke-width="1" fill="none" fill-rule="evenodd">
        <g id="Conciergerie-" transform="translate(-909.000000, -1266.000000)" fill-rule="nonzero" fill="#C8102E">
            <g id="section-/-About" transform="translate(355.000000, 860.000000)">
                <g id="component-/-Tabs" transform="translate(6.000000, 372.000000)">
                    <g id="Tab" transform="translate(485.000000, 0.000000)">
                        <g id="icon-/-Car" transform="translate(63.000000, 34.000000)">
                            <path d="M17.5589154,0.173839326 C17.4505455,0.062235077 17.3071387,0 17.1585714,0 L9.35159115,0 C9.22420895,0 9.10062922,0.0454794794 8.99904939,0.129855882 L4.33452537,3.99351718 L2.1258431,3.99381639 C1.39061156,4.01446168 0,4.62514337 0,6.78990675 C0,8.83887698 1.23742701,9.57702089 1.95853515,9.70149105 C2.18070708,11.0078293 3.22203612,12 4.4714137,12 C5.6803223,12 6.69367616,11.070962 6.96011951,9.82805565 L17.1238061,9.82805565 C17.3899778,11.070962 18.4030601,12 19.6116971,12 C20.8556426,12 21.8937124,11.0165063 22.1218596,9.71854585 L23.4133357,9.71854585 C23.7373591,9.71854585 24,9.42921259 24,9.07225851 L24,5.59726724 C24,5.32618561 23.8465438,5.08382786 23.6151374,4.99047524 L21.3562084,4.07789358 L17.5589154,0.173839326 Z M4.47114209,10.7074253 C3.70739215,10.7074253 3.08623421,10.0228395 3.08623421,9.18176831 C3.08623421,8.34069715 3.70739215,7.65611131 4.47114209,7.65611131 C5.23516364,7.65611131 5.85713639,8.34069715 5.85713639,9.18176831 C5.85713639,10.0228395 5.23543525,10.7074253 4.47114209,10.7074253 Z M19.6114255,10.7074253 C18.8474039,10.7074253 18.226246,10.0228395 18.226246,9.18176831 C18.226246,8.34069715 18.8474039,7.65611131 19.6114255,7.65611131 C20.3751754,7.65611131 20.9963333,8.34069715 20.9963333,9.18176831 C20.9963333,10.0228395 20.3751754,10.7074253 19.6114255,10.7074253 Z M22.8263999,8.42597118 L22.0735141,8.42597118 C21.7728487,7.23841819 20.7842108,6.36323742 19.6116971,6.36323742 C18.4030601,6.36323742 17.3899778,7.29227547 17.1238061,8.53518177 L6.9598479,8.53518177 C6.69340455,7.29227547 5.6800507,6.36323742 4.47114209,6.36323742 C3.31003576,6.36323742 2.32845955,7.22106418 2.01720158,8.39096395 C1.72278303,8.28923353 1.1733285,7.94514536 1.1733285,6.78960754 C1.1733285,5.44826211 1.93110316,5.29925697 2.14078131,5.28579265 L4.53089493,5.28579265 C4.65827713,5.28579265 4.78185686,5.24031317 4.88343669,5.15593677 L9.54796071,1.29227547 L16.9277081,1.29227547 L20.6427052,5.11195332 C20.7000136,5.17089712 20.7673713,5.21667581 20.840976,5.24629731 L22.8269431,6.04847155 L22.8269431,8.42597118 L22.8263999,8.42597118 Z" id="Shape"></path>
                        </g>
                    </g>
                </g>
            </g>
        </g>
    </g>
</svg>