<?xml version="1.0" encoding="UTF-8"?>
<svg width="24px" height="32px" viewBox="0 0 24 32" version="1.1" xmlns="http://www.w3.org/2000/svg" xmlns:xlink="http://www.w3.org/1999/xlink">
    <!-- Generator: Sketch 47.1 (45422) - http://www.bohemiancoding.com/sketch -->
    <title>Shape</title>
    <desc>Created with Sketch.</desc>
    <defs></defs>
    <g id="Restaurant" stroke="none" stroke-width="1" fill="none" fill-rule="evenodd">
        <g transform="translate(-708.000000, -1954.000000)" id="section-/-Desserts" fill="#C8102E">
            <g transform="translate(65.000000, 1954.000000)">
                <g id="Title" transform="translate(433.000000, 0.000000)">
                    <g id="icon-/-Dessert" transform="translate(210.000000, 0.000000)">
                        <path d="M12.0546327,1.09090629e-05 C8.5138975,1.09090629e-05 5.52315349,2.3445176 4.96295931,5.47648409 C2.65135694,6.67742282 1.07124534,9.09847841 1.07124534,11.8702676 C1.07124534,12.5135096 1.15650422,13.1371044 1.31481574,13.7310192 L0.741599392,13.7310192 C0.590188549,13.7310919 0.43914875,13.77791 0.315267152,13.8632007 C0.191385553,13.948495 0.0952187203,14.071862 0.0438331972,14.2114253 C-0.00758943024,14.3509922 -0.0139706463,14.5061154 0.0257633507,14.6492896 C0.0654988319,14.7924674 0.151203335,14.9230343 0.267664423,15.017845 C3.93328269,17.9966882 7.59433785,20.9809351 11.2559492,23.9644547 L11.2559492,30.5453832 L8.18673569,30.5453832 C8.08871401,30.5453832 7.99043223,30.5617468 7.89945964,30.5977104 C7.80848705,30.6333466 7.7248604,30.6872011 7.65503547,30.7546554 C7.58521091,30.8221098 7.52926192,30.9032732 7.49141839,30.9918912 C7.45357486,31.0805455 7.43387428,31.1765816 7.43387428,31.2726541 C7.43387428,31.3687629 7.45357301,31.4647991 7.49141839,31.553417 C7.52926192,31.6420713 7.58521091,31.7231984 7.65503547,31.7906528 C7.7248604,31.8581071 7.80848705,31.9118161 7.89945964,31.9475978 C7.99043223,31.9835977 8.08871401,32.0013068 8.18673569,31.9999249 L15.8130402,31.9999249 C15.9110623,31.9999249 16.009344,31.9835614 16.1003166,31.9475978 C16.1912892,31.9119615 16.2749159,31.8581071 16.3447404,31.7906528 C16.4145654,31.7231984 16.4705143,31.6420713 16.5083579,31.553417 C16.546201,31.4647991 16.565902,31.3687629 16.565902,31.2726541 C16.565902,31.1765816 16.5461995,31.0805455 16.5083579,30.9918912 C16.4705143,30.9032732 16.4145654,30.8221098 16.3447404,30.7546554 C16.2749159,30.6872011 16.1912892,30.6335285 16.1003166,30.5977104 C16.009344,30.5620741 15.9110623,30.5440014 15.8130402,30.5453832 L12.7401166,30.5453832 L12.7401166,23.9647093 C16.4026188,20.9805351 20.0676805,17.9994882 23.7323345,15.0178341 C23.8487959,14.9230234 23.9345001,14.7924492 23.9742359,14.6492714 C24.0139714,14.5060936 24.0075891,14.3509667 23.9561661,14.2113962 C23.9047805,14.0718329 23.8085766,13.9484659 23.684695,13.8631752 C23.5608134,13.7778846 23.4097736,13.7310629 23.2583628,13.7310083 L22.7072955,13.7310083 C22.852288,13.1603916 22.9287539,12.5638368 22.9287539,11.9516129 C22.9287539,9.23001262 21.4104902,6.84797147 19.1731645,5.62316735 C18.6827225,2.41871741 15.6494602,0 12.0547797,0 L12.0546327,1.09090629e-05 Z M12.0546327,1.45454899 C14.6145552,1.45454899 16.7401688,2.94422152 17.4787465,4.96050724 C16.9223366,4.82144214 16.3405124,4.74711142 15.7413619,4.74711142 C14.3977345,4.74711142 13.1343947,5.12192137 12.0595301,5.76611971 C10.9568395,5.07440513 9.65428329,4.67314071 8.25849154,4.67314071 C7.71432497,4.67314071 7.18447997,4.734406 6.67492922,4.84971843 C7.44942102,2.89121802 9.54145806,1.45454899 12.0546327,1.45454899 L12.0546327,1.45454899 Z M8.25849154,6.12768242 C11.4057293,6.12768242 13.9615336,8.68295221 13.9615336,11.8702676 C13.9615336,12.5230514 13.8521954,13.1477916 13.6533693,13.7310192 C10.0562769,13.7310192 6.4591849,13.7310192 2.86209291,13.7310192 C2.66382291,13.1466535 2.55541274,12.5233278 2.55541274,11.8702676 C2.55541274,8.68295221 5.11129086,6.12768242 8.25849154,6.12768242 Z M15.7413619,6.2016495 C18.8886368,6.2016495 21.4444411,8.75611566 21.4444411,11.9516238 C21.4444411,12.5740004 21.3465674,13.1709916 21.1651417,13.7310192 L15.2007203,13.7310192 C15.3595883,13.1376244 15.445701,12.5137496 15.445701,11.8702676 C15.445701,9.87464369 14.6263904,8.06103381 13.30495,6.75342263 C14.0434535,6.40008172 14.8689594,6.2016495 15.7413619,6.2016495 L15.7413619,6.2016495 Z M2.79738802,15.1855682 C8.93243856,15.1855682 15.0675262,15.1855682 21.2025771,15.1855682 C18.1330668,17.6814163 15.0657827,20.1797372 11.9980158,22.677658 C8.93332869,20.1775917 5.8651912,17.6817072 2.7972025,15.1855682 L2.79738802,15.1855682 Z" id="Shape"></path>
                    </g>
                </g>
            </g>
        </g>
    </g>
</svg>