<?xml version="1.0" encoding="UTF-8"?>
<svg width="32px" height="30px" viewBox="0 0 32 30" version="1.1" xmlns="http://www.w3.org/2000/svg" xmlns:xlink="http://www.w3.org/1999/xlink">
    <!-- Generator: Sketch 47.1 (45422) - http://www.bohemiancoding.com/sketch -->
    <title>icon / Vegetarian</title>
    <desc>Created with Sketch.</desc>
    <defs></defs>
    <g id="Restaurant" stroke="none" stroke-width="1" fill="none" fill-rule="evenodd">
        <g transform="translate(-462.000000, -3583.000000)" id="section-/-Vegetarian" fill="#C8102E">
            <g transform="translate(85.000000, 3288.000000)">
                <g id="component-/-Text" transform="translate(80.000000, 205.000000)">
                    <path d="M303.964472,101.680465 C303.669436,101.447442 303.2362,101.494884 302.99989,101.788256 C302.764283,102.081279 302.812811,102.510349 303.108551,102.744767 C303.451412,103.016163 304.096342,103.59 304.877713,104.388488 C305.602468,105.128372 306.678524,106.298721 307.750712,107.727558 C307.496819,107.860814 307.25242,107.977674 307.021033,108.076047 C306.129595,108.456279 305.291608,108.649186 304.531336,108.649186 C303.4915,108.646395 302.59127,108.3 301.778954,107.590465 C300.674062,106.624535 299.774536,104.963721 299.178485,102.786977 C298.658392,100.900814 298.372147,98.6403488 298.372499,96.4224419 C298.372499,96.2187209 298.378828,96.0219767 298.384806,95.8252326 C298.843361,95.7589535 299.333564,95.7254651 299.844866,95.7254651 L299.854713,95.7254651 C301.029934,95.7254651 304.00456,95.9239535 306.483005,97.7424419 C307.553786,98.5269767 308.392477,99.5169767 308.975165,100.685233 C309.643304,102.02686 309.982297,103.622093 309.983,105.426977 C309.983,105.693488 309.973857,105.982326 309.954868,106.307442 C309.60849,106.569767 309.267388,106.811163 308.938241,107.027093 C308.381224,106.277791 307.765129,105.520814 307.10543,104.775 C306.517467,104.111163 305.891878,103.454302 305.296531,102.87593 C304.792613,102.386512 304.319641,101.962326 303.964472,101.680465 M312.052121,108.57907 C312.038055,108.605233 312.024693,108.631744 312.011681,108.657907 C311.670227,109.344767 311.399807,110.029186 311.205343,110.698953 C311.084023,110.445 310.956373,110.193837 310.823449,109.948256 C310.51294,109.37407 310.144057,108.767791 309.725942,108.14407 C310.007264,107.958837 310.295619,107.75686 310.587138,107.541628 C311.083671,107.919419 311.575281,108.267907 312.052121,108.57907 M317.198552,103.922442 C318.594963,102.468488 319.928076,101.329535 320.808613,100.59907 C321.09943,100.358023 321.138111,99.927907 320.895471,99.6397674 C320.77802,99.5002326 320.612743,99.4144186 320.429884,99.3983721 C320.244915,99.3816279 320.06944,99.4374419 319.928428,99.5543023 C319.146002,100.203837 316.763909,102.180349 314.675799,104.687442 C313.91623,105.6 313.258992,106.506977 312.720261,107.385349 C312.285619,107.098256 311.835152,106.776279 311.378004,106.426744 C311.366048,106.134419 311.356553,105.843837 311.356553,105.562326 C311.356553,102.935233 311.849921,100.605349 312.821888,98.6368605 C314.057946,96.137093 316.043726,94.2205814 318.723667,92.9406977 C321.599831,91.5676744 324.389839,91.3618605 325.801723,91.3618605 L325.808404,91.3618605 C326.443488,91.3618605 327.053957,91.4030233 327.625391,91.4839535 C327.626798,91.5627907 327.627853,91.6419767 327.627853,91.7225581 C327.629963,95.9965116 326.836284,100.441395 325.504929,103.613023 L325.504929,103.613023 C324.726371,105.473372 323.7748,106.922093 322.677293,107.919419 C321.472884,109.009535 320.146452,109.540814 318.621688,109.543605 C317.587831,109.543605 316.462544,109.288605 315.276069,108.785233 C314.831581,108.596512 314.367048,108.366628 313.891966,108.101163 C314.719404,106.749767 315.830976,105.345 317.198552,103.922442 M328.990154,90.8895349 C328.982769,90.5693023 328.756305,90.3013953 328.439818,90.2382558 C327.650359,90.0805814 326.76525,90.0003488 325.808053,90 C324.04522,90.0013953 319.523324,90.3174419 315.615062,93.2215116 C313.886691,94.5073256 312.532127,96.1276744 311.589347,98.0375581 C311.156815,98.9124419 310.807624,99.8584884 310.548457,100.857209 C310.441906,100.585116 310.327619,100.32593 310.206299,100.082442 C309.228354,98.1181395 307.592468,96.5598837 305.475873,95.575814 C303.798844,94.7954651 301.798998,94.3653488 299.844866,94.3643023 C299.027978,94.3643023 298.240277,94.4417442 297.56616,94.587907 C297.263388,94.6534884 297.041847,94.9144186 297.027429,95.2217442 C297.009495,95.6180233 297,96.0219767 297,96.4227907 C297.001407,98.3354651 297.208178,102.024419 298.576809,105.241395 C299.190442,106.678256 299.961615,107.811628 300.868526,108.610116 C301.909065,109.529302 303.177123,109.998488 304.530281,110.011047 C305.479038,110.011047 306.499181,109.781163 307.562578,109.327326 C307.87801,109.192674 308.209969,109.031512 308.551424,108.847674 C309.842339,110.759651 310.652897,112.559651 310.895889,114.058953 C311.375543,117.173372 311.884032,118.357674 312.775822,119.695465 C312.877098,119.847209 313.031825,119.950465 313.211519,119.986395 C313.257234,119.995465 313.3033,120 313.349015,120 C313.482291,120 313.613106,119.961628 313.727041,119.886628 C313.879658,119.786163 313.983747,119.632674 314.020319,119.454419 C314.056187,119.276163 314.020671,119.094419 313.919395,118.942674 C313.139782,117.783837 312.69248,116.729302 312.256783,113.870581 C312.224783,113.62814 312.208607,113.375233 312.208607,113.119884 C312.207903,111.946395 312.550413,110.658837 313.225937,109.292791 C313.741107,109.580233 314.24819,109.830349 314.73558,110.037558 C316.092254,110.613837 317.398642,110.905814 318.618875,110.905814 C318.62415,110.905116 318.628721,110.905814 318.633996,110.905814 C320.465752,110.905814 322.184277,110.220349 323.604952,108.923372 C325.419829,107.266395 326.827141,104.652907 327.787503,101.154767 C328.569226,98.2946512 328.999648,94.9447674 329,91.7225581 C329,91.4406977 328.996835,91.1630233 328.990154,90.8895349" id="icon-/-Vegetarian"></path>
                </g>
            </g>
        </g>
    </g>
</svg>