<?xml version="1.0" encoding="UTF-8"?>
<svg width="30px" height="32px" viewBox="0 0 30 32" version="1.1" xmlns="http://www.w3.org/2000/svg" xmlns:xlink="http://www.w3.org/1999/xlink">
    <!-- Generator: Sketch 47.1 (45422) - http://www.bohemiancoding.com/sketch -->
    <title>Shape</title>
    <desc>Created with Sketch.</desc>
    <defs></defs>
    <g id="Restaurant" stroke="none" stroke-width="1" fill="none" fill-rule="evenodd">
        <g transform="translate(-705.000000, -6371.000000)" id="section-/-Staff" fill-rule="nonzero" fill="#C8102E">
            <g transform="translate(-120.000000, 6371.000000)">
                <g id="Title" transform="translate(618.000000, 0.000000)">
                    <g id="icon-/-Staff" transform="translate(207.000000, 0.000000)">
                        <path d="M25.4918033,32 L4.50819672,32 C4.01639344,32 3.68852459,31.6717949 3.68852459,31.1794872 L3.68852459,17.9692308 C1.39344262,16.8205128 0,14.4410256 0,11.8974359 C0,8.12307692 3.03278689,5.00512821 6.8852459,5.00512821 C7.37704918,5.00512821 7.86885246,5.08717949 8.36065574,5.16923077 C9.09836066,2.13333333 11.8032787,0 15,0 C18.1967213,0 20.9016393,2.13333333 21.6393443,5.16923077 C22.1311475,5.08717949 22.6229508,5.00512821 23.1147541,5.00512821 C26.8852459,5.00512821 30,8.04102564 30,11.8974359 C30,14.5230769 28.5245902,16.8205128 26.3114754,17.9692308 L26.3114754,31.1794872 C26.3114754,31.6717949 25.9016393,32 25.4918033,32 Z M5.32786885,30.3589744 L24.5901639,30.3589744 L24.5901639,17.3948718 C24.5901639,17.0666667 24.7540984,16.7384615 25.0819672,16.6564103 C27.0491803,15.8358974 28.2786885,13.9487179 28.2786885,11.8153846 C28.2786885,8.94358974 25.9016393,6.56410256 23.0327869,6.56410256 C22.3770492,6.56410256 21.8032787,6.64615385 21.147541,6.89230769 C20.9016393,6.97435897 20.6557377,6.97435897 20.4098361,6.81025641 C20.1639344,6.64615385 20.0819672,6.48205128 20,6.23589744 C19.9180328,3.61025641 17.704918,1.64102564 15,1.64102564 C12.295082,1.64102564 10.0819672,3.61025641 9.83606557,6.31794872 C9.83606557,6.56410256 9.67213115,6.81025641 9.42622951,6.89230769 C9.18032787,7.05641026 8.93442623,7.05641026 8.68852459,6.97435897 C8.1147541,6.72820513 7.45901639,6.64615385 6.80327869,6.64615385 C3.93442623,6.64615385 1.55737705,9.02564103 1.55737705,11.8974359 C1.55737705,14.0307692 2.78688525,15.9179487 4.75409836,16.7384615 C5.08196721,16.9025641 5.24590164,17.1487179 5.24590164,17.4769231 L5.24590164,30.3589744 L5.32786885,30.3589744 Z M18.1967213,17.5589744 L19.8360656,17.5589744 L19.8360656,25.1897436 L18.1967213,25.1897436 L18.1967213,17.5589744 Z M10.1639344,17.5589744 L11.8032787,17.5589744 L11.8032787,25.1897436 L10.1639344,25.1897436 L10.1639344,17.5589744 Z" id="Shape"></path>
                    </g>
                </g>
            </g>
        </g>
    </g>
</svg>