<?xml version="1.0" encoding="UTF-8"?>
<svg width="28px" height="28px" viewBox="0 0 28 28" version="1.1" xmlns="http://www.w3.org/2000/svg" xmlns:xlink="http://www.w3.org/1999/xlink">
    <!-- Generator: Sketch 47.1 (45422) - http://www.bohemiancoding.com/sketch -->
    <title>Shape</title>
    <desc>Created with Sketch.</desc>
    <defs></defs>
    <g id="Restaurant" stroke="none" stroke-width="1" fill="none" fill-rule="evenodd">
        <g transform="translate(-705.000000, -5732.000000)" id="section-/-Events-&amp;-Meetings" fill-rule="nonzero" fill="#C8102E">
            <g transform="translate(65.000000, 5111.000000)">
                <g id="component-/-Text" transform="translate(290.000000, 550.000000)">
                    <g id="icon-/-Parties" transform="translate(350.000000, 71.000000)">
                        <path d="M27.860137,25.7574051 C27.7551359,25.4855591 27.4751332,25.3496362 27.2301307,25.4515784 L25.9701183,25.8593473 L24.1501003,20.7622355 C24.9201079,19.9127169 26.5301238,17.7719299 26.2851214,14.6796821 C26.0751193,12.2330684 23.5550944,7.44178327 22.295082,5.53886152 L22.2250813,5.43691928 C22.0850799,5.23303481 21.8400775,5.16507332 21.6300754,5.23303481 L14.9800097,7.44178327 C14.7700076,7.50974476 14.6300062,7.71362924 14.6300062,7.95149445 L14.6300062,8.08741744 C14.8400083,10.3641274 15.9600194,15.6991044 17.3600332,17.6699877 C19.0400498,20.2185436 21.5950751,20.96612 22.8900878,21.1700045 L24.7101058,26.301097 L23.4500934,26.708866 C23.1700906,26.8108082 23.0300892,27.0826542 23.1350903,27.3205194 L23.2400913,27.6263461 C23.3450923,27.8981921 23.6250951,28.0341151 23.8700975,27.9321728 L27.6501349,26.708866 C27.9301377,26.6069237 28.070139,26.3350778 27.965138,26.0972126 L27.860137,25.7574051 Z M16.0300201,8.46120564 L21.4200733,6.66022612 C21.8050771,7.27187954 22.295082,8.18935967 22.8900878,9.31072427 L16.5550252,11.4175305 C16.3100228,10.1942237 16.1350211,9.20878204 16.0300201,8.46120564 Z M18.4450439,16.9903728 C17.8850384,16.1408541 17.3250329,14.5437591 16.835028,12.5388951 L23.3800927,10.3301466 C24.2551013,12.1990876 24.8151069,13.7961827 24.9201079,14.7816243 C25.1651103,17.4661032 23.6950958,19.3010635 23.1000899,19.8787361 C22.3300823,19.8107746 19.9500588,19.2670827 18.4450439,16.9903728 Z M13.9649997,7.10542736e-15 C13.6849969,7.10542736e-15 13.4399945,0.237865219 13.4399945,0.509711183 L13.4399945,4.48545841 C13.4399945,4.75730437 13.6849969,4.99516959 13.9649997,4.99516959 C14.2450024,4.99516959 14.4900048,4.75730437 14.4900048,4.48545841 L14.4900048,0.509711183 C14.4900048,0.237865219 14.2450024,7.10542736e-15 13.9649997,7.10542736e-15 Z M17.6750363,2.58253666 C17.8850384,2.37865219 18.2350418,2.37865219 18.4100436,2.58253666 C18.6200457,2.78642113 18.6200457,3.09224784 18.4100436,3.29613232 L16.3450232,5.3009963 C16.1350211,5.50488078 15.820018,5.50488078 15.6100159,5.3009963 C15.4000138,5.09711183 15.4000138,4.79128512 15.6100159,4.58740065 L17.6750363,2.58253666 Z M9.51995573,2.61651741 C9.7299578,2.41263293 10.0449609,2.41263293 10.254963,2.61651741 L12.2849831,4.58740065 C12.4949851,4.79128512 12.4949851,5.09711183 12.2849831,5.3009963 C12.074981,5.50488078 11.7599779,5.50488078 11.5499758,5.3009963 L9.51995573,3.33011306 C9.30995365,3.12622859 9.30995365,2.82040188 9.51995573,2.61651741 Z M13.0199903,7.44178327 L6.3699246,5.23303481 C6.15992253,5.16507332 5.91492011,5.23303481 5.77491872,5.43691928 L5.70491803,5.53886152 C4.44490558,7.44178327 1.95988102,12.2670491 1.7148786,14.6796821 C1.43487583,17.7379492 3.04489174,19.9127169 3.8498997,20.7622355 L2.02988171,25.8933281 L0.769869263,25.4855591 C0.489866496,25.3836169 0.209863729,25.5195399 0.139863037,25.7913859 L0.0348619997,26.0972126 C-0.0701390379,26.3690585 0.0698623456,26.6409045 0.349865113,26.708866 L4.12990247,27.9661536 C4.40990523,28.0680958 4.689908,27.9321728 4.75990869,27.6603269 L4.86490973,27.3545002 C4.96991077,27.0826542 4.82990938,26.8108082 4.54990662,26.7428467 L3.28989417,26.3350778 L5.10991215,21.2039852 C6.40492495,21.0001007 8.9599502,20.2185436 10.6399668,17.7039684 C12.0399806,15.6991044 13.1599917,10.3981081 13.3699938,8.12139818 L13.3699938,7.9854752 C13.4049941,7.74760998 13.2649927,7.50974476 13.0199903,7.44178327 Z M9.55495608,16.9903728 C8.0499412,19.2670827 5.66991768,19.8107746 4.89991008,19.9466976 C4.3049042,19.3350442 2.83488967,17.5340647 3.07989209,14.8495858 C3.18489313,13.8641442 3.74489866,12.2670491 4.61990731,10.3981081 L11.164972,12.6068566 C10.6749671,14.5437591 10.1149616,16.1408541 9.55495608,16.9903728 Z M11.4449748,11.4175305 L5.10991215,9.31072427 C5.66991768,8.18935967 6.19492287,7.30586029 6.57992668,6.66022612 L11.9699799,8.46120564 C11.8649789,9.20878204 11.6899772,10.1942237 11.4449748,11.4175305 Z" id="Shape"></path>
                    </g>
                </g>
            </g>
        </g>
    </g>
</svg>