<?xml version="1.0" encoding="UTF-8"?>
<svg width="37px" height="30px" viewBox="0 0 37 30" version="1.1" xmlns="http://www.w3.org/2000/svg" xmlns:xlink="http://www.w3.org/1999/xlink">
    <!-- Generator: Sketch 47.1 (45422) - http://www.bohemiancoding.com/sketch -->
    <title>Shape</title>
    <desc>Created with Sketch.</desc>
    <defs></defs>
    <g id="Meeting-&amp;-Events" stroke="none" stroke-width="1" fill="none" fill-rule="evenodd">
        <g transform="translate(-464.000000, -4114.000000)" id="section-/-Weddind" fill="#C8102E">
            <g transform="translate(85.000000, 3900.000000)">
                <g id="component-/-Text" transform="translate(80.000000, 128.000000)">
                    <g id="icon-/-Wedding" transform="translate(299.000000, 86.000000)">
                        <path d="M36.8736234,29.0094571 C37.1822038,29.4153408 36.89043,30 36.3793438,30 L29.2103601,30 C28.7722861,30 28.4719713,29.5575923 28.635078,29.1519832 C28.7877151,28.7732866 28.9191373,27.9472392 29.0563454,26.7466145 C29.1861144,25.6127216 29.3175366,24.2097043 29.4985521,22.8256355 C29.8035507,20.4963356 30.2857076,17.7199595 31.4643745,16.3111752 C25.5809587,15.6666495 21.0514394,10.3107976 18.5345806,3.61289327 C16.0444471,10.3437516 11.5284282,15.7534284 5.64942073,16.4539759 C6.73799316,17.8904965 7.20196582,20.5364296 7.5014541,22.8256355 C7.68246957,24.2097043 7.81389175,25.6127216 7.94366082,26.7466145 C8.08334855,27.9692086 8.21449522,28.778779 8.36492816,29.1519832 C8.52803494,29.5575923 8.22772009,30 7.78937063,30 L0.620386929,30 C0.109576177,30 -0.182197603,29.4153408 0.126382787,29.0094571 C2.54074882,25.8302181 2.50465593,21.6988827 3.64778097,17.6946947 C3.45161201,17.6397714 3.26618825,17.535417 3.11162254,17.381357 C2.94576058,17.2160376 2.83748193,17.0152927 2.78596002,16.8030139 C2.70633526,16.7541321 2.63056775,16.6950895 2.5616882,16.6264353 C2.08145997,16.1477782 2.08145997,15.3706126 2.5616882,14.8922301 C2.63056775,14.8235759 2.70633526,14.7642586 2.78596002,14.7153768 C2.83748193,14.5033726 2.94576058,14.3023531 3.11162254,14.1370338 C3.39457974,13.8552769 3.7814073,13.7393886 4.14949962,13.7896435 L4.14949962,4.06436332 C3.48990904,4.04211936 2.96146512,3.50167345 2.96146512,2.83874844 C2.96146512,2.60477491 3.02731397,2.38645453 3.14137851,2.20026433 C3.11988809,2.10936616 3.1080408,2.01434874 3.1080408,1.91713438 C3.1080408,1.24020391 3.65935273,0.690695646 4.33850511,0.690970263 C4.43576304,0.690970263 4.53136785,0.702504169 4.62256438,0.723924282 C4.80936572,0.610232917 5.02840269,0.544599496 5.26314421,0.544599496 C5.94229658,0.544599496 6.49333299,1.09383314 6.49333299,1.77076361 C6.49333299,1.89736197 6.47432224,2.01929184 6.43850487,2.13380705 L16.6164229,2.13380705 C16.4880314,1.71419255 16.5899731,1.23938006 16.9227991,0.90736832 C17.0889366,0.741774375 17.2903404,0.633849963 17.5030405,0.582496617 C17.5523582,0.503132355 17.6115946,0.427612729 17.6804742,0.35923314 C18.1604269,-0.119698601 18.9401434,-0.119698601 19.4203717,0.358958523 C19.4895267,0.427612729 19.5484876,0.503132355 19.5978054,0.582496617 C19.8105054,0.633849963 20.0119093,0.741774375 20.1777712,0.90736832 C20.5108727,1.23938006 20.6128145,1.71419255 20.484423,2.13380705 L30.6419526,2.13380705 C30.6273502,2.05801281 30.6193602,1.97974702 30.6193602,1.89928429 C30.6193602,1.22235382 31.1703966,0.673120169 31.8495489,0.673120169 C32.0842904,0.673120169 32.3033274,0.73875359 32.4901288,0.852444955 C32.5813253,0.831024843 32.6769301,0.819490936 32.774188,0.819490936 C33.4533404,0.819216319 34.0046523,1.36872458 34.0046523,2.04565505 C34.0046523,2.14286941 33.9928051,2.23788683 33.9713146,2.328785 C34.0853792,2.51497521 34.151228,2.73329558 34.151228,2.96726911 C34.151228,3.64419958 33.6001916,4.19343323 32.9210392,4.19343323 C32.8777829,4.19343323 32.834802,4.1912363 32.7923722,4.18684243 L32.7923722,13.8253437 C33.2081292,13.7072585 33.673755,13.8110636 34.0007951,14.1370338 C34.166657,14.3023531 34.2749357,14.5033726 34.3264576,14.7153768 C34.4060824,14.7642586 34.4818499,14.8235759 34.5507294,14.8922301 C35.0309577,15.3706126 35.0309577,16.1477782 34.5507294,16.6264353 C34.4818499,16.6950895 34.4060824,16.7541321 34.3264576,16.8030139 C34.2749357,17.0152927 34.166657,17.2160376 34.0007951,17.381357 C33.8192286,17.5626041 33.5949568,17.675197 33.3599397,17.7191356 C34.5033403,21.7318367 34.461186,25.8326897 36.8736234,29.0094571 Z M30.0181794,28.7642243 L35.224647,28.7642243 L34.9268118,28.2528878 C33.2792129,25.1579562 33.1263003,21.5654189 32.2157126,18.2381614 L32.0457179,17.6639377 L32.0156864,17.7172133 C31.8151092,18.1016769 31.6299609,18.5828056 31.4618948,19.1556563 C31.1354058,20.2706006 30.9075522,21.6148499 30.7279143,22.9854625 C30.5480009,24.3607435 30.4223646,25.713506 30.2881873,26.8866691 C30.2261957,27.4295865 30.1592447,27.9656386 30.0785179,28.4388034 L30.0181794,28.7642243 Z M1.77535925,28.7642243 L6.98127573,28.7642243 L6.92203932,28.4448449 C6.841588,27.9749755 6.77518812,27.440022 6.71181893,26.8866691 C6.57764156,25.713506 6.45200526,24.3607435 6.27209187,22.9854625 C6.092454,21.6148499 5.86460045,20.2706006 5.53811137,19.1556563 C5.37059631,18.583904 5.18489704,18.1027753 4.9845953,17.7177626 L4.95456382,17.6650361 L4.78704875,18.2310214 C3.88059385,21.548118 3.72189537,25.1546608 2.07346994,28.2523385 L1.77535925,28.7642243 Z M5.38933154,15.2393457 C10.571829,14.6807751 14.8393305,9.90491393 17.3024632,3.36958276 L5.38933154,3.36958276 L5.38933154,15.2393457 Z M19.7678001,3.36958276 C22.2284532,9.79644028 26.4422286,14.4882687 31.5525403,15.0773218 L31.5525403,3.36958276 L19.7678001,3.36958276 Z" id="Shape"></path>
                    </g>
                </g>
            </g>
        </g>
    </g>
</svg>