<?xml version="1.0" encoding="UTF-8"?>
<svg width="27px" height="33px" viewBox="0 0 27 33" version="1.1" xmlns="http://www.w3.org/2000/svg" xmlns:xlink="http://www.w3.org/1999/xlink">
    <!-- Generator: Sketch 46.1 (44463) - http://www.bohemiancoding.com/sketch -->
    <title>icon / events</title>
    <desc>Created with Sketch.</desc>
    <defs></defs>
    <g id="Symbols" stroke="none" stroke-width="1" fill="none" fill-rule="evenodd">
        <g id="section-/-Events-&amp;-Meetings" transform="translate(-641.000000, -626.000000)" fill-rule="nonzero" fill="#C8102E">
            <g id="component-/-Text">
                <g transform="translate(290.000000, 550.000000)">
                    <g id="icon-/-events" transform="translate(351.000000, 76.000000)">
                        <path d="M13.4859123,7 C14.3544138,7 15,5.58084136 15,3.60111505 C15,1.82716675 13.8419979,0.408008109 13.7898878,0.35478966 L13.5003873,0 L13.2108868,0.35478966 C13.1616717,0.415103903 12.0007746,1.81297516 12.0007746,3.60111505 C11.9747196,5.57019767 12.6087257,7 13.4859123,7 Z M13.4859123,1.55752661 C13.868442,2.14046468 14.0940023,2.85447066 14.1314984,3.60111505 C14.1314984,5.1160669 13.6740876,5.93563102 13.4859123,5.93563102 C13.2977369,5.93563102 12.8403261,5.1196148 12.8403261,3.60111505 C12.8768754,2.85421724 13.1025433,2.13987072 13.4859123,1.55752661 L13.4859123,1.55752661 Z" id="Shape"></path>
                        <path d="M24.8957939,17.8220779 L24.8957939,11.1363636 L21.3353543,11.1363636 L21.3353543,17.8220779 L19.2345585,17.8220779 L19.2345585,18.3285714 C19.2374175,20.2508348 20.6733074,21.8758133 22.5971959,22.134026 C22.4972986,23.4656342 21.3778033,24.4960319 20.0291777,24.4976623 L14.0098522,24.4976623 L14.0098522,17.9976623 C15.9418615,17.7487069 17.388719,16.1212199 17.3929519,14.1922078 L17.3929519,13.6857143 L15.281925,13.6857143 L15.281925,7 L11.718075,7 L11.718075,13.6857143 L9.61727927,13.6857143 L9.61727927,14.1922078 C9.62060129,16.1167161 11.0601416,17.742528 12.9867374,17.9976623 L12.9867374,24.5077922 L6.97082228,24.5077922 C5.6221967,24.5061618 4.50270135,23.4757641 4.40280409,22.1441558 C6.32669263,21.8859432 7.76258246,20.2609646 7.76544146,18.3387013 L7.76544146,17.8322078 L5.6646457,17.8322078 L5.6646457,11.1363636 L2.10079576,11.1363636 L2.10079576,17.8220779 L0,17.8220779 L0,18.3285714 C0.00229866612,20.2577415 1.44774887,21.8867302 3.37968928,22.1374026 C3.48112212,24.0285741 5.05805353,25.5113105 6.97082228,25.514026 L12.9867374,25.514026 L12.9867374,28.2153247 C10.1897066,28.3722742 7.64496738,29.8676265 6.16597196,32.2233766 L5.67487685,33 L21.3183024,33 L20.8272073,32.2233766 C19.3482118,29.8676265 16.8034726,28.3722742 14.0064418,28.2153247 L14.0064418,25.514026 L20.0291777,25.514026 C21.9419465,25.5113105 23.5188779,24.0285741 23.6203107,22.1374026 C25.5522511,21.8867302 26.9977013,20.2577415 27,18.3285714 L27,17.8220779 L24.8957939,17.8220779 Z M12.7411898,8.01298701 L14.2588102,8.01298701 L14.2588102,13.6857143 L12.7411898,13.6857143 L12.7411898,8.01298701 Z M10.6949602,14.6987013 L16.3118606,14.6987013 C16.0649193,16.0443017 14.8813062,17.0224517 13.5,17.0224517 C12.1186938,17.0224517 10.9350807,16.0443017 10.6881394,14.6987013 L10.6949602,14.6987013 Z M3.12391057,12.1493506 L4.64153088,12.1493506 L4.64153088,17.8220779 L3.12391057,17.8220779 L3.12391057,12.1493506 Z M1.07768094,18.8350649 L6.70481243,18.8350649 C6.46181361,20.1850216 5.27618487,21.1681969 3.89124668,21.1681969 C2.5063085,21.1681969 1.32067976,20.1850216 1.07768094,18.8350649 L1.07768094,18.8350649 Z M19.4084881,32.0038961 L7.5983327,32.0038961 C9.04322009,30.2470314 11.2099984,29.227329 13.4982948,29.227329 C15.7865913,29.227329 17.9533695,30.2470314 19.3982569,32.0038961 L19.4084881,32.0038961 Z M22.3652899,12.145974 L23.872679,12.145974 L23.872679,17.8187013 L22.3584691,17.8187013 L22.3652899,12.145974 Z M23.1258052,21.1548052 C21.7450518,21.1529608 20.5620891,20.1762071 20.3122395,18.8316883 L25.9189087,18.8316883 C25.6726687,20.1751489 24.4946088,21.1542424 23.1155741,21.1615584 L23.1258052,21.1548052 Z" id="Shape"></path>
                        <path d="M22.4859123,11 C23.3544138,11 24,9.58084136 24,7.60111505 C24,5.82716675 22.8419979,4.40800811 22.7898878,4.35478966 L22.5003873,4 L22.2108868,4.35478966 C22.1616717,4.4151039 21.0007746,5.81652306 21.0007746,7.60111505 C20.9747196,9.58084136 21.6087257,11 22.4859123,11 Z M22.4859123,5.55752661 C22.867401,6.1409017 23.0919372,6.85486752 23.1286034,7.60111505 C23.1286034,9.1160669 22.6740876,9.93563102 22.4859123,9.93563102 C22.2977369,9.93563102 21.8403261,9.1196148 21.8403261,7.60111505 C21.8768754,6.85421724 22.1025433,6.13987072 22.4859123,5.55752661 L22.4859123,5.55752661 Z" id="Shape"></path>
                        <path d="M3.48591227,11 C4.35441384,11 5,9.58084136 5,7.60111505 C5,5.82716675 3.84199792,4.40800811 3.78988782,4.35478966 L3.5003873,4 L3.21088678,4.35478966 C3.16167169,4.4151039 2.0007746,5.81297516 2.0007746,7.60111505 C1.97471956,9.58084136 2.6087257,11 3.48591227,11 Z M3.48591227,5.55752661 C3.8698411,6.14084143 4.09554219,6.85653352 4.13149844,7.60466295 C4.13149844,9.1160669 3.6654026,9.93563102 3.48591227,9.93563102 C3.30642195,9.93563102 2.84032611,9.1196148 2.84032611,7.60111505 C2.87706563,6.85426807 3.10271183,6.13999009 3.48591227,5.55752661 L3.48591227,5.55752661 Z" id="Shape"></path>
                    </g>
                </g>
            </g>
        </g>
    </g>
</svg>