<?xml version="1.0" encoding="UTF-8"?>
<svg width="34px" height="27px" viewBox="0 0 34 27" version="1.1" xmlns="http://www.w3.org/2000/svg" xmlns:xlink="http://www.w3.org/1999/xlink">
    <!-- Generator: Sketch 47.1 (45422) - http://www.bohemiancoding.com/sketch -->
    <title>Shape</title>
    <desc>Created with Sketch.</desc>
    <defs></defs>
    <g id="Conciergerie" stroke="none" stroke-width="1" fill="none" fill-rule="evenodd">
        <g id="Conciergerie-" transform="translate(-703.000000, -914.000000)" fill-rule="nonzero" fill="#C8102E">
            <g id="section-/-About" transform="translate(355.000000, 860.000000)">
                <g id="component-/-About-/-Title" transform="translate(1.000000, 0.000000)">
                    <g id="icon-/-Map" transform="translate(347.000000, 54.000000)">
                        <path d="M33.9999984,26.2406895 L33.9999984,3.72887086 C34.0006459,3.41285077 33.806246,3.12912748 33.5111195,3.01536067 L26.0633557,0.149873246 C25.849794,0.0699613508 25.6116616,0.0895527242 25.4140635,0.20329112 L17,3.02680736 L8.46371683,0.0468530585 C8.29359028,-0.0156176862 8.10677086,-0.0156176862 7.93664431,0.0468530585 L0.48888047,2.9314183 C0.193754021,3.0451851 -0.000645891475,3.32890839 1.61258385e-06,3.64492848 L1.61258385e-06,26.1567471 C0.00126716299,26.4105467 0.128757594,26.6471093 0.340144728,26.7878938 C0.551531861,26.9286782 0.819149839,26.9552588 1.05414665,26.8588106 L8.2421936,23.9131964 L16.7593799,26.6871103 C16.9085532,26.7339764 17.0685306,26.7339764 17.2177039,26.6871103 L25.8914842,24.0505566 L32.9458534,26.942753 C33.1814747,27.0394538 33.4498428,27.0124578 33.6614361,26.8707702 C33.8730293,26.7290827 34.0000018,26.4913498 33.9999984,26.236874 L33.9999984,26.2406895 Z M8.97933125,1.84016743 L16.2361268,4.37370092 L16.2361268,24.9090582 L8.97933125,22.547225 L8.97933125,1.84016743 Z M1.52774804,4.16384498 L7.44776545,1.87450749 L7.44776545,22.5891962 L1.52774804,25.015894 L1.52774804,4.16384498 Z M25.0206688,22.7265565 L17.7638732,24.9510294 L17.7638732,4.38133204 L25.0206688,1.93937205 L25.0206688,22.7265565 Z M32.472252,25.1036519 L26.5484152,22.6616919 L26.5484152,1.96608099 L32.4760713,4.25541848 L32.472252,25.1036519 Z" id="Shape"></path>
                    </g>
                </g>
            </g>
        </g>
    </g>
</svg>