<?xml version="1.0" encoding="UTF-8"?>
<svg width="18px" height="18px" viewBox="0 0 18 18" version="1.1" xmlns="http://www.w3.org/2000/svg" xmlns:xlink="http://www.w3.org/1999/xlink">
    <!-- Generator: Sketch 47.1 (45422) - http://www.bohemiancoding.com/sketch -->
    <title>ui / Icon / Edit</title>
    <desc>Created with Sketch.</desc>
    <defs></defs>
    <g id="Page-1" stroke="none" stroke-width="1" fill="none" fill-rule="evenodd">
        <g id="Richemond-Edit-booking" transform="translate(-1314.000000, -41.000000)" fill-rule="nonzero" fill="#F2F2F2">
            <g id="section-/-Cover">
                <g id="component-/-Topbar" transform="translate(20.000000, 20.000000)">
                    <g id="ui-/-Icon-/-Edit" transform="translate(1294.000000, 21.000000)">
                        <path d="M6.64112903,8.23790323 C6.60483871,8.27419355 6.56854839,8.34677419 6.53225806,8.38306452 L5.51612903,12.0120968 C5.47983871,12.1935484 5.58870968,12.4112903 5.77016129,12.4475806 C5.80645161,12.4475806 5.84274194,12.4475806 5.87903226,12.4475806 C5.91532258,12.4475806 5.9516129,12.4475806 5.98790323,12.4475806 L9.61693548,11.4314516 C9.68951613,11.4314516 9.72580645,11.3951613 9.76209677,11.3225806 L17.1653226,3.91935484 C18.0725806,3.08467742 18.108871,1.66935484 17.2741935,0.762096774 C16.4395161,-0.14516129 15.0599789,-0.137388168 14.1527208,0.697289252 C13.5478821,1.25374086 11.0440182,3.76727886 6.64112903,8.23790323 Z M6.38709677,11.6129032 L7.0766129,9.14516129 L8.85483871,10.9233871 L6.38709677,11.6129032 Z M16.6572581,3.44758065 L9.54435484,10.5604839 L7.43951613,8.45564516 L14.5887097,1.34274194 C15.1693548,0.762096774 16.1129032,0.762096774 16.6935484,1.37903226 C16.9475806,1.63306452 17.0927419,1.99596774 17.0927419,2.39516129 C17.0927419,2.79435484 16.9475806,3.15725806 16.6572581,3.44758065 Z M3.99193548,18 C1.77822581,18 -1.28929125e-15,16.2217742 0,14.0080645 L0,3.99193548 C0,1.77822581 1.77822581,0 3.99193548,0 L6.82258065,0 C7.04032258,0 7.18548387,0.14516129 7.18548387,0.362903226 C7.18548387,0.580645161 7.04032258,0.725806452 6.82258065,0.725806452 L3.99193548,0.725806452 C2.17741935,0.725806452 0.725806452,2.17741935 0.725806452,3.99193548 L0.725806452,14.0080645 C0.725806452,15.8225806 2.17741935,17.2741935 3.99193548,17.2741935 L14.0080645,17.2741935 C15.8225806,17.2741935 17.2741935,15.8225806 17.2741935,14.0080645 L17.2741935,11.1774194 C17.2741935,10.9596774 17.4193548,10.8145161 17.6370968,10.8145161 C17.8548387,10.8145161 18,10.9596774 18,11.1774194 L18,14.0080645 C18,16.2217742 16.2217742,18 14.0080645,18 L3.99193548,18 Z"></path>
                    </g>
                </g>
            </g>
        </g>
    </g>
</svg>