<?xml version="1.0" encoding="UTF-8"?>
<svg width="47px" height="53px" viewBox="0 0 47 53" version="1.1" xmlns="http://www.w3.org/2000/svg" xmlns:xlink="http://www.w3.org/1999/xlink">
    <!-- Generator: Sketch 46.1 (44463) - http://www.bohemiancoding.com/sketch -->
    <title>Geneva Mark</title>
    <desc>Created with Sketch.</desc>
    <defs>
        <polygon id="path-1" points="0 53 47 53 47 0 0 0"></polygon>
    </defs>
    <g id="Symbols" stroke="none" stroke-width="1" fill="none" fill-rule="evenodd">
        <g id="section-/-About" transform="translate(-437.000000, -23.000000)">
            <g id="component-/-About-/-Title">
                <g transform="translate(190.000000, 0.000000)">
                    <g id="Geneva-Mark" transform="translate(247.000000, 23.000000)">
                        <g>
                            <path d="M23.5,0 L23.5,53 C23.5,53 0,44.9675237 0,16.3518268 L0,0 L23.5,0 Z M22.7769231,0.717185386 L0.723076923,0.717185386 L0.723076923,16.3518268 C0.723076923,22.7596631 1.93061538,28.6349175 4.31206923,33.8143586 C6.21549692,37.9539526 8.87070769,41.6651719 12.20402,44.8449567 C15.1771677,47.681138 18.1520508,49.5621001 20.1240985,50.640747 C21.2228862,51.2416766 22.1411938,51.6673261 22.7769231,51.94 L22.7769231,0.717185386 Z" id="Fill-1" fill="#000000"></path>
                            <path d="M23.5,53 C23.5,53 47,44.9675237 47,16.3518268 L47,0 L23.5,0 L23.5,53 Z" id="Fill-3" fill="#C8102E"></path>
                            <path d="M8.95182386,35.6108582 C10.2652668,35.5495466 11.4378831,35.2228113 12.4288691,34.3826449 C11.7094979,35.2645117 11.369853,36.2530718 11.3954184,37.3607152 C11.4108732,38.0313898 12.0972405,38.3807099 12.6839459,38.0347174 C12.5379917,37.7460009 12.392182,37.4573552 12.2384282,37.153063 C12.8018069,36.9649513 13.0612168,36.6356672 13.0076304,36.0984478 C13.6269064,36.0333131 13.9719678,35.6721697 14.145365,35.1292156 C14.2370107,34.8423399 14.3191956,34.5521366 14.3953142,34.2608714 C14.6027988,33.4667241 14.7670965,33.3810578 15.558181,33.6672964 C16.1403366,33.877922 16.2084389,33.85824 16.552778,33.3683141 C17.0201779,33.6624113 17.2738103,33.3361715 17.5210874,33.0092238 C17.8179065,33.3701548 17.5865176,33.7147314 17.5304758,34.0566176 C18.1189144,34.0823883 18.5337391,33.7503431 18.572665,33.2186459 C18.5901419,32.979276 18.5637099,32.7369326 18.577287,32.4970671 C18.5938251,32.2045275 18.4457044,31.9827864 18.2008105,31.8976158 C17.966605,31.8161266 17.6871906,31.8123035 17.4348581,31.8392778 C17.0569373,31.8796329 16.6853717,31.9768394 16.3110617,32.0498327 C16.2966902,32.0206637 16.2822465,31.9915655 16.2678749,31.9623965 C16.6858772,31.2469771 17.1038795,30.5316993 17.5384199,29.7880314 C17.7672812,30.0955803 17.9676161,30.3647564 18.1909887,30.6649422 C18.2374976,30.5584612 18.2660963,30.4967956 18.2916617,30.4339973 C18.7053309,29.4188169 19.1225388,28.4049817 19.5260251,27.3859073 C19.5687064,27.2782227 19.5617734,27.1297582 19.5247974,27.0169053 C19.1776417,25.9562014 18.8191477,24.8989666 18.4626758,23.8411655 C18.4355215,23.7605967 18.3991233,23.6830015 18.3443092,23.5481303 C17.2875318,25.2067987 16.3039843,26.8506703 14.6724899,28.1021763 C15.0699098,28.301191 15.4002385,28.4665764 15.7526662,28.6430064 C15.2985545,29.5934061 14.8355599,30.5622843 14.4048471,31.4635499 C14.219967,31.4135661 14.0777683,31.3331389 13.9446691,31.3458827 C12.9864703,31.437142 12.0256717,31.5189143 11.0746226,31.6607238 C10.347524,31.7691164 9.62591393,31.94321 8.99226638,32.3425139 C8.58408585,32.599725 8.33132012,32.9670987 8.20450395,33.4636089 C8.31803187,33.4347939 8.3904673,33.4272893 8.45286433,33.3987575 C9.01768739,33.1403427 9.60547602,33.0626767 10.2195523,33.1686622 C10.2793494,33.178928 10.3424686,33.1717065 10.403999,33.1717065 C11.1050989,33.1718481 11.8061988,33.1717773 12.5072265,33.1717773 C12.4448295,33.2371244 12.3793271,33.2605587 12.3128136,33.2809487 C11.0144644,33.6800401 9.70983215,34.0612195 8.42188247,34.4904711 C8.1189247,34.5914298 7.84138794,34.8238615 7.60797685,35.0509124 C7.3789711,35.2737155 7.39464258,35.6032827 7.55850698,35.8299089 C7.79040148,36.1505555 8.57635844,36.4235547 9.01422089,36.3226668 C8.9946496,36.0992266 8.974645,35.872034 8.95182386,35.6108582 M22.7251725,3.23170732 L22.7251725,11.8702633 C21.9436931,11.9369555 21.8201268,11.8124917 21.764735,11.0219551 C21.4151239,10.8167809 21.0156096,10.7015916 20.8239409,10.4400618 C20.5770249,10.1032023 20.9733616,9.79190104 21.1747798,9.40824369 C20.8889378,9.40824369 20.6669373,9.42119983 20.4478978,9.40201342 C20.3571188,9.39408398 20.2082036,9.33050689 20.1953487,9.26990333 C20.096409,8.80397806 19.8161279,8.48064108 19.4318518,8.21493412 C19.3708991,8.17273818 19.3409283,8.02852153 19.3597774,7.94505004 C19.4274464,7.64493499 19.5221253,7.35055461 19.6121099,7.03486387 C20.0578442,6.85885868 20.1342516,6.63534765 19.8782361,6.29254107 C19.9252505,6.12524409 20.0017302,5.98463817 19.9967471,5.84700579 C19.9813645,5.42950673 19.3723435,5.51524378 19.3100187,5.10595735 C19.3027968,5.05852233 19.1151002,5.03494641 19.0095164,5.00627299 C18.9827232,4.99898074 18.9474082,5.02383104 18.9196762,5.01781316 C18.8665954,5.00627299 18.7989264,4.99784797 18.7676557,4.96237789 C18.6190294,4.79408974 18.4553095,4.70764471 18.2261593,4.80364754 C18.1872334,4.81993121 18.1090927,4.81603729 18.0869215,4.79026662 C17.8886809,4.55925094 17.6515867,4.55712699 17.3323797,4.7228664 C17.742149,4.28526055 17.7908967,3.95895003 17.5382754,3.67759659 C17.3091975,3.42250941 16.9079499,3.36027749 16.6608895,3.59667385 C16.5229516,3.72864235 16.4071849,3.95710927 16.4124569,4.13849516 C16.4178011,4.32653611 16.5814489,4.51011675 16.6835662,4.71097224 C16.4457498,4.55096751 16.2264213,4.5518879 16.0222589,4.76449594 C15.9877383,4.80039081 15.9014368,4.78573551 15.8407008,4.8008156 C15.6753921,4.84180796 15.5097222,4.88209234 15.3468688,4.93129733 C15.2869273,4.94942176 15.2276356,5.02666298 15.1800435,5.01752996 C14.8056613,4.94552784 14.6572517,5.15792349 14.5811331,5.45733056 C14.0591358,5.55885568 13.9497244,5.80388947 14.2202559,6.24546003 C14.04137,6.54869022 14.0148657,6.78020149 14.2085565,6.88802768 C14.4212408,7.00647365 14.5378019,7.14771676 14.5656783,7.37802445 C14.5826497,7.51841798 14.5683504,7.69265321 14.6472855,7.78985962 C14.8541201,8.04452201 14.7132213,8.1670035 14.5175084,8.31164494 C14.4218907,8.38230189 14.324612,8.48057028 14.2838807,8.58683891 C14.1722304,8.87867053 13.9645292,8.92490199 13.6708877,8.9437344 C13.093643,8.98076204 12.5422526,9.13637726 12.2636326,9.70779236 C11.9992396,10.2499677 12.1443271,10.7744433 12.3721774,11.300689 C13.8543234,10.3280585 14.7988728,10.8218784 15.8004028,11.5184653 C15.2134808,11.7104002 14.6690956,11.9113973 14.1111333,12.0648885 C13.422744,12.2542746 12.7699584,12.1291028 12.1725647,11.7448791 C12.0441597,11.662328 11.9318595,11.5559177 11.8037434,11.472871 C11.7638786,11.4469588 11.6964263,11.4618973 11.6416122,11.4582157 C11.6411067,11.5118102 11.6200188,11.5768741 11.6432733,11.6175125 C12.0545592,12.3359762 12.5457913,12.9735879 13.4332879,13.1522127 C13.687498,13.2034 13.9532631,13.2000725 14.1966404,13.2203209 C14.2362163,13.4482922 14.2738422,13.6650774 14.3191956,13.92597 C14.4094691,13.8542511 14.4421842,13.8319495 14.4705662,13.8051877 C15.6236112,12.7155272 17.6291989,12.7546788 18.7723499,13.8907831 C18.941053,14.0584341 19.1191445,14.2449883 19.0298821,14.4970311 C18.9340478,14.7676232 18.6545611,14.736047 18.4255553,14.7575698 C18.1601513,14.7824909 17.8909197,14.7747031 17.6273934,14.8100315 C17.125834,14.877361 16.7846725,15.1968748 16.4929808,15.5789746 C16.1046605,15.3582247 15.708035,15.2991079 15.3290308,15.4946535 C14.9964633,15.6661984 14.685056,15.8848951 14.3877313,16.1121585 C13.975362,16.4273536 13.5946969,16.7823376 13.1823276,17.0973911 C12.7734249,17.4097543 12.307686,17.5626084 11.7750725,17.514253 C10.9291018,17.4373658 10.2288685,16.6597853 10.3130756,15.8675495 C10.346874,15.5490268 10.5534197,15.314896 10.8647548,15.3328788 C11.0382243,15.3429322 11.2224545,15.4547231 11.3694919,15.5629033 C11.6699942,15.784078 12.1974802,15.8123974 12.4902551,15.580957 C12.80679,15.3306841 12.6296373,15.0484103 12.513004,14.7879424 C12.1668594,14.0151762 11.8031656,13.2499855 11.4540601,12.4784229 C10.5935733,10.576703 9.75554664,8.66613328 9.23752135,6.63987876 C9.1265933,6.20602524 9.05170243,5.7633219 8.95290714,5.2892548 C8.15626181,5.65606209 7.58717784,6.17034277 7.39211492,7.01659785 C7.26392659,7.57293286 7.33968409,8.12155083 7.48939361,8.65622149 C7.67542918,9.32031189 7.90197949,9.97349932 8.13192408,10.6971313 C7.25663249,9.81753012 7.06445833,8.67809824 6.62811247,7.65512998 C6.10734286,7.97018353 5.88779778,8.47773834 6.00536995,9.04497633 C6.17465077,9.862204 6.62038506,10.5516403 7.07428008,11.2342799 C7.38496526,11.7015504 7.71753273,12.1546611 8.04027845,12.6140729 C7.58046149,12.197211 7.14815989,11.7563484 6.77587209,11.2712368 C6.40199548,10.7840719 6.08791601,10.2527996 5.74639341,9.73908532 C5.14221112,9.87254059 4.84250319,10.2874201 4.95653664,10.8821987 C5.01106182,11.1665965 5.06573143,11.4699683 5.20843574,11.7156393 C5.72465556,12.6050107 6.2778514,13.4739213 6.81855339,14.3496286 C6.87538957,14.4417375 6.94219193,14.5279701 7.0043723,14.6168931 C6.97534035,14.6402566 6.9463084,14.6636909 6.91727646,14.6870544 C6.48085838,14.2856267 6.04436809,13.8841281 5.57451272,13.4519737 C5.52381514,13.575234 5.44704658,13.6950252 5.42668088,13.8234537 C5.36392277,14.220138 5.53118146,14.552254 5.78120286,14.8476256 C6.17067873,15.3078869 6.68263765,15.6012761 7.22774498,15.8473011 C7.33181224,15.8943113 7.43248522,15.9486138 7.61180444,16.0378908 C7.03333203,16.0599091 6.36061412,15.8191233 5.93004577,15.4722812 C5.77145333,15.3446314 5.62463255,15.2018307 5.45954043,15.0831723 C5.07490322,14.8065624 4.71893686,14.9322298 4.59934257,15.3868981 C4.50740806,15.7367846 4.63877402,16.0463158 4.83947,16.3210142 C5.24555619,16.8767828 5.84432208,17.100577 6.50721824,17.1652161 C6.86065693,17.1996242 7.22045089,17.1713048 7.57735608,17.1713048 C7.17466418,17.4770129 6.73911273,17.4207989 6.30197247,17.3651512 C6.00789761,17.3276988 5.71208949,17.2724051 5.41772576,17.2758743 C5.00535654,17.2808302 4.78480039,17.5315986 4.77837292,17.9361415 C4.77151213,18.3687915 5.08696375,18.6382508 5.64333722,18.6839158 C6.38040206,18.7443778 7.08294633,18.6022143 7.78122969,18.3663135 C7.38099323,18.6084446 6.96075216,18.8046982 6.54715522,19.0136247 C6.17493964,19.2017364 5.78423605,19.368821 5.44776877,19.6076953 C4.9106055,19.9890163 4.68015538,20.8807241 4.94007076,21.3696589 C5.2344345,21.9234451 5.97763794,22.2088341 6.6797489,21.9245071 C7.16996996,21.725988 7.59541078,21.3723492 8.04634483,21.0829247 C8.12881867,21.0300382 8.19504329,20.952797 8.26877866,20.886742 C8.20082079,21.0780396 8.11170282,21.2403099 7.98965309,21.3735528 C7.33874524,22.0839454 6.67447693,22.7826563 6.02537455,23.4945358 C5.65756432,23.8978751 5.27921014,24.2976037 4.96346964,24.7388911 C4.73229734,25.0620157 4.84430866,25.4293186 5.14964965,25.681149 C5.37641662,25.8681988 5.62253821,25.8571542 5.95893328,25.6092177 C6.15442951,25.4652134 6.33981511,25.3006068 6.50122408,25.1206369 C7.49921537,24.0080377 8.20746492,22.7122826 8.91679775,21.4177311 C9.00931001,21.2488765 9.10203892,21.080022 9.19469561,20.9111675 C9.23593253,21.0326578 9.22798847,21.1322005 9.20791165,21.2292653 C9.04260287,22.0281562 8.71631843,22.7685674 8.25621259,23.4379677 C7.55691817,24.4554137 6.79768216,25.4332125 6.09607674,26.4491717 C5.79997975,26.8778569 5.51933758,27.3384723 5.34875682,27.8241504 C5.0502044,28.6742994 5.71028402,29.4998105 6.57568164,29.4364458 C6.97635142,29.4071352 7.25229937,29.177677 7.48289392,28.8772788 C9.08051772,26.796651 10.0717204,24.4647591 10.5020721,21.8983824 C10.5512531,21.6045685 10.6298272,21.3154272 10.6948241,21.0240911 C10.7280447,21.0303214 10.7613376,21.0366225 10.7945582,21.042782 C10.7800422,21.2302565 10.7949193,21.4254481 10.7464605,21.6039313 C10.4640128,22.64113 10.2202023,23.6926301 9.8619249,24.7047662 C9.34202192,26.1734821 8.72498468,27.6089228 8.17453316,29.0675853 C8.04598373,29.4084095 7.98921977,29.7835002 7.95989895,30.1475464 C7.94921057,30.2790901 8.08534297,30.4851847 8.21042589,30.5452219 C8.31976512,30.5976128 8.53801027,30.5324781 8.65319922,30.4475907 C8.8019699,30.3380653 8.93167482,30.1728215 9.00829895,30.0047457 C10.0910029,27.6307287 10.8989865,25.1689923 11.4217061,22.6189701 C11.5277232,22.1018575 11.6034807,21.5788686 11.6931764,21.0584992 L11.7725449,21.0696854 C11.7403353,21.3522424 11.7339078,21.6403217 11.6718719,21.9163653 C11.3148223,23.504306 10.9801605,25.0984061 10.5672857,26.6725411 C10.2443955,27.9039403 9.93255486,29.1470213 9.2534817,30.2615321 C9.00071597,30.6764116 9.25998139,31.019289 9.76854602,30.9941555 C10.3829834,30.9637121 10.8649715,30.6924828 11.2171825,30.1985922 C11.6294795,29.6204512 11.8587741,28.9651398 12.0359268,28.2915624 C12.5808174,26.2200676 12.7725583,24.0980226 12.9648769,21.9761901 C12.9983864,21.6064092 13.0365901,21.237124 13.0726273,20.8674847 C13.1163197,20.8686883 13.160012,20.8699627 13.2036322,20.8711663 C13.209193,20.9889043 13.2282588,21.1077042 13.2180759,21.2241678 C13.1483126,22.0255366 13.0811491,22.8273302 12.9965809,23.6273539 C12.8908527,24.6267462 12.7588367,25.623519 12.6624969,26.6236193 C12.6402535,26.8537854 12.6807682,27.1050495 12.7568868,27.325233 C12.8664427,27.6422689 13.1769835,27.8533902 13.396673,27.7982381 C13.7295293,27.7148374 13.7460674,27.4237845 13.7576224,27.1679186 C13.8382186,25.3897422 13.9076208,23.6109994 13.978323,21.8323982 C13.9922612,21.4805294 13.9830172,21.1272446 14.0130602,20.7770042 C14.0210765,20.6825589 14.1338823,20.5966095 14.1985903,20.5067661 C14.269148,20.5855649 14.3498886,20.6581334 14.4060026,20.745782 C14.4351068,20.7912347 14.4257906,20.86352 14.4249961,20.923628 C14.4090358,22.2009755 14.4114912,23.4789601 14.3662823,24.7552456 C14.3453388,25.3447851 14.2272611,25.9307139 14.1604588,26.5190499 C14.116622,26.904902 14.2768032,27.0675262 14.656024,26.964302 C14.9122562,26.8945654 15.201348,26.7819957 15.3692567,26.5961495 C15.6358162,26.3012027 15.8713216,25.9513163 16.0179257,25.5855002 C16.5439673,24.2714083 16.6712168,22.8961464 16.5676551,21.4951139 C16.5553057,21.3287373 16.565994,21.1605907 16.565994,20.9933646 C16.601959,20.992515 16.6379962,20.991807 16.6739611,20.9909574 C16.8693851,21.8115126 16.9460092,22.6482807 16.9215271,23.4902171 C16.9082388,23.9500536 16.8125489,24.4072707 16.7671233,24.8668949 C16.7573016,24.9662253 16.8037382,25.0710071 16.8241762,25.1732402 C16.9359708,25.1411685 17.0643758,25.1323187 17.1545771,25.0702283 C17.2400841,25.0113239 17.312014,24.9044889 17.3432847,24.8047338 C17.4181756,24.5664966 17.4947275,24.3227372 17.5190652,24.0762167 C17.6286933,22.9674406 17.4977607,21.8682931 17.3505788,20.7707739 C17.3442958,20.7239053 17.3497122,20.6754083 17.3497122,20.6230881 C17.4230143,20.6476552 17.483678,20.6680452 17.5708461,20.6974266 L17.5708461,20.2196072 C17.6360597,20.3073974 17.658303,20.4031878 17.6878405,20.4968543 C18.428733,22.8463042 19.1552539,25.2002145 19.9184619,27.5426553 C20.276306,28.6412364 20.7843651,29.6969844 21.0847952,30.8083093 C21.6796612,33.0090822 20.4792407,35.3233453 18.3816463,36.2043624 C16.9976457,36.7856185 15.9712002,36.3104187 15.5573144,34.8973504 C15.5328322,34.8138789 15.5025003,34.7320358 15.4683408,34.6299443 C14.8486315,34.8551544 14.2848195,35.109746 14.1098334,35.7741904 C13.9383138,36.4253955 14.2702313,36.9191446 14.7157489,37.3566088 C15.0453554,37.6802998 15.4530304,37.8400921 16.0153981,37.8531191 C15.7747651,38.043992 15.614295,38.171217 15.4125157,38.3312925 C16.1000385,38.5898488 16.7557128,38.6821701 17.4362303,38.5888576 C18.4273608,38.4531368 19.2499327,37.9821848 19.9849754,37.3425199 C20.1768607,37.1755769 20.3514857,36.9870404 20.5567315,36.8387882 C20.6325612,36.7839902 20.7739656,36.8165575 20.8854713,36.8094068 C20.8853269,36.9081708 20.9234584,37.0308647 20.8777439,37.1010969 C20.7629883,37.2773853 20.6198507,37.4390892 20.47043,37.5897485 C20.2950106,37.766674 20.1008865,37.9257584 19.914851,38.0926306 C19.9179564,38.1266139 19.9209896,38.160668 19.924095,38.1945805 C20.2615733,38.2278558 20.6117622,38.3305845 20.9330635,38.2744413 C21.2485151,38.2194308 21.5345737,38.0029288 21.8275653,37.8601989 C22.053249,38.5468741 22.1159349,38.638629 22.4677848,38.9622492 C22.6052893,39.0886954 22.7069734,39.2524524 22.8472222,39.4268293" id="Fill-5" fill="#FFFFFF"></path>
                            <path d="M18.632671,6.8918508 C18.3136801,7.18729315 17.910843,7.28846428 17.510028,7.35628929 C17.446042,7.16010651 17.3866781,6.97815423 17.3169869,6.7647674 C17.5293105,6.4765465 17.5289494,6.38259682 17.3030486,6.1003938 C17.377073,5.92276024 17.4445255,5.76105635 17.5220163,5.57528095 C17.9251423,5.62391955 18.3193131,5.74293192 18.6388096,6.03044483 C18.9375792,6.29926693 18.9316573,6.61481607 18.632671,6.8918508 M17.2202857,9.46374976 C17.3292641,9.53858383 17.5101724,9.65051634 17.4992674,9.72372204 C17.4820071,9.83855729 17.3481854,9.99126976 17.2322019,10.0256779 C17.00659,10.0925117 16.759168,10.0883346 16.5854815,10.1067422 C16.5854815,9.90029362 16.6480953,9.69257067 16.5694489,9.59925818 C16.4749143,9.48711328 16.262013,9.46615691 16.0965595,9.41843869 C16.0304069,9.39932308 15.9477163,9.43167801 15.8838026,9.40944727 C15.7848626,9.37496838 15.6620183,9.33376362 15.614426,9.2567348 C15.5838774,9.20738821 15.6459857,9.04809147 15.7104049,9.01035584 C15.8022674,8.95669054 15.9836813,8.91399901 16.0410953,8.96306241 C16.3321376,9.21170692 16.6664389,9.1736881 17.0023291,9.15627165 C17.2367516,9.1441651 17.4708131,9.12639466 17.7050191,9.11117298 C17.70863,9.13517368 17.712241,9.15917439 17.7157797,9.1832459 C17.4739185,9.24738939 17.2320574,9.31153287 16.954159,9.38530496 C17.0662428,9.41631473 17.1572386,9.42042105 17.2202857,9.46374976 M15.5370073,5.96332781 C15.8459598,5.76905658 16.2094376,5.65825685 16.5535607,5.50809312 C16.6415956,5.74696743 16.7017539,5.91015809 16.7739729,6.10619928 C16.5687267,6.38089766 16.5690156,6.48907784 16.7694231,6.76101508 C16.7047871,6.96215376 16.6457121,7.14559281 16.5602771,7.41158296 C16.2208482,7.26354319 15.8483431,7.15146909 15.5341186,6.95139238 C15.1129379,6.68334907 15.1157544,6.22825598 15.5370073,5.96332781 M22.7251723,3.23170732 L22.7251723,11.8702633 C21.9437636,11.9369555 21.8201249,11.8124917 21.764733,11.0219551 C21.4151212,10.8167809 21.0156062,10.7016624 20.8239372,10.4400618 C20.5770207,10.1032023 20.9733581,9.79190104 21.1747767,9.40824369 C20.8889342,9.40824369 20.6669333,9.42119983 20.4478933,9.40201342 C20.3571142,9.39408398 20.2081988,9.33050689 20.1953438,9.26990333 C20.0964761,8.80397806 19.8161223,8.48064108 19.4318455,8.21493412 C19.3708927,8.17273818 19.3409941,8.02852153 19.3596988,7.94505004 C19.4274401,7.64493499 19.5221191,7.35055461 19.6121761,7.03486387 C20.057839,6.85885868 20.1342466,6.63534765 19.8782306,6.29254107 C19.9253173,6.12524409 20.0017971,5.98470897 19.9967418,5.84700579 C19.9813592,5.42950673 19.3723371,5.51524378 19.3100844,5.10595735 C19.3027903,5.05852233 19.1151655,5.03494641 19.0095093,5.00627299 C18.982716,4.99898074 18.947401,5.02383104 18.9197412,5.01781316 C18.866588,5.00627299 18.7989189,4.99784797 18.7676481,4.96237789 C18.6190938,4.79408974 18.4553013,4.70764471 18.2261507,4.80364754 C18.1872247,4.81993121 18.1090839,4.81603729 18.0869127,4.79026662 C17.8886718,4.55925094 17.6515771,4.55712699 17.3323695,4.72293719 C17.7421396,4.28526055 17.7908874,3.95895003 17.5382656,3.67759659 C17.3091872,3.42250941 16.9079389,3.36027749 16.6609503,3.59667385 C16.5229399,3.72864235 16.4072452,3.95710927 16.412445,4.13849516 C16.4177892,4.32653611 16.5814372,4.51011675 16.6835548,4.71097224 C16.4457379,4.55096751 16.2264813,4.5518879 16.0222462,4.76449594 C15.9877256,4.80039081 15.901424,4.78573551 15.8406879,4.8008156 C15.6753788,4.84173716 15.5097086,4.88209234 15.3468549,4.93129733 C15.2869855,4.94942176 15.2276937,5.02666298 15.1800293,5.01752996 C14.8055742,4.94552784 14.6572366,5.15792349 14.5811178,5.45733056 C14.0591195,5.55885568 13.9497079,5.80388947 14.2202399,6.24546003 C14.0413537,6.54869022 14.0149216,6.78020149 14.2085405,6.88802768 C14.4212974,7.00647365 14.5378587,7.14771676 14.565663,7.37802445 C14.5827066,7.51841798 14.5683351,7.69265321 14.6472704,7.78985962 C14.8541053,8.04452201 14.7132784,8.1670035 14.5175652,8.31164494 C14.4218751,8.38230189 14.3245963,8.48057028 14.2838648,8.58683891 C14.1722144,8.87867053 13.9645128,8.92490199 13.6708707,8.9437344 C13.0936249,8.98076204 12.5422335,9.13637726 12.2636852,9.70779236 C11.9992195,10.2499677 12.1443073,10.7744433 12.372158,11.300689 C13.8543067,10.3280585 14.7988578,10.8218784 15.8003897,11.5184653 C15.2134666,11.7104002 14.6690805,11.9113973 14.1111894,12.0648885 C13.4227265,12.2542746 12.770012,12.1291028 12.1725449,11.7448791 C12.0442119,11.662328 11.9318393,11.5559177 11.8037229,11.472871 C11.7638581,11.4469588 11.6964056,11.4618973 11.6415915,11.4582157 C11.6410859,11.5118102 11.619998,11.5768741 11.6432525,11.6175125 C12.0545392,12.3359762 12.5457722,12.9735879 13.4332704,13.1522127 C13.687481,13.2034 13.9532466,13.2000725 14.1966243,13.2203209 C14.2362003,13.4482922 14.2738986,13.6650774 14.3191798,13.92597 C14.4094535,13.8542511 14.4422409,13.8319495 14.4705507,13.8051877 C15.6235978,12.7155272 17.6291892,12.7546788 18.7724146,13.8907831 C18.941118,14.0584341 19.1191376,14.2449883 19.029875,14.4970311 C18.9340405,14.7676232 18.6545533,14.736047 18.4255471,14.7575698 C18.1601426,14.7824909 17.8909105,14.7747031 17.6273837,14.8100315 C17.1258234,14.877361 16.7846613,15.1968748 16.4929691,15.5789746 C16.104648,15.3582247 15.7080217,15.2991079 15.3290169,15.4946535 C14.9964488,15.6661984 14.6850408,15.8848951 14.3877156,16.1121585 C13.9753456,16.4273536 13.5946797,16.7823376 13.1823097,17.0973911 C12.7734063,17.4097543 12.3076665,17.5626084 11.775052,17.514253 C10.9290797,17.4373658 10.2288451,16.6597853 10.3130524,15.8675495 C10.346923,15.5490268 10.5533969,15.314896 10.8647326,15.3328788 C11.0382025,15.3429322 11.2224329,15.4547231 11.3694706,15.5629033 C11.6699735,15.784078 12.1975327,15.8124682 12.4902359,15.580957 C12.8067714,15.3306841 12.6296184,15.0484103 12.5129849,14.7879424 C12.1668396,14.0151762 11.8032174,13.2499855 11.4541112,12.4784229 C10.5936228,10.576703 9.75552238,8.66613328 9.23749613,6.63994956 C9.12656788,6.20602524 9.05167687,5.7633219 8.9528814,5.2892548 C8.15637902,5.65606209 7.58722178,6.17034277 7.39208628,7.01659785 C7.26389771,7.57293286 7.33965535,8.12155083 7.48936515,8.65622149 C7.67540107,9.32031189 7.9019518,9.97349932 8.13196903,10.6972021 C7.25667582,9.81753012 7.06442908,8.67809824 6.62808241,7.65512998 C6.10731184,7.97018353 5.88776635,8.47773834 6.00533874,9.04497633 C6.17461987,9.862204 6.62035499,10.5516403 7.07425085,11.2342799 C7.38493661,11.7015504 7.7175047,12.1546611 8.04025101,12.6140729 C7.5804332,12.197211 7.14820302,11.7562776 6.77584231,11.2712368 C6.40203722,10.7840719 6.08788496,10.2527996 5.74636172,9.73908532 C5.14217831,9.87254059 4.84246983,10.2874201 4.95650349,10.8821987 C5.01102877,11.1665965 5.0657707,11.4699683 5.20840305,11.7156393 C5.72469605,12.6050107 6.27782069,13.4739213 6.81852368,14.3496286 C6.87535997,14.4417375 6.94216246,14.5279701 7.00434294,14.6168931 C6.97531094,14.6402566 6.94635116,14.6636909 6.91724694,14.6870544 C6.48082805,14.2856267 6.04433695,13.8841281 5.57455293,13.4519737 C5.52378304,13.575234 5.44701434,13.6950252 5.42672082,13.8234537 C5.36389037,14.220138 5.53114937,14.552254 5.78117124,14.8476256 C6.17064783,15.3078869 6.68260769,15.6012761 7.22771604,15.8473011 C7.33185571,15.8943113 7.43245665,15.9486138 7.61177621,16.0378908 C7.03330273,16.0599091 6.36058357,15.8191233 5.93001442,15.4722812 C5.77142169,15.3446314 5.62460064,15.2018307 5.45950821,15.0831723 C5.07487028,14.8065624 4.71890327,14.9322298 4.59938097,15.3868981 C4.50737408,15.7367846 4.63874028,16.0463158 4.83943663,16.3209434 C5.24552357,16.8767828 5.84429057,17.100577 6.50726018,17.1652161 C6.86062731,17.1996242 7.22049415,17.1713048 7.57732779,17.1713048 C7.17463514,17.4770129 6.7391551,17.4207989 6.30194181,17.3651512 C6.0078664,17.3276988 5.71205774,17.2724051 5.41769346,17.2758743 C5.00539569,17.2808302 4.78476692,17.5315986 4.77833943,17.9361415 C4.77147864,18.3687915 5.08693084,18.6382508 5.64337756,18.6839158 C6.38037155,18.7443778 7.08291712,18.6022143 7.78120178,18.3663135 C7.38096457,18.6084446 6.96072272,18.8046982 6.54712502,19.0136247 C6.17490875,19.2017364 5.78420443,19.368821 5.44780874,19.6076953 C4.91057226,19.9890871 4.68012171,20.8807241 4.94003758,21.3696589 C5.23447408,21.9234451 5.9776789,22.2088341 6.67971894,21.9245071 C7.16994091,21.725988 7.59538252,21.3723492 8.0463174,21.0829247 C8.1287914,21.0300382 8.19501614,20.952797 8.26875165,20.886742 C8.20079365,21.0781104 8.11167551,21.2403807 7.98962555,21.3736236 C7.3387165,22.0840162 6.67444696,22.7826563 6.02534338,23.4945358 C5.65753246,23.8978751 5.27917759,24.2976745 4.96350872,24.7388911 C4.73226377,25.0620157 4.8442753,25.4293186 5.14961686,25.681149 C5.37638424,25.8681988 5.62250629,25.8571542 5.95890198,25.6092177 C6.15439857,25.4652134 6.33978452,25.3006068 6.50126601,25.1206369 C7.49918693,24.0080377 8.20751001,22.7122826 8.91677194,21.4177311 C9.00928437,21.2488765 9.10201345,21.080022 9.19467031,20.9111675 C9.23590731,21.0326578 9.22796323,21.1322005 9.20788637,21.2292653 C9.04257728,22.0281562 8.71629224,22.7685674 8.25618556,23.4380385 C7.55688984,24.4554137 6.79765242,25.4332125 6.09604569,26.4491717 C5.79994816,26.8778569 5.51930547,27.3384723 5.34879662,27.8241504 C5.05017142,28.6742994 5.71025227,29.4998105 6.57557927,29.4364458 C6.97632201,29.4071352 7.25227047,29.177677 7.48286545,28.8772788 C9.08049221,26.796651 10.0716968,24.4647591 10.5020493,21.8983824 C10.5513026,21.6045685 10.6298767,21.3154272 10.6948015,21.0240911 C10.7280222,21.0303214 10.7613152,21.0366225 10.7945359,21.042782 C10.7800921,21.2302565 10.7950414,21.4253773 10.7463658,21.6038605 C10.4640621,22.64113 10.2202511,23.6926301 9.86197305,24.7047662 C9.34199689,26.1734821 8.72503073,27.6089228 8.17450597,29.0675853 C8.0459563,29.4084095 7.98919224,29.7835002 7.95987136,30.1475464 C7.94918296,30.2790901 8.08531561,30.4851847 8.21047099,30.5452219 C8.3197382,30.5976128 8.53798375,30.5324781 8.65317291,30.4475907 C8.80194387,30.3380653 8.93172125,30.1728215 9.0082733,30.0047457 C10.0910514,27.6307287 10.8989644,25.1689923 11.4216849,22.6189701 C11.5277022,22.1018575 11.6034599,21.5788686 11.6931558,21.0584992 L11.7725244,21.0696854 C11.7403147,21.3522424 11.7339595,21.6403217 11.6718512,21.9163653 C11.3148009,23.504306 10.9801385,25.0984061 10.5672629,26.6725411 C10.2444444,27.9039403 9.93253093,29.1470213 9.25345651,30.2615321 C9.00069032,30.6764116 9.25995621,31.0193598 9.76852178,30.9941555 C10.3830325,30.9637121 10.8649493,30.6924828 11.2171609,30.1985922 C11.6294587,29.6204512 11.8587537,28.9651398 12.0359789,28.2915624 C12.5808706,26.2200676 12.7725396,24.0980226 12.9649308,21.9761901 C12.9983682,21.6064092 13.036572,21.237124 13.0726092,20.8674847 C13.1163016,20.8686883 13.1599941,20.8699627 13.2036143,20.8711663 C13.2091752,20.9889043 13.2281687,21.1077042 13.2180581,21.2241678 C13.1483668,22.0255366 13.081131,22.827401 12.9965627,23.6273539 C12.8908342,24.6267462 12.758818,25.623519 12.662478,26.6236193 C12.6402346,26.8537854 12.6807494,27.1050495 12.7568681,27.325233 C12.8664242,27.6422689 13.1769655,27.8533902 13.3966555,27.7982381 C13.7295846,27.7148374 13.7460506,27.4237845 13.7576056,27.1679186 C13.8382019,25.3897422 13.9076043,23.6109994 13.9783066,21.8323982 C13.9922448,21.4805294 13.9830008,21.1272446 14.0130439,20.7770042 C14.0211324,20.6825589 14.1338661,20.5966095 14.1986465,20.5067661 C14.2691321,20.5855649 14.3498729,20.6581334 14.4060592,20.745782 C14.4350912,20.7912347 14.4257749,20.86352 14.4249805,20.923628 C14.4090924,22.2009755 14.4114756,23.4789601 14.3661943,24.7552456 C14.3453231,25.3447851 14.2272452,25.9307847 14.1604427,26.5190499 C14.1166058,26.904902 14.2768596,27.0675262 14.6560811,26.964302 C14.9122415,26.8945654 15.2013338,26.7819957 15.3692428,26.5961495 C15.6358028,26.3012027 15.8713809,25.9513871 16.0179131,25.5855002 C16.5439556,24.2714083 16.6711331,22.8961464 16.5676434,21.4951139 C16.555294,21.3287373 16.5659824,21.1606615 16.5659824,20.9933646 C16.6020196,20.9925858 16.6379846,20.991807 16.6739497,20.9909574 C16.869374,21.8115126 16.9460705,22.6482807 16.9215883,23.4902171 C16.9082278,23.9500536 16.8125378,24.4072707 16.7671121,24.8668949 C16.7572903,24.9662253 16.803727,25.0710071 16.824165,25.1732402 C16.9359599,25.1411685 17.0643651,25.1323187 17.1545665,25.0702283 C17.2400737,25.0113239 17.3120037,24.9044889 17.3432745,24.8047338 C17.4181655,24.5664966 17.4947176,24.3227372 17.5191276,24.0762167 C17.6287559,22.9674406 17.4977508,21.8682931 17.3505686,20.7707739 C17.3442856,20.7239053 17.349702,20.6754083 17.349702,20.6230881 C17.4230042,20.6476552 17.4836681,20.6680452 17.5708363,20.6974266 L17.5708363,20.219678 C17.63605,20.3073974 17.6582934,20.4031878 17.687831,20.4969251 C18.4286526,22.8463042 19.155247,25.2002145 19.9184565,27.5426553 C20.2763012,28.6412364 20.7843612,29.6969844 21.0847919,30.8083093 C21.6796591,33.0090822 20.4792363,35.3233453 18.381638,36.2043624 C16.9976348,36.7856185 15.9711874,36.3104187 15.5573009,34.8973504 C15.5328186,34.8138789 15.5024867,34.7320358 15.4683994,34.6299443 C14.8486889,34.8551544 14.2848036,35.109746 14.1098172,35.7741904 C13.9382973,36.4253955 14.2702154,36.9192154 14.7157339,37.3566088 C15.045341,37.6803706 15.4530167,37.8400921 16.0153854,37.8531191 C15.774752,38.043992 15.6142816,38.171217 15.4125019,38.3312925 C16.100026,38.5898488 16.7556293,38.6821701 17.4362925,38.5889284 C18.4273526,38.4532076 19.2498538,37.9821848 19.9850423,37.3425199 C20.1768557,37.1755769 20.3514811,36.9871112 20.5567994,36.8387882 C20.6325571,36.784061 20.7739617,36.8165575 20.8854677,36.8094068 C20.8853233,36.9081708 20.9234549,37.0308647 20.8777403,37.1010969 C20.7629844,37.2773853 20.6199188,37.4390892 20.4704256,37.5897485 C20.2950781,37.766674 20.1008815,37.9257584 19.9148455,38.0926306 C19.917951,38.1266139 19.9209841,38.160668 19.9240896,38.1945805 C20.2616408,38.2278558 20.611758,38.3305845 20.93306,38.2744413 C21.2485122,38.2194308 21.5346435,38.0029288 21.8275634,37.8602697 C22.0532475,38.5468741 22.1160057,38.638629 22.4677841,38.9622492 C22.6052166,39.0886954 22.7069731,39.2524524 22.8472222,39.4268293" id="Fill-7" fill="#000000"></path>
                            <path d="M8.73214818,36.1784144 C8.7555023,36.4439433 8.77597412,36.6749225 8.7960025,36.9020869 C8.34791366,37.0046563 7.54360048,36.727107 7.30629003,36.401116 C7.13859853,36.1707127 7.12256105,35.8356524 7.35691528,35.6091359 C7.59577774,35.3783006 7.87979644,35.141995 8.18982987,35.0393535 C9.50785994,34.6029475 10.8429622,34.2154149 12.1716346,33.8096717 C12.2397016,33.7889419 12.3067338,33.765117 12.3705881,33.6986808 C11.6531878,33.6986808 10.9357135,33.6987527 10.2182393,33.6986088 C10.1552718,33.6986088 10.0906784,33.7059506 10.0294847,33.6955137 C9.40106654,33.5877618 8.79954996,33.6667223 8.22153532,33.929444 C8.15768099,33.9584514 8.08355381,33.9660811 7.96737442,33.9953764 C8.09715242,33.4905907 8.35582155,33.1170939 8.77353524,32.8555958 C9.42198179,32.4496367 10.1604452,32.2726414 10.9045254,32.1624422 C11.8777865,32.0182691 12.8610248,31.9351339 13.8416025,31.8423535 C13.9778103,31.8293974 14.1233302,31.911165 14.3125281,31.9619819 C14.7533003,31.0456947 15.2271083,30.060668 15.6918258,29.0944278 C15.3311672,28.9150572 14.9931236,28.7469152 14.5864218,28.5445835 C16.2560202,27.2722184 17.2625387,25.600948 18.3439974,23.9146341 C18.4000916,24.0517533 18.43734,24.1306418 18.4651284,24.2125534 C18.8299258,25.2879852 19.1967925,26.3628411 19.5520561,27.441224 C19.5898957,27.5559579 19.5969906,27.7068969 19.5533125,27.8163763 C19.1404027,28.8524358 18.7134508,29.8831689 18.2901203,30.9152696 C18.2639578,30.9791146 18.2346912,31.0418079 18.1870961,31.1500637 C17.9585065,30.8448745 17.7534927,30.571212 17.5192863,30.2585371 C17.0745971,31.0146 16.6468323,31.7417995 16.2190674,32.4691429 C16.2337746,32.498798 16.2485557,32.5283812 16.2632629,32.5580364 C16.6463149,32.4838265 17.0265586,32.3849999 17.4133059,32.3439721 C17.6715315,32.3165483 17.9574718,32.3204352 18.1971472,32.4032825 C18.4477606,32.4898727 18.5993408,32.7153096 18.5824164,33.012725 C18.5685222,33.2565884 18.5955716,33.502971 18.5776865,33.7463306 C18.5378514,34.2868896 18.1133384,34.6244691 17.5111567,34.5982689 C17.5685073,34.2506844 17.8053004,33.9003647 17.501549,33.533418 C17.2484967,33.865815 16.9889407,34.1974922 16.5106245,33.8984933 C16.1582432,34.3965849 16.0885504,34.416595 15.4927984,34.2024587 C14.683238,33.9114494 14.515103,33.9985435 14.3027726,34.805927 C14.2248763,35.1020469 14.1407718,35.397087 14.0469858,35.6887442 C13.8695388,36.2407478 13.5164185,36.6079105 12.8826791,36.6741308 C12.937517,37.2203041 12.6720485,37.5550764 12.095512,37.7463235 C12.2528567,38.0556874 12.4020719,38.349144 12.5514348,38.6426726 C11.9510268,38.9944318 11.2486293,38.6392896 11.2328135,37.9574366 C11.206651,36.8313319 11.5542284,35.8262952 12.2904007,34.9297302 C11.2762699,35.7838998 10.0762669,36.1160809 8.73214818,36.1784144" id="Fill-9" fill="#000000"></path>
                            <path d="M17.6367492,6.68045484 C17.8146837,6.47125141 17.8144414,6.4030586 17.625,6.19822321 C17.6870772,6.06928895 17.7436431,5.95191714 17.8086274,5.81707317 C18.1466907,5.85237721 18.4772442,5.93876163 18.7451754,6.14745117 C18.9956645,6.34257409 18.9906983,6.57161356 18.7400276,6.77269757 C18.4725808,6.98714264 18.1346386,7.0605771 17.7985739,7.1097561 C17.744915,6.96735799 17.6951321,6.8353404 17.6367492,6.68045484" id="Fill-11" fill="#FFFFFF"></path>
                            <path d="M16.3194444,6.42634484 C16.147051,6.70617131 16.1473543,6.81637102 16.3156836,7.09338481 C16.2613329,7.29827837 16.2117744,7.48521399 16.1399539,7.75609756 C15.8549164,7.60529417 15.5420969,7.49112785 15.2780475,7.28731609 C14.9242831,7.01426892 14.9265881,6.55068011 15.2804738,6.28080622 C15.5399132,6.08290832 15.8453322,5.96996805 16.1343126,5.81707317 C16.2082561,6.06040681 16.2587853,6.22664393 16.3194444,6.42634484" id="Fill-13" fill="#FFFFFF"></path>
                            <path d="M17.625,9.31698168 C17.4004575,9.38813933 17.175982,9.45929699 16.9179157,9.54113614 C17.0219736,9.57553687 17.1065207,9.58009221 17.1650532,9.62815897 C17.2661611,9.71117624 17.4341154,9.83542724 17.4239912,9.91655954 C17.4080339,10.0439522 17.2837275,10.2134425 17.176049,10.2515346 C16.9666593,10.3256768 16.7368871,10.3210429 16.5757045,10.3414634 C16.5757045,10.1124394 16.6337678,9.88200173 16.5607529,9.77848541 C16.4729876,9.65407732 16.2753311,9.63090789 16.121725,9.57789308 C16.0603094,9.5567657 15.9836069,9.59258014 15.9242697,9.56791844 C15.8324815,9.52966924 15.7183665,9.48395869 15.674115,9.39850667 C15.6457539,9.34376397 15.7033478,9.16704794 15.7632213,9.12526442 C15.8485059,9.06565221 16.0169966,9.01829231 16.0702995,9.07272085 C16.3404344,9.34855494 16.6508649,9.30637871 16.9626364,9.2871363 C17.1802731,9.27362734 17.3975744,9.25391369 17.615077,9.23702749 C17.6183623,9.26365271 17.6217147,9.29035646 17.625,9.31698168" id="Fill-15" fill="#FFFFFF"></path>
                            <mask id="mask-2" fill="white">
                                <use xlink:href="#path-1"></use>
                            </mask>
                            <g id="Clip-18"></g>
                            <polygon id="Fill-17" fill="#000000" mask="url(#mask-2)" points="22.1944444 39.4268293 23.5 39.4268293 23.5 12.2804878 22.1944444 12.2804878"></polygon>
                            <path d="M33.5383013,36.1950989 C33.7932534,36.19738 33.9448677,36.030606 33.9444436,35.5468853 C33.9440195,35.0617705 33.7901434,34.8965172 33.5361101,34.9026002 C33.0146845,34.9148928 32.4930468,34.9062753 31.9714798,34.9062753 C31.4599497,34.9062753 30.948349,34.9133721 30.4369603,34.9033605 C30.184482,34.8984182 30.0273545,35.0683604 30.0277786,35.5503069 C30.0282027,36.0336475 30.1882988,36.1958593 30.4390808,36.1942118 C31.4721778,36.1874952 32.5052749,36.186228 33.5383013,36.1950989" id="Fill-19" fill="#FFFFFF" mask="url(#mask-2)"></path>
                            <path d="M39.2605586,7.56122556 C39.4324846,7.55469216 39.6048195,7.56020926 39.8176997,7.56020926 C39.8176997,7.01227411 39.8251955,6.51740475 39.8091136,6.02347911 C39.8067967,5.95371683 39.690544,5.83190506 39.6243766,5.82979986 C39.101648,5.81353893 38.5779653,5.81208706 38.0553048,5.82994504 C37.9846401,5.83241322 37.8730892,5.95865318 37.8586428,6.04278896 C37.8277738,6.22267546 37.8538727,6.41287022 37.8464451,6.59827382 C37.8239577,7.15455721 37.4462384,7.56732341 36.9507672,7.58343915 C36.4593845,7.5994823 36.0642205,7.20733263 36.0178829,6.64741957 C36.001801,6.45257882 36.0010515,6.25570546 36.0024143,6.05984841 C36.0034365,5.89056055 35.933385,5.81666045 35.7750195,5.81883825 C35.5037403,5.82254051 35.2324611,5.81833009 34.9611138,5.81818491 C34.3723541,5.81796713 34.3723541,5.81811231 34.3723541,6.43225266 L34.3723541,7.78060289 L33.2916667,7.78060289 L33.2916667,16.806143 L34.3724904,16.806143 C34.3724904,17.3848578 34.3803951,17.9303974 34.3683337,18.4755014 C34.3638362,18.682683 34.4349098,18.749106 34.6193743,18.7435889 C34.91941,18.7346599 35.2199909,18.7419192 35.5202992,18.741774 C35.9998249,18.7415563 35.9991435,18.7414111 36.0031639,18.2449447 C36.0041179,18.1316263 36.0076614,18.0178724 36.0177466,17.9050623 C36.0676958,17.3514648 36.468175,16.9574277 36.9583311,16.9765924 C37.4505996,16.9959023 37.8266153,17.4139678 37.8467177,17.9702512 C37.8534639,18.1557274 37.8309765,18.3447606 37.8578932,18.526099 C37.8696139,18.6048629 37.9710114,18.7272554 38.0343848,18.7292154 C38.5667898,18.7455489 39.0999444,18.7433711 39.6325539,18.7320465 C39.6940874,18.7307398 39.8052976,18.6408692 39.8066605,18.5896908 C39.8196077,18.0681797 39.8145651,17.5461604 39.8145651,16.9996771 C39.598414,16.9996771 39.4252614,17.0053394 39.2524495,16.9985882 C38.7212711,16.9778265 38.3383729,16.5554054 38.3458005,16.0040583 C38.3530919,15.4623662 38.7319015,15.0644817 39.2564018,15.0514148 C39.4361643,15.0469866 39.6161313,15.0506889 39.7977337,15.0506889 L39.7977337,13.3162869 C39.7502377,13.3042364 39.7229803,13.2913147 39.695791,13.2912421 C38.6009297,13.2896451 37.5061365,13.2924036 36.4112752,13.2852169 C36.2352606,13.2839828 36.1979861,13.3713127 36.198872,13.5291308 C36.2013252,13.9626587 36.1945108,14.3961866 36.200303,14.8296419 C36.2028243,15.0137389 36.1626197,15.1167489 35.9605061,15.1123933 C35.466534,15.1017221 34.9722212,15.1032466 34.478181,15.1113044 C34.2828817,15.1144985 34.2339547,15.0217967 34.2344317,14.8300049 C34.2391336,13.1269632 34.2395425,11.4239215 34.2341592,9.72087987 C34.2335459,9.51914275 34.3002583,9.44582339 34.4866307,9.44865454 C34.9709946,9.45598647 35.4556992,9.45874502 35.9398586,9.44691229 C36.1479688,9.44175816 36.2062315,9.53228216 36.2013933,9.739246 C36.1915806,10.1621753 36.204596,10.5856853 36.1971003,11.0086872 C36.1935568,11.2052702 36.2548859,11.2788073 36.4488904,11.275831 C37.1560835,11.2648694 37.8634809,11.271548 38.5707421,11.271548 L39.7934406,11.271548 L39.7934406,9.50927004 C39.6042062,9.50927004 39.4405937,9.51152044 39.2769812,9.50890708 C38.7346954,9.50019587 38.3494121,9.10209354 38.3448465,8.54791536 C38.3404172,8.00041577 38.7271314,7.58140654 39.2605586,7.56122556" id="Fill-20" fill="#FFFFFF" mask="url(#mask-2)"></path>
                            <path d="M32.2343812,21.9754567 C32.6321661,21.9753095 32.6328662,21.9750887 32.6329362,21.545942 C32.6330762,16.2301464 32.6330062,10.9142773 32.6328662,5.59848167 C32.6328662,5.51472779 32.6510683,5.42287819 32.6241852,5.34972234 C32.5986323,5.28017276 32.5259641,5.18030104 32.4724081,5.17919708 C31.879161,5.1670535 31.2855639,5.17154295 30.6805556,5.17154295 L30.6805556,21.9755303 C31.2209466,21.9755303 31.7277339,21.9757511 32.2343812,21.9754567" id="Fill-21" fill="#FFFFFF" mask="url(#mask-2)"></path>
                            <path d="M33.4169904,31.260701 C33.2646004,32.3000828 32.8944582,32.6821031 32.1270549,32.5916246 C31.5281822,32.5211078 31.1637837,31.9925571 31.2211481,31.2503585 C30.4363682,31.3102435 29.9174713,30.9118054 29.8565443,30.2216808 C29.7985256,29.5648256 30.249734,29.181865 31.2116965,29.0713525 C31.1905392,28.313387 31.5599543,27.7929367 32.153156,27.7448406 C32.921141,27.6824965 33.276524,28.0585139 33.4150274,29.0796699 C34.3329305,29.1383977 34.780431,29.5181037 34.7509854,30.2133634 C34.7230666,30.8722437 34.1929003,31.2885461 33.4169904,31.260701 M33.3266906,25.8583167 C32.7156034,25.8583167 32.1270549,25.8665618 31.5388698,25.8539049 C31.3259163,25.8493484 31.2477582,25.9067744 31.1951197,26.128595 C30.8700547,27.4998037 30.2866683,28.6708893 28.7233611,29.0403251 C28.7233611,29.8541977 28.7171812,30.6648157 28.7336126,31.4749998 C28.7351394,31.5504347 28.8681899,31.6636232 28.960162,31.6900942 C29.40679,31.8183986 29.8000524,32.0267668 30.1242448,32.3611974 C30.7412938,32.9977292 31.0475281,33.7805021 31.224638,34.6297416 C31.2455771,34.7300563 31.359288,34.8861336 31.4343198,34.8885926 C32.0622745,34.9094945 32.6912472,34.9005262 33.3096049,34.9005262 C33.4160453,34.5111287 33.4870782,34.1367748 33.6203469,33.7857818 C34.0036487,32.7762702 34.5745299,31.9399769 35.7250169,31.676931 C35.795759,31.6607302 35.8934021,31.5461675 35.8943473,31.476157 C35.9062709,30.6656113 35.902054,29.854921 35.902054,29.0401081 C34.1890469,28.6546885 33.6859997,27.3127714 33.3266906,25.8583167" id="Fill-22" fill="#FFFFFF" mask="url(#mask-2)"></path>
                            <path d="M29.3750094,25.2229247 C29.3766532,25.6158745 29.598354,25.8497813 29.9835075,25.8517651 C30.6533986,25.8553013 31.3233612,25.8528 31.9932523,25.8528 C32.6530661,25.8528 33.31288,25.8553013 33.9726223,25.8517651 C34.3509861,25.8497813 34.5915551,25.6036271 34.5971298,25.2256847 C34.6027045,24.8549009 34.3556316,24.5687273 33.9900611,24.5667435 C32.6502073,24.5591536 31.3103536,24.5588949 29.9704999,24.566916 C29.5884911,24.5691585 29.3733655,24.8246276 29.3750094,25.2229247" id="Fill-23" fill="#FFFFFF" mask="url(#mask-2)"></path>
                            <path d="M29.9725018,23.2620289 C31.3113562,23.2706133 32.6504251,23.2700877 33.9892796,23.2622041 C34.3695126,23.2600142 34.6031118,22.9901315 34.5971093,22.6074253 C34.5910352,22.2230549 34.3570787,21.9814656 33.9699142,21.9784873 C33.3107056,21.9732316 32.6512826,21.9769982 31.9920025,21.9769982 C31.3225038,21.9769106 30.6529337,21.973144 29.9835064,21.9783998 C29.5874096,21.9815532 29.377892,22.2064117 29.3750337,22.6111044 C29.3720324,23.0250822 29.5697592,23.259401 29.9725018,23.2620289" id="Fill-24" fill="#FFFFFF" mask="url(#mask-2)"></path>
                            <path d="M26.3250301,29.2762462 C25.813746,29.0182586 25.2946567,29.0164195 24.80457,29.3035383 C24.2582856,29.6237607 24.0632369,30.0992024 24.1900103,30.6646859 C24.303556,31.1713186 24.6694983,31.5041204 25.2200551,31.6275601 C25.6624066,31.7267239 26.0892298,31.6560293 26.4815456,31.405398 C26.8299878,31.1827945 26.736325,30.876402 26.7492242,30.5835453 C26.7520176,30.5210162 26.749635,30.4581928 26.749635,30.3955166 C26.749635,30.2492722 26.729177,30.1001587 26.753743,29.9572982 C26.8112553,29.6227308 26.6183427,29.4243297 26.3250301,29.2762462" id="Fill-25" fill="#FFFFFF" mask="url(#mask-2)"></path>
                            <path d="M39.314666,29.1206269 C38.4493462,28.9553135 37.8753743,29.3825624 37.8753743,30.1654368 L37.8753743,30.3838997 C37.8753743,30.5295661 37.8957028,30.6780183 37.8713415,30.8203857 C37.8114259,31.1702197 38.0210482,31.3743872 38.33363,31.5103034 C38.8668626,31.742182 39.4004243,31.7336048 39.8859219,31.4128748 C40.3853285,31.0829078 40.563347,30.6165848 40.4289484,30.0869221 C40.2969365,29.5662766 39.9007362,29.2324975 39.314666,29.1206269" id="Fill-26" fill="#FFFFFF" mask="url(#mask-2)"></path>
                            <path d="M32.4203603,36.2079639 C32.2871983,36.2331066 32.1466755,36.2119639 32.0095729,36.2119639 C31.8302392,36.2120455 31.6488236,36.2311474 31.4720921,36.2075557 C31.1985561,36.1711478 31.0381817,36.325514 30.9003357,36.5493491 C30.5462035,37.1241202 30.6266509,37.8988899 31.0938704,38.3852535 C31.5493424,38.8592908 32.2469746,38.9131679 32.7491388,38.5130077 C33.256805,38.1085209 33.4414177,37.3135065 33.1599261,36.7126948 C33.0072843,36.3866564 32.8097346,36.1344134 32.4203603,36.2079639" id="Fill-27" fill="#FFFFFF" mask="url(#mask-2)"></path>
                            <path d="M37.2385127,28.4393215 C36.8064636,28.431747 36.5660982,28.5689301 36.5631773,28.8593572 C36.5530759,29.8760274 36.5528325,30.8927677 36.5635424,31.9094379 C36.566585,32.2028808 36.7945366,32.3219692 37.2493443,32.3169195 C37.7281278,32.3115893 37.8621238,32.1449497 37.8600549,31.9028453 C37.8555518,31.3945102 37.8588378,30.8861751 37.8588378,30.37784 C37.8588378,29.8793939 37.8536046,29.3810179 37.8610285,28.8826419 C37.8648013,28.6311394 37.7405416,28.4481584 37.2385127,28.4393215" id="Fill-28" fill="#FFFFFF" mask="url(#mask-2)"></path>
                            <path d="M28.0431699,28.4395696 C27.5395734,28.4507914 27.4131839,28.634689 27.416739,28.885707 C27.4234814,29.3843063 27.4187004,29.8828354 27.4187004,30.3814348 C27.4187004,30.8798938 27.4223781,31.378423 27.4173519,31.8770223 C27.414655,32.1250244 27.5209398,32.31306 28.0415762,32.3169876 C28.52421,32.3207049 28.7174106,32.2037174 28.7188817,31.8775834 C28.7232949,30.8804549 28.7234175,29.8833965 28.7187591,28.886268 C28.717288,28.5646929 28.5060668,28.4292596 28.0431699,28.4395696" id="Fill-29" fill="#FFFFFF" mask="url(#mask-2)"></path>
                            <path d="M33.5072984,35.5526658 C32.4935519,35.5478098 31.4797347,35.54696 30.4659882,35.5532728 C30.1652605,35.5552153 30.0267945,35.7728887 30.027783,36.1986448 C30.028701,36.6284072 30.1646957,36.8345475 30.4671885,36.8381896 C30.9790398,36.844381 31.4909617,36.8398892 32.0028836,36.8398892 C32.5048495,36.8398892 33.0066741,36.8440168 33.5085694,36.838311 C33.8080261,36.8350331 33.944515,36.626222 33.9444444,36.1952456 C33.9444444,35.7643906 33.8088028,35.5541227 33.5072984,35.5526658" id="Fill-30" fill="#FFFFFF" mask="url(#mask-2)"></path>
                            <path d="M28.0691435,28.862749 C28.0717375,28.6218772 27.9665518,28.4490244 27.4520368,28.4394877 C26.9704654,28.4306522 26.7711184,28.5474067 26.7673571,28.8570691 C26.7608722,29.3740145 26.7655413,29.89096 26.7654116,30.4079755 C26.7652819,30.9050061 26.7612613,31.4021769 26.7668383,31.8992074 C26.7703402,32.222684 26.9359655,32.3177706 27.4415312,32.3170693 C27.9657736,32.316298 28.0718672,32.1484239 28.0694029,31.9048874 C28.0588973,30.8908413 28.0591567,29.8767952 28.0691435,28.862749" id="Fill-31" fill="#FFFFFF" mask="url(#mask-2)"></path>
                            <path d="M36.4970064,28.4403106 C36.0414277,28.4561479 35.9005555,28.6126294 35.9028115,28.8429717 C35.9078247,29.3501873 35.9043154,29.8575431 35.9043154,30.3648288 C35.9043154,30.8820654 35.90795,31.399302 35.9028115,31.9164685 C35.9004302,32.1456195 36.0236307,32.3025915 36.4936225,32.3161163 C36.9678755,32.3296411 37.2012421,32.1994385 37.2031221,31.947933 C37.2105166,30.903579 37.2103913,29.859295 37.2004901,28.815011 C37.1982342,28.5677101 36.9728888,28.4237725 36.4970064,28.4403106" id="Fill-32" fill="#FFFFFF" mask="url(#mask-2)"></path>
                            <path d="M32.6182302,22.8809445 C32.5492194,22.7952801 32.4811058,22.6408522 32.4087825,22.637704 C31.9014153,22.6163293 31.393013,22.6178205 30.8855768,22.6354671 C30.8167731,22.6377868 30.6982126,22.7656207 30.6931748,22.843746 C30.6717815,23.1798587 30.6840654,23.5191197 30.6840654,23.9146341 L31.8358551,23.9146341 C32.6725417,23.9146341 32.6725417,23.9146341 32.6198864,22.9153263 C32.6192653,22.9036448 32.623268,22.8871581 32.6182302,22.8809445" id="Fill-33" fill="#FFFFFF" mask="url(#mask-2)"></path>
                        </g>
                    </g>
                </g>
            </g>
        </g>
    </g>
</svg>