<?xml version="1.0" encoding="UTF-8"?>
<svg width="16px" height="17px" viewBox="0 0 16 17" version="1.1" xmlns="http://www.w3.org/2000/svg" xmlns:xlink="http://www.w3.org/1999/xlink">
    <!-- Generator: Sketch 46.1 (44463) - http://www.bohemiancoding.com/sketch -->
    <title>Fill 4</title>
    <desc>Created with Sketch.</desc>
    <defs></defs>
    <g id="Symbols" stroke="none" stroke-width="1" fill="none" fill-rule="evenodd">
        <g id="section-/-Restaurant" transform="translate(-192.000000, -695.000000)" fill="#979BA6">
            <g id="component-/-Text">
                <g transform="translate(80.000000, 128.000000)">
                    <g id="Item" transform="translate(95.000000, 552.000000)">
                        <g id="Icon">
                            <g id="icon-/-Schedules" transform="translate(17.000000, 15.000000)">
                                <path d="M3.43301609,10.7499602 L3.43301609,9.97710999 L6.27643848,9.97710999 L6.27643848,10.7499602 L3.43301609,10.7499602 Z M9.48818784,10.7499602 L9.48818784,9.97710999 L12.3316102,9.97710999 L12.3316102,10.7499602 L9.48818784,10.7499602 Z M9.48818784,13.5693178 L9.48818784,12.7964676 L12.3316102,12.7964676 L12.3316102,13.5693178 L9.48818784,13.5693178 Z M3.43301609,13.5693178 L3.43301609,12.7964676 L6.27643848,12.7964676 L6.27643848,13.5693178 L3.43301609,13.5693178 Z M14.4374124,16.2271498 L1.56220107,16.2271498 C1.12701097,16.2271498 0.772984202,15.8731844 0.772984202,15.4380697 L0.772984202,7.93098902 L15.2270158,7.93098902 L15.2270158,15.4380697 C15.2270158,15.8731844 14.872989,16.2271498 14.4374124,16.2271498 M1.56220107,3.32171027 L3.76056814,3.32171027 L3.76056814,5.22755893 L4.53355235,5.22755893 L4.53355235,3.32171027 L11.2395768,3.32171027 L11.2395768,5.22755893 L12.012561,5.22755893 L12.012561,3.32171027 L14.4374124,3.32171027 C14.872989,3.32171027 15.2270158,3.67567568 15.2270158,4.11079035 L15.2270158,7.15813879 L0.772984202,7.15813879 L0.772984202,4.11079035 C0.772984202,3.67567568 1.12701097,3.32171027 1.56220107,3.32171027 M14.4374124,2.54886005 L12.012561,2.54886005 L12.012561,0 L11.2395768,0 L11.2395768,2.54886005 L4.53355235,2.54886005 L4.53355235,0 L3.76056814,0 L3.76056814,2.54886005 L1.56220107,2.54886005 C0.700710179,2.54886005 0,3.24944878 0,4.11079035 L0,15.4380697 C0,16.2994113 0.700710179,17 1.56220107,17 L14.4374124,17 C15.2989033,17 16,16.2994113 16,15.4380697 L16,4.11079035 C16,3.24944878 15.2989033,2.54886005 14.4374124,2.54886005" id="Fill-4"></path>
                            </g>
                        </g>
                    </g>
                </g>
            </g>
        </g>
    </g>
</svg>