<?xml version="1.0" encoding="UTF-8"?>
<svg width="16px" height="14px" viewBox="0 0 16 14" version="1.1" xmlns="http://www.w3.org/2000/svg" xmlns:xlink="http://www.w3.org/1999/xlink">
    <!-- Generator: Sketch 47.1 (45422) - http://www.bohemiancoding.com/sketch -->
    <title>icon</title>
    <desc>Created with Sketch.</desc>
    <defs></defs>
    <g id="Suites-&amp;-Rooms" stroke="none" stroke-width="1" fill="none" fill-rule="evenodd" opacity="0.5">
        <g id="Room-Page" transform="translate(-622.000000, -2192.000000)" fill-rule="nonzero" fill="#979BA6">
            <g id="section-/-Amenity" transform="translate(260.000000, 2049.000000)">
                <g id="Item" transform="translate(360.000000, 140.000000)">
                    <g id="icon-/-View">
                        <path d="M2,3 L2,3.42499994 L2,16.5750001 L2,17 L2.41025641,17 L17.5897436,17 L18,17 L18,16.5750001 L18,3.42499994 L18,3 L17.5897436,3 L2.41025641,3 L2,3 Z M2.82051282,3.84999988 L17.1794872,3.84999988 L17.1794872,13.0207144 L14.5961538,10.3445323 C14.4402338,10.1846048 14.1554749,10.1910223 14.0064103,10.3577073 L11.4230769,13.2199119 L7.41666667,9.06953038 C7.33005538,8.9811984 7.20412308,8.93604003 7.08333333,8.94999915 C6.99824205,8.9593279 6.91626667,8.99706789 6.8525641,9.05624913 L2.82051282,12.8679695 L2.82051282,3.84999988 Z M11.2307692,4.69999976 C10.1027364,4.69999976 9.17948718,5.65642812 9.17948718,6.82499945 C9.17948718,7.99356866 10.1027364,8.94999915 11.2307692,8.94999915 C12.3588,8.94999915 13.2820513,7.99356866 13.2820513,6.82499945 C13.2820513,5.65642812 12.3588,4.69999976 11.2307692,4.69999976 Z M11.2307692,5.54999964 C11.9153621,5.54999964 12.4615385,6.11580205 12.4615385,6.82499945 C12.4615385,7.53419473 11.9153621,8.09999927 11.2307692,8.09999927 C10.5461744,8.09999927 10,7.53419473 10,6.82499945 C10,6.11580205 10.5461744,5.54999964 11.2307692,5.54999964 Z M7.11538462,9.95937613 L11.1474359,14.136318 C11.3033559,14.2962455 11.5881149,14.289828 11.7371795,14.123143 L14.3205128,11.2609384 L17.1794872,14.2226568 L17.1794872,16.1500001 L2.82051282,16.1500001 L2.82051282,14.0234381 L7.11538462,9.95937613 Z" id="icon"></path>
                    </g>
                </g>
            </g>
        </g>
    </g>
</svg>