<?xml version="1.0" encoding="UTF-8"?>
<svg width="18px" height="20px" viewBox="0 0 18 20" version="1.1" xmlns="http://www.w3.org/2000/svg" xmlns:xlink="http://www.w3.org/1999/xlink">
    <!-- Generator: Sketch 47.1 (45422) - http://www.bohemiancoding.com/sketch -->
    <title>Shape</title>
    <desc>Created with Sketch.</desc>
    <defs></defs>
    <g id="Suites-&amp;-Rooms" stroke="none" stroke-width="1" fill="none" fill-rule="evenodd" opacity="0.5">
        <g id="Room-Page" transform="translate(-621.000000, -2109.000000)" stroke="#979BA6" fill-rule="nonzero" stroke-width="0.2" fill="#979BA6">
            <g id="section-/-Amenity" transform="translate(260.000000, 2049.000000)">
                <g id="Item" transform="translate(360.000000, 60.000000)">
                    <g id="icon-/-Cake" transform="translate(2.000000, 1.000000)">
                        <path d="M3.78268222,3.08893528 C4.37178846,3.08893528 4.83687234,2.63799582 4.83687234,2.06680585 C4.83687234,1.31524008 4.09273814,0.232985386 4.03072695,0.112734864 C3.90670458,-0.0375782881 3.65865985,-0.0375782881 3.53463748,0.112734864 C3.4416207,0.232985386 2.72849209,1.31524008 2.72849209,2.06680585 C2.6974865,2.60793319 3.19357597,3.08893528 3.78268222,3.08893528 Z M3.78268222,0.804175365 C3.99972136,1.19498956 4.2477661,1.70605428 4.2477661,2.03674322 C4.2477661,2.27724426 4.03072695,2.48768267 3.78268222,2.48768267 C3.53463748,2.48768267 3.31759834,2.27724426 3.31759834,2.03674322 C3.31759834,1.70605428 3.56564307,1.19498956 3.78268222,0.804175365 Z M8.03044831,3.08893528 C8.61955456,3.08893528 9.08463844,2.63799582 9.08463844,2.06680585 C9.08463844,1.31524008 8.34050423,0.232985386 8.27849305,0.112734864 C8.15447068,-0.0375782881 7.90642594,-0.0375782881 7.78240358,0.112734864 C7.6893868,0.232985386 6.97625819,1.31524008 6.97625819,2.06680585 C6.97625819,2.60793319 7.44134206,3.08893528 8.03044831,3.08893528 Z M8.03044831,0.804175365 C8.24748745,1.19498956 8.49553219,1.70605428 8.49553219,2.03674322 C8.49553219,2.27724426 8.27849305,2.48768267 8.03044831,2.48768267 C7.78240358,2.48768267 7.56536443,2.27724426 7.56536443,2.03674322 C7.56536443,1.70605428 7.81340917,1.19498956 8.03044831,0.804175365 Z M14.665645,7.89895616 L13.3634101,7.89895616 L13.3634101,4.87056367 C13.3634101,4.72025052 13.2393878,4.56993737 13.0533542,4.56993737 L11.472069,4.56993737 C11.3170411,4.56993737 11.1620131,4.69018789 11.1620131,4.87056367 L11.1620131,7.86889353 L9.08463844,7.86889353 L9.08463844,4.87056367 C9.08463844,4.72025052 8.96061607,4.56993737 8.77458252,4.56993737 L7.19329733,4.56993737 C7.03826937,4.56993737 6.88324141,4.69018789 6.88324141,4.87056367 L6.88324141,7.86889353 L6.79022463,7.86889353 L4.86787793,7.86889353 L4.86787793,4.87056367 C4.86787793,4.72025052 4.74385557,4.56993737 4.55782201,4.56993737 L2.97653683,4.56993737 C2.82150887,4.56993737 2.66648091,4.69018789 2.66648091,4.87056367 L2.66648091,7.86889353 L2.35642499,7.86889353 L1.36424605,7.86889353 C0.620111839,7.86889353 0,8.47014614 0,9.19164927 L0,16.6772443 C0,17.3987474 0.620111839,18 1.36424605,18 L14.6346394,18 C15.3787736,18 15.9988854,17.3987474 15.9988854,16.6772443 L15.9988854,9.19164927 C16.029891,8.47014614 15.4097792,7.89895616 14.665645,7.89895616 Z M12.7743039,5.17118998 L12.7743039,7.89895616 L11.7821249,7.89895616 L11.7821249,5.17118998 L12.7743039,5.17118998 Z M7.53435884,5.17118998 L8.52653778,5.17118998 L8.52653778,7.89895616 L7.53435884,7.89895616 L7.53435884,5.17118998 Z M3.28659275,5.17118998 L4.27877169,5.17118998 L4.27877169,7.89895616 L3.28659275,7.89895616 L3.28659275,5.17118998 Z M15.4407848,16.6772443 C15.4407848,17.0680585 15.0997233,17.3987474 14.6966506,17.3987474 L1.39525164,17.3987474 C0.992178942,17.3987474 0.651117431,17.0680585 0.651117431,16.6772443 L0.651117431,13.1599165 C0.992178942,13.1899791 1.33324045,13.2501044 1.64329637,13.3703549 C1.98435788,13.4906054 2.3254194,13.6409186 2.66648091,13.7912317 C3.37960952,14.1219207 4.09273814,14.422547 4.86787793,14.422547 C4.96089471,14.422547 5.08491708,14.422547 5.17793385,14.3924843 C6.10810161,14.2722338 6.85223582,13.7010438 7.56536443,13.1599165 C8.27849305,12.6187891 8.92961048,12.0776618 9.73575587,12.0475992 C10.3248621,12.0175365 10.8829628,12.2580376 11.5030746,12.4985386 C11.5960914,12.5286013 11.7201138,12.5887265 11.8131305,12.6187891 C12.991343,13.0997912 14.2005611,13.4004175 15.4407848,13.5807933 L15.4407848,16.6772443 Z M15.4407848,13.0096033 C14.2625723,12.8292276 13.1153654,12.5586639 12.0301697,12.1077244 C11.9371529,12.0776618 11.8441361,12.0175365 11.7201138,11.9874739 C11.0689963,11.7169102 10.4178789,11.4463466 9.67374468,11.4764092 C8.68156574,11.5365344 7.90642594,12.1377871 7.16229174,12.708977 C6.48016871,13.2501044 5.86005688,13.7311065 5.08491708,13.8212944 C4.34078287,13.9114823 3.62765426,13.5807933 2.88352005,13.2501044 C2.54245854,13.0997912 2.17039144,12.9194154 1.79832433,12.7991649 C1.42625723,12.6789144 1.02318453,12.5887265 0.620111839,12.5586639 L0.620111839,9.19164927 C0.620111839,8.80083507 0.96117335,8.47014614 1.36424605,8.47014614 L14.6346394,8.47014614 C15.0377121,8.47014614 15.3787736,8.80083507 15.3787736,9.19164927 L15.3787736,13.0096033 L15.4407848,13.0096033 Z M12.2782144,3.08893528 C12.8673207,3.08893528 13.3324045,2.63799582 13.3324045,2.06680585 C13.3324045,1.31524008 12.5882703,0.232985386 12.5262591,0.112734864 C12.4022368,-0.0375782881 12.154192,-0.0375782881 12.0301697,0.112734864 C11.9371529,0.232985386 11.2240243,1.31524008 11.2240243,2.06680585 C11.2240243,2.60793319 11.6891082,3.08893528 12.2782144,3.08893528 Z M12.2782144,0.804175365 C12.4952535,1.19498956 12.7432983,1.70605428 12.7432983,2.03674322 C12.7432983,2.27724426 12.5262591,2.48768267 12.2782144,2.48768267 C12.0301697,2.48768267 11.8131305,2.27724426 11.8131305,2.03674322 C11.8131305,1.70605428 12.0611753,1.19498956 12.2782144,0.804175365 Z" id="Shape"></path>
                    </g>
                </g>
            </g>
        </g>
    </g>
</svg>