<?xml version="1.0" encoding="UTF-8"?>
<svg width="18px" height="21px" viewBox="0 0 18 21" version="1.1" xmlns="http://www.w3.org/2000/svg" xmlns:xlink="http://www.w3.org/1999/xlink">
    <!-- Generator: Sketch 47.1 (45422) - http://www.bohemiancoding.com/sketch -->
    <title>Fill 1</title>
    <desc>Created with Sketch.</desc>
    <defs></defs>
    <g id="Suites-&amp;-Rooms" stroke="none" stroke-width="1" fill="none" fill-rule="evenodd" opacity="0.5">
        <g id="Room-Page" transform="translate(-621.000000, -2148.000000)" stroke="#979BA6" stroke-width="0.2" fill="#979BA6">
            <g id="section-/-Amenity" transform="translate(260.000000, 2049.000000)">
                <g id="Item" transform="translate(360.000000, 100.000000)">
                    <g id="icon-/-Champagne" transform="translate(2.000000, 0.000000)">
                        <path d="M14.397144,13.186693 C14.2940784,13.186693 14.1937447,13.1892423 14.0971362,13.1917917 C13.8080559,13.1991848 13.51078,13.2073428 13.4198836,13.1168405 C13.3709585,13.0678928 13.3607761,12.9541913 13.3607761,12.867768 L13.335941,12.867768 L13.335941,12.5019347 C13.335941,11.930368 13.3538223,11.492133 13.4174001,11.1153375 L14.4006209,11.0589966 C14.9703376,11.0607811 15.4335118,11.5370017 15.4335118,12.1225898 C15.4335118,12.7091977 14.9685991,13.186693 14.397144,13.186693 L14.397144,13.186693 Z M13.0346915,10.26793 L2.94171517,10.26793 C2.72664338,9.72593592 2.37398525,9.25404926 1.86436942,8.69624916 L14.1117889,8.69624916 C13.6021731,9.25379433 13.2492666,9.72568098 13.0346915,10.26793 L13.0346915,10.26793 Z M12.7396508,12.5019347 L12.7396508,17.0099691 C12.7396508,17.7699335 12.1374001,18.3878985 11.3973147,18.3878985 L4.57884362,18.3878985 C3.8385099,18.3878985 3.23650757,17.7699335 3.23650757,17.0099691 L3.23650757,12.5019347 C3.23650757,11.9074238 3.2151494,11.40418 3.13170353,10.949884 L3.13542879,10.8797765 L12.8556306,10.8797765 C12.7607606,11.3521731 12.7396508,11.8775963 12.7396508,12.5019347 L12.7396508,12.5019347 Z M2.64021731,12.867768 L2.6392239,12.867768 C2.6392239,12.9541913 2.62904152,13.0676378 2.57986806,13.1168405 C2.48922002,13.2073428 2.19070237,13.1991848 1.90261544,13.1917917 C1.80600698,13.1892423 1.70567326,13.186693 1.60260768,13.186693 C1.0311525,13.186693 0.566239814,12.7091977 0.566239814,12.1225898 C0.566239814,11.5370017 1.02941405,11.0607811 1.59937912,11.0589966 L2.5585099,11.1138078 C2.62233605,11.4911132 2.64021731,11.9298582 2.64021731,12.5019347 L2.64021731,12.867768 Z M8.67389988,6.48850286 C9.13409391,6.2929669 9.55927047,6.02273467 9.94073729,5.68417958 C10.3383469,6.17442163 10.927435,6.46173457 11.5522856,6.46173457 C11.6116414,6.46173457 11.6737291,6.45816547 11.7395421,6.45102726 C11.7758013,6.96625304 11.890291,7.46516291 12.0805277,7.93628476 C12.0994024,7.98370286 12.1177804,8.03290552 12.13591,8.08414767 L6.81325572,8.08414767 C7.26152891,7.37287606 7.91295305,6.81201672 8.67389988,6.48850286 L8.67389988,6.48850286 Z M10.5412495,5.04556474 C10.5566473,5.02593467 10.5710516,5.00579472 10.5849593,4.98565477 L10.6100427,4.95072853 C10.6736205,4.8643052 10.7369499,4.77813681 10.7945673,4.68712464 C10.8198991,4.64760955 10.8429957,4.60681978 10.8660924,4.56603001 L10.9306636,4.45487789 C10.9604657,4.40440055 10.9902678,4.35417814 11.017338,4.30191625 C11.0873729,4.1665452 11.1514474,4.02709517 11.2078231,3.88764515 L11.8808537,2.22214785 L12.7535584,2.59358969 L12.0810244,4.25934193 C12.0256422,4.39649753 11.9747303,4.54232096 11.9300272,4.69222336 C11.9161195,4.73938653 11.9046954,4.78680464 11.8932712,4.83422275 L11.8629724,4.95531738 C11.8483198,5.01216812 11.8336671,5.06876392 11.8219946,5.1258696 L11.8219946,5.12612454 C11.803865,5.21586203 11.7911991,5.30636434 11.7782848,5.39686664 L11.7668607,5.4743672 C11.7623904,5.50368485 11.7576717,5.53325743 11.7544432,5.56283001 C11.7442608,5.65486193 11.7385487,5.74663892 11.7340784,5.8384159 C11.2157703,5.90342459 10.6895149,5.68086541 10.3651688,5.25690674 C10.4260147,5.188074 10.4851222,5.11796659 10.5412495,5.04556474 L10.5412495,5.04556474 Z M12.141622,0.892656284 C12.1893054,0.775640631 12.2797051,0.686667946 12.3951882,0.641799199 C12.5109197,0.597185388 12.6358401,0.603303853 12.7466046,0.659134851 L13.3145828,0.944408305 C13.4213737,0.998199814 13.501591,1.09150641 13.539837,1.20724739 C13.5783314,1.32298836 13.5701358,1.44714222 13.5169887,1.55650979 L13.2366007,2.13597946 L11.8716647,1.55574498 L12.141622,0.892656284 Z M14.397144,10.4772325 L14.3814979,10.4777424 L13.5760962,10.5238858 C13.8013504,9.93804272 14.2270237,9.42919034 15.0287,8.60651167 C15.1138844,8.51855872 15.1389678,8.38803146 15.0932712,8.27356517 C15.0468296,8.158589 14.9390454,8.08440261 14.8176019,8.08440261 L12.7622507,8.08440261 C12.7190376,7.93985386 12.676073,7.81417038 12.6316182,7.70301826 C12.4287156,7.20053928 12.3236632,6.67435125 12.3189445,6.13873058 L12.320683,6.09233222 C12.3219247,5.67933579 12.3810322,5.27169303 12.4965153,4.88138592 C12.5357548,4.7490741 12.5812029,4.61880177 12.6316182,4.49362817 L13.3053939,2.82507164 C13.4390066,2.85974294 13.5847885,2.79269476 13.6466279,2.66497179 L14.050943,1.82878151 C14.17487,1.57206089 14.193993,1.28168872 14.1043384,1.01043674 C14.0146837,0.739184774 13.8271789,0.520449633 13.5763446,0.394766154 L13.0086147,0.1094927 C12.7490881,-0.0207796281 12.4567792,-0.0355659197 12.1858285,0.069212802 C11.9146294,0.173736588 11.7037796,0.382274287 11.5920217,0.656840426 L11.207078,1.60239828 C11.1762825,1.67709455 11.1760341,1.76275307 11.2058362,1.83668452 C11.230423,1.89888892 11.2753745,1.95140575 11.3312534,1.98531225 L10.6572293,3.65335891 C10.4510982,4.16297609 10.154319,4.61956658 9.7716104,5.0134428 L9.74553357,5.04378019 C9.37251067,5.41955595 8.93541327,5.71528178 8.44591385,5.92330961 C7.45673263,6.34369917 6.63618161,7.1087623 6.12457897,8.08440261 L1.15855646,8.08440261 C1.03785797,8.08440261 0.929577028,8.15833407 0.88338378,8.2730553 C0.836942181,8.38777652 0.862273962,8.51881366 0.947954986,8.60651167 C1.74814125,9.42868047 2.17406286,9.93753285 2.39906868,10.5223562 L1.61850213,10.4777424 L1.60260768,10.4772325 C0.718975553,10.4772325 0,11.2152724 0,12.1225898 C0,13.0299073 0.718975553,13.7679472 1.60260768,13.7679472 C1.70070625,13.7679472 1.79607295,13.7707515 1.88796275,13.7730459 C1.97339542,13.7753403 2.05783469,13.7776348 2.14028716,13.7776348 C2.31934808,13.7776348 2.48872332,13.7659077 2.64021731,13.7223136 L2.64021731,17.0099691 C2.64021731,18.1072139 3.50994179,19 4.57884362,19 L11.3973147,19 C12.4662165,19 13.335941,18.1072139 13.335941,17.0099691 L13.335941,13.7151754 C13.4931471,13.764633 13.6709662,13.7776348 13.8594645,13.7776348 C13.941917,13.7776348 14.0266046,13.7753403 14.1120373,13.7730459 C14.2036787,13.7707515 14.2990454,13.7679472 14.397144,13.7679472 C15.2810244,13.7679472 16,13.0299073 16,12.1225898 C16,11.2152724 15.2810244,10.4772325 14.397144,10.4772325 L14.397144,10.4772325 Z" id="Fill-1"></path>
                    </g>
                </g>
            </g>
        </g>
    </g>
</svg>