<?xml version="1.0" encoding="UTF-8"?>
<svg width="18px" height="9px" viewBox="0 0 18 9" version="1.1" xmlns="http://www.w3.org/2000/svg" xmlns:xlink="http://www.w3.org/1999/xlink">
    <!-- Generator: Sketch 47.1 (45422) - http://www.bohemiancoding.com/sketch -->
    <title>Shape</title>
    <desc>Created with Sketch.</desc>
    <defs></defs>
    <g id="Suites-&amp;-Rooms" stroke="none" stroke-width="1" fill="none" fill-rule="evenodd" opacity="0.5">
        <g id="Room-Page" transform="translate(-336.000000, -2195.000000)" fill-rule="nonzero" fill="#979BA6">
            <g id="section-/-Amenity" transform="translate(260.000000, 2049.000000)">
                <g id="Item" transform="translate(75.000000, 140.000000)">
                    <g id="icon-/-Transfer" transform="translate(1.000000, 6.000000)">
                        <path d="M13.1691865,0.130379494 C13.0879091,0.0466763078 12.980354,0 12.8689285,0 L7.01369336,0 C6.91815672,0 6.82547191,0.0341096095 6.74928704,0.0973919114 L3.25089403,2.99513788 L1.59438233,2.99536229 C1.04295867,3.01084626 0,3.46885753 0,5.09243006 C0,6.62915773 0.928070255,7.18276567 1.46890136,7.27611829 C1.63553031,8.25587194 2.41652709,9 3.35356027,9 C4.26024173,9 5.02025712,8.30322146 5.22008963,7.37104174 L12.8428546,7.37104174 C13.0424834,8.30322146 13.8022951,9 14.7087728,9 C15.6417319,9 16.4202843,8.26237969 16.5913947,7.28890939 L17.5600018,7.28890939 C17.8030193,7.28890939 18,7.07190944 18,6.80419389 L18,4.19795043 C18,3.99463921 17.8849079,3.81287089 17.711353,3.74285643 L16.0171563,3.05842019 L13.1691865,0.130379494 Z M3.35335657,8.03056899 C2.78054411,8.03056899 2.31467566,7.51712961 2.31467566,6.88632624 C2.31467566,6.25552286 2.78054411,5.74208348 3.35335657,5.74208348 C3.92637273,5.74208348 4.39285229,6.25552286 4.39285229,6.88632624 C4.39285229,7.51712961 3.92657643,8.03056899 3.35335657,8.03056899 Z M14.7085691,8.03056899 C14.1355529,8.03056899 13.6696845,7.51712961 13.6696845,6.88632624 C13.6696845,6.25552286 14.1355529,5.74208348 14.7085691,5.74208348 C15.2813816,5.74208348 15.74725,6.25552286 15.74725,6.88632624 C15.74725,7.51712961 15.2813816,8.03056899 14.7085691,8.03056899 Z M17.1197999,6.31947838 L16.5551356,6.31947838 C16.3296365,5.42881364 15.5881581,4.77242807 14.7087728,4.77242807 C13.8022951,4.77242807 13.0424834,5.4692066 12.8428546,6.40138633 L5.21988593,6.40138633 C5.02005342,5.4692066 4.26003802,4.77242807 3.35335657,4.77242807 C2.48252682,4.77242807 1.74634467,5.41579813 1.51290118,6.29322296 C1.29208728,6.21692515 0.879996379,5.95885902 0.879996379,5.09220566 C0.879996379,4.08619658 1.44832737,3.97444273 1.60558599,3.96434449 L3.3981712,3.96434449 C3.49370784,3.96434449 3.58639265,3.93023488 3.66257752,3.86695258 L7.16097053,0.969206603 L12.6957811,0.969206603 L15.4820289,3.83396499 C15.5250102,3.87817284 15.5755285,3.91250686 15.630732,3.93472298 L17.1202073,4.53635366 L17.1202073,6.31947838 L17.1197999,6.31947838 Z" id="Shape"></path>
                    </g>
                </g>
            </g>
        </g>
    </g>
</svg>