<?xml version="1.0" encoding="UTF-8"?>
<svg width="14px" height="12px" viewBox="0 0 14 12" version="1.1" xmlns="http://www.w3.org/2000/svg" xmlns:xlink="http://www.w3.org/1999/xlink">
    <!-- Generator: Sketch 47.1 (45422) - http://www.bohemiancoding.com/sketch -->
    <title>Shape</title>
    <desc>Created with Sketch.</desc>
    <defs></defs>
    <g id="Suites-&amp;-Rooms" stroke="none" stroke-width="1" fill="none" fill-rule="evenodd" opacity="0.5">
        <g id="Room-Page" transform="translate(-338.000000, -2233.000000)" fill-rule="nonzero" fill="#979BA6">
            <g id="section-/-Amenity" transform="translate(260.000000, 2049.000000)">
                <g id="Item" transform="translate(75.000000, 180.000000)">
                    <g id="icon-/-WiFi" transform="translate(3.000000, 4.000000)">
                        <path d="M7.00096086,6.3501434 C8.11831641,6.3501434 9.14202752,6.80951094 9.9397164,7.56855097 C10.1774053,7.79468201 10.1865831,8.20981811 9.97129418,8.46330515 C9.77249418,8.69742982 9.45376085,8.70684455 9.23318307,8.49972059 C8.62511641,7.92826453 7.84842752,7.58311715 7.00096086,7.58311715 C6.15318309,7.58311715 5.37633865,7.9286198 4.76811643,8.50060877 C4.54753866,8.70791037 4.22880532,8.69849564 4.02984977,8.4645486 L4.02984977,8.46437096 C3.81456088,8.21106156 3.82373866,7.79592547 4.06127199,7.56979442 C4.85927199,6.80986622 5.88298309,6.3501434 7.00096086,6.3501434 Z M7,12 C6.35566779,12 5.83333333,11.4854984 5.83333333,10.8508285 C5.83333333,10.2161586 6.35566779,9.70165697 7,9.70165697 C7.64433221,9.70165697 8.16666667,10.2161586 8.16666667,10.8508285 C8.16666667,11.4854984 7.64433221,12 7,12 Z M7.00096086,3.32926003 C8.83309418,3.32926003 10.5079608,4.11014933 11.7856942,5.39481524 C12.0177831,5.62805174 12.0322497,6.03697056 11.8168053,6.29063523 C11.6184719,6.52404937 11.2939831,6.54323409 11.0805608,6.32793886 C9.99213862,5.23014636 8.56382752,4.56223378 7.00080531,4.56223378 C5.43731643,4.56223378 4.00853866,5.23050164 2.91996089,6.32918232 C2.70669422,6.54465518 2.38220534,6.52547046 2.183872,6.29205633 C1.96842756,6.03856929 1.98273867,5.62965046 2.21482756,5.39623633 C3.492872,4.11085987 5.16820532,3.32926003 7.00096086,3.32926003 Z M13.8177164,3.00454083 C14.0465386,3.24133005 14.0634942,3.64563033 13.8483608,3.8987621 C13.6478497,4.13484077 13.3182275,4.15242677 13.1052719,3.93126954 C11.4909164,2.25615898 9.3489164,1.23297374 7.00080531,1.23297374 C4.65191643,1.23297374 2.50929422,2.25704717 0.894627568,3.93322354 C0.681672014,4.15438077 0.352205349,4.13697241 0.151694239,3.90107137 C-0.0634390927,3.6479396 -0.0466390928,3.24363932 0.182338684,3.0068501 C1.98724978,1.13953704 4.37953866,0 7.00096086,0 C9.62144973,0 12.0129608,1.13864885 13.8177164,3.00454083 Z" id="Shape"></path>
                    </g>
                </g>
            </g>
        </g>
    </g>
</svg>