<?xml version="1.0" encoding="UTF-8"?>
<svg width="14px" height="18px" viewBox="0 0 14 18" version="1.1" xmlns="http://www.w3.org/2000/svg" xmlns:xlink="http://www.w3.org/1999/xlink">
    <!-- Generator: Sketch 47.1 (45422) - http://www.bohemiancoding.com/sketch -->
    <title>Shape</title>
    <desc>Created with Sketch.</desc>
    <defs></defs>
    <g id="Suites-&amp;-Rooms" stroke="none" stroke-width="1" fill="none" fill-rule="evenodd" opacity="0.5">
        <g id="Room-Page" transform="translate(-907.000000, -2230.000000)" fill-rule="nonzero" fill="#979BA6">
            <g id="section-/-Amenity" transform="translate(260.000000, 2049.000000)">
                <g id="Item" transform="translate(645.000000, 180.000000)">
                    <g id="icon-/-Parfume" transform="translate(2.000000, 1.000000)">
                        <path d="M11.2791528,18 L4.77177188,18 C3.90686682,18 3.12433367,17.5815438 2.63010221,16.8701683 C2.01231288,15.9914103 1.88875501,14.8615786 2.25942861,13.7735925 L3.61856513,9.75641318 C4.03042469,8.58473587 5.06007357,7.83151474 6.25446627,7.83151474 L9.79645843,7.83151474 C10.9496652,7.83151474 12.061686,8.62658149 12.4323596,9.75641318 L13.7914961,13.7735925 C14.1621697,14.8615786 14.0386118,15.9914103 13.4208225,16.8701683 C12.926591,17.5815438 12.1440579,18 11.2791528,18 Z M6.25446627,8.62658149 C5.43074717,8.62658149 4.68939997,9.21242014 4.40109828,10.0074869 L3.04196176,14.0246663 C2.75366007,14.8615786 2.87721794,15.7403366 3.33026345,16.3680209 C3.70093704,16.8701683 4.23635446,17.1630876 4.81295784,17.1630876 L11.2791528,17.1630876 C11.8969422,17.1630876 12.3911736,16.8701683 12.7618472,16.3680209 C13.2148927,15.7403366 13.2972646,14.8615786 13.0501489,14.0246663 L11.6910124,10.0074869 C11.4027107,9.21242014 10.6613635,8.62658149 9.83764439,8.62658149 L6.25446627,8.62658149 Z M10.0435742,8.62658149 L6.00735054,8.62658149 C5.76023481,8.62658149 5.59549099,8.45919901 5.59549099,8.2081253 L5.59549099,5.48816011 C5.59549099,5.02785831 5.96616459,4.65124774 6.4192101,4.65124774 L9.63171461,4.65124774 C10.0847601,4.65124774 10.4554337,5.02785831 10.4554337,5.48816011 L10.4554337,8.2081253 C10.4554337,8.45919901 10.2906899,8.62658149 10.0435742,8.62658149 Z M6.4192101,7.78966912 L9.63171461,7.78966912 L9.63171461,5.48816011 L6.4192101,5.48816011 L6.4192101,7.78966912 L6.4192101,7.78966912 Z M8.02546235,5.48816011 C7.77834662,5.48816011 7.6136028,5.32077764 7.6136028,5.06970393 L7.6136028,2.09866502 C7.6136028,1.84759131 7.77834662,1.68020884 8.02546235,1.68020884 C8.27257809,1.68020884 8.43732191,1.84759131 8.43732191,2.09866502 L8.43732191,5.11154954 C8.43732191,5.32077764 8.23139213,5.48816011 8.02546235,5.48816011 Z M8.89036742,2.51712121 L5.47193312,2.51712121 C5.22481739,2.51712121 5.06007357,2.34973873 5.06007357,2.09866502 C5.06007357,1.84759131 5.22481739,1.68020884 5.47193312,1.68020884 L8.89036742,1.68020884 C9.13748315,1.68020884 9.30222697,1.84759131 9.30222697,2.09866502 C9.30222697,2.34973873 9.13748315,2.51712121 8.89036742,2.51712121 Z M2.54773029,4.52571089 C1.88875501,4.52571089 1.31215163,4.35832841 0.859106126,4.06540909 C0.406060617,3.77248976 0.11775893,3.35403357 0.0353870189,2.89373177 C-0.211728713,1.68020884 0.859106126,0.466685906 2.50654434,0.090075341 C3.45382131,-0.119152751 4.40109828,0.0482297227 5.06007357,0.466685906 C5.51311908,0.759605235 5.80142077,1.17806142 5.88379268,1.63836322 C6.13090841,2.85188615 5.06007357,4.06540909 3.41263536,4.44201965 C3.12433367,4.48386527 2.83603198,4.52571089 2.54773029,4.52571089 Z M3.33026345,0.843296472 C3.12433367,0.843296472 2.87721794,0.88514209 2.67128816,0.926987708 C1.51808141,1.17806142 0.694362304,2.01497379 0.81792017,2.7263493 C0.900292081,3.01926863 1.10622186,3.22849672 1.27096568,3.35403357 C1.76519714,3.68879852 2.46535838,3.77248976 3.20670558,3.60510728 C4.35991233,3.35403357 5.18363144,2.51712121 5.06007357,1.80574569 C4.97770166,1.51282637 4.77177188,1.30359827 4.60702806,1.17806142 C4.27754042,0.968833327 3.82449491,0.843296472 3.33026345,0.843296472 Z" id="Shape"></path>
                    </g>
                </g>
            </g>
        </g>
    </g>
</svg>