<?xml version="1.0" encoding="UTF-8"?>
<svg width="11px" height="19px" viewBox="0 0 11 19" version="1.1" xmlns="http://www.w3.org/2000/svg" xmlns:xlink="http://www.w3.org/1999/xlink">
    <!-- Generator: Sketch 47.1 (45422) - http://www.bohemiancoding.com/sketch -->
    <title>Fill 1</title>
    <desc>Created with Sketch.</desc>
    <defs></defs>
    <g id="Suites-&amp;-Rooms" stroke="none" stroke-width="1" fill="none" fill-rule="evenodd" opacity="0.5">
        <g id="Room-Page" transform="translate(-339.000000, -2149.000000)" fill="#979BA6">
            <g id="section-/-Amenity" transform="translate(260.000000, 2049.000000)">
                <g id="Item" transform="translate(75.000000, 100.000000)">
                    <g id="Page-1" transform="translate(4.000000, 0.000000)">
                        <path d="M9.2955809,13.7045145 L4.92100466,17.4552365 L5.11458318,14.7352347 L9.9517259,10.9491239 L9.2955809,13.7045145 Z M0.886019496,11.4420985 L4.28623947,14.6995167 L4.0938211,17.4047045 L1.0487713,13.9087821 L0.886019496,11.4420985 Z M2.85047686,10.6918554 C3.40568923,11.1606339 4.10144491,11.4761706 4.87824502,11.5635727 C5.02376038,11.5800326 5.16894427,11.588098 5.31329948,11.588098 C6.16898947,11.588098 6.99385274,11.3028476 7.67320064,10.7655958 C7.80230824,10.6633797 7.92047732,10.5517814 8.03384008,10.4362328 L9.35159934,10.3710515 L4.73438701,13.9851562 L1.37261756,10.7649374 L2.85047686,10.6918554 Z M5.30352112,4.86306848 C5.41472932,4.86306848 5.52726341,4.86932325 5.64012897,4.88199738 C5.82508927,4.90273688 6.0030887,4.94207609 6.17479019,4.99425404 L5.87083214,5.93477387 C5.80089196,6.15122182 5.92104986,6.38297749 6.13882569,6.45243836 C6.356933,6.52189922 6.59012219,6.4027294 6.66006238,6.18628145 L6.93087342,5.34764852 C7.838107,5.93971185 8.38801585,7.00351648 8.25774811,8.14583493 C8.19493453,8.69707765 7.98014193,9.20585378 7.64336834,9.63134271 C7.50183062,9.81042664 7.34073616,9.97634264 7.15693601,10.1216837 C6.95457353,10.2818388 6.73464314,10.4100615 6.50427144,10.5116192 C6.02778322,10.7214832 5.5030661,10.8059226 4.97138811,10.7456793 C4.76537946,10.7226354 4.56682889,10.6785228 4.37706227,10.6166335 C3.90587757,10.4628979 3.49137424,10.1964118 3.16073285,9.85256404 C2.57287068,9.24124261 2.25068177,8.38565596 2.35376897,7.48184175 C2.52530473,5.97740506 3.81372889,4.86306848 5.30352112,4.86306848 Z M10.5899715,9.48600162 L8.66230733,9.58113996 C8.88223772,9.16865436 9.02692441,8.71600656 9.0812855,8.23850428 C9.25713037,6.69785576 8.46740293,5.26567812 7.19240331,4.53897265 L8.40461371,0.624098969 C8.47438816,0.407651021 8.354396,0.176059946 8.13645442,0.106599083 C7.91851285,0.0371382206 7.68532366,0.156308042 7.61538347,0.372591391 L6.4283648,4.20928045 C6.20528544,4.14097178 5.97342213,4.09126283 5.7334378,4.06426856 C3.65081135,3.8298793 1.76607253,5.32164185 1.53023158,7.38917241 C1.42565277,8.30796514 1.66447696,9.18774787 2.14427988,9.90276679 L0.38152205,9.98983977 L0,10.6009966 L0.240150066,14.2383097 L4.38750358,19 L10.0403941,14.1533765 L11,10.1221775 L10.5899715,9.48600162 Z" id="Fill-1"></path>
                    </g>
                </g>
            </g>
        </g>
    </g>
</svg>