<?xml version="1.0" encoding="UTF-8"?>
<svg width="13px" height="13px" viewBox="0 0 13 13" version="1.1" xmlns="http://www.w3.org/2000/svg" xmlns:xlink="http://www.w3.org/1999/xlink">
    <!-- Generator: Sketch 47.1 (45422) - http://www.bohemiancoding.com/sketch -->
    <title>Shape</title>
    <desc>Created with Sketch.</desc>
    <defs></defs>
    <g id="Offers" stroke="none" stroke-width="1" fill="none" fill-rule="evenodd" opacity="0.5">
        <g id="Offers-List" transform="translate(-931.000000, -1743.000000)" fill-rule="nonzero" fill="#979BA6">
            <g id="Items" transform="translate(165.000000, 694.000000)">
                <g id="Item" transform="translate(2.000000, 635.000000)">
                    <g id="Icon" transform="translate(764.000000, 406.000000)">
                        <g id="icon-/-Breakfast" transform="translate(0.000000, 8.000000)">
                            <path d="M10.9002845,6.10625889 L10.130441,6.10625889 L10.130441,5.02147937 C10.130441,4.72403983 9.9029872,4.49658606 9.60554765,4.49658606 L0.524893314,4.49658606 C0.22745377,4.49658606 0,4.72403983 0,5.02147937 L0,7.22603129 C0,8.85320057 0.769843528,10.3229018 1.97709815,11.2502134 L0.157467994,11.2502134 L0.157467994,12.3 L9.83300142,12.3 L9.83300142,11.2502134 L8.15334282,11.2502134 C8.6257468,10.8827881 9.04566145,10.4278805 9.36059744,9.9029872 L10.9002845,9.9029872 C11.9500711,9.9029872 12.7899004,9.04566145 12.7899004,8.01337127 C12.8073969,6.96358464 11.9500711,6.10625889 10.9002845,6.10625889 Z M9.08065434,7.22603129 C9.08065434,9.44807966 7.27852063,11.2502134 5.05647226,11.2502134 C2.8344239,11.2502134 1.03229018,9.44807966 1.03229018,7.22603129 L1.03229018,5.54637269 L9.06315789,5.54637269 L9.08065434,7.22603129 Z M10.9002845,8.85320057 L9.85049787,8.85320057 C10.0254623,8.3458037 10.1129445,7.80341394 10.1129445,7.22603129 L10.1129445,7.15604552 L10.8827881,7.15604552 C11.355192,7.15604552 11.7226174,7.54096728 11.7226174,7.99587482 C11.7576102,8.46827881 11.3726885,8.85320057 10.9002845,8.85320057 Z M2.2745377,0.752347084 L3.32432432,0.752347084 L3.32432432,3.6742532 L2.2745377,3.6742532 L2.2745377,0.752347084 Z M6.82361309,0.752347084 L7.87339972,0.752347084 L7.87339972,3.6742532 L6.82361309,3.6742532 L6.82361309,0.752347084 Z M4.54907539,-5.32907052e-15 L5.59886202,-5.32907052e-15 L5.59886202,2.92190612 L4.54907539,2.92190612 L4.54907539,-5.32907052e-15 Z" id="Shape"></path>
                        </g>
                    </g>
                </g>
            </g>
        </g>
    </g>
</svg>