<?xml version="1.0" encoding="UTF-8"?>
<svg width="17px" height="16px" viewBox="0 0 17 16" version="1.1" xmlns="http://www.w3.org/2000/svg" xmlns:xlink="http://www.w3.org/1999/xlink">
    <!-- Generator: Sketch 46.1 (44463) - http://www.bohemiancoding.com/sketch -->
    <title>icon / Keys-icon</title>
    <desc>Created with Sketch.</desc>
    <defs></defs>
    <g id="Home-Page" stroke="none" stroke-width="1" fill="none" fill-rule="evenodd">
        <g id="Opened-Menu-03-10" transform="translate(-177.000000, -42.000000)" fill="#F4F4F4">
            <g id="component-/-Cover-/-Topbar" transform="translate(20.000000, 20.000000)">
                <g id="icon-/-Keys-icon" transform="translate(157.000000, 22.000000)">
                    <path d="M14.7982338,10.3811787 L13.0831962,12.0887335 L9.41544896,8.43265867 L13.3400314,4.52085284 C13.3382943,4.94069681 13.4982264,5.3610466 13.8199588,5.68137526 C14.459933,6.31858977 15.4975823,6.31858977 16.1375893,5.68137526 C16.7775798,5.04416075 16.7775798,4.01105512 16.1375893,3.37385692 C16.0618924,3.29849027 15.9805743,3.23216305 15.8950936,3.17461419 C16.1233644,3.09650634 16.3378035,2.96682153 16.5200071,2.78544554 C17.1599813,2.14823103 17.1599813,1.1151254 16.5200071,0.477910885 C15.8800001,-0.159303628 14.8423508,-0.159303628 14.2023766,0.477910885 C14.0057514,0.673678168 13.8696313,0.90682692 13.7938197,1.15436696 C13.7347731,1.06624069 13.6663034,0.982568854 13.588181,0.904803654 C12.9481905,0.267589141 11.9105575,0.267589141 11.2705506,0.904803654 C10.6305436,1.54201817 10.6305436,2.5751238 11.2705506,3.21232199 C11.5692248,3.50969312 11.9545106,3.66822578 12.3455485,3.68805052 L8.49998976,7.52119374 L4.65443099,3.68805052 C5.04550174,3.66822578 5.43077107,3.50969312 5.72944535,3.21232199 C6.3694523,2.5751238 6.3694523,1.54201817 5.72944535,0.904803654 C5.08945479,0.267589141 4.05182183,0.267589141 3.41181488,0.904803654 C3.33372528,0.982568854 3.26522276,1.06624069 3.20617621,1.15436696 C3.13036456,0.90682692 2.99426087,0.673678168 2.79765207,0.477910885 C2.15764512,-0.159303628 1.11999577,-0.159303628 0.480005211,0.477910885 C-0.160001737,1.1151254 -0.160001737,2.14823103 0.480005211,2.78544554 C0.662192425,2.96682153 0.876631544,3.09650634 1.10491866,3.17461419 C1.01940522,3.23216305 0.938103545,3.29849027 0.862423006,3.37385692 C0.222416058,4.01105512 0.222416058,5.04416075 0.862423006,5.68137526 C1.50239718,6.31858977 2.54004653,6.31858977 3.18005347,5.68137526 C3.50176951,5.3610466 3.6617016,4.94069681 3.65998084,4.52085284 L7.58453056,8.43265867 L3.91681614,12.0887335 L2.20174567,10.3811787 L1.22911233e-05,12.5733383 L1.71506638,14.280893 L0.90388506,15.0885351 L1.81934426,16 L8.49998976,9.3441236 L15.1806516,16 L16.0961108,15.0885351 L15.2849459,14.280893 L17,12.5733383 L14.7982338,10.3811787 Z" id="Fill-1"></path>
                </g>
            </g>
        </g>
    </g>
</svg>