<?xml version="1.0" encoding="UTF-8"?>
<svg width="16px" height="11px" viewBox="0 0 16 11" version="1.1" xmlns="http://www.w3.org/2000/svg" xmlns:xlink="http://www.w3.org/1999/xlink">
    <!-- Generator: Sketch 46.1 (44463) - http://www.bohemiancoding.com/sketch -->
    <title>Newsletter</title>
    <desc>Created with Sketch.</desc>
    <defs></defs>
    <g id="Home-Page" stroke="none" stroke-width="1" fill="none" fill-rule="evenodd" opacity="0.400000006">
        <g id="Opened-Menu-03-10" transform="translate(-176.000000, -680.000000)" fill="#979BA6">
            <g id="component-/-Opened-Menu" transform="translate(20.000000, 90.000000)">
                <g id="component-/-Newsletter" transform="translate(146.000000, 533.000000)">
                    <g id="icon-/-Newsletter" transform="translate(10.000000, 57.000000)">
                        <path d="M1.6622019,0.916666667 L7.81534476,6.71213889 L14.2939733,0.916666667 L1.6622019,0.916666667 Z M7.33168762,7.51025 L7.29176381,7.47633333 L0.399573333,0.985111111 C0.227382857,0.838444444 0.159725714,0.601027778 0.231649524,0.383472222 C0.307230476,0.154 0.519954286,0 0.761020952,0 L15.2302019,0 C15.4730971,0 15.6867352,0.155833333 15.7610971,0.388055556 C15.8321067,0.609277778 15.7601829,0.848222222 15.5818971,0.993055556 L8.28376381,7.51819444 C8.14235429,7.61994444 7.97778286,7.67066667 7.81321143,7.67066667 C7.64406857,7.67066667 7.47523048,7.61719444 7.33168762,7.51025 Z M0.457142857,11 C0.204495238,11 0,10.7949722 0,10.5416667 L0,4.36004274 C0,4.10673718 0.204495238,3.9017094 0.457142857,3.9017094 C0.709790476,3.9017094 0.914285714,4.10673718 0.914285714,4.36004274 L0.914285714,10.0833333 L15.0857143,10.0833333 L15.0857143,4.36004274 C15.0857143,4.10673718 15.2902095,3.9017094 15.5428571,3.9017094 C15.7955048,3.9017094 16,4.10673718 16,4.36004274 L16,10.5416667 C16,10.7949722 15.7955048,11 15.5428571,11 L0.457142857,11 Z" id="Newsletter"></path>
                    </g>
                </g>
            </g>
        </g>
    </g>
</svg>