<?xml version="1.0" encoding="UTF-8"?>
<svg width="15px" height="15px" viewBox="0 0 15 15" version="1.1" xmlns="http://www.w3.org/2000/svg" xmlns:xlink="http://www.w3.org/1999/xlink">
    <!-- Generator: Sketch 46.1 (44463) - http://www.bohemiancoding.com/sketch -->
    <title>icon / Phone</title>
    <desc>Created with Sketch.</desc>
    <defs></defs>
    <g id="Home-Page" stroke="none" stroke-width="1" fill="none" fill-rule="evenodd">
        <g id="Opened-Menu-03-10" transform="translate(-1131.000000, -44.000000)" fill="#FFFFFF">
            <g id="component-/-Cover-/-Topbar" transform="translate(20.000000, 20.000000)">
                <g id="icon-/-Phone" transform="translate(1111.000000, 24.000000)">
                    <path d="M2.3649769,0.0136637623 C2.26124753,-0.00713805531 2.13677228,-0.00713805531 2.05378879,0.0344655799 C0.933511568,0.471303749 0.228151838,2.0730437 0.0621848431,3.17554004 C-0.456462017,6.75345266 2.3649769,9.85292348 4.9582112,11.8917096 C7.26100326,13.7012597 11.6798745,16.6761277 14.2938547,13.8052688 C14.6257887,13.4518459 15.0199603,12.9318005 14.9992144,12.4117551 C14.9369768,11.5378707 14.1278877,10.9138162 13.5055115,10.4353744 C13.0283563,10.0817435 12.0325544,9.10405805 11.4101781,9.12485986 C10.8500395,9.14566168 10.4973597,9.72811257 10.1446798,10.0817435 L9.52230357,10.705798 C9.4185742,10.8098071 8.09083823,9.93613075 7.94561711,9.83212166 C7.40622438,9.47849076 6.88757752,9.08325623 6.43116828,8.64641806 C5.97475905,8.20957989 5.55984156,7.73113809 5.20716169,7.23189446 C5.10343232,7.08628174 4.25285147,5.81737087 4.33583497,5.71336178 C4.33583497,5.71336178 5.06194057,4.92289271 5.26939932,4.61086545 C5.70506268,3.94520729 6.03699667,3.42516185 5.53909568,2.63469278 C5.35238281,2.34346733 5.1241782,2.11464734 4.8752277,1.86502553 C4.43956434,1.44898918 4.00390098,1.01215101 3.50599999,0.658520107 C3.23630363,0.450501932 2.77989439,0.076069215 2.3649769,0.0136637623" id="Fill-1"></path>
                </g>
            </g>
        </g>
    </g>
</svg>