<?xml version="1.0" encoding="UTF-8"?>
<svg width="22px" height="22px" viewBox="0 0 22 22" version="1.1" xmlns="http://www.w3.org/2000/svg" xmlns:xlink="http://www.w3.org/1999/xlink">
    <!-- Generator: Sketch 47.1 (45422) - http://www.bohemiancoding.com/sketch -->
    <title>Fill 1</title>
    <desc>Created with Sketch.</desc>
    <defs></defs>
    <g id="Conciergerie" stroke="none" stroke-width="1" fill="none" fill-rule="evenodd" opacity="0.5">
        <g id="Conciergerie-" transform="translate(-676.000000, -1261.000000)" fill="#525B74">
            <g id="section-/-About" transform="translate(355.000000, 860.000000)">
                <g id="component-/-Tabs" transform="translate(6.000000, 372.000000)">
                    <g id="Tab" transform="translate(251.000000, 0.000000)">
                        <g id="icon-/-Plane" transform="translate(64.000000, 29.000000)">
                            <path d="M17.3175873,6.76438346 C17.197577,6.88418968 17.1373751,7.04872874 17.1527206,7.21715761 L18.263505,19.4342799 L17.3352938,20.3623891 L14.2268289,11.0373422 C14.1626922,10.8471304 14.0068755,10.7059302 13.8101372,10.6604194 C13.6193011,10.6156866 13.4060368,10.6755897 13.267533,10.8148449 L9.35873683,14.7237172 C9.25092425,14.831854 9.19190276,14.9742212 9.19190276,15.1255348 L9.19190276,19.4296121 L8.23536123,20.3868949 L6.11924426,16.1520563 C6.06376406,16.0415856 5.97287098,15.950175 5.86191059,15.8949397 L1.61826582,13.7730471 L2.58385732,12.8072068 L6.88101489,12.8072068 C7.03604466,12.8072068 7.18202446,12.7469147 7.29180443,12.6379999 L11.1998137,8.72796068 C11.3410718,8.58753846 11.3973389,8.38799109 11.3513022,8.19466742 C11.3048719,8.00173273 11.1636138,7.84847413 10.9739581,7.78545917 L1.63912008,4.67322041 L2.57795517,3.73460872 L14.7855656,4.84515011 C14.9547605,4.86109834 15.1274968,4.80041727 15.249868,4.67788819 L17.372674,2.55405071 C17.8999326,2.02970402 19.0233082,1.14204887 19.8869893,1.14204887 C20.1604555,1.14204887 20.3918197,1.23540436 20.5755733,1.41939248 C21.3412787,2.18412957 20.3166657,3.76494926 19.4411803,4.64054599 L17.3175873,6.76438346 Z M21.3975458,0.616535238 C20.9950193,0.213550691 20.4728759,0 19.8873828,0 C18.3858762,0 16.8458089,1.45790162 16.5522754,1.7504155 L14.6203055,3.68287422 L2.4111211,2.57272181 C2.23877837,2.55560663 2.06879649,2.61862159 1.94839266,2.73959475 L0.167911202,4.51996181 C0.0266531151,4.66038403 -0.0304009869,4.8599314 0.0156357713,5.05403303 C0.0620660061,5.24696771 0.20371757,5.39983734 0.392979798,5.46285229 L9.72821132,8.57548004 L6.6390268,11.6655469 L2.3422627,11.6655469 C2.18880684,11.6655469 2.03889227,11.7273949 1.93186665,11.8351427 L0.238736984,13.527989 C0.109676671,13.6575197 0.0498682325,13.8415078 0.0789854984,14.0216061 C0.109283194,14.2009265 0.224965304,14.3572969 0.389045032,14.438983 L5.1682114,16.8292726 L7.55858154,21.6114078 C7.64081814,21.7767248 7.80017615,21.8926412 7.98314275,21.9222038 C8.16571588,21.9502104 8.35458463,21.8918632 8.48757971,21.7599986 L10.1803159,20.0659854 C10.2881285,19.9586265 10.34715,19.8158704 10.34715,19.6645567 L10.34715,15.3604795 L13.4249237,12.2820821 L16.5333885,21.6079069 C16.5971317,21.7985077 16.752555,21.9393189 16.9496867,21.9848297 C16.9933626,21.9949432 17.0378255,22 17.0818949,22 C17.2353507,22 17.3852653,21.938152 17.4930779,21.8304042 L19.2739528,20.0488702 C19.3931762,19.929064 19.4537716,19.7641359 19.438426,19.596485 L18.3272482,7.37936278 L20.2631529,5.44379221 C21.746953,3.95943987 22.6728034,1.89122671 21.3975458,0.616535238 L21.3975458,0.616535238 Z" id="Fill-1"></path>
                        </g>
                    </g>
                </g>
            </g>
        </g>
    </g>
</svg>