<?xml version="1.0" encoding="UTF-8"?>
<svg width="173px" height="29px" viewBox="0 0 173 29" version="1.1" xmlns="http://www.w3.org/2000/svg" xmlns:xlink="http://www.w3.org/1999/xlink">
    <!-- Generator: Sketch 46.1 (44463) - http://www.bohemiancoding.com/sketch -->
    <title>component / Logo Text / Light</title>
    <desc>Created with Sketch.</desc>
    <defs></defs>
    <g id="Symbols" stroke="none" stroke-width="1" fill="none" fill-rule="evenodd">
        <g id="component-/-Logo-Text-/-Light" fill="#FFFFFF">
            <g id="Logo">
                <path d="M112.203005,23.7746515 L110.146918,23.7746515 L110.146918,25.6139148 L112.161573,25.6139148 L112.161573,26.1839491 L110.146918,26.1839491 L110.146918,28.3323835 L112.558807,28.3323835 L112.558807,28.9024179 L109.343128,28.9024179 L109.343128,23.2046172 L112.203005,23.2046172 L112.203005,23.7746515 Z M75.904056,23.7746515 L73.8479688,23.7746515 L73.8479688,25.6139148 L75.8626235,25.6139148 L75.8626235,26.1839491 L73.8479688,26.1839491 L73.8479688,28.3323835 L76.2603753,28.3323835 L76.2603753,28.9024179 L73.0441786,28.9024179 L73.0441786,23.2046172 L75.904056,23.2046172 L75.904056,23.7746515 Z M86.3873554,28.9024179 L85.7575816,28.9024179 C84.4975161,27.4211422 82.3337045,24.8653952 81.9851538,24.3685856 L81.9685808,24.3685856 L81.9685808,28.9024179 L81.305661,28.9024179 L81.305661,23.2046172 L81.9022888,23.2046172 C83.1794452,24.6858928 85.3178794,27.1765512 85.7078627,27.7465856 L85.7239177,27.7465856 L85.7239177,23.2046172 L86.3873554,23.2046172 L86.3873554,28.9024179 Z M94.7808521,23.7746515 L92.724765,23.7746515 L92.724765,25.6139148 L94.7394196,25.6139148 L94.7394196,26.1839491 L92.724765,26.1839491 L92.724765,28.3323835 L95.1366536,28.3323835 L95.1366536,28.9024179 L91.9209747,28.9024179 L91.9209747,23.2046172 L94.7808521,23.2046172 L94.7808521,23.7746515 Z M101.591524,28.9024179 L99.4442856,23.2702144 L100.265167,23.1232564 C100.828649,24.6782653 101.384362,26.2409017 101.940075,27.9911766 L101.95613,27.9911766 C102.536703,26.2409017 103.133848,24.6782653 103.72219,23.1232564 L104.443633,23.2213979 L102.130664,28.9024179 L101.591524,28.9024179 Z M67.6099973,26.2978034 L67.6099973,28.6176041 C67.0465155,28.8128701 66.3416453,29 65.6036291,29 C63.5397734,29 62.4785838,27.6000852 62.4785838,26.0374488 C62.4785838,24.5968536 63.6226384,23.1074419 65.7113536,23.1074419 C66.5570942,23.1074419 67.2205319,23.3759326 67.5685648,23.6606955 L67.2371049,24.1325883 C66.8885541,23.8966419 66.3582183,23.6769677 65.720158,23.6769677 C64.2114976,23.6769677 63.3657569,24.6863505 63.3657569,26.0211766 C63.3657569,27.4617718 64.368941,28.4304742 65.6284886,28.4304742 C66.1179099,28.4304742 66.4825157,28.3816577 66.8056891,28.2265636 L66.8056891,26.2978034 L67.6099973,26.2978034 Z M12.9271429,13.9506873 C14.7910869,13.7274535 14.7082219,13.828646 14.7082219,11.9375152 L14.7082219,2.78594737 C14.7082219,0.894816579 14.7910869,0.996009111 12.9271429,0.772266828 L12.9271429,0.243929939 L22.1857499,0.243929939 L22.1857499,3.51819484 L21.6471275,3.51819484 C21.4399651,2.01301949 21.0256402,0.894816579 19.5345886,0.894816579 L16.7171796,0.894816579 L16.7171796,6.71109891 L18.457344,6.71109891 C19.7624673,6.71109891 20.321288,6.20259373 20.3627205,4.94150086 L20.9013428,4.94150086 L20.9013428,9.27345656 L20.3627205,9.27345656 C20.321288,8.07338431 19.8448144,7.36147705 18.457344,7.36147705 L16.7171796,7.36147705 L16.7171796,11.9578554 C16.7171796,13.6862646 17.5251131,13.828646 19.3895749,13.828646 C22.3929123,13.828646 22.2478986,12.995206 23.2003279,10.8188038 L23.7389502,10.8188038 L23.1174629,14.4795327 L12.9271429,14.4795327 L12.9271429,13.9506873 Z M0,13.9506873 C1.86446188,13.7274535 1.781079,13.828646 1.781079,11.9375152 L1.781079,2.78594737 C1.781079,0.894816579 1.86446188,0.996009111 0,0.772266828 L0,0.243929939 L5.5716336,0.243929939 L5.5716336,0.772266828 C3.70768962,0.996009111 3.79055459,0.894816579 3.79055459,2.78594737 L3.79055459,12.2629586 C3.79055459,13.6862646 4.59848807,13.828646 6.44171581,13.828646 C9.44505316,13.828646 9.3207557,12.995206 10.2737029,10.8188038 L10.791609,10.8188038 L10.1701217,14.4795327 L0,14.4795327 L0,13.9506873 Z M104.969049,3.49775293 L104.927616,3.49775293 L104.927616,11.7340115 C104.927616,12.1611558 104.989765,12.5069393 105.031197,12.8323827 C105.134779,13.5641216 105.839131,13.8488845 106.812794,13.9505856 L106.812794,14.479431 L102.152675,14.479431 L102.152675,13.9505856 C103.125821,13.8488845 103.830173,13.5641216 103.933754,12.8323827 C103.975187,12.5069393 104.057534,12.1611558 104.057534,11.7340115 L104.057534,2.52142297 C103.643209,1.56594173 102.628631,0.772673633 101.634769,0.772673633 L101.634769,0.243828237 L105.549103,0.243828237 L111.3279,11.6119702 L117.29366,0.243828237 L120.648655,0.243828237 L120.648655,0.772673633 C119.136369,0.772673633 118.577549,1.58628193 118.577549,2.8672065 L118.577549,11.9374135 C118.577549,13.8285443 118.494684,13.7273518 120.359146,13.9505856 L120.359146,14.479431 L114.786994,14.479431 L114.786994,13.9505856 C116.651456,13.7273518 116.568073,13.8285443 116.568073,11.9374135 L116.568073,3.3960519 L116.526641,3.3960519 L110.892858,14.6014722 L110.561916,14.6014722 L104.969049,3.49775293 Z M69.0865993,10.8596876 L68.465112,13.4017051 C68.465112,13.8491896 68.0927375,13.9305505 67.5126827,14.1136123 C66.7254655,14.3775265 65.2758464,14.7238186 63.4735332,14.7238186 C59.2272213,14.7238186 55.3952342,12.7304782 55.3952342,7.28031962 C55.3952342,4.14843617 58.109062,5.08505186e-05 63.6806956,5.08505186e-05 C65.6896533,5.08505186e-05 66.6426005,0.36566608 67.6576964,0.691109401 C68.2372333,0.874171268 68.465112,1.15893417 68.465112,1.48437749 L68.465112,4.10775576 L67.9270076,4.10775576 C67.8648588,2.48053916 66.8083304,0.711449608 63.5149657,0.711449608 C59.6415461,0.711449608 57.7776021,3.45686912 57.7568859,7.11759796 C57.7361697,11.1647908 59.6208299,14.0119113 63.8464256,14.0119113 C66.601168,14.0119113 67.8855751,12.4660555 68.547977,10.8596876 L69.0865993,10.8596876 Z M153.775119,14.4795327 C150.482272,10.6560822 147.064092,6.65007829 143.687862,2.74526696 L143.687862,11.7341132 C143.687862,12.1612575 143.771245,12.507041 143.812678,12.8324844 C143.915741,13.5642233 144.620093,13.8489862 145.987365,13.9506873 L145.987365,14.4795327 L140.912404,14.4795327 L140.912404,13.9506873 C141.906783,13.8489862 142.589902,13.5642233 142.694001,12.8324844 C142.735433,12.507041 142.818298,12.1612575 142.818298,11.7341132 L142.818298,2.15540094 C142.238243,1.42315347 141.59604,0.772266828 140.415214,0.772266828 L140.415214,0.243929939 L144.185052,0.243929939 C147.271255,3.92499899 150.482272,7.66708867 153.568475,11.3476492 L153.609389,11.3476492 L153.609389,2.98934945 C153.609389,2.56220509 153.527042,2.21642156 153.485092,1.89097824 C153.381511,1.15923928 152.677676,0.874476371 151.310404,0.772266828 L151.310404,0.243929939 L156.384848,0.243929939 L156.384848,0.772266828 C155.411184,0.874476371 154.70735,1.15923928 154.603769,1.89097824 C154.562336,2.21642156 154.479471,2.56220509 154.479471,2.98934945 L154.479471,14.4795327 L153.775119,14.4795327 Z M89.1632802,13.9506873 C91.0272242,13.7274535 90.9443592,13.828646 90.9443592,11.9375152 L90.9443592,2.78594737 C90.9443592,0.894816579 91.0272242,0.996009111 89.1632802,0.772266828 L89.1632802,0.243929939 L98.4218872,0.243929939 L98.4218872,3.51819484 L97.8832649,3.51819484 C97.6761024,2.01301949 97.2617776,0.894816579 95.770726,0.894816579 L92.9533169,0.894816579 L92.9533169,6.71109891 L94.6934813,6.71109891 C95.9980867,6.71109891 96.5574253,6.20259373 96.5988578,4.94150086 L97.1374801,4.94150086 L97.1374801,9.27345656 L96.5988578,9.27345656 C96.5574253,8.07338431 96.0809517,7.36147705 94.6934813,7.36147705 L92.9533169,7.36147705 L92.9533169,11.9578554 C92.9533169,13.6862646 93.7612504,13.828646 95.6257123,13.828646 C98.6285317,13.828646 98.4840359,12.995206 99.4369831,10.8188038 L99.9750875,10.8188038 L99.3541181,14.4795327 L89.1632802,14.4795327 L89.1632802,13.9506873 Z M75.4069179,11.9375152 C75.4069179,13.828646 75.3240529,13.7274535 77.1879969,13.9506873 L77.1879969,14.4795327 L71.6163633,14.4795327 L71.6163633,13.9506873 C73.4808252,13.7274535 73.3979602,13.828646 73.3979602,11.9375152 L73.3979602,2.78594737 C73.3979602,0.894816579 73.4808252,0.996009111 71.6163633,0.772266828 L71.6163633,0.243929939 L77.1879969,0.243929939 L77.1879969,0.772266828 C75.3240529,0.996009111 75.4069179,0.894816579 75.4069179,2.78594737 L75.4069179,6.30429476 L82.6772834,6.30429476 L82.6772834,2.78594737 C82.6772834,0.894816579 82.7601484,0.996009111 80.8956865,0.772266828 L80.8956865,0.243929939 L86.4673201,0.243929939 L86.4673201,0.772266828 C84.6033761,0.996009111 84.6862411,0.894816579 84.6862411,2.78594737 L84.6862411,11.9375152 C84.6862411,13.828646 84.6033761,13.7274535 86.4673201,13.9506873 L86.4673201,14.4795327 L80.8956865,14.4795327 L80.8956865,13.9506873 C82.7601484,13.7274535 82.6772834,13.828646 82.6772834,11.9375152 L82.6772834,7.13824327 L75.4069179,7.13824327 L75.4069179,11.9375152 Z M50.7545368,11.9375152 C50.7545368,13.828646 50.6716718,13.7274535 52.5356158,13.9506873 L52.5356158,14.4795327 L46.9639822,14.4795327 L46.9639822,13.9506873 C48.8279262,13.7274535 48.7455791,13.828646 48.7455791,11.9375152 L48.7455791,2.78594737 C48.7455791,0.894816579 48.8279262,0.996009111 46.9639822,0.772266828 L46.9639822,0.243929939 L52.5356158,0.243929939 L52.5356158,0.772266828 C50.6716718,0.996009111 50.7545368,0.894816579 50.7545368,2.78594737 L50.7545368,11.9375152 Z M135.793524,7.54469147 C135.793524,2.68389038 133.121646,0.711398757 130.594265,0.711398757 C127.073021,0.711398757 125.623402,3.80260179 125.623402,6.56836151 C125.623402,11.4901832 128.191698,14.0118604 130.863576,14.0118604 C134.716279,14.0118604 135.793524,10.2697708 135.793524,7.54469147 M123.262268,7.6260523 C123.262268,3.23307598 126.741561,0 131.050022,0 C135.544929,0 138.154658,3.80260179 138.154658,6.93448524 C138.154658,11.2257605 134.882009,14.7237677 130.304237,14.7237677 C126.348471,14.7237677 123.262268,11.571544 123.262268,7.6260523 M162.332688,11.59163 C162.332688,13.8082041 162.850077,13.8285443 164.81812,13.8285443 C168.090768,13.8285443 170.638348,12.1204754 170.638348,6.99576012 C170.638348,3.1316292 168.525809,0.894714878 164.548809,0.894714878 L162.332688,0.894714878 L162.332688,11.59163 Z M158.542134,0.243828237 L165.418891,0.243828237 C170.431186,0.243828237 173,2.76550546 173,6.9550797 C173,11.0221042 169.954712,14.479431 164.81812,14.479431 L158.542134,14.479431 L158.542134,13.9505856 C160.406078,13.7273518 160.323213,13.8285443 160.323213,11.9374135 L160.323213,2.78584567 C160.323213,0.894714878 160.406078,0.996415915 158.542134,0.772673633 L158.542134,0.243828237 Z M36.6466198,7.52435126 L38.3655501,7.52435126 C40.1678632,7.52435126 40.9959951,6.18189757 40.9959951,3.88396262 C40.9959951,1.66738851 39.7535384,0.894460625 38.2417705,0.894460625 L36.6466198,0.894460625 L36.6466198,7.52435126 Z M32.8560652,0.24408249 L38.8834562,0.24408249 C40.9752788,0.24408249 43.0676194,1.32160498 43.0676194,3.70090076 C43.0676194,5.79594213 41.7624961,7.23958836 40.1678632,7.84979458 L42.1975372,10.879977 C43.2333493,12.3648121 44.3934589,13.7881182 45.1180095,14.2152625 L45.1180095,14.4796852 L42.9847544,14.4796852 C41.7624961,14.4796852 41.1000942,12.2626026 38.5934288,8.1752379 L36.6466198,8.1752379 L36.6466198,11.9376678 C36.6466198,13.8287986 36.5637548,13.7270975 38.4276988,13.9508398 L38.4276988,14.4796852 L32.8560652,14.4796852 L32.8560652,13.9508398 C34.7205271,13.7270975 34.6376621,13.8287986 34.6376621,11.9376678 L34.6376621,2.78609992 C34.6376621,0.894460625 34.7205271,0.996161663 32.8560652,0.77241938 L32.8560652,0.24408249 Z"></path>
            </g>
        </g>
    </g>
</svg>