<?xml version="1.0" encoding="UTF-8"?>
<svg width="15px" height="15px" viewBox="0 0 15 15" version="1.1" xmlns="http://www.w3.org/2000/svg" xmlns:xlink="http://www.w3.org/1999/xlink">
    <!-- Generator: Sketch 46.1 (44463) - http://www.bohemiancoding.com/sketch -->
    <title>Shape</title>
    <desc>Created with Sketch.</desc>
    <defs></defs>
    <g id="Home-Page" stroke="none" stroke-width="1" fill="none" fill-rule="evenodd">
        <g id="Opened-Menu-03-10" transform="translate(-112.000000, -43.000000)" fill-rule="nonzero" fill="#F2F2F2">
            <g id="component-/-Cover-/-Topbar" transform="translate(20.000000, 20.000000)">
                <g id="icon-/-Search" transform="translate(92.000000, 23.000000)">
                    <path d="M14.9020394,14.4297708 L10.7147033,10.2424114 C12.8770189,7.83388638 12.8006881,4.11453578 10.4852099,1.79904461 C9.32504886,0.638877135 7.78256585,0 6.14203872,0 C4.50151158,0 2.95902858,0.638877135 1.79903459,1.79904461 C0.638873578,2.95904505 0,4.50136962 0,6.14207291 C0,7.78260918 0.638873578,9.32510077 1.79903459,10.4852682 C2.95902858,11.6454357 4.50151158,12.2843129 6.14203872,12.2843129 C7.67065858,12.2843129 9.11392828,11.7291161 10.2423544,10.7147629 L14.4296905,14.9021224 C14.4949976,14.9674298 14.5803477,15 14.6658649,15 C14.7513821,15 14.8367323,14.9674298 14.9020394,14.9021224 C15.0326535,14.7718415 15.0326535,14.5602187 14.9020394,14.4297708 Z M6.14203872,11.616206 C4.67989511,11.616206 3.305273,11.046812 2.27138347,10.0129167 C1.23749395,8.97885442 0.667936063,7.60422466 0.667936063,6.14207291 C0.667936063,4.67992116 1.23732692,3.30529141 2.27138347,2.27139612 C3.305273,1.23750084 4.67989511,0.667939781 6.14203872,0.667939781 C7.60418233,0.667939781 8.97880443,1.23733381 10.012861,2.27139612 C12.1471163,4.40549629 12.1471163,7.87831548 10.012861,10.0129167 C8.97880443,11.046812 7.60418233,11.616206 6.14203872,11.616206 Z" id="Shape"></path>
                </g>
            </g>
        </g>
    </g>
</svg>