<?xml version="1.0" encoding="UTF-8"?>
<svg width="43px" height="43px" viewBox="0 0 43 43" version="1.1" xmlns="http://www.w3.org/2000/svg" xmlns:xlink="http://www.w3.org/1999/xlink">
    <!-- Generator: Sketch 47.1 (45422) - http://www.bohemiancoding.com/sketch -->
    <title>icon / Gym</title>
    <desc>Created with Sketch.</desc>
    <defs></defs>
    <g id="SPA" stroke="none" stroke-width="1" fill="none" fill-rule="evenodd">
        <g transform="translate(-1044.000000, -1602.000000)" id="section-/-About" fill="#525B74">
            <g transform="translate(165.000000, 860.000000)">
                <g id="Icons" transform="translate(115.000000, 706.000000)">
                    <g id="item" transform="translate(690.000000, 0.000000)">
                        <g id="icon-/-Gym" transform="translate(74.000000, 36.000000)">
                            <path d="M13.5534261,32.2308261 C13.0677397,32.2308261 12.6725799,31.8499612 12.6725799,31.381657 C12.6725799,30.913437 13.0677397,30.5324879 13.5534261,30.5324879 L15.500445,30.5324879 L12.4010002,27.1810445 C12.083285,26.832717 12.1171235,26.2941252 12.478096,25.9822026 C12.63691,25.8449063 12.8419465,25.7693218 13.0556171,25.7693218 C13.308359,25.7693218 13.5508969,25.8742489 13.7209613,26.0571145 L17.8532637,30.5408955 L19.9024957,30.5408955 C20.3798969,30.5408955 20.7833419,30.9258802 20.7833419,31.381657 C20.7833419,31.8499612 20.3881821,32.2308261 19.9024957,32.2308261 L13.5534261,32.2308261 Z M9.4944,20.5104397 C5.217104,20.5104397 1.7372,23.9972446 1.7372,28.2831608 C1.7372,32.5690771 5.224844,36.0558819 9.5116,36.0558819 L36.4038,36.0558819 C39.083044,36.0558819 41.2628,33.8766826 41.2628,31.1979312 C41.2628,28.9292253 39.655202,26.9328225 37.440186,26.4509826 C36.401822,26.2094608 11.871612,20.5104397 9.4944,20.5104397 M2.90379,43 C2.749506,43 2.601242,42.9644897 2.474994,42.8973382 C2.275474,42.7903773 2.129446,42.6095583 2.06486,42.389016 C1.998554,42.1622829 2.025472,41.9239424 2.140712,41.7178449 L4.96048,36.6269706 L4.673326,36.4565554 C3.275052,35.6269206 2.104162,34.449061 1.287162,33.0504011 C0.44505,31.6089225 0,29.9604006 0,28.2831608 C0,23.0348545 4.25915,18.7650168 9.4944,18.7650168 C9.804774,18.7650168 10.116352,18.7817831 10.42062,18.814628 L11.08368,18.8863366 L8.457584,14.1994029 L4.945,14.1994029 C4.466066,14.1994029 4.0764,13.8098211 4.0764,13.3309905 C4.0764,12.8521599 4.466066,12.4625781 4.945,12.4625781 L14.0352,12.4625781 C14.514134,12.4625781 14.9038,12.8521599 14.9038,13.3309905 C14.9038,13.8098211 14.514134,14.1994029 14.0352,14.1994029 L10.456138,14.1994029 L13.354596,19.3859746 L35.1826,24.1708411 L35.1826,5.86754461 L30.981586,8.95350404 C30.822228,9.05195278 30.631308,9.10612108 30.442796,9.10612108 C30.279826,9.10612108 29.973838,9.06287242 29.755484,8.77328697 C29.61797,8.59186616 29.560866,8.36728267 29.594148,8.14011973 C29.62829,7.90745399 29.7517,7.70290417 29.941588,7.56430211 L40.004534,0.16921145 C40.15598,0.0587253153 40.334946,0 40.521308,0 C40.799776,0 41.05339,0.128542235 41.21722,0.352867781 C41.354992,0.541597015 41.411838,0.771597335 41.377352,1.0004799 C41.342952,1.22884657 41.22109,1.42969918 41.034212,1.56606573 L36.9284,4.5847017 L36.9284,24.5523407 L37.817038,24.7497541 C40.820416,25.4124989 43,28.1242672 43,31.1979312 C43,33.8926752 41.376234,36.2919869 38.863228,37.3106089 L38.5022,37.4569493 L40.876488,41.7091608 C40.995856,41.9228247 41.022086,42.1796512 40.94847,42.4138646 C40.882078,42.624949 40.741812,42.791495 40.553472,42.8830653 C40.428944,42.944284 40.285754,42.9762691 40.137748,42.9762691 C39.805186,42.9761831 39.511324,42.8161717 39.350762,42.5479956 L36.709702,37.7841086 L9.520114,37.7927068 C8.624768,37.7927068 7.719618,37.6614131 6.830034,37.4022651 L6.5661,37.3254837 L3.659472,42.569233 C3.519034,42.8389568 3.236524,43 2.90379,43" id="Fill-1"></path>
                        </g>
                    </g>
                </g>
            </g>
        </g>
    </g>
</svg>