<?xml version="1.0" encoding="UTF-8"?>
<svg width="49px" height="40px" viewBox="0 0 49 40" version="1.1" xmlns="http://www.w3.org/2000/svg" xmlns:xlink="http://www.w3.org/1999/xlink">
    <!-- Generator: Sketch 47.1 (45422) - http://www.bohemiancoding.com/sketch -->
    <title>icon / Other</title>
    <desc>Created with Sketch.</desc>
    <defs></defs>
    <g id="SPA" stroke="none" stroke-width="1" fill="none" fill-rule="evenodd">
        <g transform="translate(-810.000000, -1606.000000)" id="section-/-About" fill-rule="nonzero" fill="#525B74">
            <g transform="translate(165.000000, 860.000000)">
                <g id="Icons" transform="translate(115.000000, 706.000000)">
                    <g id="item" transform="translate(460.000000, 0.000000)">
                        <g id="icon-/-Other" transform="translate(70.000000, 40.000000)">
                            <path d="M24.5,21.6666667 C10.8551897,21.6666667 1.68965517,25.9758333 1.68965517,30 C1.68965517,34.0241667 10.8551897,38.3333333 24.5,38.3333333 C38.1448103,38.3333333 47.3103448,34.0241667 47.3103448,30 C47.3103448,25.9758333 38.1448103,21.6666667 24.5,21.6666667 M24.5,40 C10.7614138,40 0,35.6075 0,30 C0,24.3925 10.7614138,20 24.5,20 C38.2385862,20 49,24.3925 49,30 C49,35.6075 38.2385862,40 24.5,40 M24.5,10 C16.5341207,10 10.9827586,12.635 10.9827586,15 C10.9827586,17.365 16.5341207,20 24.5,20 C32.4658793,20 38.0172414,17.365 38.0172414,15 C38.0172414,12.635 32.4658793,10 24.5,10 M24.5,21.6666667 C15.8303793,21.6666667 9.29310345,18.8008333 9.29310345,15 C9.29310345,11.1991667 15.8303793,8.33333333 24.5,8.33333333 C33.1696207,8.33333333 39.7068966,11.1991667 39.7068966,15 C39.7068966,18.8008333 33.1696207,21.6666667 24.5,21.6666667 Z M24.5,36.6666667 C14.5377931,36.6666667 7.28410345,34.2658333 4.51560345,31.8866667 C4.16331034,31.5841667 4.12698276,31.0583333 4.43365517,30.7108333 C4.73948276,30.3633333 5.27256897,30.3275 5.62486207,30.63 C7.3837931,32.1416667 13.592431,35 24.5,35 C24.9663448,35 25.3448276,35.3733333 25.3448276,35.8333333 C25.3448276,36.2933333 24.9663448,36.6666667 24.5,36.6666667 Z M24.5,1.66666667 C20.0190345,1.66666667 16.8965517,3.42333333 16.8965517,5 C16.8965517,6.57666667 20.0190345,8.33333333 24.5,8.33333333 C28.9809655,8.33333333 32.1034483,6.57666667 32.1034483,5 C32.1034483,3.42333333 28.9809655,1.66666667 24.5,1.66666667 M24.5,10 C19.2891034,10 15.2068966,7.80333333 15.2068966,5 C15.2068966,2.19666667 19.2891034,0 24.5,0 C29.7108966,0 33.7931034,2.19666667 33.7931034,5 C33.7931034,7.80333333 29.7108966,10 24.5,10 Z" id="Shape"></path>
                        </g>
                    </g>
                </g>
            </g>
        </g>
    </g>
</svg>