<?xml version="1.0" encoding="UTF-8"?>
<svg width="36px" height="43px" viewBox="0 0 36 43" version="1.1" xmlns="http://www.w3.org/2000/svg" xmlns:xlink="http://www.w3.org/1999/xlink">
    <!-- Generator: Sketch 47.1 (45422) - http://www.bohemiancoding.com/sketch -->
    <title>icon / Massage</title>
    <desc>Created with Sketch.</desc>
    <defs></defs>
    <g id="SPA" stroke="none" stroke-width="1" fill="none" fill-rule="evenodd">
        <g transform="translate(-357.000000, -1604.000000)" id="section-/-About" fill="#525B74">
            <g transform="translate(165.000000, 860.000000)">
                <g id="Icons" transform="translate(115.000000, 706.000000)">
                    <g id="item">
                        <g id="icon-/-Massage" transform="translate(77.000000, 38.000000)">
                            <path d="M26.2238607,41.8005161 L7.03552858,41.8005161 C3.79478098,41.8005161 1.15906566,39.0722898 1.15906566,35.7185327 C1.15906566,32.3659751 3.79478098,29.6377489 7.03552858,29.6377489 L25.4640931,29.6377489 C27.2925192,29.6377489 28.7790209,31.176087 28.7790209,33.0676732 C28.7790209,34.9598591 27.2925192,36.498797 25.4640931,36.498797 L8.07810815,36.498797 C7.15838954,36.498797 6.40963312,35.7239304 6.40963312,34.7691412 C6.40731499,33.8191499 7.15201468,33.042484 8.06651749,33.0382859 L22.0222476,33.0382859 C22.3427293,33.0382859 22.6017805,32.7696015 22.6017805,32.4385439 C22.6017805,32.1068866 22.3427293,31.8388019 22.0222476,31.8388019 L8.06419936,31.8388019 C6.5081537,31.8465986 5.24651073,33.1630322 5.25056746,34.7709404 C5.25056746,36.3854458 6.51916483,37.698281 8.07810815,37.698281 L25.4640931,37.698281 C27.9311644,37.698281 29.9380866,35.6207748 29.9380866,33.0676732 C29.9380866,30.5151714 27.9311644,28.4382649 25.4640931,28.4382649 L7.03552858,28.4382649 C6.95497352,28.4382649 6.87557752,28.4394644 6.79676106,28.4424631 C7.08247074,25.9241466 9.15661875,23.9641898 11.6654164,23.9641898 L26.2238607,23.9641898 C30.9754503,23.9641898 34.8409343,27.9650685 34.8409343,32.8823529 C34.8409343,37.7996374 30.9754503,41.8005161 26.2238607,41.8005161 M26.2238607,22.7647059 L11.6654164,22.7647059 C8.46987234,22.7647059 5.84342955,25.3369992 5.61915034,28.5864012 C2.41607238,29.2665086 0,32.205844 0,35.7185327 C0,39.7338052 3.15555627,43 7.03552858,43 L26.2238607,43 C31.6146751,43 36,38.4611528 36,32.8823529 C36,27.3035531 31.6146751,22.7647059 26.2238607,22.7647059 M5.58677692,4.95731544 C6.28533699,4.23064691 7.21405179,3.8300784 8.20232924,3.82887729 L8.31625005,3.82887729 L8.31625005,3.82887729 L8.32955045,3.82887729 C8.35672952,3.82887729 8.37986065,3.81626569 8.40588317,3.81266237 C8.45272371,3.8060563 8.50014252,3.80185243 8.54351338,3.78383585 C8.57878835,3.76882204 8.60712399,3.74359884 8.63892929,3.7225795 C8.66957803,3.70156016 8.70253989,3.6859458 8.72914069,3.65892093 C8.76383738,3.62468944 8.78696851,3.58084911 8.81241275,3.53820988 C8.82629143,3.51598944 8.84595289,3.49917397 8.85694017,3.47395076 C9.69428701,1.5377695 11.8917442,0.668770038 13.7561131,1.5377695 C14.792966,2.02121427 15.5493539,2.95447285 15.8303971,4.09732426 C15.8321319,4.10573199 15.8373364,4.11173752 15.8396495,4.1195447 C15.8471671,4.14596901 15.8604675,4.16879001 15.8714548,4.19341266 C15.8899597,4.23605189 15.9101995,4.27688946 15.9368002,4.31292261 C15.952992,4.3345425 15.9709187,4.35195852 15.9894236,4.3711762 C16.0206506,4.40360603 16.0541907,4.43123145 16.0917788,4.45525355 C16.1137534,4.46966681 16.135728,4.48167786 16.1600156,4.49308836 C16.2039648,4.51350714 16.250227,4.52551819 16.2988024,4.53332537 C16.3155725,4.53632814 16.3294512,4.54593698 16.3467995,4.54773863 C18.268418,4.69907786 19.7736761,6.38542928 19.7736761,8.38647021 C19.7730979,9.48127742 19.3179929,10.5226355 18.5251735,11.2444996 C18.5176559,11.2511056 18.5147645,11.2607145 18.5078252,11.2679211 C18.4777547,11.2979487 18.4569367,11.3327808 18.4343838,11.3682134 C18.4147224,11.3988415 18.3933261,11.426467 18.3794474,11.4594974 C18.3649904,11.4949299 18.3592077,11.5321642 18.3511118,11.569999 C18.3435941,11.6078338 18.3331851,11.6432664 18.3326069,11.6823023 C18.3314503,11.7183355 18.3401245,11.7531675 18.345329,11.7892007 C18.3522683,11.8312393 18.3568945,11.8714764 18.3719298,11.9117134 C18.3753994,11.9213222 18.3742429,11.9315316 18.3782908,11.9405399 C18.7813507,12.8780024 18.8091081,13.9223632 18.4563584,14.8814455 C18.1030304,15.8405278 17.4114097,16.5990256 16.5087174,17.0182113 C15.1480288,17.6499925 13.5357891,17.3533196 12.4573003,16.2927439 C12.4382171,16.2645179 12.4272298,16.2320881 12.4035204,16.2062643 C12.1797267,15.9684455 11.8136766,15.9648422 11.585835,16.197256 C11.5806305,16.2020604 11.5748477,16.2062643 11.5702215,16.2110687 C11.5667518,16.214672 11.5621256,16.2158731 11.558656,16.2188759 C11.5569211,16.2212781 11.5563428,16.2236803 11.554608,16.2260825 C10.8618307,16.9143157 9.95509049,17.2938649 8.99514866,17.2938649 L8.99399211,17.2938649 C8.00397982,17.2938649 7.07295191,16.8932964 6.372657,16.1660273 C5.67294037,15.4387582 5.28722881,14.4718687 5.28780708,13.4443234 C5.28838536,12.7050432 5.49714379,11.9891847 5.89095125,11.3736183 C5.91061271,11.3429902 5.91581722,11.3087587 5.92911761,11.2757283 C5.94126146,11.2475023 5.95514013,11.2198769 5.96265775,11.1898493 C5.97306676,11.1496123 5.97537987,11.1099758 5.97711471,11.0685377 C5.97942782,11.0301023 5.98116265,10.9928681 5.97595815,10.9544327 C5.9719102,10.9226034 5.96150119,10.8937769 5.95224874,10.8631487 C5.93894834,10.8175067 5.92391311,10.7742669 5.9002037,10.7322283 C5.88805986,10.7112089 5.87186807,10.6931924 5.85625456,10.6733741 C5.83312343,10.6421454 5.81693164,10.6073134 5.78743945,10.580889 C4.97380202,9.85121776 4.50655323,8.7924437 4.50539667,7.6760166 C4.50424011,6.64967238 4.88821684,5.68398396 5.58677692,4.95731544 M4.68928914,11.1484112 C4.33017837,11.8552614 4.13182895,12.6365802 4.13125067,13.4437228 C4.13067239,14.7925637 4.63666582,16.0609306 5.55497162,17.0152085 C6.47327741,17.9694864 7.69460098,18.4949699 8.99341383,18.4949699 L8.99514866,18.4949699 C10.0811551,18.4949699 11.1145383,18.1226273 11.9617159,17.4422014 C12.8337594,18.1658671 13.9162962,18.5490196 15.0109768,18.5490196 C15.6783099,18.5490196 16.3502692,18.4072892 16.9805924,18.1148202 C19.299488,17.0386301 20.4063125,14.2953063 19.5822661,11.8486554 C20.4410092,10.9214023 20.9296543,9.68426416 20.9302326,8.38707076 C20.9302326,5.90018286 19.1583881,3.78743917 16.8290835,3.40128391 C16.3930618,2.08547338 15.4666601,1.01889215 14.229723,0.441761193 C11.8969487,-0.645238831 9.17036696,0.343871136 7.97043968,2.63978334 C5.39941478,2.76950268 3.34594887,4.97713367 3.34884026,7.67721771 C3.34999682,8.97741387 3.83517223,10.2157531 4.68928914,11.1484112 M12.1395349,7.09507954 C13.5635805,7.09507954 14.7222466,8.26194969 14.7222466,9.69607843 C14.7222466,11.1302072 13.5635805,12.2970773 12.1395349,12.2970773 C10.7154892,12.2970773 9.55682317,11.1302072 9.55682317,9.69607843 C9.55682317,8.26194969 10.7154892,7.09507954 12.1395349,7.09507954 M12.1395349,13.4901961 C14.2169592,13.4901961 15.9069767,11.7882122 15.9069767,9.69607843 C15.9069767,7.60394469 14.2169592,5.90196078 12.1395349,5.90196078 C10.0621106,5.90196078 8.37209302,7.60394469 8.37209302,9.69607843 C8.37209302,11.7882122 10.0621106,13.4901961 12.1395349,13.4901961 M24.4721409,12.0076332 C24.925223,11.5630201 25.5459629,11.3384099 26.1649624,11.3234359 L26.2368986,11.3234359 L26.24328,11.3234359 L26.2514019,11.3234359 C26.2693859,11.3234359 26.2844693,11.314797 26.3012931,11.3130692 C26.3593062,11.3078859 26.4167391,11.3009748 26.4689509,11.2796657 C26.4979574,11.2681472 26.5205825,11.2474139 26.5466884,11.2312881 C26.5838168,11.209403 26.6221054,11.1903975 26.6540126,11.1598735 C26.6859198,11.1287737 26.7079647,11.0890349 26.7323302,11.051024 C26.7474136,11.0274111 26.7688785,11.0101334 26.7804811,10.9836409 C27.3205828,9.78917515 28.7390024,9.25702166 29.9410332,9.79205477 C30.6081836,10.0898073 31.0949133,10.6645792 31.2764942,11.367782 C31.2776544,11.375269 31.2834557,11.3816042 31.2857763,11.3890912 C31.293318,11.4138559 31.3060808,11.4351651 31.3171033,11.4593539 C31.3356675,11.5008204 31.3559721,11.5399832 31.3832382,11.5745386 C31.3989018,11.5946959 31.4168858,11.6113977 31.43545,11.6298273 C31.4673572,11.6609272 31.5004246,11.6879956 31.5387133,11.7110325 C31.5607582,11.7242788 31.5822231,11.7363732 31.6060084,11.7467398 C31.6506785,11.7663212 31.6970889,11.7784156 31.7464001,11.7859026 C31.7626437,11.7887822 31.777147,11.797997 31.7939708,11.7997248 C33.03313,11.8936003 34.0036887,12.9337185 34.0025284,14.1684989 C34.0031086,14.8457852 33.7089823,15.4896679 33.1967269,15.9348569 C33.1949865,15.9365846 33.1938262,15.9388883 33.1920858,15.9406161 C33.1456754,15.9826585 33.1114476,16.0316121 33.0812808,16.085173 C33.0725789,16.0989951 33.0615564,16.1105136 33.0545948,16.1249117 C33.0348704,16.16753 33.0273287,16.2124521 33.0186267,16.258526 C33.0134056,16.2878981 33.0029632,16.3149665 33.0012228,16.3443386 C33.0006427,16.3742867 33.0093446,16.4036588 33.0134056,16.4341827 C33.0180466,16.4808325 33.0232678,16.5269064 33.0406717,16.5712526 C33.041832,16.5758599 33.0412518,16.5804673 33.0429922,16.5850747 C33.2895478,17.1679095 33.2918683,17.8117922 33.0499538,18.3963547 C32.8086194,18.9814932 32.3520565,19.4382007 31.7643841,19.6823923 C30.8947682,20.0429206 29.8923023,19.8615046 29.2083281,19.2205015 C29.1799017,19.1940091 29.145674,19.1819147 29.1137668,19.1623332 C29.0824398,19.1427518 29.0534332,19.1174112 29.0197857,19.104165 C28.9855579,19.0909187 28.9495898,19.0897669 28.9130416,19.0834317 C28.8759132,19.0765206 28.839365,19.0644262 28.8016565,19.0650021 C28.7645281,19.0655781 28.7308806,19.0782484 28.6943323,19.0857354 C28.6577841,19.0932224 28.6200756,19.0955261 28.5846876,19.1105001 C28.5487195,19.1254741 28.519713,19.1525425 28.4866455,19.1750036 C28.457639,19.194585 28.4251517,19.2066794 28.400206,19.23202 C27.9500246,19.6789368 27.3408873,19.9375265 26.6917211,19.926584 C26.0535773,19.9219766 25.4548824,19.6708739 25.0070215,19.2187738 C24.5585804,18.7672496 24.3149255,18.1700167 24.3195665,17.5295896 C24.3184063,17.0705784 24.4535767,16.6259653 24.7094144,16.2441279 C24.721017,16.2274261 24.7227574,16.2078447 24.7314594,16.190567 C24.7535043,16.1479486 24.774389,16.1070581 24.7848314,16.0615601 C24.7935333,16.0270047 24.7946936,15.994177 24.7970141,15.9596216 C24.7981744,15.9233384 24.801075,15.8882071 24.796434,15.8524998 C24.7906327,15.8087296 24.7761294,15.7689909 24.761046,15.7269484 C24.7511838,15.7021837 24.7436421,15.6768431 24.729719,15.6526543 C24.7041932,15.6060044 24.6699655,15.5662657 24.6305166,15.5271029 C24.6200743,15.5161604 24.6148531,15.5023382 24.6032505,15.4919716 C24.0672097,15.0387196 23.7614808,14.3769833 23.7649616,13.6778119 C23.7684424,13.0454477 24.019639,12.4522463 24.4721409,12.0076332 M23.1593051,17.52671 C23.1523435,18.4683452 23.5149252,19.3564195 24.1803352,20.0273706 C24.8457451,20.6983217 25.7345054,21.0715203 26.6830191,21.0784314 L26.7097051,21.0784314 C27.4719969,21.0784314 28.2174649,20.8261768 28.8266021,20.3781082 C29.4258772,20.7910455 30.1289956,21.0173835 30.8460372,21.0173835 C31.306661,21.0173835 31.7713457,20.9281153 32.212245,20.7443956 C33.0859219,20.3821396 33.7646748,19.7031256 34.1237758,18.8334808 C34.431245,18.0893874 34.4706939,17.2813665 34.2473436,16.5205713 C34.8326955,15.88072 35.16337,15.043327 35.1627899,14.1684989 C35.1639501,12.4700999 33.9259512,11.0210759 32.2807005,10.7060457 C31.9494458,9.8340972 31.2863564,9.12974253 30.4167404,8.74156996 C28.7448037,7.99459693 26.7926638,8.64366293 25.8917208,10.1842588 C25.0395088,10.2458826 24.263874,10.5920128 23.6564771,11.1892457 C22.9835255,11.850406 22.6099213,12.7321452 22.6047001,13.6720527 C22.6000591,14.5480326 22.9255124,15.3819701 23.5039027,16.0270047 C23.2770716,16.4946547 23.1575647,17.0060749 23.1593051,17.52671 M28.8837209,13.4812265 C29.8120435,13.4812265 30.567046,14.2415749 30.567046,15.1764706 C30.567046,16.1113663 29.8120435,16.8717146 28.8837209,16.8717146 C27.9553983,16.8717146 27.2003958,16.1113663 27.2003958,15.1764706 C27.2003958,14.2415749 27.9553983,13.4812265 28.8837209,13.4812265 M28.8837209,18.127451 C30.499713,18.127451 31.8139535,16.8039049 31.8139535,15.1764706 C31.8139535,13.5490363 30.499713,12.2254902 28.8837209,12.2254902 C27.2677288,12.2254902 25.9534884,13.5490363 25.9534884,15.1764706 C25.9534884,16.8039049 27.2677288,18.127451 28.8837209,18.127451" id="Fill-1"></path>
                        </g>
                    </g>
                </g>
            </g>
        </g>
    </g>
</svg>