<?xml version="1.0" encoding="UTF-8"?>
<svg width="16px" height="21px" viewBox="0 0 16 21" version="1.1" xmlns="http://www.w3.org/2000/svg" xmlns:xlink="http://www.w3.org/1999/xlink">
    <!-- Generator: Sketch 47.1 (45422) - http://www.bohemiancoding.com/sketch -->
    <title>Fill 8</title>
    <desc>Created with Sketch.</desc>
    <defs></defs>
    <g id="Conciergerie" stroke="none" stroke-width="1" fill="none" fill-rule="evenodd" opacity="0.5">
        <g id="Conciergerie-" transform="translate(-429.000000, -1262.000000)" fill="#525B74">
            <g id="section-/-About" transform="translate(355.000000, 860.000000)">
                <g id="component-/-Tabs" transform="translate(6.000000, 372.000000)">
                    <g id="Tab">
                        <g id="icon-/-Train" transform="translate(68.000000, 30.000000)">
                            <path d="M1.44706632,9.83383183 L14.5683927,9.83383183 L14.5683927,13.900454 C14.5683927,14.6028706 14.0028183,15.15741 13.324129,15.15741 L2.72903499,15.15741 C2.01264074,15.15741 1.44706632,14.6028706 1.44706632,13.900454 L1.44706632,9.83383183 Z M1.44706632,3.91874502 L14.5683927,3.91874502 L14.6060977,3.91874502 L14.6060977,8.72475305 L1.44706632,8.72475305 L1.44706632,3.91874502 Z M1.44706632,2.36603473 C1.44706632,1.66361817 2.01264074,1.10907878 2.69133003,1.10907878 L13.324129,1.10907878 C14.0405233,1.10907878 14.6060977,1.66361817 14.6060977,2.36603473 L14.6060977,2.80966624 L1.44706632,2.80966624 L1.44706632,2.36603473 Z M2.69133003,16.2664887 L13.324129,16.2664887 C14.6438026,16.2664887 15.7372465,15.1943793 15.7372465,13.900454 L15.7372465,2.36603473 C15.7372465,1.07210949 14.6438026,0 13.324129,0 L2.72903499,0 C1.40936136,0 0.315917499,1.07210949 0.315917499,2.36603473 L0.315917499,13.900454 C0.315917499,15.1943793 1.3716564,16.2664887 2.69133003,16.2664887 L2.69133003,16.2664887 Z M11.7027026,11.7931304 C12.1551621,11.7931304 12.4948838,12.1628233 12.4948838,12.5694855 C12.4948838,12.9761478 12.1551621,13.3458407 11.7027026,13.3458407 C11.250243,13.3458407 10.9108984,13.0131171 10.9108984,12.5694855 C10.9108984,12.125854 11.250243,11.7931304 11.7027026,11.7931304 M11.7027026,14.4549195 C12.7584415,14.4549195 13.6260326,13.6046257 13.6260326,12.5694855 C13.6260326,11.5343454 12.7584415,10.6840516 11.7027026,10.6840516 C10.6469637,10.6840516 9.77974956,11.5343454 9.77974956,12.5694855 C9.77974956,13.6046257 10.6469637,14.4549195 11.7027026,14.4549195 M4.31268106,11.7931304 C4.76514059,11.7931304 5.10448523,12.1628233 5.10448523,12.5694855 C5.10448523,12.9761478 4.76514059,13.3458407 4.31268106,13.3458407 C3.86022153,13.3458407 3.52087688,13.0131171 3.52087688,12.5694855 C3.52087688,12.125854 3.86022153,11.7931304 4.31268106,11.7931304 M4.31268106,14.4549195 C3.25694215,14.4549195 2.38972805,13.6046257 2.38972805,12.5694855 C2.38972805,11.5343454 3.25694215,10.6840516 4.31268106,10.6840516 C5.36841996,10.6840516 6.23563406,11.5343454 6.23563406,12.5694855 C6.23563406,13.6046257 5.36841996,14.4549195 4.31268106,14.4549195 Z M15.923132,20.1020159 C16.0739518,20.3608009 15.9985419,20.6935246 15.7346071,20.878371 C15.6595743,20.9523096 15.5460823,20.9523096 15.4329675,20.9523096 C15.2444427,20.9523096 15.0559179,20.878371 14.942803,20.6935246 L14.1159332,19.3718724 L1.89952586,19.3718724 L1.05719703,20.741215 C0.944082147,20.9260614 0.755557342,21 0.567032538,21 C0.453917656,21 0.378507734,20.9630307 0.265392851,20.9260614 C0.00145812502,20.7781842 -0.0739517967,20.4084913 0.0768680468,20.1497063 L2.08805066,17.0058376 L3.40772429,17.0058376 L2.57821515,18.2997629 L13.3995389,18.2997629 L12.6077347,17.0058376 L13.9274084,17.0058376 L15.923132,20.1020159 Z" id="Fill-8"></path>
                        </g>
                    </g>
                </g>
            </g>
        </g>
    </g>
</svg>