<?xml version="1.0" standalone="no"?>
<!DOCTYPE svg PUBLIC "-//W3C//DTD SVG 20010904//EN"
 "http://www.w3.org/TR/2001/REC-SVG-20010904/DTD/svg10.dtd">
<svg version="1.0" xmlns="http://www.w3.org/2000/svg"
 width="700.000000pt" height="700.000000pt" viewBox="0 0 700.000000 700.000000"
 preserveAspectRatio="xMidYMid meet">
<metadata>
Created by potrace 1.11, written by Peter Selinger 2001-2013
</metadata>
<g transform="translate(0.000000,700.000000) scale(0.100000,-0.100000)"
fill="#000000" stroke="none">
<path d="M3275 6554 c-16 -2 -77 -9 -135 -15 -439 -46 -907 -214 -1293 -463
-352 -227 -696 -571 -923 -923 -249 -387 -398 -798 -466 -1293 -17 -127 -17
-593 0 -720 81 -586 264 -1035 613 -1501 124 -166 402 -444 568 -568 466 -349
915 -532 1501 -613 127 -17 593 -17 720 0 586 81 1035 264 1501 613 166 124
444 402 568 568 347 463 533 918 613 1501 17 127 17 593 0 720 -68 490 -219
910 -466 1293 -227 352 -571 696 -923 923 -374 241 -791 395 -1252 460 -100
14 -557 28 -626 18z m626 -278 c277 -39 540 -110 768 -208 l46 -20 -72 -33
c-90 -42 -147 -81 -228 -156 l-64 -60 -118 60 c-380 192 -773 300 -1203 331
-283 21 -282 21 -50 58 113 18 248 37 300 42 130 12 492 4 621 -14z m-696
-340 c253 -41 514 -117 735 -216 95 -42 235 -113 248 -125 2 -2 -29 -62 -68
-134 -122 -222 -283 -598 -437 -1026 -36 -99 -159 -459 -273 -800 -207 -617
-333 -976 -428 -1215 -212 -537 -392 -846 -570 -980 -96 -71 -176 -95 -298
-87 -76 4 -107 11 -158 35 -104 49 -164 124 -181 228 l-6 41 60 6 c67 6 105
27 148 84 23 30 28 46 28 98 0 116 -76 185 -206 185 -111 0 -187 -57 -246
-185 -24 -52 -28 -75 -31 -181 l-4 -122 -76 82 c-304 329 -534 747 -647 1178
-92 353 -115 707 -70 1073 54 432 212 845 467 1223 l73 107 7 -100 c19 -260
97 -440 255 -585 250 -231 658 -208 809 46 37 62 55 164 43 233 -18 95 -83
181 -163 215 -45 19 -128 29 -167 21 -48 -11 -105 -69 -125 -127 -32 -97 0
-175 97 -234 32 -20 59 -38 59 -39 0 -2 -35 -8 -78 -14 -211 -31 -367 80 -448
319 -15 43 -19 84 -19 190 1 116 4 144 24 200 42 115 98 199 200 300 183 182
382 265 751 316 131 18 560 12 695 -10z m1722 -157 c35 -11 119 -90 129 -121
4 -12 -5 -30 -26 -54 -40 -46 -50 -73 -50 -132 1 -194 229 -272 362 -124 20
22 41 56 46 74 10 36 2 104 -17 152 -6 16 -10 30 -8 33 8 7 287 -288 357 -378
338 -435 540 -942 591 -1482 16 -178 7 -503 -21 -681 -43 -285 -128 -551 -260
-822 -83 -169 -232 -401 -343 -536 l-64 -77 -11 65 c-33 200 -187 312 -434
316 -80 1 -91 -1 -126 -26 -53 -36 -82 -91 -82 -155 0 -58 15 -93 57 -133 71
-68 189 -63 266 10 l29 27 19 -24 c37 -45 18 -145 -39 -204 -117 -124 -437
-145 -725 -48 -93 32 -304 134 -377 184 -61 42 -177 158 -234 237 -197 267
-332 626 -381 1010 -8 63 -13 116 -11 118 2 1 20 -19 40 -47 154 -210 444
-357 745 -377 330 -23 731 191 933 496 98 149 149 270 190 458 29 130 32 474
5 622 -43 234 -108 428 -214 643 -153 309 -370 577 -620 769 -51 39 -93 74
-93 77 0 8 86 82 123 106 64 41 157 50 244 24z m-420 -413 c207 -169 379 -382
507 -630 226 -440 290 -914 170 -1272 -166 -495 -696 -743 -1128 -529 -162 80
-268 189 -307 314 -55 178 -30 394 93 786 54 173 199 579 283 790 97 246 272
605 294 605 5 0 44 -29 88 -64z m-1106 -2861 c73 -363 257 -694 524 -946 283
-266 584 -391 999 -415 l119 -7 -62 -38 c-33 -22 -120 -70 -193 -108 -694
-362 -1511 -411 -2255 -136 -100 38 -416 185 -409 192 2 2 45 10 97 18 158 24
265 72 380 170 220 187 422 560 685 1260 l79 210 8 -50 c4 -27 17 -95 28 -150z"/>
</g>
</svg>
