<?xml version="1.0" encoding="UTF-8"?>
<svg width="29" height="42" viewBox="0 0 29 42" xmlns="http://www.w3.org/2000/svg">
  <g id="PCR" fill="none" fill-rule="evenodd">
    <g id="PCR---Contact-us" transform="translate(-842 -1023)" fill="#E79929">
      <g id="🔴-URL-to-Style-Map-🔴section-/-map" transform="translate(0 800)">
        <path d="M856.91 246.221a7.735 7.735 0 0 0 4.005-1.092 8.147 8.147 0 0 0 2.928-2.927 7.785 7.785 0 0 0 1.078-4.019c0-1.456-.36-2.81-1.078-4.058a8.054 8.054 0 0 0-2.928-2.965 7.735 7.735 0 0 0-4.005-1.093c-1.438 0-2.76.364-3.967 1.093a8.151 8.151 0 0 0-2.889 2.965 7.994 7.994 0 0 0-1.078 4.058c0 2.237.77 4.136 2.31 5.697 1.541 1.56 3.416 2.341 5.624 2.341zM856.5 223c2.658 0 5.1.656 7.325 1.969a14.722 14.722 0 0 1 5.232 5.3c1.295 2.255 1.943 4.729 1.943 7.42 0 2.054-.498 4.41-1.495 7.068-.864 2.255-2.06 4.695-3.587 7.32a96.649 96.649 0 0 1-4.336 6.512 78.494 78.494 0 0 1-3.587 4.644L856.5 265l-1.495-1.767a78.494 78.494 0 0 1-3.587-4.644 96.649 96.649 0 0 1-4.336-6.512c-1.528-2.625-2.723-5.065-3.587-7.32-.997-2.658-1.495-5.014-1.495-7.067 0-2.692.648-5.166 1.943-7.42a14.722 14.722 0 0 1 5.232-5.301c2.226-1.313 4.667-1.969 7.325-1.969z" id="location_on---material"/>
      </g>
    </g>
  </g>
</svg>
